<svg xmlns="http://www.w3.org/2000/svg" xmlns:xlink="http://www.w3.org/1999/xlink" width="100" height="68" version="1.1" viewBox="0 0 100 68"><title>accordion</title><desc>Created with Sketch.</desc><defs><rect id="path-1" width="100" height="68" x="0" y="0"/><linearGradient id="linearGradient-3" x1="0%" x2="106.266%" y1="0%" y2="109.896%"><stop offset="0%" stop-color="#C8EAF4" stop-opacity=".208"/><stop offset="100%" stop-color="#3DD0FF"/></linearGradient><rect id="path-4" width="72" height="26.99" x="14" y="9" rx="3"/><mask id="mask-5" width="72" height="26.99" x="0" y="0" fill="#fff" maskContentUnits="userSpaceOnUse" maskUnits="objectBoundingBox"><use xlink:href="#path-4"/></mask><rect id="path-6" width="72" height="8.706" x="14" y="38.673" rx="3"/><mask id="mask-7" width="72" height="8.706" x="0" y="0" fill="#fff" maskContentUnits="userSpaceOnUse" maskUnits="objectBoundingBox"><use xlink:href="#path-6"/></mask><rect id="path-8" width="72" height="8.706" x="14" y="50.019" rx="3"/><mask id="mask-9" width="72" height="8.706" x="0" y="0" fill="#fff" maskContentUnits="userSpaceOnUse" maskUnits="objectBoundingBox"><use xlink:href="#path-8"/></mask></defs><g id="Elements" fill="none" fill-rule="evenodd" stroke="none" stroke-width="1"><g id="accordion"><mask id="mask-2" fill="#fff"><use xlink:href="#path-1"/></mask><use id="BG" fill="#FFF" xlink:href="#path-1"/><g id="Rectangle-166-Copy" fill="url(#linearGradient-3)" fill-opacity=".15" stroke="#00A0D2" stroke-width="2" mask="url(#mask-2)"><use mask="url(#mask-5)" xlink:href="#path-4"/></g><path id="Shape" fill="#00A0D2" d="M34.9986535,20.9984291 C34.9986535,21.1025583 34.9584829,21.1947935 34.8781418,21.2751346 L29.2760323,26.8772442 C29.1956912,26.9575853 29.103456,26.9977558 28.9993268,26.9977558 C28.8951975,26.9977558 28.8029623,26.9575853 28.7226212,26.8772442 L23.1205117,21.2751346 C23.0401706,21.1947935 23,21.1025583 23,20.9984291 C23,20.8942998 23.0401706,20.8020646 23.1205117,20.7217235 L23.7217235,20.1205117 C23.8020646,20.0401706 23.8942998,20 23.9984291,20 C24.1025583,20 24.1947935,20.0401706 24.2751346,20.1205117 L29,24.845377 L33.7248654,20.1205117 C33.8052065,20.0401706 33.8974417,20 34.0015709,20 C34.1057002,20 34.1979354,20.0401706 34.2782765,20.1205117 L34.8794883,20.7217235 C34.9598294,20.8020646 35,20.8942998 35,20.9984291 L34.9986535,20.9984291 Z" mask="url(#mask-2)"/><g id="Rectangle-166-Copy" fill="#FFF" fill-opacity=".034" stroke="#00A0D2" stroke-width="2" mask="url(#mask-2)" opacity=".129"><use mask="url(#mask-7)" xlink:href="#path-6"/></g><g id="Rectangle-166-Copy" fill="#FFF" fill-opacity=".034" stroke="#00A0D2" stroke-width="2" mask="url(#mask-2)" opacity=".129"><use mask="url(#mask-9)" xlink:href="#path-8"/></g></g></g></svg>