<svg xmlns="http://www.w3.org/2000/svg" xmlns:xlink="http://www.w3.org/1999/xlink" width="100" height="68" version="1.1" viewBox="0 0 100 68"><title>blog_posts</title><desc>Created with Sketch.</desc><defs><rect id="path-1" width="100" height="68" x="0" y="0"/><linearGradient id="linearGradient-3" x1="0%" x2="106.266%" y1="0%" y2="109.896%"><stop offset="0%" stop-color="#C8EAF4" stop-opacity=".208"/><stop offset="100%" stop-color="#3DD0FF"/></linearGradient><rect id="path-4" width="40" height="48" x="0" y="0"/><mask id="mask-5" width="40" height="48" x="0" y="0" fill="#fff" maskContentUnits="userSpaceOnUse" maskUnits="objectBoundingBox"><use xlink:href="#path-4"/></mask><mask id="mask-7" width="40" height="48" x="0" y="0" fill="#fff" maskContentUnits="userSpaceOnUse" maskUnits="objectBoundingBox"><use xlink:href="#path-4"/></mask></defs><g id="Elements" fill="none" fill-rule="evenodd" stroke="none" stroke-width="1"><g id="blog_posts"><mask id="mask-2" fill="#fff"><use xlink:href="#path-1"/></mask><use id="BG" fill="#FFF" xlink:href="#path-1"/><g id="image" mask="url(#mask-2)"><g transform="translate(12.000000, 10.000000)"><mask id="mask-6" fill="#fff"><use xlink:href="#path-4"/></mask><g id="Mask" fill="url(#linearGradient-3)" fill-opacity=".15" fill-rule="evenodd" stroke="#00A0D2" stroke-width="2" mask="url(#mask-5)"><use mask="url(#mask-7)" xlink:href="#path-4"/></g><path id="Shape-Copy-6" fill="#00A0D2" fill-rule="evenodd" stroke="none" d="M24.3183147,33.7873964 C24.3183147,33.7873964 27.3302616,30.8497536 27.9863121,26.8990713 C29.7519362,26.8990713 30.8424687,22.698999 29.0768446,21.221578 C29.1512778,19.66676 31.3461909,9.01178536 20.2279523,9.01178536 C9.10971384,9.01178536 11.3046269,19.66676 11.37906,21.221578 C9.61343599,22.698999 10.7039685,26.8990713 12.4695925,26.8990713 C13.125643,30.8497536 16.139321,33.7873964 16.139321,33.7873964 C16.139321,33.7873964 16.1150869,36.5650855 15.0903326,36.7250391 C11.787577,37.2427384 -0.544095312,42.6003246 -0.544095312,48.4756101 L41,48.4756101 C41,42.6003246 28.6683277,37.2427384 25.3673031,36.7250391 C24.3425488,36.5650855 24.3183147,33.7873964 24.3183147,33.7873964 Z" mask="url(#mask-6)" opacity=".142"/></g></g><g id="date-box" fill="#00A0D2" mask="url(#mask-2)"><g id="Rectangle-494" transform="translate(12.000000, 21.000000)"><rect width="11" height="11" x="0" y="0"/></g></g><g id="headline" fill="#00A0D2" mask="url(#mask-2)" opacity=".6"><g transform="translate(61.000000, 21.000000)"><rect id="Rectangle-167-Copy-16" width="27" height="3" x="1.208" y="0"/><rect id="Rectangle-167-Copy-17" width="20" height="3" x="1.208" y="4.909"/><rect id="Rectangle-167-Copy-8" width="16" height="3" x=".965" y="18.456" fill-opacity=".532" opacity=".333"/><rect id="Rectangle-167-Copy-7" width="19" height="3" x=".965" y="13.423" fill-opacity=".532" opacity=".333"/></g></g></g></g></svg>