<svg xmlns="http://www.w3.org/2000/svg" xmlns:xlink="http://www.w3.org/1999/xlink" width="100" height="68" version="1.1" viewBox="0 0 100 68"><title>forms</title><desc>Created with Sketch.</desc><defs><rect id="path-1" width="100" height="68" x="0" y="0"/><path id="path-3" d="M0,3.47573517 C0,1.81703008 1.34269721,0.472383929 3.00472296,0.472383929 L61.995277,0.472383929 C63.6547397,0.472383929 65,1.81476278 65,3.47573517 L65,11.4690327 C65,13.1277378 63.662614,14.4723839 61.9931417,14.4723839 L28.6347656,14.4723839 L2.99683126,14.4723839 C1.34172706,14.4723839 0,13.1300051 0,11.4690327 L0,3.47573517 Z"/><mask id="mask-4" width="65" height="14" x="0" y="0" fill="#fff" maskContentUnits="userSpaceOnUse" maskUnits="objectBoundingBox"><use xlink:href="#path-3"/></mask><rect id="path-5" width="65" height="14" x="0" y="17.472" rx="3"/><mask id="mask-6" width="65" height="14" x="0" y="0" fill="#fff" maskContentUnits="userSpaceOnUse" maskUnits="objectBoundingBox"><use xlink:href="#path-5"/></mask><linearGradient id="linearGradient-7" x1="0%" x2="106.266%" y1="0%" y2="109.896%"><stop offset="0%" stop-color="#C8EAF4" stop-opacity=".208"/><stop offset="100%" stop-color="#3DD0FF"/></linearGradient><rect id="path-8" width="32" height="14" x="0" y="34.472" rx="3"/><mask id="mask-9" width="32" height="14" x="0" y="0" fill="#fff" maskContentUnits="userSpaceOnUse" maskUnits="objectBoundingBox"><use xlink:href="#path-8"/></mask></defs><g id="Elements" fill="none" fill-rule="evenodd" stroke="none" stroke-width="1"><g id="forms"><mask id="mask-2" fill="#fff"><use xlink:href="#path-1"/></mask><use id="BG" fill="#FFF" xlink:href="#path-1"/><g id="Rectangle-166-Copy-+-Shape-Copy-18" stroke="#00A0D2" stroke-width="2" mask="url(#mask-2)"><g id="Rectangle-166-Copy" transform="translate(17.000000, 10.000000)"><use fill="#FFF" fill-opacity=".034" mask="url(#mask-4)" opacity=".422" xlink:href="#path-3"/><use fill="#FFF" fill-opacity=".034" mask="url(#mask-6)" opacity=".422" xlink:href="#path-5"/><use fill="url(#linearGradient-7)" fill-opacity=".15" mask="url(#mask-9)" xlink:href="#path-8"/></g></g></g></g></svg>