<svg xmlns="http://www.w3.org/2000/svg" xmlns:xlink="http://www.w3.org/1999/xlink" width="100" height="68" version="1.1" viewBox="0 0 100 68"><title>image_box</title><desc>Created with Sketch.</desc><defs><rect id="path-1" width="100" height="68" x="0" y="0"/><linearGradient id="linearGradient-3" x1="0%" x2="106.266%" y1="0%" y2="109.896%"><stop offset="0%" stop-color="#C8EAF4" stop-opacity=".208"/><stop offset="100%" stop-color="#3DD0FF"/></linearGradient><rect id="path-4" width="64" height="57" x="0" y="0"/><mask id="mask-5" width="64" height="57" x="0" y="0" fill="#fff" maskContentUnits="userSpaceOnUse" maskUnits="objectBoundingBox"><use xlink:href="#path-4"/></mask><rect id="path-6" width="63.451" height="36.279" x="0" y="0"/></defs><g id="Elements" fill="none" fill-rule="evenodd" stroke="none" stroke-width="1"><g id="image_box"><mask id="mask-2" fill="#fff"><use xlink:href="#path-1"/></mask><use id="BG" fill="#FFF" xlink:href="#path-1"/><g id="image" mask="url(#mask-2)"><g transform="translate(18.000000, 5.000000)"><use id="Mask" fill="url(#linearGradient-3)" fill-opacity=".15" fill-rule="evenodd" stroke="#00A0D2" stroke-width="2" mask="url(#mask-5)" xlink:href="#path-4"/><mask id="mask-7" fill="#fff"><use xlink:href="#path-6"/></mask><use id="Mask" fill="#00A0D2" fill-rule="evenodd" stroke="none" opacity=".142" xlink:href="#path-6"/><path id="Shape-Copy-6" fill="#00A0D2" fill-rule="evenodd" stroke="none" d="M36.1818164,21.0739005 C36.1818164,21.0739005 39.5048066,17.8328878 40.2286074,13.4742191 C42.1765672,13.4742191 43.3797188,8.84040593 41.431759,7.21041185 C41.5138789,5.4950281 43.9354603,-6.26028425 31.6690429,-6.26028425 C19.4026255,-6.26028425 21.8242069,5.4950281 21.9063268,7.21041185 C19.958367,8.84040593 21.1615186,13.4742191 23.1094784,13.4742191 C23.8332792,17.8328878 27.1581792,21.0739005 27.1581792,21.0739005 C27.1581792,21.0739005 27.1314425,24.1384411 26.0008619,24.3149131 C22.3570312,24.8860752 8.75186895,30.7969385 8.75186895,37.2789638 L54.5862169,37.2789638 C54.5862169,30.7969385 40.9810546,24.8860752 37.3391337,24.3149131 C36.2085531,24.1384411 36.1818164,21.0739005 36.1818164,21.0739005 Z" mask="url(#mask-7)" opacity=".142"/></g></g><g id="text-small" fill="#00A0D2" fill-opacity=".532" mask="url(#mask-2)" opacity=".6"><g opacity=".333" transform="translate(38.000000, 48.000000)"><rect id="Rectangle-167-Copy-14" width="23" height="2" x="0" y="0"/><rect id="Rectangle-167-Copy-15" width="17" height="2" x="3" y="4"/></g></g></g></g></svg>