<svg xmlns="http://www.w3.org/2000/svg" xmlns:xlink="http://www.w3.org/1999/xlink" width="100" height="68" version="1.1" viewBox="0 0 100 68"><title>lightbox</title><desc>Created with Sketch.</desc><defs><rect id="path-1" width="100" height="68" x="0" y="0"/><linearGradient id="linearGradient-3" x1="0%" x2="106.266%" y1="0%" y2="109.896%"><stop offset="0%" stop-color="#C8EAF4" stop-opacity=".208"/><stop offset="100%" stop-color="#3DD0FF"/></linearGradient><rect id="path-4" width="72" height="43.539" x="0" y="0"/><filter id="filter-6" width="200%" height="200%" x="-50%" y="-50%" filterUnits="objectBoundingBox"><feOffset dx="0" dy="2" in="SourceAlpha" result="shadowOffsetOuter1"/><feGaussianBlur in="shadowOffsetOuter1" result="shadowBlurOuter1" stdDeviation="2"/><feComposite in="shadowBlurOuter1" in2="SourceAlpha" operator="out" result="shadowBlurOuter1"/><feColorMatrix in="shadowBlurOuter1" type="matrix" values="0 0 0 0 0 0 0 0 0 0 0 0 0 0 0 0 0 0 0.125764266 0"/></filter><mask id="mask-7" width="72" height="43.539" x="0" y="0" fill="#fff" maskContentUnits="userSpaceOnUse" maskUnits="objectBoundingBox"><use xlink:href="#path-4"/></mask></defs><g id="Elements" fill="none" fill-rule="evenodd" stroke="none" stroke-width="1"><g id="lightbox"><mask id="mask-2" fill="#fff"><use xlink:href="#path-1"/></mask><use id="BG" fill="#FFF" xlink:href="#path-1"/><g id="headline" mask="url(#mask-2)" opacity=".6"><g id="Group-2"><g transform="translate(14.000000, 11.000000)"><mask id="mask-5" fill="#fff"><use xlink:href="#path-4"/></mask><g id="Rectangle-486-Copy"><use fill="#000" fill-opacity="1" filter="url(#filter-6)" xlink:href="#path-4"/><use fill="url(#linearGradient-3)" fill-opacity=".15" fill-rule="evenodd" stroke="#00A0D2" stroke-width="2" mask="url(#mask-7)" xlink:href="#path-4"/></g><rect id="Rectangle-486-Copy" width="120" height="82" x="-25" y="-16" fill="#00A0D2" mask="url(#mask-5)" opacity=".142"/><path id="Shape-Copy-6" fill="#00A0D2" d="M50.1818164,27.0739005 C50.1818164,27.0739005 53.5048066,23.8328878 54.2286074,19.4742191 C56.1765672,19.4742191 57.3797188,14.8404059 55.431759,13.2104119 C55.5138789,11.4950281 57.9354603,-0.260284249 45.6690429,-0.260284249 C33.4026255,-0.260284249 35.8242069,11.4950281 35.9063268,13.2104119 C33.958367,14.8404059 35.1615186,19.4742191 37.1094784,19.4742191 C37.8332792,23.8328878 41.1581792,27.0739005 41.1581792,27.0739005 C41.1581792,27.0739005 41.1314425,30.1384411 40.0008619,30.3149131 C36.3570312,30.8860752 22.7518689,36.7969385 22.7518689,43.2789638 L68.5862169,43.2789638 C68.5862169,36.7969385 54.9810546,30.8860752 51.3391337,30.3149131 C50.2085531,30.1384411 50.1818164,27.0739005 50.1818164,27.0739005 Z" mask="url(#mask-5)" opacity=".142"/><rect id="Rectangle-167-Copy-16" width="22.361" height="3.42" x="10.161" y="9" fill="#00A0D2" mask="url(#mask-5)"/><rect id="Rectangle-167-Copy-17" width="16.527" height="3.42" x="10.161" y="15.841" fill="#00A0D2" mask="url(#mask-5)"/><rect id="Rectangle-167-Copy-8" width="13.563" height="3.197" x="9.965" y="30.538" fill="#00A0D2" fill-opacity=".532" mask="url(#mask-5)" opacity=".333"/><rect id="Rectangle-167-Copy-7" width="16.063" height="3.197" x="9.965" y="23.525" fill="#00A0D2" fill-opacity=".532" mask="url(#mask-5)" opacity=".333"/></g></g></g><rect id="Rectangle-494" width="9" height="9" x="80" y="8" fill="#00A0D2" mask="url(#mask-2)" rx="4.5"/></g></g></svg>