<svg xmlns="http://www.w3.org/2000/svg" xmlns:xlink="http://www.w3.org/1999/xlink" width="100" height="68" version="1.1" viewBox="0 0 100 68"><title>message_box</title><desc>Created with Sketch.</desc><defs><rect id="path-1" width="100" height="68" x="0" y="0"/><linearGradient id="linearGradient-3" x1="0%" x2="106.266%" y1="0%" y2="109.896%"><stop offset="0%" stop-color="#C8EAF4" stop-opacity=".208"/><stop offset="100%" stop-color="#3DD0FF"/></linearGradient><rect id="path-4" width="83.197" height="32.703" x="9" y="17"/><mask id="mask-5" width="83.197" height="32.703" x="0" y="0" fill="#fff" maskContentUnits="userSpaceOnUse" maskUnits="objectBoundingBox"><use xlink:href="#path-4"/></mask><mask id="mask-7" width="83.197" height="32.703" x="0" y="0" fill="#fff" maskContentUnits="userSpaceOnUse" maskUnits="objectBoundingBox"><use xlink:href="#path-4"/></mask></defs><g id="Elements" fill="none" fill-rule="evenodd" stroke="none" stroke-width="1"><g id="message_box"><mask id="mask-2" fill="#fff"><use xlink:href="#path-1"/></mask><use id="BG" fill="#FFF" xlink:href="#path-1"/><mask id="mask-6" fill="#fff"><use xlink:href="#path-4"/></mask><g id="Rectangle-486-Copy-4" fill="url(#linearGradient-3)" fill-opacity=".15" stroke="#00A0D2" stroke-width="2" mask="url(#mask-5)"><use mask="url(#mask-7)" xlink:href="#path-4"/></g><g id="text" fill="#00A0D2" mask="url(#mask-6)"><g transform="translate(16.000000, 29.000000)"><rect id="Rectangle-166" width="20" height="7.06" x="50" y="0" rx="3"/><rect id="Rectangle-167-Copy" width="23" height="2" x="0" y="1" fill-opacity=".532" opacity=".333"/><rect id="Rectangle-167-Copy-2" width="17" height="2" x="0" y="5" fill-opacity=".532" opacity=".333"/></g></g><path id="Shape-Copy-6" fill="#00A0D2" d="M54.7414167,37.0588907 C54.7414167,37.0588907 57.4964167,34.4604552 58.0965,30.965955 C59.7115,30.965955 60.709,27.2508616 59.094,25.9440372 C59.1620833,24.5687529 61.16975,15.1440995 51,15.1440995 C40.83025,15.1440995 42.8379167,24.5687529 42.906,25.9440372 C41.291,27.2508616 42.2885,30.965955 43.9035,30.965955 C44.5035833,34.4604552 47.2601667,37.0588907 47.2601667,37.0588907 C47.2601667,37.0588907 47.238,39.5158423 46.3006667,39.6573262 C43.2796667,40.1152472 32,44.8541972 32,50.0510682 L70,50.0510682 C70,44.8541972 58.7203333,40.1152472 55.7009167,39.6573262 C54.7635833,39.5158423 54.7414167,37.0588907 54.7414167,37.0588907 Z" mask="url(#mask-6)" opacity=".142"/></g></g></svg>