<svg xmlns="http://www.w3.org/2000/svg" xmlns:xlink="http://www.w3.org/1999/xlink" width="100" height="68" version="1.1" viewBox="0 0 100 68"><title>row-image-left</title><desc>Created with Sketch.</desc><defs><rect id="path-1" width="100" height="68" x="0" y="0"/><linearGradient id="linearGradient-3" x1="0%" x2="106.266%" y1="0%" y2="109.896%"><stop offset="0%" stop-color="#C8EAF4" stop-opacity=".208"/><stop offset="100%" stop-color="#3DD0FF"/></linearGradient><rect id="path-4" width="36.016" height="43" x="53" y="13"/><mask id="mask-5" width="36.016" height="43" x="0" y="0" fill="#fff" maskContentUnits="userSpaceOnUse" maskUnits="objectBoundingBox"><use xlink:href="#path-4"/></mask><rect id="path-6" width="36.016" height="43" x="12" y="13"/><mask id="mask-7" width="36.016" height="43" x="0" y="0" fill="#fff" maskContentUnits="userSpaceOnUse" maskUnits="objectBoundingBox"><use xlink:href="#path-6"/></mask></defs><g id="Row-Presets" fill="none" fill-rule="evenodd" stroke="none" stroke-width="1"><g id="row-image-left"><mask id="mask-2" fill="#fff"><use xlink:href="#path-1"/></mask><use id="BG" fill="#FFF" xlink:href="#path-1"/><g id="Rectangle-486-Copy" fill="url(#linearGradient-3)" fill-opacity=".15" stroke="#00A0D2" stroke-width="2" mask="url(#mask-2)"><use mask="url(#mask-5)" xlink:href="#path-4"/></g><g id="Rectangle-486-Copy" fill="url(#linearGradient-3)" fill-opacity=".15" stroke="#00A0D2" stroke-width="2" mask="url(#mask-2)"><use mask="url(#mask-7)" xlink:href="#path-6"/></g><path id="Shape-Copy-6" fill="#00A0D2" d="M34.5445,42.4408312 C34.5445,42.4408312 37.1545,39.946743 37.723,36.5925741 C39.253,36.5925741 40.198,33.0266706 38.668,31.7723254 C38.7325,30.4522693 40.6345,21.406089 31,21.406089 C21.3655,21.406089 23.2675,30.4522693 23.332,31.7723254 C21.802,33.0266706 22.747,36.5925741 24.277,36.5925741 C24.8455,39.946743 27.457,42.4408312 27.457,42.4408312 C27.457,42.4408312 27.436,44.7991171 26.548,44.9349193 C23.686,45.3744512 13,49.9230956 13,54.9112718 L49,54.9112718 C49,49.9230956 38.314,45.3744512 35.4535,44.9349193 C34.5655,44.7991171 34.5445,42.4408312 34.5445,42.4408312 Z" mask="url(#mask-2)" opacity=".142"/></g></g></svg>