<svg xmlns="http://www.w3.org/2000/svg" xmlns:xlink="http://www.w3.org/1999/xlink" width="100" height="68" version="1.1" viewBox="0 0 100 68"><title>row-image-right-large</title><desc>Created with Sketch.</desc><defs><rect id="path-1" width="100" height="68" x="0" y="0"/><linearGradient id="linearGradient-3" x1="0%" x2="106.266%" y1="0%" y2="109.896%"><stop offset="0%" stop-color="#C8EAF4" stop-opacity=".208"/><stop offset="100%" stop-color="#3DD0FF"/></linearGradient><rect id="path-4" width="36.016" height="43" x="8" y="13"/><mask id="mask-5" width="36.016" height="43" x="0" y="0" fill="#fff" maskContentUnits="userSpaceOnUse" maskUnits="objectBoundingBox"><use xlink:href="#path-4"/></mask><rect id="path-6" width="54.016" height="54.911" x="49.984" y="8"/><mask id="mask-7" width="54.016" height="54.911" x="0" y="0" fill="#fff" maskContentUnits="userSpaceOnUse" maskUnits="objectBoundingBox"><use xlink:href="#path-6"/></mask></defs><g id="Row-Presets" fill="none" fill-rule="evenodd" stroke="none" stroke-width="1"><g id="row-image-right-large"><mask id="mask-2" fill="#fff"><use xlink:href="#path-1"/></mask><use id="BG" fill="#FFF" xlink:href="#path-1"/><g id="Rectangle-486-Copy" fill="url(#linearGradient-3)" fill-opacity=".15" stroke="#00A0D2" stroke-width="2" mask="url(#mask-2)"><use mask="url(#mask-5)" xlink:href="#path-4"/></g><g id="Rectangle-486-Copy" fill="url(#linearGradient-3)" fill-opacity=".15" stroke="#00A0D2" stroke-width="2" mask="url(#mask-2)"><use mask="url(#mask-7)" xlink:href="#path-6"/></g><path id="Shape-Copy-6" fill="#00A0D2" d="M85.1198333,44.8984131 C85.1198333,44.8984131 88.8898333,41.2958413 89.711,36.4509307 C91.921,36.4509307 93.286,31.3001812 91.076,29.4883491 C91.1691667,27.5816016 93.9165,14.5148967 80,14.5148967 C66.0835,14.5148967 68.8308333,27.5816016 68.924,29.4883491 C66.714,31.3001812 68.079,36.4509307 70.289,36.4509307 C71.1101667,41.2958413 74.8823333,44.8984131 74.8823333,44.8984131 C74.8823333,44.8984131 74.852,48.3048261 73.5693333,48.5009848 C69.4353333,49.1358643 54,55.7061283 54,62.9112718 L106,62.9112718 C106,55.7061283 90.5646667,49.1358643 86.4328333,48.5009848 C85.1501667,48.3048261 85.1198333,44.8984131 85.1198333,44.8984131 Z" mask="url(#mask-2)" opacity=".142"/></g></g></svg>