<svg xmlns="http://www.w3.org/2000/svg" xmlns:xlink="http://www.w3.org/1999/xlink" width="100" height="68" version="1.1" viewBox="0 0 100 68"><title>row-image-left-large</title><desc>Created with Sketch.</desc><defs><rect id="path-1" width="100" height="68" x="0" y="0"/><linearGradient id="linearGradient-3" x1="0%" x2="106.266%" y1="0%" y2="109.896%"><stop offset="0%" stop-color="#C8EAF4" stop-opacity=".208"/><stop offset="100%" stop-color="#3DD0FF"/></linearGradient><rect id="path-4" width="36.016" height="43" x="56" y="13"/><mask id="mask-5" width="36.016" height="43" x="0" y="0" fill="#fff" maskContentUnits="userSpaceOnUse" maskUnits="objectBoundingBox"><use xlink:href="#path-4"/></mask><rect id="path-6" width="54.016" height="54.911" x="-4.016" y="8"/><mask id="mask-7" width="54.016" height="54.911" x="0" y="0" fill="#fff" maskContentUnits="userSpaceOnUse" maskUnits="objectBoundingBox"><use xlink:href="#path-6"/></mask></defs><g id="Row-Presets" fill="none" fill-rule="evenodd" stroke="none" stroke-width="1"><g id="row-image-left-large"><mask id="mask-2" fill="#fff"><use xlink:href="#path-1"/></mask><use id="BG" fill="#FFF" xlink:href="#path-1"/><g id="Rectangle-486-Copy" fill="url(#linearGradient-3)" fill-opacity=".15" stroke="#00A0D2" stroke-width="2" mask="url(#mask-2)"><use mask="url(#mask-5)" xlink:href="#path-4"/></g><g id="Rectangle-486-Copy" fill="url(#linearGradient-3)" fill-opacity=".15" stroke="#00A0D2" stroke-width="2" mask="url(#mask-2)"><use mask="url(#mask-7)" xlink:href="#path-6"/></g><path id="Shape-Copy-6" fill="#00A0D2" d="M31.1198333,44.8984131 C31.1198333,44.8984131 34.8898333,41.2958413 35.711,36.4509307 C37.921,36.4509307 39.286,31.3001812 37.076,29.4883491 C37.1691667,27.5816016 39.9165,14.5148967 26,14.5148967 C12.0835,14.5148967 14.8308333,27.5816016 14.924,29.4883491 C12.714,31.3001812 14.079,36.4509307 16.289,36.4509307 C17.1101667,41.2958413 20.8823333,44.8984131 20.8823333,44.8984131 C20.8823333,44.8984131 20.852,48.3048261 19.5693333,48.5009848 C15.4353333,49.1358643 0,55.7061283 0,62.9112718 L52,62.9112718 C52,55.7061283 36.5646667,49.1358643 32.4328333,48.5009848 C31.1501667,48.3048261 31.1198333,44.8984131 31.1198333,44.8984131 Z" mask="url(#mask-2)" opacity=".142"/></g></g></svg>