<svg xmlns="http://www.w3.org/2000/svg" xmlns:xlink="http://www.w3.org/1999/xlink" width="100" height="72" version="1.1" viewBox="0 0 100 72"><title>account-icon-image</title><desc>Created with Sketch.</desc><defs><rect id="path-1" width="100" height="71.429" x="0" y="0" rx="4"/><mask id="mask-2" width="100" height="71.429" x="0" y="0" fill="#fff" maskContentUnits="userSpaceOnUse" maskUnits="objectBoundingBox"><use xlink:href="#path-1"/></mask><mask id="mask-4" width="100" height="71.429" x="0" y="0" fill="#fff" maskContentUnits="userSpaceOnUse" maskUnits="objectBoundingBox"><use xlink:href="#path-1"/></mask><linearGradient id="linearGradient-5" x1="274.067%" x2="27.612%" y1="-34.406%" y2="100%"><stop offset="0%" stop-color="#FFF"/><stop offset="42.978%" stop-color="#8064E0"/><stop offset="100%" stop-color="#00A0D2"/></linearGradient><rect id="path-6" width="52.929" height="53.446" x="24.308" y="8.281" rx="26.465"/></defs><g id="Page-1" fill="none" fill-rule="evenodd" stroke="none" stroke-width="1"><g id="account-icon-image"><mask id="mask-3" fill="#fff"><use xlink:href="#path-1"/></mask><g id="Mask" fill="#00A0D2" fill-opacity=".01" stroke="#3498DB" stroke-width="2" mask="url(#mask-2)"><use mask="url(#mask-4)" xlink:href="#path-1"/></g><mask id="mask-7" fill="#fff"><use xlink:href="#path-6"/></mask><use id="Rectangle-166-Copy-4" fill="url(#linearGradient-5)" xlink:href="#path-6"/><path id="Path" fill="#FFF" fill-opacity=".128" d="M55.1344535,45.2167237 C55.1344535,45.2167237 58.5427908,41.8710684 59.2851815,37.3716714 C61.2831724,37.3716714 62.5172255,32.5882462 60.5192347,30.9056245 C60.6034637,29.1348562 63.0872406,17 50.5057747,17 C37.9243088,17 40.4080856,29.1348562 40.4923147,30.9056245 C38.4943238,32.5882462 39.728377,37.3716714 41.7263678,37.3716714 C42.4687586,41.8710684 45.8790547,45.2167237 45.8790547,45.2167237 C45.8790547,45.2167237 45.8516313,48.3802092 44.6920131,48.5623789 C40.9545949,49.1519821 27,55.2536895 27,61.945 L74.0115494,61.945 C74.0115494,55.2536895 60.0569545,49.1519821 56.3214951,48.5623789 C55.1618769,48.3802092 55.1344535,45.2167237 55.1344535,45.2167237 Z" mask="url(#mask-7)"/></g></g></svg>