<svg xmlns="http://www.w3.org/2000/svg" xmlns:xlink="http://www.w3.org/1999/xlink" width="100" height="72" version="1.1" viewBox="0 0 100 72"><title>account-icon-fill</title><desc>Created with Sketch.</desc><defs><rect id="path-1" width="100" height="71.429" x="0" y="0" rx="4"/><mask id="mask-2" width="100" height="71.429" x="0" y="0" fill="#fff" maskContentUnits="userSpaceOnUse" maskUnits="objectBoundingBox"><use xlink:href="#path-1"/></mask><mask id="mask-4" width="100" height="71.429" x="0" y="0" fill="#fff" maskContentUnits="userSpaceOnUse" maskUnits="objectBoundingBox"><use xlink:href="#path-1"/></mask></defs><g id="Page-1" fill="none" fill-rule="evenodd" stroke="none" stroke-width="1"><g id="account-icon-fill"><mask id="mask-3" fill="#fff"><use xlink:href="#path-1"/></mask><g id="Mask" fill="#00A0D2" fill-opacity=".01" stroke="#3498DB" stroke-width="2" mask="url(#mask-2)"><use mask="url(#mask-4)" xlink:href="#path-1"/></g><rect id="Rectangle-166-Copy-4" width="52.929" height="53.446" x="24.308" y="8.281" fill="#3498DB" mask="url(#mask-3)" rx="26.465"/><path id="Path" fill="#FFF" d="M53.95375,38.00625 C53.95375,38.00625 56.12875,35.87125 56.6025,33 C57.8775,33 58.665,29.9475 57.39,28.87375 C57.44375,27.74375 59.02875,20 51,20 C42.97125,20 44.55625,27.74375 44.61,28.87375 C43.335,29.9475 44.1225,33 45.3975,33 C45.87125,35.87125 48.0475,38.00625 48.0475,38.00625 C48.0475,38.00625 48.03,40.025 47.29,40.14125 C44.905,40.5175 36,44.41125 36,48.68125 L66,48.68125 C66,44.41125 57.095,40.5175 54.71125,40.14125 C53.97125,40.025 53.95375,38.00625 53.95375,38.00625 Z" mask="url(#mask-3)"/></g></g></svg>