<svg xmlns="http://www.w3.org/2000/svg" xmlns:xlink="http://www.w3.org/1999/xlink" width="72" height="52" version="1.1" viewBox="0 0 72 52"><title>dropdown-style-3</title><desc>Created with Sketch.</desc><defs><rect id="path-1" width="70" height="50" x="0" y="0" rx="4"/><mask id="mask-3" width="72" height="52" x="-1" y="-1" maskContentUnits="userSpaceOnUse" maskUnits="objectBoundingBox"><rect width="72" height="52" x="-1" y="-1" fill="#fff"/><use fill="#000" xlink:href="#path-1"/></mask><rect id="path-4" width="86" height="66" x="-10" y="-4" rx="2"/><mask id="mask-5" width="86" height="66" x="0" y="0" fill="#fff" maskContentUnits="userSpaceOnUse" maskUnits="objectBoundingBox"><use xlink:href="#path-4"/></mask></defs><g id="Page-1" fill="none" fill-rule="evenodd" stroke="none" stroke-width="1"><g id="dropdown-style-3" transform="translate(1.000000, 1.000000)"><mask id="mask-2" fill="#fff"><use xlink:href="#path-1"/></mask><g id="Mask"><use fill="#9CD6E8" fill-opacity=".1" fill-rule="evenodd" xlink:href="#path-1"/><use stroke="#9BD6E8" stroke-width="2" mask="url(#mask-3)" xlink:href="#path-1"/></g><g id="Rectangle-486" fill="#FFF" stroke="#9BD6E8" stroke-width="2" mask="url(#mask-2)"><use mask="url(#mask-5)" xlink:href="#path-4"/></g><path id="Rectangle-491" fill="#9BD6E8" d="M11,28.9987856 C11,27.3426021 12.3517805,26 14.0004442,26 L53.9995558,26 C55.6566554,26 57,27.3422643 57,28.9987856 L57,36.0012144 C57,37.6573979 55.6482195,39 53.9995558,39 L14.0004442,39 C12.3433446,39 11,37.6577357 11,36.0012144 L11,28.9987856 Z" mask="url(#mask-2)"/><text id="Link" fill="#9BD6E8" font-family="Lato-Regular, Lato" font-size="10" font-weight="normal" line-spacing="16" mask="url(#mask-2)"><tspan x="15" y="17">Link</tspan></text><text id="Link" fill="#FFF" font-family="Lato-Regular, Lato" font-size="10" font-weight="normal" line-spacing="16" mask="url(#mask-2)"><tspan x="16" y="34">Link</tspan></text></g></g></svg>