<svg xmlns="http://www.w3.org/2000/svg" xmlns:xlink="http://www.w3.org/1999/xlink" width="72" height="52" version="1.1" viewBox="0 0 72 52"><title>overlay-left</title><desc>Created with Sketch.</desc><defs><rect id="path-1" width="70" height="50" x="0" y="0" rx="4"/><mask id="mask-3" width="72" height="52" x="-1" y="-1" maskContentUnits="userSpaceOnUse" maskUnits="objectBoundingBox"><rect width="72" height="52" x="-1" y="-1" fill="#fff"/><use fill="#000" xlink:href="#path-1"/></mask><rect id="path-4" width="23" height="86" x="0" y="-36"/><mask id="mask-5" width="25" height="88" x="-1" y="-1" maskContentUnits="userSpaceOnUse" maskUnits="objectBoundingBox"><rect width="25" height="88" x="-1" y="-37" fill="#fff"/><use fill="#000" xlink:href="#path-4"/></mask></defs><g id="Page-1" fill="none" fill-rule="evenodd" stroke="none" stroke-width="1"><g id="overlay-left" transform="translate(1.000000, 1.000000)"><mask id="mask-2" fill="#fff"><use xlink:href="#path-1"/></mask><g id="Mask"><use fill="#00A0D2" fill-opacity=".01" fill-rule="evenodd" xlink:href="#path-1"/><use stroke="#3498DB" stroke-width="2" mask="url(#mask-3)" xlink:href="#path-1"/></g><g id="Rectangle-5-Copy-7" mask="url(#mask-2)"><use fill="#3498DB" fill-opacity=".128" fill-rule="evenodd" xlink:href="#path-4"/><use stroke="#3498DB" stroke-width="2" mask="url(#mask-5)" xlink:href="#path-4"/></g><polygon id="Line" fill="#3498DB" points="4.958 17 19.1 17 19.6 17 19.6 16 19.1 16 4.958 16 4.458 16 4.458 17" mask="url(#mask-2)"/><polygon id="Line" fill="#3498DB" points="4.958 20 19.1 20 19.6 20 19.6 19 19.1 19 4.958 19 4.458 19 4.458 20" mask="url(#mask-2)"/><polygon id="Line" fill="#3498DB" points="4.958 23 19.1 23 19.6 23 19.6 22 19.1 22 4.958 22 4.458 22 4.458 23" mask="url(#mask-2)"/><polygon id="Line" fill="#3498DB" points="4.958 26 19.1 26 19.6 26 19.6 25 19.1 25 4.958 25 4.458 25 4.458 26" mask="url(#mask-2)"/><polygon id="Line" fill="#3498DB" points="4.958 29 19.1 29 19.6 29 19.6 28 19.1 28 4.958 28 4.458 28 4.458 29" mask="url(#mask-2)"/><polygon id="Line" fill="#3498DB" points="4.958 32 19.1 32 19.6 32 19.6 31 19.1 31 4.958 31 4.458 31 4.458 32" mask="url(#mask-2)"/></g></g></svg>