<svg xmlns="http://www.w3.org/2000/svg" xmlns:xlink="http://www.w3.org/1999/xlink" width="72" height="52" version="1.1" viewBox="0 0 72 52"><title>overlay-right</title><desc>Created with Sketch.</desc><defs><rect id="path-1" width="70" height="50" x="0" y="0" rx="4"/><mask id="mask-3" width="72" height="52" x="-1" y="-1" maskContentUnits="userSpaceOnUse" maskUnits="objectBoundingBox"><rect width="72" height="52" x="-1" y="-1" fill="#fff"/><use fill="#000" xlink:href="#path-1"/></mask><rect id="path-4" width="23" height="96" x="47" y="-36"/><mask id="mask-5" width="25" height="98" x="-1" y="-1" maskContentUnits="userSpaceOnUse" maskUnits="objectBoundingBox"><rect width="25" height="98" x="46" y="-37" fill="#fff"/><use fill="#000" xlink:href="#path-4"/></mask></defs><g id="Page-1" fill="none" fill-rule="evenodd" stroke="none" stroke-width="1"><g id="overlay-right" transform="translate(1.000000, 1.000000)"><mask id="mask-2" fill="#fff"><use xlink:href="#path-1"/></mask><g id="Mask"><use fill="#00A0D2" fill-opacity=".01" fill-rule="evenodd" xlink:href="#path-1"/><use stroke="#3498DB" stroke-width="2" mask="url(#mask-3)" xlink:href="#path-1"/></g><g id="Rectangle-5-Copy-7" mask="url(#mask-2)"><use fill="#3498DB" fill-opacity=".128" fill-rule="evenodd" xlink:href="#path-4"/><use stroke="#3498DB" stroke-width="2" mask="url(#mask-5)" xlink:href="#path-4"/></g><polygon id="Line" fill="#3498DB" points="51.958 18 66.1 18 66.6 18 66.6 17 66.1 17 51.958 17 51.458 17 51.458 18" mask="url(#mask-2)"/><polygon id="Line" fill="#3498DB" points="51.958 21 66.1 21 66.6 21 66.6 20 66.1 20 51.958 20 51.458 20 51.458 21" mask="url(#mask-2)"/><polygon id="Line" fill="#3498DB" points="51.958 24 66.1 24 66.6 24 66.6 23 66.1 23 51.958 23 51.458 23 51.458 24" mask="url(#mask-2)"/><polygon id="Line" fill="#3498DB" points="51.958 27 66.1 27 66.6 27 66.6 26 66.1 26 51.958 26 51.458 26 51.458 27" mask="url(#mask-2)"/><polygon id="Line" fill="#3498DB" points="51.958 30 66.1 30 66.6 30 66.6 29 66.1 29 51.958 29 51.458 29 51.458 30" mask="url(#mask-2)"/><polygon id="Line" fill="#3498DB" points="51.958 33 66.1 33 66.6 33 66.6 32 66.1 32 51.958 32 51.458 32 51.458 33" mask="url(#mask-2)"/></g></g></svg>