<svg xmlns="http://www.w3.org/2000/svg" xmlns:xlink="http://www.w3.org/1999/xlink" width="100" height="72" version="1.1" viewBox="0 0 100 72"><title>search-icon-outline-round</title><desc>Created with Sketch.</desc><defs><rect id="path-1" width="100" height="71.429" x="0" y="0" rx="4"/><mask id="mask-2" width="100" height="71.429" x="0" y="0" fill="#fff" maskContentUnits="userSpaceOnUse" maskUnits="objectBoundingBox"><use xlink:href="#path-1"/></mask><mask id="mask-4" width="100" height="71.429" x="0" y="0" fill="#fff" maskContentUnits="userSpaceOnUse" maskUnits="objectBoundingBox"><use xlink:href="#path-1"/></mask><rect id="path-5" width="52.929" height="53.446" x="23.308" y="8.281" rx="8"/><mask id="mask-6" width="52.929" height="53.446" x="0" y="0" fill="#fff" maskContentUnits="userSpaceOnUse" maskUnits="objectBoundingBox"><use xlink:href="#path-5"/></mask></defs><g id="Page-1" fill="none" fill-rule="evenodd" stroke="none" stroke-width="1"><g id="search-icon-outline-round"><mask id="mask-3" fill="#fff"><use xlink:href="#path-1"/></mask><g id="Mask" fill="#00A0D2" fill-opacity=".01" stroke="#3498DB" stroke-width="2" mask="url(#mask-2)"><use mask="url(#mask-4)" xlink:href="#path-1"/></g><g id="Rectangle-166-Copy-4" fill="#3498DB" fill-opacity=".128" stroke="#3498DB" stroke-width="2" mask="url(#mask-3)"><use mask="url(#mask-6)" xlink:href="#path-5"/></g><path id="Shape" fill="#3498DB" d="M64.258,45.776 L58.48,39.998 C60.064,37.73 61,34.976 61,32 C61,24.268 54.73,18 47,18 C39.27,18 33,24.268 33,32 C33,39.732 39.268,46 47,46 C49.976,46 52.732,45.064 55,43.48 L60.778,49.258 C61.738,50.218 63.298,50.218 64.258,49.258 C65.218,48.298 65.218,46.74 64.258,45.776 L64.258,45.776 Z M46.998,42.002 C41.476,42.002 36.998,37.526 36.998,32.002 C36.998,26.478 41.476,22.002 46.998,22.002 C52.522,22.002 56.998,26.478 56.998,32.002 C57,37.526 52.524,42.002 46.998,42.002 L46.998,42.002 Z" mask="url(#mask-3)"/></g></g></svg>