<svg xmlns="http://www.w3.org/2000/svg" xmlns:xlink="http://www.w3.org/1999/xlink" width="72" height="52" version="1.1" viewBox="0 0 72 52"><title>slider-focus</title><desc>Created with Sketch.</desc><defs><rect id="path-1" width="70" height="50" x="0" y="0" rx="4"/><mask id="mask-3" width="72" height="52" x="-1" y="-1" maskContentUnits="userSpaceOnUse" maskUnits="objectBoundingBox"><rect width="72" height="52" x="-1" y="-1" fill="#fff"/><use fill="#000" xlink:href="#path-1"/></mask><rect id="path-4" width="35" height="41" x="18" y="5"/><mask id="mask-5" width="37" height="43" x="-1" y="-1" maskContentUnits="userSpaceOnUse" maskUnits="objectBoundingBox"><rect width="37" height="43" x="17" y="4" fill="#fff"/><use fill="#000" xlink:href="#path-4"/></mask><rect id="path-6" width="17" height="36" x="0" y="7"/><mask id="mask-7" width="19" height="38" x="-1" y="-1" maskContentUnits="userSpaceOnUse" maskUnits="objectBoundingBox"><rect width="19" height="38" x="-1" y="6" fill="#fff"/><use fill="#000" xlink:href="#path-6"/></mask><rect id="path-8" width="16" height="36" x="54" y="7"/><mask id="mask-9" width="18" height="38" x="-1" y="-1" maskContentUnits="userSpaceOnUse" maskUnits="objectBoundingBox"><rect width="18" height="38" x="53" y="6" fill="#fff"/><use fill="#000" xlink:href="#path-8"/></mask></defs><g id="Page-1" fill="none" fill-rule="evenodd" stroke="none" stroke-width="1"><g id="slider-focus" transform="translate(1.000000, 1.000000)"><mask id="mask-2" fill="#fff"><use xlink:href="#path-1"/></mask><g id="Rectangle-1-Copy-4"><use fill="#00A0D2" fill-opacity=".01" fill-rule="evenodd" xlink:href="#path-1"/><use stroke="#3498DB" stroke-width="2" mask="url(#mask-3)" xlink:href="#path-1"/></g><g id="Rectangle-5" mask="url(#mask-2)"><use fill="#3498DB" fill-opacity=".128" fill-rule="evenodd" xlink:href="#path-4"/><use stroke="#3498DB" stroke-width="2" mask="url(#mask-5)" xlink:href="#path-4"/></g><g id="Rectangle-5-Copy-5" mask="url(#mask-2)"><use fill="#3498DB" fill-opacity=".128" fill-rule="evenodd" xlink:href="#path-6"/><use stroke="#3498DB" stroke-width="2" mask="url(#mask-7)" xlink:href="#path-6"/></g><g id="Rectangle-5-Copy-6" mask="url(#mask-2)"><use fill="#3498DB" fill-opacity=".128" fill-rule="evenodd" xlink:href="#path-8"/><use stroke="#3498DB" stroke-width="2" mask="url(#mask-9)" xlink:href="#path-8"/></g><polygon id="Triangle-1-Copy-3" fill="#3498DB" points="11 23 11 28 6 25.5" mask="url(#mask-2)"/><polygon id="Triangle-1-Copy-2" fill="#3498DB" points="65 23 65 28 60 25.5" mask="url(#mask-2)"/></g></g></svg>