<svg xmlns="http://www.w3.org/2000/svg" xmlns:xlink="http://www.w3.org/1999/xlink" width="100" height="70" version="1.1" viewBox="0 0 100 70"><title>media-rleft</title><desc>Created with Sketch.</desc><defs><linearGradient id="linearGradient-1" x1="0%" x2="106.266%" y1="0%" y2="109.896%"><stop offset="0%" stop-color="#C8EAF4" stop-opacity=".208"/><stop offset="100%" stop-color="#3DD0FF"/></linearGradient><rect id="path-2" width="99.943" height="70" x="0" y="0"/><mask id="mask-3" width="99.943" height="70" x="0" y="0" fill="#fff" maskContentUnits="userSpaceOnUse" maskUnits="objectBoundingBox"><use xlink:href="#path-2"/></mask><mask id="mask-5" width="99.943" height="70" x="0" y="0" fill="#fff" maskContentUnits="userSpaceOnUse" maskUnits="objectBoundingBox"><use xlink:href="#path-2"/></mask></defs><g id="Section-Presets" fill="none" fill-rule="evenodd" stroke="none" stroke-width="1"><g id="media-rleft"><mask id="mask-4" fill="#fff"><use xlink:href="#path-2"/></mask><g id="BG" fill="url(#linearGradient-1)" fill-opacity=".15" stroke="#00A0D2" stroke-width="2" mask="url(#mask-3)"><use mask="url(#mask-5)" xlink:href="#path-2"/></g><path id="Shape-Copy-6" fill="#00A0D2" d="M59.2164119,47.3544812 C59.2164119,47.3544812 64.9364256,41.7396632 66.1823366,34.1885876 C69.5354481,34.1885876 71.6064876,26.1608443 68.2533761,23.3369984 C68.3947327,20.3652212 72.5631105,0 51.4483703,0 C30.3336301,0 34.5020079,20.3652212 34.6433646,23.3369984 C31.2902531,26.1608443 33.3612925,34.1885876 36.714404,34.1885876 C37.960315,41.7396632 43.6836161,47.3544812 43.6836161,47.3544812 C43.6836161,47.3544812 43.637593,52.6635744 41.6914734,52.9692993 C35.4191825,53.9587959 12,64.1989353 12,75.4285714 L90.8967407,75.4285714 C90.8967407,64.1989353 67.4775581,53.9587959 61.2085546,52.9692993 C59.262435,52.6635744 59.2164119,47.3544812 59.2164119,47.3544812 Z" mask="url(#mask-4)" opacity=".102"/><rect id="Rectangle-2" width="34" height="34" x="13" y="18" fill="#00A0D2" mask="url(#mask-4)"/><rect id="Rectangle-3" width="21" height="5" x="56" y="41" fill="#00A0D2" fill-opacity=".532" mask="url(#mask-4)" opacity=".333"/><rect id="Rectangle-3" width="31" height="5" x="56" y="23" fill="#00A0D2" mask="url(#mask-4)"/><rect id="Rectangle-3" width="21" height="5" x="56" y="32" fill="#00A0D2" fill-opacity=".532" mask="url(#mask-4)" opacity=".333"/></g></g></svg>