<svg xmlns="http://www.w3.org/2000/svg" xmlns:xlink="http://www.w3.org/1999/xlink" width="64" height="65" version="1.1" viewBox="0 0 64 65"><title>Logo-ThemeForest</title><desc>Created with Sketch.</desc><defs><filter id="filter-1" width="200%" height="200%" x="-50%" y="-50%" filterUnits="objectBoundingBox"><feOffset dx="0" dy="2" in="SourceAlpha" result="shadowOffsetOuter1"/><feGaussianBlur in="shadowOffsetOuter1" result="shadowBlurOuter1" stdDeviation="2"/><feColorMatrix in="shadowBlurOuter1" result="shadowMatrixOuter1" type="matrix" values="0 0 0 0 0 0 0 0 0 0 0 0 0 0 0 0 0 0 0.179517663 0"/><feMerge><feMergeNode in="shadowMatrixOuter1"/><feMergeNode in="SourceGraphic"/></feMerge></filter></defs><g id="Logo" fill="none" fill-rule="evenodd" stroke="none" stroke-width="1"><g id="Group-2" fill="#FFF" transform="translate(4.000000, -49.000000)"><g id="Logo-ThemeForest" filter="url(#filter-1)" transform="translate(0.000000, 51.000000)"><path id="Combined-Shape" d="M28.40694,46.9959391 L21.3512884,39.9402875 L28.40694,32.884636 L28.40694,20.442015 L15.1299779,33.718977 L9.95138024,28.5403793 L28.40694,10.0848196 L28.40694,0.246280496 L0.0325226042,28.6206979 L28.40694,56.9951153 L28.40694,46.9959391 Z"/><path id="Combined-Shape" d="M56.7529622,46.9959391 L49.6973107,39.9402875 L56.7529622,32.884636 L56.7529622,20.442015 L43.4760002,33.718977 L38.2974025,28.5403793 L56.7529622,10.0848196 L56.7529622,0.246280496 L28.3785448,28.6206979 L56.7529622,56.9951153 L56.7529622,46.9959391 Z" opacity=".5" transform="translate(42.565754, 28.620698) scale(-1, 1) translate(-42.565754, -28.620698)"/></g></g></g></svg>