<svg xmlns="http://www.w3.org/2000/svg" width="256" height="256" fill="none" stroke="#9ff" stroke-width=".125" opacity=".2" preserveAspectRatio="none" viewBox="0 0 32 32"><path d="M1 0 v32 m1 -32 v32 m1 -32 v32 m1 -32 v32 m1 -32 v32 m1 -32 v32 m1 -32 v32 m1 -32 v32 m1 -32 v32 m1 -32 v32 m1 -32 v32 m1 -32 v32 m1 -32 v32 m1 -32 v32 m1 -32 v32 m1 -32 v32 m1 -32 v32 m1 -32 v32 m1 -32 v32 m1 -32 v32 m1 -32 v32 m1 -32 v32 m1 -32 v32 m1 -32 v32 m1 -32 v32 m1 -32 v32 m1 -32 v32 m1 -32 v32 m1 -32 v32 m1 -32 v32 m1 -32 v32 M0 1 h32 m-32 1 h32 m-32 1 h32 m-32 1 h32 m-32 1 h32 m-32 1 h32 m-32 1 h32 m-32 1 h32 m-32 1 h32 m-32 1 h32 m-32 1 h32 m-32 1 h32 m-32 1 h32 m-32 1 h32 m-32 1 h32 m-32 1 h32 m-32 1 h32 m-32 1 h32 m-32 1 h32 m-32 1 h32 m-32 1 h32 m-32 1 h32 m-32 1 h32 m-32 1 h32 m-32 1 h32 m-32 1 h32 m-32 1 h32 m-32 1 h32 m-32 1 h32 m-32 1 h32 m-32 1 h32" opacity=".5" transform="translate(.0625 .0625)"/><path d="M0 0 v32 m4 -32 v32 m4 -32 v32 m4 -32 v32 m4 -32 v32 m4 -32 v32 m4 -32 v32 m4 -32 v32 m4 -32 v32 M0 0 h32 m-32 4 h32 m-32 4 h32 m-32 4 h32 m-32 4 h32 m-32 4 h32 m-32 4 h32 m-32 4 h32 m-32 4 h32" transform="translate(.0625 .0625)"/></svg>