<svg><metadata>Created by FontForge 20090622 at Thu May 23 02:37:23 2019 By deploy user Copyright (c) 2018 Monotype GmbH. All rights reserved.</metadata><defs><font id="iCielVAGRoundedNext-Regular" horiz-adv-x="540"><font-face x-height="532" ascent="800" bbox="-666 -293 1206 1114" cap-height="712" descent="-200" font-family="iCiel VAG Rounded Next" font-stretch="normal" font-weight="400" panose-1="2 15 2 2 2 2 3 2 2 4" underline-position="-50" underline-thickness="50" unicode-range="U+0020-U+FEFF" units-per-em="1000"/><glyph d="M126 -6q-20 0 -32 14t-12 37v411h-40q-21 0 -31.5 10.5t-10.5 27.5t11 27.5t31 10.5h40v126q0 51 28.5 82.5t75.5 31.5h39q24 0 39.5 -11t15.5 -30q0 -17 -10 -28.5t-33 -11.5h-30q-17 0 -27 -10.5t-10 -28.5v-120h147v126q0 51 28.5 82.5t75.5 31.5h38q24 0 39.5 -11 t15.5 -30q0 -17 -10 -28.5t-33 -11.5h-29q-17 0 -27 -10.5t-10 -28.5v-120h62q17 0 27.5 -10t10.5 -28q0 -17 -10.5 -27.5t-27.5 -10.5h-62v-411q0 -23 -11.5 -37t-32.5 -14q-20 0 -32 14t-12 37v411h-147v-411q0 -23 -11.5 -37t-32.5 -14z" glyph-name="uniFB00" horiz-adv-x="493" unicode="ff"/><glyph d="M126 -6q-20 0 -32 14t-12 37v411h-40q-21 0 -31.5 10.5t-10.5 27.5t11 27.5t31 10.5h40v126q0 51 28.5 82.5t75.5 31.5h39q24 0 39.5 -11t15.5 -30q0 -17 -10 -28.5t-33 -11.5h-30q-17 0 -27 -10.5t-10 -28.5v-120h147v126q0 51 28.5 82.5t75.5 31.5h38q24 0 39.5 -11 t15.5 -30q0 -17 -10 -28.5t-33 -11.5h-29q-17 0 -27 -10.5t-10 -28.5v-120h62q17 0 27.5 -10t10.5 -28q0 -17 -10.5 -27.5t-27.5 -10.5h-62v-411q0 -23 -11.5 -37t-32.5 -14q-20 0 -32 14t-12 37v411h-147v-411q0 -23 -11.5 -37t-32.5 -14zM597 613q-23 0 -40.5 16.5 t-17.5 41.5q0 23 17 40t41 17t40.5 -17t16.5 -40q0 -25 -17 -41.5t-40 -16.5zM597 -6q-21 0 -32.5 14t-11.5 37v443q0 22 11.5 36t32.5 14t32.5 -14t11.5 -36v-443q0 -23 -11.5 -37t-32.5 -14z" glyph-name="uniFB03" horiz-adv-x="700" unicode="ffi"/><glyph d="M126 -6q-20 0 -32 14t-12 37v411h-40q-21 0 -31.5 10.5t-10.5 27.5t11 27.5t31 10.5h40v126q0 51 28.5 82.5t75.5 31.5h39q24 0 39.5 -11t15.5 -30q0 -17 -10 -28.5t-33 -11.5h-30q-17 0 -27 -10.5t-10 -28.5v-120h147v126q0 51 28.5 82.5t75.5 31.5h38q24 0 39.5 -11 t15.5 -30q0 -17 -10 -28.5t-33 -11.5h-29q-17 0 -27 -10.5t-10 -28.5v-120h62q17 0 27.5 -10t10.5 -28q0 -17 -10.5 -27.5t-27.5 -10.5h-62v-411q0 -23 -11.5 -37t-32.5 -14q-20 0 -32 14t-12 37v411h-147v-411q0 -23 -11.5 -37t-32.5 -14zM596 -6q-21 0 -32.5 14t-11.5 37 v677q0 21 11.5 35.5t32.5 14.5t32.5 -14.5t11.5 -35.5v-677q0 -23 -11.5 -37t-32.5 -14z" glyph-name="uniFB04" horiz-adv-x="700" unicode="ffl"/><glyph d="M128 -6q-20 0 -32 14t-12 37v411h-40q-21 0 -31.5 10.5t-10.5 27.5t10.5 27.5t30.5 10.5h41v126q0 51 28.5 82.5t75.5 31.5h39q23 0 38.5 -11t15.5 -30q0 -17 -10 -28.5t-32 -11.5h-30q-37 0 -37 -38v-121h62q17 0 28 -10t11 -28q0 -17 -11 -27.5t-28 -10.5h-62v-411 q0 -23 -11.5 -37t-32.5 -14zM362 613q-23 0 -40 16.5t-17 41.5q0 23 16.5 40t40.5 17q25 0 41 -17t16 -40q0 -25 -16.5 -41.5t-40.5 -16.5zM362 -6q-21 0 -32.5 14t-11.5 37v443q0 22 11.5 36t32.5 14t32.5 -14t11.5 -36v-443q0 -23 -11.5 -37t-32.5 -14z" glyph-name="f_i" horiz-adv-x="465" unicode="fi"/><glyph d="M128 -6q-20 0 -32 14t-12 37v411h-40q-21 0 -31.5 10.5t-10.5 27.5t10.5 27.5t30.5 10.5h41v126q0 51 28.5 82.5t75.5 31.5h39q23 0 38.5 -11t15.5 -30q0 -17 -10 -28.5t-32 -11.5h-30q-37 0 -37 -38v-121h62q17 0 28 -10t11 -28q0 -17 -11 -27.5t-28 -10.5h-62v-411 q0 -23 -11.5 -37t-32.5 -14zM361 -6q-21 0 -32 14t-11 37v677q0 21 11 35.5t32 14.5q22 0 33 -14.5t11 -35.5v-677q0 -23 -11.5 -37t-32.5 -14z" glyph-name="f_l" horiz-adv-x="465" unicode="fl"/><glyph d="M0 680h485v-680h-485v680zM438 47v585h-391v-585h391zM211 238q0 50 10.5 74t32.5 44q26 23 43 44t17 49q0 32 -21 56t-51 24q-33 0 -53 -24t-24 -66l-48 8q7 64 40 97t88 33q53 0 85.5 -34.5t32.5 -89.5q0 -35 -14 -60t-48 -55q-16 -14 -24.5 -24t-13 -20t-5.5 -22 t-1 -32v-18h-46v16zM210 174h53v-63h-53v63z" glyph-name=".notdef" horiz-adv-x="485"/><glyph glyph-name=".null" horiz-adv-x="0"/><glyph glyph-name="nonmarkingreturn" horiz-adv-x="247"/><glyph glyph-name="space" horiz-adv-x="247"/><glyph d="M137 202q-20 0 -32 14.5t-12 37.5v414q0 23 12 37.5t32 14.5q22 0 33 -14.5t11 -37.5v-414q0 -23 -11 -37.5t-33 -14.5zM137 -8q-21 0 -37 16.5t-16 37.5t16.5 37.5t36.5 16.5q21 0 37.5 -16.5t16.5 -37.5t-16 -37.5t-38 -16.5z" glyph-name="exclam" horiz-adv-x="275" unicode="!"/><glyph d="M103 491q-18 0 -29 12.5t-11 29.5v143q0 17 11 29.5t29 12.5q17 0 28 -12.5t11 -29.5v-143q0 -17 -11 -29.5t-28 -12.5zM244 491q-17 0 -28.5 12.5t-11.5 29.5v143q0 17 11.5 29.5t28.5 12.5t28 -12.5t11 -29.5v-143q0 -17 -11 -29.5t-28 -12.5z" glyph-name="quotedbl" horiz-adv-x="346" unicode="&quot;"/><glyph d="M128 -6q-15 0 -22 9t-7 22q0 14 2 28.5t4 23.5l18 136h-58q-16 0 -28.5 8.5t-12.5 25.5t12 25t29 8h68l22 152h-60q-16 0 -28 8t-12 25q0 16 12.5 25t28.5 9h68l25 178q2 19 10 30t28 11q14 0 22 -9t8 -22t-2 -28.5t-4 -23.5l-19 -136h124l25 178q3 18 11 29.5t28 11.5 q14 0 21.5 -9t7.5 -22t-2 -28l-3 -23l-19 -137h58q16 0 28.5 -9t12.5 -25q0 -17 -12 -25t-29 -8h-68l-22 -152h60q15 0 27.5 -8t12.5 -25t-12 -25.5t-28 -8.5h-69l-24 -176q-3 -23 -12.5 -33t-26.5 -10q-15 0 -22.5 9t-7.5 22q0 14 2.5 29.5l4.5 27.5l18 131h-124l-25 -175 q-4 -27 -13.5 -35.5t-25.5 -8.5zM327 280l21 152h-126l-20 -152h125z" glyph-name="numbersign" horiz-adv-x="548" unicode="#"/><glyph d="M244 -75q-21 0 -21 22v45q-54 2 -95 14t-66 29q-35 21 -35 50q0 16 11.5 28t28.5 12q9 0 18 -4t20 -10q19 -11 46 -23.5t72 -12.5v269q-52 17 -87.5 36t-57 41.5t-31 49.5t-9.5 60q0 75 49.5 126t135.5 61v47q0 22 21 22q20 0 20 -23v-44q38 -2 71 -11.5t55 -23.5 q16 -11 25 -23t9 -26q0 -16 -9.5 -28.5t-27.5 -12.5q-9 0 -18.5 5t-20.5 12q-15 10 -35 18t-49 9v-216q46 -17 83.5 -34.5t64 -40.5t41 -53.5t14.5 -73.5q0 -45 -15 -85t-42 -70t-64 -49t-82 -23v-44q0 -25 -20 -25zM223 638q-49 -9 -71.5 -34.5t-22.5 -63.5 q0 -35 21.5 -59.5t72.5 -42.5v200zM264 77q25 4 46 17t36 31.5t23 41.5t8 47q0 42 -25.5 69.5t-87.5 47.5v-254z" glyph-name="dollar" horiz-adv-x="495" unicode="$"/><glyph d="M221 -16q-15 0 -24.5 8.5t-9.5 20.5q0 9 4.5 19t8.5 18l274 651q5 12 13 19.5t22 7.5q15 0 24.5 -9t9.5 -20q0 -9 -4.5 -18.5t-8.5 -19.5l-270 -642q-9 -20 -17 -27.5t-22 -7.5zM190 378q-33 0 -61 13t-48.5 35.5t-32.5 53t-12 66.5q0 38 12.5 70t33.5 55t49 36t59 13 q32 0 60 -13.5t49 -37t33 -55.5t12 -68t-12 -66.5t-33 -53t-49 -35.5t-60 -13zM190 439q38 0 61 30t23 78q0 51 -23.5 81.5t-61.5 30.5q-37 0 -60 -30.5t-23 -81.5q0 -46 22.5 -77t61.5 -31zM540 -8q-32 0 -60 13t-49 35.5t-33 53t-12 66.5q0 38 12.5 70t33.5 55t49 36 t59 13q33 0 61 -13.5t49 -37t33 -55.5t12 -68t-12.5 -66.5t-33.5 -53t-49 -35.5t-60 -13zM540 53q38 0 61.5 30t23.5 77q0 51 -23.5 82t-61.5 31t-61 -31t-23 -82q0 -46 22.5 -76.5t61.5 -30.5z" glyph-name="percent" horiz-adv-x="730" unicode="%"/><glyph d="M269 -8q-52 0 -94.5 15t-73 43t-47.5 67.5t-17 88.5q0 67 40 122t128 106q-22 24 -37 43t-24.5 35.5t-13.5 32t-4 32.5q0 64 45 102.5t121 38.5q74 0 121 -36t47 -101q0 -48 -31 -88.5t-98 -78.5l162 -187q24 30 39 55l26 42q11 16 21 25t22 9q17 0 28.5 -11t11.5 -26 q0 -17 -21.5 -52.5t-75.5 -101.5l77 -87q12 -14 17 -21.5t5 -17.5q0 -45 -44 -45q-13 0 -21 7.5t-20 21.5l-68 78q-100 -111 -221 -111zM279 472q54 29 75.5 52t21.5 53q0 33 -24 52.5t-62 19.5q-35 0 -56.5 -18t-21.5 -53q0 -20 15 -44t52 -62zM271 69q47 0 91.5 25.5 t73.5 69.5l-182 209q-57 -29 -90.5 -71.5t-33.5 -92.5q0 -62 38.5 -101t102.5 -39z" glyph-name="ampersand" horiz-adv-x="674" unicode="&amp;"/><glyph d="M100 491q-17 0 -28 12.5t-11 29.5v143q0 17 11 29.5t28 12.5t28 -12.5t11 -29.5v-143q0 -17 -11 -29.5t-28 -12.5z" glyph-name="quotesingle" horiz-adv-x="200" unicode="'"/><glyph d="M141 -97q-17 0 -27.5 14.5t-24.5 61.5q-9 26 -17.5 63t-15 81.5t-10.5 95t-4 102.5q0 82 9 162t26 149q9 36 17.5 57t16 32t15 14t15.5 3q18 0 27.5 -9.5t9.5 -24.5q0 -7 -2.5 -16t-7.5 -22q-6 -18 -14 -45t-15 -67.5t-12 -97.5t-5 -135q0 -80 5 -138t12.5 -99.5 t15.5 -68t14 -43.5q4 -12 6.5 -20.5t2.5 -15.5q0 -14 -9.5 -23.5t-27.5 -9.5z" glyph-name="parenleft" horiz-adv-x="214" unicode="("/><glyph d="M73 -97q-17 0 -27 9.5t-10 23.5q0 7 2.5 15.5t6.5 20.5q6 17 14.5 43.5t16 68t12.5 99.5t5 138q0 78 -5 135t-12.5 97.5t-15.5 67.5t-14 45q-5 13 -7.5 22t-2.5 16q0 15 10 24.5t27 9.5q8 0 15.5 -3t15 -14t16 -32t17.5 -57q17 -69 26 -149t9 -162q0 -52 -4 -102.5 t-10.5 -95t-14.5 -81.5t-17 -63q-14 -47 -25 -61.5t-28 -14.5z" glyph-name="parenright" horiz-adv-x="214" unicode=")"/><glyph d="M194 357q-15 0 -25 10t-10 29q0 12 4 36.5t10 66.5l-45 -33.5t-27.5 -19.5t-17.5 -9.5t-15 -2.5q-14 0 -23 8.5t-9 23.5q0 10 4.5 16.5t16.5 13.5t34 16.5l58 25.5l-58 25.5t-34 16.5t-16.5 13t-4.5 16q0 15 9 24t23 9q8 0 15 -2.5t17.5 -9.5t27.5 -20l45 -34 q-6 42 -10 66.5t-4 36.5q0 20 10 29.5t25 9.5t25 -9.5t10 -29.5t-5 -46.5t-9 -56.5l46 34t27.5 20t16.5 9.5t13 2.5q16 0 25 -9.5t9 -23.5q0 -9 -4 -15.5t-16 -13.5t-34.5 -16.5l-58.5 -25.5l58.5 -25.5t34.5 -16.5t16 -13.5t4 -16.5q0 -14 -9 -23t-25 -9q-7 0 -13 2 t-16.5 9t-27.5 20l-46 34q4 -30 9 -56.5t5 -46.5t-10 -29.5t-25 -9.5z" glyph-name="asterisk" horiz-adv-x="388" unicode="*"/><glyph d="M300 0q-18 0 -28.5 12.5t-10.5 29.5v177h-178q-17 0 -29.5 11.5t-12.5 28.5q0 18 12.5 28.5t29.5 10.5h178v177q0 17 10.5 29.5t28.5 12.5t28.5 -12.5t10.5 -29.5v-177h178q17 0 29.5 -10.5t12.5 -28.5t-12.5 -29t-29.5 -11h-178v-177q0 -17 -10.5 -29.5t-28.5 -12.5z" glyph-name="plus" horiz-adv-x="600" unicode="+"/><glyph d="M65 -127q-20 0 -31 11.5t-11 26.5q0 7 2 14.5t7 18.5l52 109q8 17 18 32t33 15q20 0 31 -12t11 -26q0 -16 -8 -32l-63 -132q-12 -25 -41 -25z" glyph-name="comma" horiz-adv-x="247" unicode=","/><glyph d="M80 229q-17 0 -29 10.5t-12 28.5t12.5 29t29.5 11h204q17 0 29.5 -11t12.5 -29t-12.5 -28.5t-29.5 -10.5h-205z" glyph-name="hyphen" horiz-adv-x="366" unicode="-"/><glyph d="M124 -8q-22 0 -38 15.5t-16 38.5t16 38.5t38 15.5t37.5 -16t15.5 -38t-15.5 -38t-37.5 -16z" glyph-name="period" horiz-adv-x="247" unicode="."/><glyph d="M70 -8q-16 0 -25.5 8.5t-9.5 22.5q0 13 12 40l259 621q8 20 17.5 28t23.5 8q17 0 26.5 -8.5t9.5 -22.5q0 -8 -4 -19t-9 -23l-257 -618q-9 -19 -18 -28t-25 -9z" glyph-name="slash" horiz-adv-x="418" unicode="/"/><glyph d="M278 -8q-52 0 -96.5 25.5t-77 72t-50.5 112t-18 146.5q0 106 22.5 177t58 114.5t78 62t82.5 18.5q50 0 93.5 -23.5t76 -69t51.5 -113.5t19 -158q0 -91 -19 -159t-52 -113.5t-76.5 -68.5t-91.5 -23zM277 75q69 0 107 74t38 207q0 64 -9.5 116t-27.5 88.5t-45 56.5t-63 20 q-68 0 -107 -74t-39 -207q0 -64 10 -116t28.5 -89t46 -56.5t61.5 -19.5z" glyph-name="zero" horiz-adv-x="554" unicode="0"/><glyph d="M210 -6q-21 0 -32.5 14t-11.5 37v585h-85q-18 0 -31 12t-13 29q0 18 13 29.5t30 11.5h127q21 0 34.5 -10.5t13.5 -34.5v-622q0 -23 -12 -37t-33 -14z" glyph-name="one" horiz-adv-x="348" unicode="1"/><glyph d="M101 0q-22 0 -34 10.5t-12 26.5q0 20 24 51l221 296q34 47 49.5 81.5t15.5 60.5q0 54 -25.5 82.5t-79.5 28.5q-33 0 -56 -12t-38 -32t-22.5 -46.5t-7.5 -55.5q-1 -27 -13.5 -36t-28.5 -9q-20 0 -32 12.5t-12 41.5q0 47 16 87t44.5 69.5t68 46.5t86.5 17q45 0 81 -13.5 t61.5 -38.5t39.5 -59.5t14 -76.5q0 -20 -4 -39.5t-13.5 -42t-26.5 -49.5t-43 -61l-193 -258h256q17 0 30 -12t13 -29q0 -18 -13 -29.5t-30 -11.5h-336z" glyph-name="two" horiz-adv-x="529" unicode="2"/><glyph d="M250 -8q-48 0 -86.5 16.5t-65.5 41.5t-42 53t-15 52q0 20 12 33.5t29 13.5q15 0 25.5 -8t18.5 -28q6 -16 16.5 -32.5t25.5 -29.5t35.5 -21t46.5 -8q57 0 93 36t36 93q0 48 -23 80t-73 42q-36 6 -55.5 14.5t-19.5 31.5q0 18 10 28t42 16q39 7 61 36.5t22 78.5 q0 42 -23.5 74t-69.5 32q-49 0 -71.5 -29.5t-25.5 -68.5q-3 -21 -15.5 -29.5t-26.5 -8.5q-18 0 -30 13t-12 31q0 36 14 68t38.5 55.5t57.5 37.5t71 14q41 0 75 -14t59 -38.5t38.5 -57.5t13.5 -72q0 -50 -21 -90t-60 -66q55 -20 87 -66t32 -106q0 -47 -17 -87t-47 -69 t-71 -45.5t-89 -16.5z" glyph-name="three" horiz-adv-x="533" unicode="3"/><glyph d="M396 -6q-21 0 -32.5 14t-11.5 38v137h-285q-21 0 -32 9.5t-11 25.5q0 11 5.5 23.5t22.5 40.5l239 392q10 16 29 30t49 14q35 0 53 -20t18 -49v-385h38q21 0 33.5 -10.5t12.5 -29.5t-12.5 -30t-33.5 -11h-38v-137q0 -24 -11 -38t-33 -14zM352 264v373h-2l-215 -373h217z" glyph-name="four" horiz-adv-x="550" unicode="4"/><glyph d="M245 -8q-42 0 -79 12t-64.5 30t-44 37.5t-16.5 34.5q0 17 12 30.5t29 13.5q13 0 26 -11.5l30.5 -26t42.5 -26t62 -11.5q60 0 97.5 45.5t37.5 120.5q0 64 -35 103.5t-95 39.5q-18 0 -33 -5t-27.5 -10.5l-23.5 -10.5t-23 -5q-14 0 -24.5 8.5t-10.5 25.5q0 8 1 18t3 19 l36 236q5 32 17 42t32 10h224q17 0 30 -11.5t13 -29.5t-13 -29.5t-30 -11.5h-192l-28 -184q35 16 78 16q42 0 78 -16.5t62.5 -45.5t41.5 -68.5t15 -85.5q0 -57 -17 -104t-48 -80t-72.5 -51.5t-91.5 -18.5z" glyph-name="five" horiz-adv-x="529" unicode="5"/><glyph d="M271 -8q-55 0 -96.5 20.5t-69 54t-41 77t-13.5 89.5q0 104 47 208t131 197l39 42.5t28 28t21.5 15t18.5 4.5q18 0 30 -13.5t12 -30.5q0 -7 -2.5 -13t-8.5 -13t-16.5 -17l-26.5 -25q-41 -40 -72.5 -84.5t-56.5 -95.5l2 -1q19 9 41 16t53 7q44 0 80 -16.5t61.5 -46.5 t39 -71.5t13.5 -92.5q0 -48 -14.5 -91.5t-42 -76t-67 -52t-90.5 -19.5zM266 75q55 0 89.5 41t34.5 110q0 70 -33 114t-90 44q-59 0 -90 -41t-31 -116q0 -31 8.5 -59t24 -48.5t37.5 -32.5t50 -12z" glyph-name="six" horiz-adv-x="536" unicode="6"/><glyph d="M139 -6q-18 0 -30 11t-12 26q0 11 7 28t11 24l235 547h-284q-17 0 -30 11.5t-13 29.5t13 29.5t30 11.5h350q18 0 30 -8.5t12 -23.5q0 -11 -5 -26t-11 -28l-257 -600q-8 -17 -18.5 -24.5t-27.5 -7.5z" glyph-name="seven" horiz-adv-x="481" unicode="7"/><glyph d="M270 -8q-49 0 -89.5 17t-68.5 46.5t-43.5 69.5t-15.5 86q0 64 30 113t87 67v3q-42 26 -65.5 66.5t-23.5 87.5q0 35 14.5 66.5t39.5 55t60 37t75 13.5t74.5 -13t60 -36.5t40 -55t14.5 -67.5q0 -47 -23.5 -87.5t-65.5 -66.5v-3q56 -18 86.5 -67t30.5 -113q0 -46 -15.5 -86 t-43.5 -69.5t-68 -46.5t-90 -17zM270 433q48 0 74 29t26 77q0 42 -28 71t-73 29q-42 0 -70.5 -28t-28.5 -72q0 -48 27 -77t73 -29zM270 75q28 0 50.5 12t38.5 32t24.5 46t8.5 54q0 29 -9 54.5t-25 44t-38.5 29t-50.5 10.5q-27 0 -49 -10.5t-38 -29t-25 -44t-9 -54.5 q0 -28 8.5 -54t24.5 -46t38.5 -32t50.5 -12z" glyph-name="eight" unicode="8"/><glyph d="M200 -15q-18 0 -29.5 13.5t-11.5 30.5q0 12 8 20.5l33 33.5q39 38 76.5 89t65.5 105l-2 1q-20 -9 -41.5 -16t-53.5 -7q-44 0 -79.5 16.5t-61 46t-39.5 71.5t-14 93q0 48 14.5 91.5t42.5 76t67.5 52t89.5 19.5q55 0 96.5 -20.5t69 -54t41 -77t13.5 -89.5q0 -104 -47 -208 t-131 -197q-43 -49 -65.5 -69.5t-41.5 -20.5zM270 328q58 0 89 41.5t31 116.5q0 32 -8 59.5t-23.5 48t-37.5 32.5t-50 12q-56 0 -90.5 -41t-34.5 -110q0 -70 33.5 -114.5t90.5 -44.5z" glyph-name="nine" horiz-adv-x="536" unicode="9"/><glyph d="M124 325q-23 0 -38.5 16t-15.5 38t16 38t38 16q21 0 37 -16.5t16 -37.5q0 -22 -15.5 -38t-37.5 -16zM124 -8q-23 0 -38.5 16t-15.5 38t16 38t38 16q21 0 37 -16t16 -38t-15.5 -38t-37.5 -16z" glyph-name="colon" horiz-adv-x="247" unicode=":"/><glyph d="M124 325q-22 0 -38 16t-16 38q0 21 16.5 37.5t37.5 16.5t37 -16t16 -38q0 -21 -16 -37.5t-37 -16.5zM65 -127q-20 0 -31 11.5t-11 26.5q0 8 2 15t7 18l52 109q8 17 18 32t33 15q20 0 31 -12t11 -26q0 -16 -8 -32l-63 -132q-12 -25 -41 -25z" glyph-name="semicolon" horiz-adv-x="247" unicode=";"/><glyph d="M532 0q-11 0 -24 5.5l-24 10.5l-421 204q-17 8 -23 18t-6 21t7 21t21 17l437 212q10 5 18 6.5t15 1.5q15 0 24.5 -8.5t9.5 -22.5q0 -30 -34 -45l-381 -182l376 -179q24 -12 31.5 -21t7.5 -23q0 -17 -9.5 -26.5t-24.5 -9.5z" glyph-name="less" horiz-adv-x="600" unicode="&lt;"/><glyph d="M83 323q-17 0 -29.5 10.5t-12.5 28.5t12.5 28.5t29.5 10.5h433q17 0 30 -10.5t13 -28.5t-13 -28.5t-30 -10.5h-433zM83 116q-17 0 -29.5 11t-12.5 28q0 18 12.5 29t29.5 11h433q17 0 30 -11t13 -29q0 -17 -13 -28t-30 -11h-433z" glyph-name="equal" horiz-adv-x="600" unicode="="/><glyph d="M68 0q-15 0 -24.5 9.5t-9.5 26.5q0 15 8 23.5t31 19.5l376 180l-381 182q-34 15 -34 42q0 17 9.5 25.5t24.5 8.5q9 0 18.5 -3t29.5 -12l421 -204q17 -8 23 -18.5t6 -20.5q0 -25 -28 -39l-389 -188q-39 -19 -54 -25.5t-27 -6.5z" glyph-name="greater" horiz-adv-x="600" unicode="&gt;"/><glyph d="M215 200q-21 0 -32.5 14t-11.5 36v123q0 20 9 29.5t40 15.5q52 10 83 38t31 76q0 23 -9 42.5t-24.5 33t-36 21t-42.5 7.5q-42 0 -72.5 -20t-39.5 -51q-8 -29 -18.5 -36.5t-27.5 -7.5q-20 0 -30 14t-10 31q0 34 16.5 62t43.5 48.5t63 32t75 11.5q45 0 83.5 -13.5t66 -38 t43 -58.5t15.5 -75q0 -75 -40.5 -123.5t-130.5 -69.5v-90q0 -52 -44 -52zM215 -8q-22 0 -38 16t-16 38t16 38t38 16t38 -16t16 -38q0 -23 -16 -38.5t-38 -15.5z" glyph-name="question" horiz-adv-x="455" unicode="?"/><glyph d="M472 -130q-98 0 -178 33.5t-137 90.5t-88.5 134t-31.5 164q0 93 35.5 171.5t95.5 135.5t140 89t168 32q89 0 164 -27t129 -74t84.5 -109.5t30.5 -134.5q0 -61 -18.5 -119.5t-53.5 -104t-86.5 -73t-117.5 -27.5q-71 0 -85 68q-32 -35 -66 -51.5t-78 -16.5q-75 0 -119 48 t-44 129q0 60 19.5 115.5t54 98t82 68t102.5 25.5q51 0 83.5 -20.5t52.5 -59.5l13 34q10 31 41 31q14 0 25 -9.5t11 -27.5q0 -4 -1 -10.5t-3 -12.5l-73 -248q-5 -17 -8.5 -30.5t-3.5 -24.5q0 -32 33 -32q29 0 58.5 19t52.5 51.5t37.5 75t14.5 88.5q0 69 -26.5 123t-71.5 91 t-105 56.5t-127 19.5q-76 0 -141.5 -27.5t-114 -75.5t-76 -113.5t-27.5 -141.5q0 -72 27.5 -136t75 -111.5t111.5 -75t138 -27.5q81 0 141.5 20t95.5 49q17 14 32 14q14 0 22.5 -9t8.5 -22q0 -19 -29 -42q-20 -16 -51.5 -30.5t-68 -26t-75 -18t-74.5 -6.5zM393 129 q36 0 67.5 22.5t55 56t37.5 72t14 71.5q0 49 -23 78t-66 29q-35 0 -67 -18t-56.5 -49t-39 -72t-14.5 -87q0 -44 24.5 -73.5t67.5 -29.5z" glyph-name="at" horiz-adv-x="919" unicode="@"/><glyph d="M52 -6q-20 0 -30.5 10t-10.5 25q0 14 7 34.5t18 47.5l204 548q13 33 28.5 47t39.5 14q23 0 39 -14t28 -47l215 -576q4 -10 9 -25t5 -29q0 -15 -10.5 -25t-29.5 -10q-23 0 -32.5 11.5t-20.5 40.5l-38 106h-331l-38 -107q-11 -29 -21.5 -40t-30.5 -11zM445 233l-136 377h-2 l-136 -377h274z" glyph-name="A" horiz-adv-x="615" unicode="A"/><glyph d="M109 0q-23 0 -35.5 12.5t-12.5 31.5v624q0 20 12.5 32t35.5 12h146q47 0 84 -13t63.5 -37t40.5 -57t14 -73q0 -52 -23.5 -89t-74.5 -57v-2q73 -12 113.5 -57.5t40.5 -120.5q0 -47 -16 -85t-46 -65t-71.5 -41.5t-92.5 -14.5h-178zM252 412q24 0 45 8t36.5 23t25 36t9.5 46 q0 47 -32 76.5t-83 29.5h-103v-219h102zM276 81q68 0 107.5 32t39.5 95q0 30 -11.5 53.5t-31.5 40t-47 25.5t-59 9h-124v-255h126z" glyph-name="B" horiz-adv-x="548" unicode="B"/><glyph d="M362 -8q-81 0 -142 27.5t-102 75.5t-61.5 113t-20.5 139q0 79 22 147t63.5 118.5t100 79t131.5 28.5q53 0 96.5 -14t73.5 -34q22 -14 34.5 -30.5t12.5 -30.5q0 -20 -12 -32.5t-27 -12.5q-7 0 -15.5 5t-20.5 14q-38 29 -70 40.5t-74 11.5q-48 0 -88 -23t-69 -62.5t-45 -92 t-16 -110.5q0 -60 15 -110t44.5 -86.5t72.5 -56.5t98 -20q45 0 79 11t62 31q14 10 24.5 15.5t18.5 5.5q17 0 27 -10.5t10 -30.5q0 -13 -10 -26.5t-27 -26.5q-30 -22 -78.5 -37.5t-106.5 -15.5z" glyph-name="C" horiz-adv-x="593" unicode="C"/><glyph d="M109 0q-23 0 -35.5 12.5t-12.5 31.5v624q0 20 12.5 32t35.5 12h187q70 0 126.5 -27.5t96 -76t61 -114.5t21.5 -143q0 -83 -25 -148.5t-67.5 -110.5t-98.5 -68.5t-118 -23.5h-183zM284 82q104 0 162 70.5t58 210.5q0 61 -15 110t-43 84t-68.5 54t-90.5 19h-137v-548h134z" glyph-name="D" horiz-adv-x="637" unicode="D"/><glyph d="M109 0q-23 0 -35.5 12.5t-12.5 32.5v623q0 20 12.5 32t35.5 12h243q18 0 31 -11.5t13 -29.5t-13 -29.5t-31 -11.5h-201v-233h191q18 0 31 -11t13 -30q0 -20 -12.5 -30.5t-31.5 -10.5h-192v-233h211q19 0 32 -11.5t13 -29.5t-13 -29.5t-31 -11.5h-253z" glyph-name="E" horiz-adv-x="448" unicode="E"/><glyph d="M105 -6q-21 0 -32.5 14t-11.5 37v619q0 23 13.5 35.5t34.5 12.5h251q18 0 31 -11.5t13 -29.5t-13 -29.5t-31 -11.5h-210v-233h185q18 0 31 -11t13 -30t-13 -30t-31 -11h-185v-270q0 -23 -11.5 -37t-33.5 -14z" glyph-name="F" horiz-adv-x="414" unicode="F"/><glyph d="M356 -8q-78 0 -137.5 27.5t-100 76.5t-61.5 115t-21 144q0 77 22.5 144t64 116t100 77t130.5 28q69 0 127 -21.5t91 -47.5q32 -27 32 -50q0 -20 -12 -31.5t-30 -11.5q-16 0 -41 19q-48 35 -85 48t-76 13q-53 0 -95 -22.5t-71 -60.5t-44.5 -89.5t-15.5 -110.5 q0 -63 15.5 -114.5t45 -88.5t71.5 -57.5t96 -20.5q93 0 146 64t55 185h-122q-18 0 -31 11.5t-13 29.5q0 19 13 30t31 11h150q62 0 62 -65q0 -168 -75 -258t-221 -90z" glyph-name="G" horiz-adv-x="677" unicode="G"/><glyph d="M105 -6q-21 0 -32.5 14t-11.5 37v622q0 23 11.5 37t32.5 14q22 0 33.5 -14t11.5 -37v-261h374v261q0 23 11.5 37t33.5 14q21 0 32.5 -14t11.5 -37v-622q0 -23 -11.5 -37t-32.5 -14q-22 0 -33.5 14t-11.5 37v279h-374v-279q0 -23 -11.5 -37t-33.5 -14z" glyph-name="H" horiz-adv-x="674" unicode="H"/><glyph d="M105 -6q-21 0 -32.5 14t-11.5 37v622q0 23 11.5 37t32.5 14q22 0 33.5 -14t11.5 -37v-622q0 -23 -11.5 -37t-33.5 -14z" glyph-name="I" horiz-adv-x="211" unicode="I"/><glyph d="M137 -8q-30 0 -57.5 7t-48.5 18t-33.5 25t-12.5 29q0 19 10 30t26 11q10 0 20 -6.5l22.5 -14.5t29 -14.5t40.5 -6.5q44 0 63.5 26t19.5 80v491q0 23 11.5 37t33.5 14q21 0 32.5 -14t11.5 -37v-495q0 -83 -44 -131.5t-124 -48.5z" glyph-name="J" horiz-adv-x="366" unicode="J"/><glyph d="M105 -6q-21 0 -32.5 14t-11.5 37v622q0 23 11.5 37t32.5 14q22 0 33.5 -14t11.5 -37v-255l290 268q15 15 29.5 26.5t31.5 11.5q18 0 29 -12t11 -27q0 -17 -10.5 -28t-37.5 -35l-260 -238l315 -306q19 -19 19 -38q0 -17 -11.5 -28.5t-30.5 -11.5q-12 0 -22.5 5t-31.5 27 l-321 314v-295q0 -23 -11.5 -37t-33.5 -14z" glyph-name="K" horiz-adv-x="566" unicode="K"/><glyph d="M104 0q-17 0 -30 12.5t-13 30.5v624q0 23 11.5 37t32.5 14q22 0 33.5 -14t11.5 -37v-585h187q19 0 31.5 -11.5t12.5 -29.5t-13 -29.5t-31 -11.5h-233z" glyph-name="L" horiz-adv-x="384" unicode="L"/><glyph d="M73 -6q-20 0 -31 11.5t-11 29.5q0 5 2.5 24t9.5 57l82 535q9 67 79 67q29 0 44 -15.5t28 -57.5l143 -492h2l145 490q13 42 28.5 58.5t42.5 16.5q68 0 79 -65l89 -578q3 -16 4 -25.5t1 -14.5q0 -17 -11 -29t-31 -12q-24 0 -34 15t-15 41l-81 548h-2l-164 -550 q-11 -33 -22 -43.5t-30 -10.5q-22 0 -31.5 14t-15.5 33l-168 555h-2l-82 -547q-9 -55 -48 -55z" glyph-name="M" horiz-adv-x="841" unicode="M"/><glyph d="M105 -6q-21 0 -32.5 14t-11.5 37v625q0 22 12 35t32 13q18 0 29.5 -9t20.5 -20l366 -526h2v504q0 23 11.5 37t33.5 14q21 0 32.5 -14t11.5 -37v-623q0 -23 -10.5 -36.5t-32.5 -13.5q-17 0 -27.5 9.5t-21.5 24.5l-368 526h-2v-509q0 -23 -11.5 -37t-33.5 -14z" glyph-name="N" horiz-adv-x="673" unicode="N"/><glyph d="M347 -8q-72 0 -129.5 28t-98 77t-62 115t-21.5 142q0 81 23 148.5t64 116t98 75t126 26.5q72 0 130 -28.5t98.5 -77.5t62 -115.5t21.5 -142.5t-21.5 -142.5t-62 -116t-98.5 -77.5t-130 -28zM350 74q51 0 90.5 22t66.5 60t41 89t14 109q0 61 -14 113t-41 90t-67.5 59.5 t-93.5 21.5q-50 0 -89.5 -20.5t-67 -58t-42 -89t-14.5 -114.5q0 -56 13 -107t39.5 -90t67.5 -62t97 -23z" glyph-name="O" horiz-adv-x="695" unicode="O"/><glyph d="M105 -6q-21 0 -32.5 14t-11.5 37v623q0 19 12 31.5t37 12.5h181q50 0 91.5 -17t70.5 -46.5t45 -69.5t16 -85q0 -51 -16.5 -93.5t-47 -72.5t-73.5 -47t-97 -17h-130v-219q0 -23 -11.5 -37t-33.5 -14zM276 345q33 0 60 11t46.5 30t30 45t10.5 57q0 63 -40 103t-110 40h-123 v-286h126z" glyph-name="P" horiz-adv-x="529" unicode="P"/><glyph d="M650 -15q-13 0 -21 4.5t-19 15.5l-63 65q-37 -36 -87 -57t-113 -21q-72 0 -129.5 28t-98 77.5t-62 116t-21.5 142.5q0 78 22 144.5t63 115.5t98.5 76.5t127.5 27.5q72 0 130 -28t98.5 -77t62 -115.5t21.5 -143.5q0 -64 -15 -121.5t-45 -105.5l67 -68q13 -13 17.5 -23 t4.5 -19q0 -14 -12 -24t-26 -10zM347 69q47 0 82 16t59 44l-59 60q-6 5 -12 14t-6 20q0 15 11 25.5t29 10.5q8 0 18 -4t21 -15l42 -45q17 37 23.5 78t6.5 83q0 63 -14 115.5t-41.5 90.5t-67.5 59.5t-93 21.5q-50 0 -89.5 -21t-67 -59t-42 -90.5t-14.5 -116.5q0 -61 14 -114 t41 -91t67 -60t92 -22z" glyph-name="Q" horiz-adv-x="695" unicode="Q"/><glyph d="M105 -6q-21 0 -32.5 14t-11.5 37v623q0 19 12 31.5t37 12.5h167q50 0 90.5 -15t69 -41.5t44 -63t15.5 -78.5t-13 -78t-37 -63t-57.5 -42.5t-75.5 -17.5h-56l226 -242q10 -11 14 -18t4 -20q0 -17 -12 -28t-29 -11q-23 0 -40 20l-268 295h-2v-264q0 -23 -11.5 -37 t-33.5 -14zM274 383q60 0 96.5 29.5t36.5 89.5q0 66 -35.5 97t-97.5 31h-124v-247h124z" glyph-name="R" horiz-adv-x="529" unicode="R"/><glyph d="M221 -8q-54 0 -98 12t-72 30q-16 11 -25 23t-9 26q0 18 12 31.5t30 13.5q8 0 16 -4t17 -9q29 -18 56.5 -28.5t67.5 -10.5q70 0 109.5 37t39.5 94q0 43 -29 72t-92 53q-54 20 -94.5 37.5t-67.5 39.5t-40 51.5t-13 71.5q0 45 19 80t49.5 59t69 36.5t78.5 12.5 q36 0 72.5 -10.5t60.5 -26.5q36 -20 36 -47q0 -19 -12 -32t-26 -13q-8 0 -16 2.5t-15 6.5q-26 15 -49.5 26t-56.5 11q-24 0 -46 -7.5t-38 -21t-25.5 -32t-9.5 -40.5q0 -39 30.5 -63t93.5 -46q58 -20 98 -40.5t65.5 -45.5t37 -56t11.5 -72q0 -49 -16.5 -89.5t-47.5 -70 t-74.5 -45.5t-96.5 -16z" glyph-name="S" horiz-adv-x="476" unicode="S"/><glyph d="M217 -6q-22 0 -33.5 14t-11.5 37v585h-131q-19 0 -32 11.5t-13 29.5t13 29.5t32 11.5h351q19 0 32 -11.5t13 -29.5t-13 -29.5t-32 -11.5h-131v-585q0 -23 -12 -37t-32 -14z" glyph-name="T" horiz-adv-x="433" unicode="T"/><glyph d="M336 -8q-62 0 -113 19t-87 52.5t-56 80.5t-20 102v421q0 23 11.5 37t32.5 14q22 0 33.5 -14t11.5 -37v-413q0 -40 13.5 -73.5t38.5 -56.5t59 -36t75 -13t75 13t59 36.5t38.5 56.5t13.5 73v413q0 23 11 37t33 14t33.5 -14t11.5 -37v-421q0 -57 -21 -104t-57.5 -80 t-86.5 -51.5t-109 -18.5z" glyph-name="U" horiz-adv-x="670" unicode="U"/><glyph d="M279 -6q-32 0 -50 47l-204 564q-5 16 -13 38.5t-8 32.5q0 17 12 29.5t32 12.5q16 0 26.5 -7.5t18.5 -28.5l186 -537h2l184 532q10 27 21 34t25 7q20 0 32 -12t12 -29q0 -9 -3.5 -20.5t-9.5 -28.5l-215 -594q-15 -40 -48 -40z" glyph-name="V" horiz-adv-x="559" unicode="V"/><glyph d="M202 -6q-27 0 -43.5 15t-23.5 48l-100 543q-1 3 -3 13.5t-4 23.5l-4 25t-2 17q0 19 12 29t30 10q40 0 49 -47l92 -558h2l160 556q8 26 19 37.5t31 11.5t30.5 -11.5t18.5 -33.5l160 -560h2l93 560q5 25 18 35t30 10q19 0 30.5 -10.5t11.5 -28.5q0 -5 -1.5 -17t-5.5 -30 l-111 -583q-10 -55 -64 -55q-52 0 -66 49l-145 525h-2l-149 -524q-14 -50 -65 -50z" glyph-name="W" horiz-adv-x="833" unicode="W"/><glyph d="M52 -6q-18 0 -30 11t-12 27q0 9 3.5 18t19.5 31l215 301l-182 257q-5 7 -11.5 19t-6.5 23q0 15 12.5 26t31.5 11q15 0 24 -7t19 -21l164 -236l161 233q13 19 22.5 25t23.5 6q17 0 30 -11t13 -26q0 -11 -4.5 -20t-11.5 -19l-183 -260l219 -308q8 -11 13.5 -20.5t5.5 -21.5 q0 -16 -12.5 -27t-30.5 -11q-14 0 -23.5 6.5t-21.5 23.5l-201 285l-201 -285q-13 -17 -22 -23.5t-24 -6.5z" glyph-name="X" horiz-adv-x="597" unicode="X"/><glyph d="M246 -6q-21 0 -32.5 14t-11.5 37v291l-177 287q-13 19 -20.5 33.5t-7.5 25.5q0 15 11 25.5t31 10.5q23 0 34 -15t18 -26l155 -254l164 267q11 18 21.5 23t23.5 5q19 0 29.5 -10.5t10.5 -25.5q0 -21 -28 -60l-176 -286v-291q0 -23 -11.5 -37t-33.5 -14z" glyph-name="Y" horiz-adv-x="493" unicode="Y"/><glyph d="M91 0q-32 0 -49.5 13t-17.5 36q0 13 8.5 29.5t21.5 35.5l347 517h-314q-23 0 -36 11.5t-13 29.5q0 17 13 28.5t32 11.5h395q22 0 33 -11t11 -26q0 -19 -21 -49l-364 -544h354q19 0 32 -11.5t13 -29.5t-13 -29.5t-32 -11.5h-400z" glyph-name="Z" horiz-adv-x="560" unicode="Z"/><glyph d="M120 -79q-21 0 -33 12t-12 33v710q0 20 12 32t32 12h74q41 0 41 -35q0 -16 -9.5 -25.5t-25.5 -9.5h-39v-659h39q17 0 26 -10t9 -25t-9.5 -25t-26.5 -10h-78z" glyph-name="bracketleft" horiz-adv-x="247" unicode="["/><glyph d="M347 -8q-15 0 -23.5 8t-18.5 29l-258 620l-8.5 22.5t-3.5 17.5q0 14 9.5 22.5t25.5 8.5t25 -8.5t18 -28.5l256 -618q14 -29 14 -42q0 -14 -9.5 -22.5t-26.5 -8.5z" glyph-name="backslash" horiz-adv-x="418" unicode="\"/><glyph d="M50 -79q-18 0 -28 9.5t-10 25.5q0 15 9.5 25t26.5 10h39v659h-39q-17 0 -26.5 9.5t-9.5 25.5q0 15 10 25t24 10h79q46 0 46 -44v-714q0 -17 -11.5 -29t-28.5 -12h-81z" glyph-name="bracketright" horiz-adv-x="247" unicode="]"/><glyph d="M88 272q-17 0 -26.5 7.5t-9.5 20.5q0 5 1.5 11.5t9.5 22.5l196 354q9 16 17 23t24 7q11 0 20 -5t20 -24l198 -356q6 -11 8 -19t2 -14q0 -14 -10.5 -21t-24.5 -7t-24.5 6.5t-24.5 32.5l-164 298l-165 -300q-13 -23 -23 -30t-24 -7z" glyph-name="asciicircum" horiz-adv-x="600" unicode="^"/><glyph d="M-1 -125q-11 0 -19.5 6t-8.5 19t8.5 19t19.5 6h502q11 0 19.5 -6t8.5 -19t-8.5 -19t-19.5 -6h-502z" glyph-name="underscore" horiz-adv-x="500" unicode="_"/><glyph d="M179 600q-5 0 -12.5 2t-21.5 7l-132 52q-20 8 -26 16.5t-6 21.5q0 16 9.5 28.5t25.5 12.5q6 0 12.5 -1t16.5 -6l145 -57q24 -10 24 -35q0 -15 -9.5 -28t-25.5 -13z" glyph-name="grave" horiz-adv-x="207" unicode="`"/><glyph d="M266 -8q-54 0 -97 20.5t-73 56.5t-46 86.5t-16 110.5q0 57 16.5 107t46.5 87t72.5 58.5t94.5 21.5q47 0 81.5 -19t64.5 -57h3v28q3 46 43 46q21 0 32.5 -14t11.5 -36v-443q0 -23 -11.5 -37t-32.5 -14q-40 0 -43 46v28h-3q-24 -38 -60.5 -57t-83.5 -19zM270 69 q35 0 61.5 15t44.5 41t27 62.5t9 78.5t-9 78t-27 62.5t-45 41.5t-62 15q-33 0 -59.5 -15.5t-45 -42t-28 -62.5t-9.5 -77q0 -42 9.5 -78.5t28 -62.5t45 -41t60.5 -15z" glyph-name="a" horiz-adv-x="559" unicode="a"/><glyph d="M294 -8q-96 0 -145 76h-3v-28q-3 -46 -43 -46q-21 0 -32 14t-11 37v677q0 21 11.5 35.5t32.5 14.5t32.5 -14.5t11.5 -35.5v-254h2q31 38 65.5 55t79.5 17q55 0 97.5 -22.5t72 -60t45 -87.5t15.5 -104q0 -60 -16 -110.5t-46 -86.5t-73 -56.5t-96 -20.5zM290 69 q34 0 60.5 15t44.5 41t27.5 62.5t9.5 78.5t-9.5 78t-27.5 62.5t-44.5 41.5t-61.5 15q-33 0 -59.5 -14.5t-45 -41t-28 -62.5t-9.5 -79q0 -42 9.5 -78.5t28 -62.5t45 -41t60.5 -15z" glyph-name="b" horiz-adv-x="559" unicode="b"/><glyph d="M269 -8q-54 0 -97.5 23t-74 60.5t-47 86.5t-16.5 101q0 55 17 105t49 88.5t77 61t100 22.5q28 0 54.5 -5t46.5 -14q19 -9 30 -21t11 -26q0 -19 -10.5 -32t-32.5 -13q-7 0 -14.5 3t-15.5 8q-14 7 -30.5 12.5t-42.5 5.5q-34 0 -61.5 -16t-46 -42.5t-28.5 -60.5t-10 -69 q0 -40 10.5 -76t29 -62.5t45 -42t59.5 -15.5q23 0 40.5 4.5t31.5 10.5q13 5 21.5 9t15.5 4q14 0 25.5 -10.5t11.5 -26.5q0 -18 -13 -32t-35 -23q-20 -9 -45.5 -13.5t-54.5 -4.5z" glyph-name="c" horiz-adv-x="448" unicode="c"/><glyph d="M266 -8q-52 0 -95 20t-73.5 56t-47 86.5t-16.5 111.5q0 57 16.5 107t46.5 87t72.5 58.5t94.5 21.5q46 0 80.5 -18t64.5 -54h3v254q0 21 11.5 35.5t32.5 14.5t32.5 -14.5t11.5 -35.5v-677q0 -23 -11.5 -37t-32.5 -14q-40 0 -43 46v28h-3q-24 -38 -60.5 -57t-83.5 -19z M270 69q35 0 61.5 15t44.5 41.5t27 62t9 77.5t-9.5 78t-27.5 63t-44.5 42t-61.5 15q-33 0 -59.5 -15.5t-45 -42.5t-28 -62.5t-9.5 -76.5q0 -42 9.5 -78.5t27.5 -62.5t45 -41t61 -15z" glyph-name="d" horiz-adv-x="559" unicode="d"/><glyph d="M282 -8q-58 0 -104 21t-78 57.5t-49 87t-17 108.5q0 53 16.5 102.5t47 87.5t75 61t99.5 23q56 0 99 -21.5t72.5 -57.5t45 -83t15.5 -98q0 -50 -52 -50h-323q2 -35 14.5 -65t32.5 -51.5t47 -33.5t58 -12q38 0 69.5 12.5t69.5 44.5q22 19 37 19q18 0 28.5 -11t10.5 -28 q0 -28 -38 -57q-30 -23 -76 -39.5t-100 -16.5zM411 299q-1 36 -12.5 67t-30 53t-44 34.5t-55.5 12.5q-58 0 -96.5 -46t-43.5 -121h282z" glyph-name="e" horiz-adv-x="526" unicode="e"/><glyph d="M128 -6q-20 0 -32 14t-12 37v411h-40q-21 0 -31.5 10.5t-10.5 27.5t10.5 27.5t30.5 10.5h41v126q0 51 28.5 82.5t75.5 31.5h39q23 0 38.5 -11t15.5 -30q0 -17 -10 -28.5t-32 -11.5h-30q-37 0 -37 -38v-121h62q17 0 28 -10t11 -28q0 -17 -11 -27.5t-28 -10.5h-62v-411 q0 -23 -11.5 -37t-32.5 -14z" glyph-name="f" horiz-adv-x="262" unicode="f"/><glyph d="M258 -217q-51 0 -99 15.5t-77 36.5q-33 24 -33 48q0 17 10.5 29.5t29.5 12.5q14 0 36 -14q26 -18 56 -33.5t71 -15.5q72 0 116 41.5t44 121.5v46h-2q-23 -39 -61 -58t-86 -19q-54 0 -96.5 20t-72 56t-45 85.5t-15.5 109.5q0 58 16.5 108t46.5 87t72.5 58.5t94.5 21.5 q45 0 83.5 -20t63.5 -55h2v27q2 21 12.5 33.5t30.5 12.5q21 0 32.5 -14t11.5 -36v-462q0 -57 -18.5 -102t-50.5 -76.5t-76.5 -48t-96.5 -16.5zM270 69q35 0 61.5 15t44.5 41t27 62.5t9 78.5t-9 78t-27 62.5t-45 41.5t-62 15q-33 0 -59.5 -15.5t-45 -42t-28 -62.5t-9.5 -77 q0 -42 9.5 -78.5t28 -62.5t45 -41t60.5 -15z" glyph-name="g" horiz-adv-x="559" unicode="g"/><glyph d="M104 -6q-21 0 -32.5 14t-11.5 37v677q0 21 11.5 35.5t32.5 14.5t32.5 -14.5t11.5 -35.5v-248h2q29 35 63 50.5t75 15.5q42 0 77 -13.5t60.5 -38.5t39.5 -58.5t14 -74.5v-310q0 -23 -11.5 -37t-31.5 -14q-21 0 -32.5 14t-11.5 37v303q0 49 -32.5 81t-88.5 32 q-55 0 -89 -36.5t-34 -90.5v-289q0 -23 -11.5 -37t-32.5 -14z" glyph-name="h" unicode="h"/><glyph d="M104 613q-23 0 -40 16.5t-17 41.5q0 23 17 40t40 17q25 0 41.5 -17t16.5 -40q0 -25 -17 -41.5t-41 -16.5zM104 -6q-21 0 -32.5 14t-11.5 37v443q0 22 11.5 36t32.5 14q22 0 33 -14t11 -36v-443q0 -23 -11.5 -37t-32.5 -14z" glyph-name="i" horiz-adv-x="209" unicode="i"/><glyph d="M104 613q-23 0 -40.5 16.5t-17.5 41.5q0 23 17 40t41 17t40.5 -17t16.5 -40q0 -25 -16.5 -41.5t-40.5 -16.5zM104 -217q-21 0 -32.5 14t-11.5 36v653q0 23 11.5 37.5t32.5 14.5t32.5 -14.5t11.5 -37.5v-653q0 -22 -11.5 -36t-32.5 -14z" glyph-name="j" horiz-adv-x="207" unicode="j"/><glyph d="M104 -6q-21 0 -32.5 14t-11.5 37v677q0 21 11.5 35.5t32.5 14.5t32.5 -14.5t11.5 -35.5v-376l202 169q17 14 25.5 18.5t17.5 4.5q17 0 28 -11t11 -28q0 -14 -6.5 -23.5t-21.5 -22.5l-191 -150l219 -221q19 -20 24 -29.5t5 -20.5q0 -16 -11 -27t-28 -11q-16 0 -29 7.5 t-25 21.5l-220 231v-209q0 -23 -11.5 -37t-32.5 -14z" glyph-name="k" horiz-adv-x="455" unicode="k"/><glyph d="M104 -6q-21 0 -32.5 14t-11.5 37v677q0 21 11.5 35.5t32.5 14.5t32.5 -14.5t11.5 -35.5v-677q0 -23 -11.5 -37t-32.5 -14z" glyph-name="l" horiz-adv-x="207" unicode="l"/><glyph d="M104 -6q-21 0 -32.5 14t-11.5 37v443q0 22 11.5 36t32.5 14q41 0 44 -46v-22h2q49 70 138 70q48 0 85.5 -24.5t55.5 -63.5q29 43 70.5 65.5t84.5 22.5q42 0 77 -13.5t60.5 -38.5t39.5 -59t14 -76v-308q0 -23 -11.5 -37t-31.5 -14q-21 0 -32.5 14t-11.5 37v290 q0 59 -28 92.5t-84 33.5q-24 0 -44.5 -9.5t-36 -26.5t-24.5 -40.5t-9 -50.5v-289q0 -23 -11.5 -37t-32.5 -14t-32.5 14t-11.5 37v290q0 58 -27.5 92t-84.5 34q-24 0 -44.5 -9.5t-36 -27t-24.5 -40.5t-9 -50v-289q0 -23 -11.5 -37t-32.5 -14z" glyph-name="m" horiz-adv-x="836" unicode="m"/><glyph d="M104 -6q-21 0 -32.5 14t-11.5 37v443q0 22 11.5 36t32.5 14q41 0 44 -46v-22h2q50 70 138 70q42 0 77 -13.5t60.5 -38.5t39.5 -58.5t14 -74.5v-310q0 -23 -11.5 -37t-31.5 -14q-21 0 -32.5 14t-11.5 37v301q0 51 -32.5 83t-88.5 32q-27 0 -49.5 -9.5t-39 -27t-25.5 -40.5 t-9 -50v-289q0 -23 -11.5 -37t-32.5 -14z" glyph-name="n" unicode="n"/><glyph d="M270 -8q-55 0 -99 20.5t-74.5 57t-46.5 86.5t-16 110q0 57 16 106.5t46.5 87t74.5 59t99 21.5q56 0 99.5 -21.5t73.5 -58.5t46 -87t16 -107q0 -60 -16 -110.5t-46.5 -86.5t-74 -56.5t-98.5 -20.5zM270 69q34 0 60.5 15t45 41t28 62.5t9.5 78.5t-9.5 78t-27.5 62.5 t-45 41.5t-62 15q-33 0 -59.5 -14.5t-44.5 -40.5t-28 -62t-10 -79q0 -42 9.5 -78.5t27.5 -63t45 -41.5t61 -15z" glyph-name="o" unicode="o"/><glyph d="M104 -217q-21 0 -32.5 14t-11.5 36v655q0 22 11 36t32 14q40 0 43 -46v-28h3q23 38 60 57t85 19q53 0 96 -20.5t73 -57t46 -86.5t16 -109q0 -55 -15.5 -104.5t-45 -87.5t-72 -60.5t-97.5 -22.5q-46 0 -80 18t-65 54h-2v-231q0 -22 -11.5 -36t-32.5 -14zM290 69 q34 0 60.5 15t44.5 41.5t27.5 62.5t9.5 78t-9.5 78t-27.5 62.5t-44.5 41.5t-61.5 15q-33 0 -59.5 -14.5t-45 -41t-28 -62.5t-9.5 -79q0 -42 9.5 -78.5t28 -62.5t45 -41t60.5 -15z" glyph-name="p" horiz-adv-x="559" unicode="p"/><glyph d="M456 -217q-20 0 -32 14t-12 36v231h-3q-30 -36 -65 -54t-80 -18q-52 0 -94.5 21.5t-72.5 59t-46.5 87t-16.5 106.5q0 60 16 110.5t46 86.5t73 56.5t97 20.5q45 0 83 -19t61 -57h3v28q3 46 43 46q21 0 32.5 -14.5t11.5 -35.5v-655q0 -22 -11.5 -36t-32.5 -14zM270 69 q35 0 61.5 15t44.5 41t27.5 62.5t9.5 78.5t-9.5 78t-27.5 62.5t-45 41.5t-62 15q-33 0 -59.5 -14.5t-44.5 -41t-28 -62.5t-10 -79q0 -42 9.5 -78.5t27.5 -62.5t45 -41t61 -15z" glyph-name="q" horiz-adv-x="559" unicode="q"/><glyph d="M104 -6q-21 0 -32.5 14t-11.5 37v443q0 22 11.5 36t32.5 14q41 0 43 -46l1 -41h2q21 42 52 65.5t63 23.5q26 0 40 -14t14 -33q0 -16 -11.5 -27.5t-40.5 -18.5q-63 -14 -91 -54t-28 -97v-251q0 -23 -11.5 -37t-32.5 -14z" glyph-name="r" horiz-adv-x="322" unicode="r"/><glyph d="M217 -8q-55 0 -97.5 16.5t-67.5 37.5q-30 24 -30 47q0 14 12 29t28 15q15 0 43 -23q26 -22 54.5 -34.5t61.5 -12.5q46 0 73.5 23t27.5 57q0 28 -21 45.5t-52 31t-68 26t-68 30.5t-52 45t-21 68q0 32 14 59t38 46.5t55.5 30.5t65.5 11q47 0 88 -11.5t67 -28.5 q32 -22 32 -47q0 -20 -10.5 -30.5t-28.5 -10.5q-16 0 -33 12l-47 27.5t-57 13.5q-40 0 -66 -18t-26 -49q0 -25 21 -40.5t52 -28.5t68 -26t68 -32t52 -48t21 -73q0 -35 -14.5 -64t-41 -50t-62.5 -32.5t-79 -11.5z" glyph-name="s" horiz-adv-x="441" unicode="s"/><glyph d="M128 -6q-20 0 -32 14t-12 37v411h-40q-21 0 -31.5 10.5t-10.5 27.5t10.5 27.5t31.5 10.5h40v116q0 23 12 37.5t32 14.5q21 0 32.5 -14.5t11.5 -37.5v-116h47q40 0 40 -38q0 -17 -10.5 -27.5t-29.5 -10.5h-47v-411q0 -23 -11.5 -37t-32.5 -14z" glyph-name="t" horiz-adv-x="261" unicode="t"/><glyph d="M270 -8q-48 0 -87 13.5t-66 37.5t-42 57.5t-15 73.5v314q0 22 11.5 36t32.5 14t32.5 -14t11.5 -36v-294q0 -59 32 -92.5t90 -33.5q57 0 89.5 33.5t32.5 92.5v294q0 21 11.5 35.5t32.5 14.5q20 0 31.5 -14.5t11.5 -35.5v-311q0 -41 -15 -75t-42.5 -58.5t-66 -38 t-85.5 -13.5z" glyph-name="u" unicode="u"/><glyph d="M217 -6q-14 0 -27 8.5t-20 25.5l-146 414q-7 17 -11 30.5t-4 24.5q0 17 11.5 29t30.5 12q15 0 26 -9t19 -32l120 -355h2l119 354q8 23 18.5 32.5t27.5 9.5q18 0 29.5 -12.5t11.5 -28.5q0 -15 -9 -38l-152 -432q-6 -17 -18.5 -25t-27.5 -8z" glyph-name="v" horiz-adv-x="433" unicode="v"/><glyph d="M208 -6q-20 0 -33 12.5t-22 38.5l-135 401q-3 8 -8.5 25.5t-5.5 25.5q0 17 11 29t31 12t31 -11t16 -27l115 -367h2l114 367q12 38 48 38q17 0 29 -10t20 -33l113 -362h2l114 364q8 25 19.5 33t27.5 8q20 0 31.5 -12t11.5 -29q0 -8 -4.5 -22.5t-12.5 -37.5l-135 -400 q-8 -20 -20 -31.5t-32 -11.5t-32 11.5t-21 40.5l-110 349h-2l-113 -360q-6 -19 -18 -30t-32 -11z" glyph-name="w" horiz-adv-x="744" unicode="w"/><glyph d="M48 -6q-18 0 -29.5 12.5t-11.5 29.5q0 8 3.5 16.5t14.5 23.5l158 207l-126 162q-7 10 -17.5 23t-10.5 28q0 18 11.5 30t28.5 12q15 0 25 -6.5t22 -22.5l119 -160l118 160q12 16 22.5 22.5t24.5 6.5q17 0 28.5 -12t11.5 -30q0 -14 -8.5 -25.5l-19.5 -25.5l-126 -162 l158 -207q12 -16 15.5 -23t3.5 -17q0 -18 -12 -30t-29 -12q-13 0 -22.5 6t-17.5 16l-147 201l-141 -193q-9 -12 -19.5 -21t-26.5 -9z" glyph-name="x" horiz-adv-x="469" unicode="x"/><glyph d="M146 -217q-20 0 -31 11.5t-11 26.5q0 9 3.5 20.5t8.5 25.5l61 154l-157 440q-3 6 -6.5 17.5t-3.5 18.5q0 17 11.5 29t29.5 12q16 0 27.5 -9t19.5 -32l121 -355h2l120 351q16 45 47 45q20 0 31 -12.5t11 -29.5q0 -7 -2.5 -16.5t-5.5 -17.5l-230 -639q-8 -20 -18 -30 t-28 -10z" glyph-name="y" horiz-adv-x="440" unicode="y"/><glyph d="M67 0q-19 0 -32 8.5t-13 25.5t8.5 30.5t29.5 44.5l234 342h-218q-18 0 -31 10.5t-13 30.5t13 30t32 10h293q44 0 44 -33q0 -15 -6.5 -27t-20.5 -32l-247 -359h243q17 0 30.5 -10.5t13.5 -30.5q0 -19 -13.5 -29.5t-30.5 -10.5h-316z" glyph-name="z" horiz-adv-x="448" unicode="z"/><glyph d="M196 -79q-31 0 -50.5 9.5t-30.5 25t-15 35.5t-4 40v144q0 60 -14.5 87.5t-47.5 27.5q-14 0 -22 8.5t-8 22.5q0 11 7 21t23 10q14 0 25.5 5t19.5 18t12.5 35.5t4.5 58.5v136q0 57 22.5 86t78.5 29h39q17 0 26.5 -8.5t9.5 -22.5q0 -12 -8.5 -21t-24.5 -9h-21 q-26 0 -34.5 -21.5t-8.5 -55.5v-127q0 -48 -23 -85t-61 -48v-2q39 -14 61.5 -50t22.5 -85v-126q0 -35 9 -56t32 -21h23q15 0 24 -9t9 -21q0 -14 -9.5 -22.5t-26.5 -8.5h-40z" glyph-name="braceleft" horiz-adv-x="276" unicode="{"/><glyph d="M111 -293q-17 0 -27.5 12t-10.5 29v1004q0 17 10.5 29t27.5 12t27.5 -12t10.5 -29v-1004q0 -17 -10.5 -29t-27.5 -12z" glyph-name="bar" horiz-adv-x="222" unicode="|"/><glyph d="M39 -79q-17 0 -26 8.5t-9 22.5q0 12 8.5 21t24.5 9h23q23 0 32 21t9 56v126q0 49 22.5 85t61.5 50v2q-39 11 -61.5 48t-22.5 85v127q0 34 -9 55.5t-34 21.5h-22q-15 0 -23.5 9t-8.5 21q0 14 9 22.5t26 8.5h40q55 0 78 -29t23 -86v-136q0 -36 4.5 -58.5t12.5 -35.5 t19.5 -18t24.5 -5q17 0 24 -10t7 -21q0 -14 -8.5 -22.5t-22.5 -8.5q-32 0 -46.5 -27.5t-14.5 -87.5v-144q0 -20 -4 -40t-15.5 -35.5t-31 -25t-49.5 -9.5h-41z" glyph-name="braceright" horiz-adv-x="276" unicode="}"/><glyph d="M399 185q-30 0 -55.5 11.5t-49 25t-46.5 25t-49 11.5q-23 0 -36 -12.5t-24 -27.5q-10 -15 -20.5 -23.5t-24.5 -8.5t-22 9t-8 26q0 21 11 42t29.5 37.5t43.5 26.5t52 10q31 0 56.5 -11.5t49 -25.5t46.5 -25.5t49 -11.5q35 0 57 36q11 17 21.5 26.5t26.5 9.5q12 0 21 -8.5 t9 -26.5q0 -21 -11 -42t-29.5 -37t-43.5 -26t-53 -10z" glyph-name="asciitilde" horiz-adv-x="600" unicode="~"/><glyph glyph-name="uni00A0" horiz-adv-x="247"/><glyph d="M137 432q-20 0 -36.5 16.5t-16.5 37.5t16 37.5t37 16.5q22 0 38 -16.5t16 -37.5t-16.5 -37.5t-37.5 -16.5zM137 -188q-20 0 -32 14.5t-12 36.5v416q0 22 12 36.5t32 14.5q22 0 33 -14.5t11 -36.5v-416q0 -22 -11 -36.5t-33 -14.5z" glyph-name="exclamdown" horiz-adv-x="275" unicode="¡"/><glyph d="M272 -87q-20 0 -20 24v57q-48 6 -86 31t-64 61.5t-40 82.5t-14 94q0 50 14 96t40.5 83t64 62t85.5 33v56q0 25 20 25q21 0 21 -23v-55q29 -1 54 -5.5t45 -12.5q40 -19 40 -46q0 -17 -10.5 -29.5t-30.5 -12.5q-7 0 -15.5 3t-17.5 8q-12 6 -27 11.5t-38 6.5v-393 q20 1 36.5 5.5t29.5 9.5q11 4 20 8t16 4q14 0 24.5 -9.5t10.5 -24.5q0 -32 -44 -51q-37 -18 -93 -20v-56q0 -23 -21 -23zM252 459q-28 -7 -49 -26t-35 -45t-20.5 -56.5t-6.5 -61.5q0 -36 7 -68.5t21 -58.5t34.5 -44.5t48.5 -25.5v386z" glyph-name="cent" horiz-adv-x="479" unicode="¢"/><glyph d="M122 0q-22 0 -34.5 11.5t-12.5 29.5q0 21 22 42q42 39 66.5 83t24.5 92q0 13 -2 27.5t-7 34.5h-101q-20 0 -33 12t-13 29q0 18 13 29.5t33 11.5h78q-15 27 -24 46.5t-14.5 34.5t-7.5 27.5t-2 26.5q0 41 15.5 74.5t44 57.5t69 37.5t89.5 13.5q52 0 94.5 -17t73 -44 t47.5 -59t17 -62q0 -18 -11.5 -30t-28.5 -12q-16 0 -25 7.5t-15 24.5q-17 48 -53.5 79.5t-93.5 31.5q-62 0 -95 -29t-33 -83q0 -24 10 -51t34 -74h117q19 0 32 -11.5t13 -29.5q0 -17 -13 -29t-32 -12h-97q5 -17 7 -32.5t2 -32.5q0 -48 -21 -87.5t-63 -84.5h334 q19 0 32 -11.5t13 -29.5q0 -19 -13.5 -30.5t-31.5 -11.5h-404z" glyph-name="sterling" horiz-adv-x="600" unicode="£"/><glyph d="M66 105q-14 0 -24 11t-10 25t11 25.5l39 39.5q-25 28 -37.5 67.5t-12.5 81.5t12 80.5t37 67.5l-38.5 40t-10.5 24q0 14 10 25.5t24 11.5q11 0 23.5 -9t43.5 -41q29 24 67.5 36.5t80.5 12.5t80 -12.5t67 -36.5l33.5 32.5t33.5 17.5q14 0 24 -11.5t10 -25.5q0 -13 -10 -24 t-39 -40q25 -29 37 -68t12 -81t-12 -81t-37 -67l24.5 -24t15 -15.5t7.5 -12t2 -12.5q0 -14 -10 -25.5t-24 -11.5q-15 0 -33.5 17.5l-33.5 32.5q-59 -49 -147 -49q-42 0 -80 12t-67 37q-16 -16 -27 -26t-18.5 -15.5t-12.5 -7t-10 -1.5zM281 182q35 0 66 13t53.5 36t35.5 54.5 t13 68.5q0 36 -12.5 67.5t-35 55t-53.5 37t-68 13.5q-35 0 -65.5 -13t-53 -36.5t-35.5 -55t-13 -68.5q0 -36 13 -67t35.5 -54.5t53 -37t66.5 -13.5z" glyph-name="currency" horiz-adv-x="561" unicode="¤"/><glyph d="M276 -6q-17 0 -29 13t-12 30v151h-143q-14 0 -23.5 10t-9.5 24t9.5 23.5t23.5 9.5h143v73h-143q-14 0 -23.5 9.5t-9.5 23.5t9.5 23.5t23.5 9.5h106l-126 207q-15 22 -28.5 44t-13.5 37t10.5 25.5t30.5 10.5q11 0 21 -5.5t19 -19.5l166 -272l163 269q11 17 21.5 22.5 t21.5 5.5q19 0 30 -10.5t11 -24.5q0 -11 -6.5 -24.5t-29.5 -47.5l-131 -217h105q14 0 23.5 -9.5t9.5 -23.5t-9.5 -23.5t-23.5 -9.5h-143v-73h143q13 0 23 -9.5t10 -23.5t-9.5 -24t-23.5 -10h-143v-151q0 -17 -12 -30t-31 -13z" glyph-name="yen" horiz-adv-x="554" unicode="¥"/><glyph d="M111 325q-17 0 -27.5 12t-10.5 29v268q0 17 10.5 29t27.5 12t27.5 -12t10.5 -29v-268q0 -17 -10.5 -29t-27.5 -12zM111 -175q-17 0 -27.5 12t-10.5 29v268q0 17 10.5 29t27.5 12t27.5 -12t10.5 -29v-268q0 -17 -10.5 -29t-27.5 -12z" glyph-name="brokenbar" horiz-adv-x="222" unicode="¦"/><glyph d="M271 -210q-53 0 -92 14.5t-64.5 36.5t-38 49t-12.5 53q0 18 14 29t31 11q18 0 28 -13.5t15 -33.5q7 -30 39.5 -50t83.5 -20t83.5 20t32.5 57q0 31 -26 54t-65 43.5t-85 41.5t-85 47.5t-65 62t-26 85.5q0 57 27 94.5t96 69.5q-37 24 -55 51.5t-18 64.5q0 39 16.5 69.5 t44.5 51.5t65 31.5t78 10.5q39 0 75 -10t63.5 -29t44 -46t16.5 -60q0 -23 -11 -38t-28 -15q-11 0 -24.5 8.5t-20.5 38.5q-6 31 -37.5 53t-82.5 22q-48 0 -80 -21.5t-32 -55.5q0 -30 26 -51.5t65 -41.5t84.5 -40t84.5 -46.5t65 -62t26 -86.5q0 -61 -29.5 -100t-79.5 -71 q31 -23 47.5 -52.5t16.5 -69.5q0 -36 -15.5 -64.5t-43 -49t-66.5 -31.5t-86 -11zM357 103q37 19 61.5 54t24.5 70q0 64 -65 96l-149 79q-49 -17 -77 -45t-28 -66q0 -37 16.5 -59.5t51.5 -41.5z" glyph-name="section" horiz-adv-x="566" unicode="§"/><glyph d="M10 595q-23 0 -39 16t-16 39t16 38.5t39 15.5t38.5 -15.5t15.5 -38.5t-15.5 -39t-38.5 -16zM198 595q-23 0 -39 16t-16 39t16 38.5t39 15.5q22 0 38 -15.5t16 -38.5t-15.5 -39t-38.5 -16z" glyph-name="dieresis" horiz-adv-x="207" unicode="¨"/><glyph d="M401 -8q-82 0 -149.5 30.5t-115.5 81t-74 116t-26 136.5q0 78 29.5 144.5t79 115.5t116 76.5t139.5 27.5q80 0 147 -30t115 -80t75 -116t27 -137q0 -76 -28.5 -142.5t-77.5 -116t-115 -78t-142 -28.5zM400 58q61 0 114 24t92 64.5t61 94.5t22 113q0 68 -25 123.5 t-65.5 94.5t-92.5 60.5t-106 21.5q-57 0 -109.5 -22.5t-92 -62.5t-63.5 -94.5t-24 -118.5q0 -66 24.5 -121t64.5 -94.5t92.5 -61t107.5 -21.5zM408 130q-47 0 -86 17t-67 47t-43.5 71.5t-15.5 90.5q0 46 14.5 86t41 69.5t64.5 46.5t86 17q42 0 75.5 -13.5t57 -33t36 -41.5 t12.5 -39t-9.5 -25t-22.5 -8q-17 0 -27.5 11t-24.5 35q-14 23 -37 35.5t-61 12.5q-60 0 -95.5 -42.5t-35.5 -111.5q0 -71 37.5 -115t100.5 -44q40 0 62 18t42 51q17 29 39 29q14 0 21 -8t7 -22q0 -20 -13 -43.5t-35.5 -43.5t-54 -33.5t-68.5 -13.5z" glyph-name="copyright" horiz-adv-x="800" unicode="©"/><glyph d="M168 391q-33 0 -60 13.5t-46.5 36t-30.5 52t-11 62.5t11 63t30.5 52.5t47 36t59.5 13.5q58 0 92 -42h2v15q1 11 9.5 19t23.5 8q17 0 25.5 -9t8.5 -22v-267q0 -13 -8.5 -22t-25.5 -9q-15 0 -23.5 8.5t-9.5 20.5v19h-2q-14 -23 -38.5 -35.5t-53.5 -12.5zM175 448 q85 0 85 108q0 107 -86 107q-37 0 -58.5 -31t-21.5 -76t21.5 -76.5t59.5 -31.5z" glyph-name="ordfeminine" horiz-adv-x="363" unicode="ª"/><glyph d="M181 75q-12 0 -21.5 8t-21.5 25l-76 120q-10 13 -13.5 22.5t-3.5 17.5q0 9 4.5 20t19.5 34l75 114q6 8 14.5 17t22.5 9q17 0 25.5 -10t8.5 -22q0 -17 -14 -35l-84 -127l84 -127q14 -17 14 -35q0 -11 -8.5 -21t-25.5 -10zM349 75q-12 0 -21.5 8t-21.5 25l-77 120 q-10 13 -13.5 22.5t-3.5 17.5q0 9 5 20t20 34l74 114q6 8 15 17t23 9q16 0 25 -10t9 -22q0 -10 -3.5 -17.5t-10.5 -17.5l-84 -127l84 -127q14 -17 14 -35q0 -11 -9 -21t-25 -10z" glyph-name="guillemotleft" horiz-adv-x="428" unicode="«"/><glyph d="M520 108q-18 0 -28.5 12.5t-10.5 29.5v173h-398q-17 0 -29.5 10.5t-12.5 28.5t12.5 28.5t29.5 10.5h422q29 0 41.5 -12.5t12.5 -38.5v-200q0 -17 -10.5 -29.5t-28.5 -12.5z" glyph-name="logicalnot" horiz-adv-x="600" unicode="¬"/><glyph d="M80 229q-17 0 -29 10.5t-12 28.5t12.5 29t29.5 11h204q17 0 29.5 -11t12.5 -29t-12.5 -28.5t-29.5 -10.5h-205z" glyph-name="uni00AD" horiz-adv-x="366" unicode="­"/><glyph d="M200 354q-37 0 -70.5 14t-58 38.5t-39 57.5t-14.5 72t14.5 72t39.5 57.5t58 38.5t70 14q38 0 71 -14t58 -38.5t39 -58t14 -71.5t-14 -71t-38.5 -58t-57.5 -39t-72 -14zM200 387q30 0 56 11.5t45.5 32t31 47.5t11.5 58q0 30 -11.5 57.5t-31 47.5t-46 32t-56.5 12 q-28 0 -54 -11t-45.5 -31t-31.5 -47t-12 -60q0 -30 11 -57.5t30.5 -47.5t45.5 -32t57 -12zM147 428q-16 0 -16 19v179q0 12 11 12h70q35 0 53.5 -14.5t18.5 -44.5q0 -52 -49 -58l40 -61q2 -5 5 -9.5t3 -9.5q0 -13 -16 -13q-12 0 -18 12l-51 80h-34v-72q0 -20 -17 -20z M204 546q26 0 36 8t10 26q0 31 -43 31h-43v-65h40z" glyph-name="registered" horiz-adv-x="400" unicode="®"/><glyph d="M2 603q-20 0 -33 10.5t-13 30.5t13 30.5t33 10.5h203q21 0 34 -10.5t13 -30.5q0 -21 -13 -31t-35 -10h-202z" glyph-name="macron" horiz-adv-x="207" unicode="¯"/><glyph d="M200 434q-30 0 -56.5 11.5t-45.5 31t-30 45.5t-11 55q0 31 11.5 57t31 45t45.5 30t55 11q30 0 56.5 -11t45.5 -30.5t30 -45.5t11 -56t-11 -56t-30.5 -45.5t-45.5 -30.5t-56 -11zM200 486q19 0 35.5 7.5t28.5 20t19 29t7 34.5q0 37 -26.5 63.5t-63.5 26.5q-38 0 -64 -27 t-26 -63q0 -18 7 -34.5t19.5 -29t29 -20t34.5 -7.5z" glyph-name="degree" horiz-adv-x="400" unicode="°"/><glyph d="M300 115q-18 0 -28.5 12.5t-10.5 29.5v120h-178q-17 0 -29.5 11t-12.5 28q0 18 12.5 28.5t29.5 10.5h178v120q0 17 10.5 29.5t28.5 12.5t28.5 -12.5t10.5 -29.5v-120h178q17 0 29.5 -10.5t12.5 -28.5q0 -17 -12.5 -28t-29.5 -11h-178v-120q0 -17 -10.5 -29.5t-28.5 -12.5 zM83 0q-17 0 -29.5 11t-12.5 28q0 18 12.5 28.5t29.5 10.5h434q17 0 29.5 -10.5t12.5 -28.5q0 -17 -12.5 -28t-29.5 -11h-434z" glyph-name="plusminus" horiz-adv-x="600" unicode="±"/><glyph d="M73 291q-14 0 -22.5 8t-8.5 19q0 6 2 13t13 20l132 162q14 17 28 40.5t14 47.5q0 22 -13 39t-44 17q-32 0 -46.5 -20.5t-16.5 -49.5q-2 -14 -9.5 -23.5t-26.5 -9.5q-16 0 -24 9.5t-8 25.5q0 25 8.5 48.5t25 42t41.5 29.5t58 11q62 0 95 -31.5t33 -81.5q0 -26 -11.5 -53.5 t-44.5 -66.5l-105 -131h142q14 0 22.5 -9.5t8.5 -23.5t-9 -23t-21 -9h-213z" glyph-name="uni00B2" horiz-adv-x="350" unicode="²"/><glyph d="M170 285q-27 0 -51 8.5t-41.5 22t-28 31t-10.5 36.5q0 16 8 26t24 10t24 -7.5t13 -18.5q9 -24 25.5 -33.5t38.5 -9.5q29 0 49.5 18.5t20.5 50.5q0 30 -15.5 44t-42.5 19q-20 3 -31 9t-11 20t8.5 20.5t20.5 9.5q23 5 37 19t14 41q0 55 -50 55q-20 0 -34 -12.5t-19 -35.5 q-6 -26 -34 -26q-13 0 -22 8.5t-9 22.5q0 22 9 41.5t25 34t38 23t49 8.5q51 0 85.5 -29t34.5 -80q0 -30 -15.5 -54.5t-41.5 -37.5q35 -11 56 -36t21 -66q0 -31 -11.5 -55.5t-31 -41.5t-46 -26t-56.5 -9z" glyph-name="uni00B3" horiz-adv-x="353" unicode="³"/><glyph d="M28 600q-16 0 -25.5 13t-9.5 28q0 25 24 35l145 57q11 5 17 6t13 1q15 0 25 -12.5t10 -28.5q0 -13 -6 -21.5t-26 -16.5l-133 -52q-13 -5 -21 -7t-13 -2z" glyph-name="acute" horiz-adv-x="207" unicode="´"/><glyph d="M104 -217q-21 0 -32.5 14t-11.5 36v655q0 22 11.5 36t32.5 14t32.5 -14t11.5 -36v-292q0 -60 31.5 -94t89.5 -34q59 0 90.5 34t31.5 94v292q0 21 12 35.5t32 14.5q21 0 32.5 -14.5t11.5 -35.5v-314q0 -21 2.5 -35.5t6 -25.5t9 -21l11.5 -21l4 -8q8 -16 8 -27 q0 -17 -12 -29.5t-31 -12.5q-27 0 -43 26l-8 11q-4 7 -8 15t-7 18h-2q-32 -40 -69 -56t-74 -16q-35 0 -62.5 9t-53.5 35h-2v-203q0 -22 -11.5 -36t-32.5 -14z" glyph-name="uni00B5" horiz-adv-x="551" unicode="µ"/><glyph d="M291 -209q-17 0 -27.5 11.5t-10.5 28.5v508q-49 0 -88 14t-66.5 39t-42.5 58.5t-15 73.5q0 93 59 140.5t167 47.5h204q32 0 43 -11.5t11 -39.5v-830q0 -17 -11 -28.5t-28 -11.5t-27.5 11.5t-10.5 28.5v815h-119v-815q0 -17 -10.5 -28.5t-27.5 -11.5z" glyph-name="paragraph" horiz-adv-x="604" unicode="¶"/><glyph d="M124 258q-21 0 -37.5 15.5t-16.5 37.5t16.5 38t37.5 16t37 -16.5t16 -37.5t-16 -37t-37 -16z" glyph-name="periodcentered" horiz-adv-x="247" unicode="·"/><glyph d="M90 -186q-36 0 -57.5 9.5t-21.5 29.5q0 10 6 17.5t20 7.5q13 0 25.5 -6t35.5 -6q14 0 21.5 8t7.5 18q0 13 -8.5 20t-31.5 7h-11q-17 0 -23 3t-6 11q0 6 3.5 14.5t14.5 24.5l19 28h50l-29 -41l2 -2q11 3 23 3q30 0 48 -17.5t18 -43.5q0 -38 -30.5 -61.5t-75.5 -23.5z" glyph-name="cedilla" horiz-adv-x="207" unicode="¸"/><glyph d="M130 285q-17 0 -26 9.5t-9 23.5v334h-52q-15 0 -23 8.5t-8 22.5t8.5 22.5t20.5 8.5h92q14 0 23 -8t9 -24v-364q0 -14 -9 -23.5t-26 -9.5z" glyph-name="uni00B9" horiz-adv-x="233" unicode="¹"/><glyph d="M175 391q-36 0 -64.5 13t-49 35.5t-31.5 52.5t-11 64t11 63.5t31.5 52t49.5 35.5t64 13t64 -12.5t49.5 -35t31.5 -52.5t11 -65t-11 -65t-31.5 -52t-49.5 -34.5t-64 -12.5zM175 448q38 0 60 30.5t22 75.5t-21.5 77t-61.5 32q-37 0 -59 -31t-22 -76t22 -76.5t60 -31.5z" glyph-name="ordmasculine" horiz-adv-x="350" unicode="º"/><glyph d="M79 75q-17 0 -25.5 10t-8.5 21t3 18.5t11 17.5l84 126l-84 127q-14 18 -14 35q0 12 8.5 22t25.5 10q14 0 22.5 -9t14.5 -17l75 -114q15 -23 19.5 -34t4.5 -20q0 -8 -3.5 -17.5t-13.5 -22.5l-76 -120q-12 -17 -21.5 -25t-21.5 -8zM246 75q-16 0 -25 10t-9 21t3 18.5 t11 17.5l84 126l-84 127q-14 18 -14 35q0 12 9 22t25 10q14 0 23 -9t15 -17l75 -114q14 -23 19 -34t5 -20q0 -8 -3.5 -17.5t-13.5 -22.5l-77 -120q-12 -17 -21.5 -25t-21.5 -8z" glyph-name="guillemotright" horiz-adv-x="428" unicode="»"/><glyph d="M251 -16q-15 0 -24.5 8.5t-9.5 20.5q0 7 3.5 16t9.5 23l269 637q11 26 20 32.5t20 6.5q15 0 24.5 -8.5t9.5 -20.5q0 -8 -3 -16t-10 -23l-271 -642q-9 -21 -17.5 -27.5t-20.5 -6.5zM193 285q-17 0 -26.5 9.5t-9.5 23.5v334h-52q-14 0 -22.5 8.5t-8.5 22.5t9 22.5t20 8.5 h92q14 0 23.5 -8t9.5 -24v-364q0 -14 -9 -23.5t-26 -9.5zM726 -6q-17 0 -26 10t-9 21v73h-177q-32 0 -32 28q0 6 3 14.5t18 31.5l147 226q10 16 25.5 23.5t34.5 7.5q23 0 37.5 -13t14.5 -36v-220h23q13 0 21 -8.5t8 -22.5q0 -31 -29 -31h-23v-73q0 -11 -9 -21t-27 -10z M691 160v201h-2l-126 -201h128z" glyph-name="onequarter" horiz-adv-x="888" unicode="¼"/><glyph d="M262 -16q-15 0 -24.5 8.5t-9.5 20.5q0 7 3.5 16t9.5 23l269 637q11 26 20 32.5t20 6.5q15 0 24.5 -8.5t9.5 -20.5q0 -8 -3 -16t-10 -23l-270 -642q-10 -21 -18.5 -27.5t-20.5 -6.5zM204 285q-17 0 -26 9.5t-9 23.5v334h-52q-14 0 -22.5 8.5t-8.5 22.5t8.5 22.5t20.5 8.5 h92q14 0 23 -8t9 -24v-364q0 -14 -9 -23.5t-26 -9.5zM554 0q-14 0 -22 8t-8 19q0 6 2 13t13 20l131 162q15 17 28.5 40.5t13.5 47.5q0 22 -12.5 39t-44.5 17q-31 0 -45.5 -20.5t-16.5 -49.5q-2 -14 -10 -23.5t-26 -9.5q-17 0 -25 9.5t-8 25.5q0 25 8.5 48.5t25.5 42t42 29.5 t58 11q62 0 95 -31.5t33 -81.5q0 -26 -12 -53.5t-44 -66.5l-105 -131h142q13 0 22 -9.5t9 -23.5t-9 -23t-21 -9h-214z" glyph-name="onehalf" horiz-adv-x="888" unicode="½"/><glyph d="M312 -16q-15 0 -24.5 8.5t-9.5 20.5q0 11 14 39l268 637q11 26 20 32.5t20 6.5q15 0 24.5 -8.5t9.5 -20.5q0 -8 -3 -16t-10 -23l-270 -642q-10 -21 -18 -27.5t-21 -6.5zM200 285q-27 0 -50.5 8.5t-41.5 22t-28 31t-10 36.5q0 16 8 26t24 10t23.5 -7.5t12.5 -18.5 q9 -24 25.5 -33.5t39.5 -9.5q29 0 49 18.5t20 50.5q0 30 -15 44t-43 19q-19 3 -30 9t-11 20t8.5 20.5t20.5 9.5q23 5 37 19t14 41q0 55 -50 55q-20 0 -34.5 -12.5t-18.5 -35.5q-6 -26 -34 -26q-13 0 -22 8.5t-9 22.5q0 22 9 41.5t24.5 34t38 23t49.5 8.5q50 0 84.5 -29 t34.5 -80q0 -30 -15.5 -54.5t-40.5 -37.5q35 -11 56 -36t21 -66q0 -31 -11.5 -55.5t-31.5 -41.5t-46.5 -26t-56.5 -9zM737 -6q-17 0 -26 10t-9 21v73h-178q-31 0 -31 28q0 6 3 14.5t17 31.5l147 226q10 16 25.5 23.5t34.5 7.5q24 0 38 -13t14 -36v-220h24q13 0 20.5 -8.5 t7.5 -22.5q0 -31 -28 -31h-24v-73q0 -11 -9 -21t-26 -10zM702 160v201h-2l-127 -201h129z" glyph-name="threequarters" horiz-adv-x="888" unicode="¾"/><glyph d="M239 432q-21 0 -37 16t-16 38q0 23 16 38.5t37 15.5q23 0 38.5 -16t15.5 -38t-15.5 -38t-38.5 -16zM233 -188q-45 0 -83 13.5t-66 37.5t-43.5 58t-15.5 76q0 75 40 123.5t130 69.5v91q0 24 12 37.5t32 13.5q22 0 33 -14t11 -36v-124q0 -19 -9 -28.5t-39 -15.5 q-53 -10 -83.5 -38.5t-30.5 -76.5q0 -23 9 -42t24.5 -32.5t36 -21t42.5 -7.5q41 0 72 20t39 51q9 29 20 36.5t27 7.5q19 0 29.5 -13.5t10.5 -32.5q0 -33 -16 -61t-43.5 -48.5t-63.5 -32t-75 -11.5z" glyph-name="questiondown" horiz-adv-x="455" unicode="¿"/><glyph d="M390 780q-5 0 -12.5 2t-21.5 7l-132 52q-20 8 -26 16.5t-6 21.5q0 16 9.5 28.5t25.5 12.5q6 0 12.5 -1t16.5 -6l145 -57q24 -10 24 -35q0 -15 -9.5 -28t-25.5 -13zM52 -6q-20 0 -30.5 10t-10.5 25q0 14 7 34.5t18 47.5l204 548q13 33 28.5 47t39.5 14q23 0 39 -14t28 -47 l215 -576q4 -10 9 -25t5 -29q0 -15 -10.5 -25t-29.5 -10q-23 0 -32.5 11.5t-20.5 40.5l-38 106h-331l-38 -107q-11 -29 -21.5 -40t-30.5 -11zM445 233l-136 377h-2l-136 -377h274z" glyph-name="Agrave" horiz-adv-x="615" unicode="À"/><glyph d="M226 780q-16 0 -25.5 13t-9.5 28q0 25 24 35l145 57q11 5 17 6t13 1q15 0 25 -12.5t10 -28.5q0 -13 -6 -21.5t-26 -16.5l-133 -52q-13 -5 -21 -7t-13 -2zM52 -6q-20 0 -30.5 10t-10.5 25q0 14 7 34.5t18 47.5l204 548q13 33 28.5 47t39.5 14q23 0 39 -14t28 -47l215 -576 q4 -10 9 -25t5 -29q0 -15 -10.5 -25t-29.5 -10q-23 0 -32.5 11.5t-20.5 40.5l-38 106h-331l-38 -107q-11 -29 -21.5 -40t-30.5 -11zM445 233l-136 377h-2l-136 -377h274z" glyph-name="Aacute" horiz-adv-x="615" unicode="Á"/><glyph d="M177 777q-16 0 -25 11.5t-9 24.5t5.5 24t27.5 20l83 35q9 4 25 10.5t24 6.5t25 -7l29 -12l79 -34q14 -5 23 -14.5t9 -28.5q0 -13 -9.5 -24.5t-25.5 -11.5q-17 0 -37 10l-93 42l-95 -43q-7 -3 -17 -6t-19 -3zM52 -6q-20 0 -30.5 10t-10.5 25q0 14 7 34.5t18 47.5l204 548 q13 33 28.5 47t39.5 14q23 0 39 -14t28 -47l215 -576q4 -10 9 -25t5 -29q0 -15 -10.5 -25t-29.5 -10q-23 0 -32.5 11.5t-20.5 40.5l-38 106h-331l-38 -107q-11 -29 -21.5 -40t-30.5 -11zM445 233l-136 377h-2l-136 -377h274z" glyph-name="Acircumflex" horiz-adv-x="615" unicode="Â"/><glyph d="M381 790q-17 0 -35 4.5t-35 10.5t-33.5 10.5t-31.5 4.5q-10 0 -17.5 -4.5t-14 -9.5t-13 -9.5t-16.5 -4.5q-34 0 -34 34q0 14 7 26.5t19 22.5t27 16t31 6q17 0 34.5 -4.5t35 -10.5t34 -10.5t30.5 -4.5q11 0 18.5 4.5t13.5 10t13 10t16 4.5q17 0 26 -10.5t9 -27.5 q0 -13 -7.5 -25.5t-19.5 -22t-27 -15t-30 -5.5zM52 -6q-20 0 -30.5 10t-10.5 25q0 14 7 34.5t18 47.5l204 548q13 33 28.5 47t39.5 14q23 0 39 -14t28 -47l215 -576q4 -10 9 -25t5 -29q0 -15 -10.5 -25t-29.5 -10q-23 0 -32.5 11.5t-20.5 40.5l-38 106h-331l-38 -107 q-11 -29 -21.5 -40t-30.5 -11zM445 233l-136 377h-2l-136 -377h274z" glyph-name="Atilde" horiz-adv-x="615" unicode="Ã"/><glyph d="M214 756q-23 0 -39 16t-16 39t16 38.5t39 15.5t38.5 -15.5t15.5 -38.5t-15.5 -39t-38.5 -16zM402 756q-23 0 -39 16t-16 39t16 38.5t39 15.5q22 0 38 -15.5t16 -38.5t-15.5 -39t-38.5 -16zM52 -6q-20 0 -30.5 10t-10.5 25q0 14 7 34.5t18 47.5l204 548q13 33 28.5 47 t39.5 14q23 0 39 -14t28 -47l215 -576q4 -10 9 -25t5 -29q0 -15 -10.5 -25t-29.5 -10q-23 0 -32.5 11.5t-20.5 40.5l-38 106h-331l-38 -107q-11 -29 -21.5 -40t-30.5 -11zM445 233l-136 377h-2l-136 -377h274z" glyph-name="Adieresis" horiz-adv-x="615" unicode="Ä"/><glyph d="M308 738q-19 0 -36.5 7.5t-30 20.5t-20 30t-7.5 36t7.5 36.5t20 30.5t30 20.5t36.5 7.5t36 -7.5t30 -20.5t20.5 -30t7.5 -37q0 -19 -7.5 -36t-20 -30t-29.5 -20.5t-37 -7.5zM308 783q20 0 35 14.5t15 34.5q0 21 -15 35.5t-35 14.5q-21 0 -35.5 -15t-14.5 -35t14.5 -34.5 t35.5 -14.5zM52 -6q-20 0 -30.5 10t-10.5 25q0 14 7 34.5t18 47.5l204 548q13 33 28.5 47t39.5 14q23 0 39 -14t28 -47l215 -576q4 -10 9 -25t5 -29q0 -15 -10.5 -25t-29.5 -10q-23 0 -32.5 11.5t-20.5 40.5l-38 106h-331l-38 -107q-11 -29 -21.5 -40t-30.5 -11zM445 233 l-136 377h-2l-136 -377h274z" glyph-name="Aring" horiz-adv-x="615" unicode="Å"/><glyph d="M45 -6q-15 0 -25.5 10t-10.5 27q0 12 4 23t14 31l306 597q8 16 18 23t28 7h302q18 0 31 -11.5t13 -29.5t-13 -29.5t-31 -11.5h-201v-233h191q18 0 31 -11t13 -30q0 -20 -13 -30.5t-31 -10.5h-192v-233h212q17 0 30.5 -11.5t13.5 -29.5t-13.5 -29.5t-30.5 -11.5h-258 q-17 0 -30 13.5t-13 33.5v109h-232l-51 -104q-18 -37 -32 -47.5t-30 -10.5zM390 233v382h-2l-191 -382h193z" glyph-name="AE" horiz-adv-x="762" unicode="Æ"/><glyph d="M324 -186q-35 0 -56.5 9.5t-21.5 29.5q0 10 6 17.5t20 7.5q13 0 25 -6t36 -6q14 0 21.5 8t7.5 18q0 13 -9 20t-32 7h-11q-29 0 -29 14q0 6 3.5 14.5t14.5 24.5l16 23q-70 8 -122 38t-87 77t-52.5 107.5t-17.5 129.5q0 79 22 147t63.5 118.5t100 79t131.5 28.5 q53 0 96.5 -14t73.5 -34q22 -14 34.5 -30.5t12.5 -30.5q0 -20 -12 -32.5t-27 -12.5q-7 0 -15.5 5t-20.5 14q-38 29 -70 40.5t-74 11.5q-48 0 -88 -23t-69 -62.5t-45 -92t-16 -110.5q0 -60 15 -110t44.5 -86.5t72.5 -56.5t98 -20q45 0 79 11t62 31q14 10 24.5 15.5t18.5 5.5 q17 0 27 -10.5t10 -30.5q0 -13 -10 -26.5t-27 -26.5q-29 -20 -76.5 -36.5t-102.5 -16.5h-5l-23 -33l2 -2q11 3 23 3q29 0 47.5 -17.5t18.5 -43.5q0 -38 -31 -61.5t-76 -23.5z" glyph-name="Ccedilla" horiz-adv-x="593" unicode="Ç"/><glyph d="M306 780q-5 0 -12.5 2t-21.5 7l-132 52q-20 8 -26 16.5t-6 21.5q0 16 9.5 28.5t25.5 12.5q6 0 12.5 -1t16.5 -6l145 -57q24 -10 24 -35q0 -15 -9.5 -28t-25.5 -13zM109 0q-23 0 -35.5 12.5t-12.5 32.5v623q0 20 12.5 32t35.5 12h243q18 0 31 -11.5t13 -29.5t-13 -29.5 t-31 -11.5h-201v-233h191q18 0 31 -11t13 -30q0 -20 -12.5 -30.5t-31.5 -10.5h-192v-233h211q19 0 32 -11.5t13 -29.5t-13 -29.5t-31 -11.5h-253z" glyph-name="Egrave" horiz-adv-x="448" unicode="È"/><glyph d="M142 780q-16 0 -25.5 13t-9.5 28q0 25 24 35l145 57q11 5 17 6t13 1q15 0 25 -12.5t10 -28.5q0 -13 -6 -21.5t-26 -16.5l-133 -52q-13 -5 -21 -7t-13 -2zM109 0q-23 0 -35.5 12.5t-12.5 32.5v623q0 20 12.5 32t35.5 12h243q18 0 31 -11.5t13 -29.5t-13 -29.5t-31 -11.5 h-201v-233h191q18 0 31 -11t13 -30q0 -20 -12.5 -30.5t-31.5 -10.5h-192v-233h211q19 0 32 -11.5t13 -29.5t-13 -29.5t-31 -11.5h-253z" glyph-name="Eacute" horiz-adv-x="448" unicode="É"/><glyph d="M93 777q-16 0 -25 11.5t-9 24.5t5.5 24t27.5 20l83 35q9 4 25 10.5t24 6.5t25 -7l29 -12l79 -34q14 -5 23 -14.5t9 -28.5q0 -13 -9.5 -24.5t-25.5 -11.5q-17 0 -37 10l-93 42l-95 -43q-7 -3 -17 -6t-19 -3zM109 0q-23 0 -35.5 12.5t-12.5 32.5v623q0 20 12.5 32t35.5 12 h243q18 0 31 -11.5t13 -29.5t-13 -29.5t-31 -11.5h-201v-233h191q18 0 31 -11t13 -30q0 -20 -12.5 -30.5t-31.5 -10.5h-192v-233h211q19 0 32 -11.5t13 -29.5t-13 -29.5t-31 -11.5h-253z" glyph-name="Ecircumflex" horiz-adv-x="448" unicode="Ê"/><glyph d="M130 756q-23 0 -39 16t-16 39t16 38.5t39 15.5t38.5 -15.5t15.5 -38.5t-15.5 -39t-38.5 -16zM318 756q-23 0 -38.5 16t-15.5 39t15.5 38.5t38.5 15.5q22 0 38 -15.5t16 -38.5t-15.5 -39t-38.5 -16zM109 0q-23 0 -35.5 12.5t-12.5 32.5v623q0 20 12.5 32t35.5 12h243 q18 0 31 -11.5t13 -29.5t-13 -29.5t-31 -11.5h-201v-233h191q18 0 31 -11t13 -30q0 -20 -12.5 -30.5t-31.5 -10.5h-192v-233h211q19 0 32 -11.5t13 -29.5t-13 -29.5t-31 -11.5h-253z" glyph-name="Edieresis" horiz-adv-x="448" unicode="Ë"/><glyph d="M188 780q-5 0 -12.5 2t-21.5 7l-132 52q-20 8 -26 16.5t-6 21.5q0 16 9.5 28.5t25.5 12.5q6 0 12.5 -1t16.5 -6l145 -57q24 -10 24 -35q0 -15 -9.5 -28t-25.5 -13zM105 -6q-21 0 -32.5 14t-11.5 37v622q0 23 11.5 37t32.5 14q22 0 33.5 -14t11.5 -37v-622 q0 -23 -11.5 -37t-33.5 -14z" glyph-name="Igrave" horiz-adv-x="211" unicode="Ì"/><glyph d="M24 780q-16 0 -25.5 13t-9.5 28q0 25 24 35l145 57q11 5 17 6t13 1q15 0 25 -12.5t10 -28.5q0 -13 -6 -21.5t-26 -16.5l-133 -52q-13 -5 -21 -7t-13 -2zM105 -6q-21 0 -32.5 14t-11.5 37v622q0 23 11.5 37t32.5 14q22 0 33.5 -14t11.5 -37v-622q0 -23 -11.5 -37 t-33.5 -14z" glyph-name="Iacute" horiz-adv-x="211" unicode="Í"/><glyph d="M-25 758q-16 0 -25 11.5t-9 24.5t5 24t28 20l82 35l26 10.5t23 6.5q8 0 25 -7l29 -12l79 -34q14 -5 23 -14t9 -29q0 -13 -9 -24.5t-25 -11.5q-18 0 -37 10l-94 42l-94 -43q-8 -3 -18 -6t-18 -3zM105 -6q-21 0 -32.5 14t-11.5 37v622q0 23 11.5 37t32.5 14q22 0 33.5 -14 t11.5 -37v-622q0 -23 -11.5 -37t-33.5 -14z" glyph-name="Icircumflex" horiz-adv-x="211" unicode="Î"/><glyph d="M11 756q-23 0 -38.5 16t-15.5 39t15.5 38.5t38.5 15.5t39 -15.5t16 -38.5t-16 -39t-39 -16zM200 756q-23 0 -39 16t-16 39t16 38.5t39 15.5q22 0 38 -15.5t16 -38.5t-15.5 -39t-38.5 -16zM105 -6q-21 0 -32.5 14t-11.5 37v622q0 23 11.5 37t32.5 14q22 0 33.5 -14 t11.5 -37v-622q0 -23 -11.5 -37t-33.5 -14z" glyph-name="Idieresis" horiz-adv-x="211" unicode="Ï"/><glyph d="M109 0q-23 0 -35.5 12.5t-12.5 31.5v277h-25q-21 0 -33.5 9.5t-12.5 28.5q0 18 11.5 28.5t34.5 10.5h25v270q0 20 12.5 32t35.5 12h187q70 0 126.5 -27.5t96 -76t61 -114.5t21.5 -143q0 -83 -25 -148.5t-67.5 -110.5t-98.5 -68.5t-118 -23.5h-183zM284 82q104 0 162 70.5 t58 210.5q0 61 -15 110t-43 84t-68.5 54t-90.5 19h-137v-232h132q17 0 29 -11t12 -28t-12 -27.5t-29 -10.5h-132v-239h134z" glyph-name="Eth" horiz-adv-x="637" unicode="Ð"/><glyph d="M410 771q-17 0 -35 4.5t-35 10.5t-33.5 10.5t-31.5 4.5q-10 0 -17.5 -4.5t-14 -9.5t-13 -9.5t-16.5 -4.5q-34 0 -34 34q0 14 7 27t19 22.5t27 15.5t31 6q17 0 34.5 -4.5t35 -10.5t34 -10.5t30.5 -4.5q11 0 18.5 4.5t13.5 10t13 10t16 4.5q17 0 26 -10.5t9 -26.5 q0 -14 -7.5 -26.5t-19.5 -22t-27 -15t-30 -5.5zM105 -6q-21 0 -32.5 14t-11.5 37v625q0 22 12 35t32 13q18 0 29.5 -9t20.5 -20l366 -526h2v504q0 23 11.5 37t33.5 14q21 0 32.5 -14t11.5 -37v-623q0 -23 -10.5 -36.5t-32.5 -13.5q-17 0 -27.5 9.5t-21.5 24.5l-368 526h-2 v-509q0 -23 -11.5 -37t-33.5 -14z" glyph-name="Ntilde" horiz-adv-x="673" unicode="Ñ"/><glyph d="M430 780q-5 0 -12.5 2t-21.5 7l-132 52q-20 8 -26 16.5t-6 21.5q0 16 9.5 28.5t25.5 12.5q6 0 12.5 -1t16.5 -6l145 -57q24 -10 24 -35q0 -15 -9.5 -28t-25.5 -13zM347 -8q-72 0 -129.5 28t-98 77t-62 115t-21.5 142q0 81 23 148.5t64 116t98 75t126 26.5q72 0 130 -28.5 t98.5 -77.5t62 -115.5t21.5 -142.5t-21.5 -142.5t-62 -116t-98.5 -77.5t-130 -28zM350 74q51 0 90.5 22t66.5 60t41 89t14 109q0 61 -14 113t-41 90t-67.5 59.5t-93.5 21.5q-50 0 -89.5 -20.5t-67 -58t-42 -89t-14.5 -114.5q0 -56 13 -107t39.5 -90t67.5 -62t97 -23z" glyph-name="Ograve" horiz-adv-x="695" unicode="Ò"/><glyph d="M266 780q-16 0 -25.5 13t-9.5 28q0 25 24 35l145 57q11 5 17 6t13 1q15 0 25 -12.5t10 -28.5q0 -13 -6 -21.5t-26 -16.5l-133 -52q-13 -5 -21 -7t-13 -2zM347 -8q-72 0 -129.5 28t-98 77t-62 115t-21.5 142q0 81 23 148.5t64 116t98 75t126 26.5q72 0 130 -28.5 t98.5 -77.5t62 -115.5t21.5 -142.5t-21.5 -142.5t-62 -116t-98.5 -77.5t-130 -28zM350 74q51 0 90.5 22t66.5 60t41 89t14 109q0 61 -14 113t-41 90t-67.5 59.5t-93.5 21.5q-50 0 -89.5 -20.5t-67 -58t-42 -89t-14.5 -114.5q0 -56 13 -107t39.5 -90t67.5 -62t97 -23z" glyph-name="Oacute" horiz-adv-x="695" unicode="Ó"/><glyph d="M217 777q-16 0 -25 11.5t-9 24.5t5.5 24t27.5 20l83 35q9 4 25 10.5t24 6.5t25 -7l29 -12l79 -34q14 -5 23 -14.5t9 -28.5q0 -13 -9.5 -24.5t-25.5 -11.5q-17 0 -37 10l-93 42l-95 -43q-7 -3 -17 -6t-19 -3zM347 -8q-72 0 -129.5 28t-98 77t-62 115t-21.5 142 q0 81 23 148.5t64 116t98 75t126 26.5q72 0 130 -28.5t98.5 -77.5t62 -115.5t21.5 -142.5t-21.5 -142.5t-62 -116t-98.5 -77.5t-130 -28zM350 74q51 0 90.5 22t66.5 60t41 89t14 109q0 61 -14 113t-41 90t-67.5 59.5t-93.5 21.5q-50 0 -89.5 -20.5t-67 -58t-42 -89 t-14.5 -114.5q0 -56 13 -107t39.5 -90t67.5 -62t97 -23z" glyph-name="Ocircumflex" horiz-adv-x="695" unicode="Ô"/><glyph d="M421 790q-17 0 -35 4.5t-35 10.5t-33.5 10.5t-31.5 4.5q-10 0 -17.5 -4.5t-14 -9.5t-13 -9.5t-16.5 -4.5q-34 0 -34 34q0 14 7 26.5t19 22.5t27 16t31 6q17 0 34.5 -4.5t35 -10.5t34 -10.5t30.5 -4.5q11 0 18.5 4.5t13.5 10t13 10t16 4.5q17 0 26 -10.5t9 -27.5 q0 -13 -7.5 -25.5t-19.5 -22t-27 -15t-30 -5.5zM347 -8q-72 0 -129.5 28t-98 77t-62 115t-21.5 142q0 81 23 148.5t64 116t98 75t126 26.5q72 0 130 -28.5t98.5 -77.5t62 -115.5t21.5 -142.5t-21.5 -142.5t-62 -116t-98.5 -77.5t-130 -28zM350 74q51 0 90.5 22t66.5 60 t41 89t14 109q0 61 -14 113t-41 90t-67.5 59.5t-93.5 21.5q-50 0 -89.5 -20.5t-67 -58t-42 -89t-14.5 -114.5q0 -56 13 -107t39.5 -90t67.5 -62t97 -23z" glyph-name="Otilde" horiz-adv-x="695" unicode="Õ"/><glyph d="M253 756q-23 0 -38.5 16t-15.5 39t15.5 38.5t38.5 15.5t39 -15.5t16 -38.5t-16 -39t-39 -16zM442 756q-23 0 -39 16t-16 39t16 38.5t39 15.5q22 0 38 -15.5t16 -38.5t-15.5 -39t-38.5 -16zM347 -8q-72 0 -129.5 28t-98 77t-62 115t-21.5 142q0 81 23 148.5t64 116t98 75 t126 26.5q72 0 130 -28.5t98.5 -77.5t62 -115.5t21.5 -142.5t-21.5 -142.5t-62 -116t-98.5 -77.5t-130 -28zM350 74q51 0 90.5 22t66.5 60t41 89t14 109q0 61 -14 113t-41 90t-67.5 59.5t-93.5 21.5q-50 0 -89.5 -20.5t-67 -58t-42 -89t-14.5 -114.5q0 -56 13 -107t39.5 -90 t67.5 -62t97 -23z" glyph-name="Odieresis" horiz-adv-x="695" unicode="Ö"/><glyph d="M105 25q-16 0 -27 12t-11 26q0 9 3 15.5t12 16.5l164 164l-164 164q-9 9 -12 16t-3 14q0 14 10.5 26.5t27.5 12.5q15 0 30 -15l165 -165l168 168q5 5 12 8.5t15 3.5q15 0 26.5 -12t11.5 -27q0 -7 -3 -14t-14 -18l-162 -162l163 -164q10 -10 13 -16.5t3 -14.5 q0 -14 -11 -26.5t-28 -12.5q-8 0 -14.5 4t-11.5 9l-168 167l-168 -167q-5 -5 -12 -9t-15 -4z" glyph-name="multiply" horiz-adv-x="600" unicode="×"/><glyph d="M55 -21q-14 0 -22 9t-8 20q0 14 7.5 24l15.5 20l57 67q-33 49 -51 109t-18 126q0 78 22 145t62.5 116t98 77t127.5 28q64 0 114 -21t87 -56l58 69q16 21 34 21q15 0 22.5 -8t7.5 -19q0 -10 -4.5 -18.5t-23.5 -30.5l-52 -62q35 -50 52.5 -111.5t17.5 -127.5 q0 -75 -21 -141t-61.5 -115.5t-98 -78.5t-131.5 -29q-63 0 -113 21t-88 57l-60 -71q-8 -10 -14.5 -15t-16.5 -5zM490 577q-26 28 -60.5 44.5t-83.5 16.5q-51 0 -90.5 -21.5t-67 -59.5t-41.5 -89.5t-14 -112.5q0 -41 7.5 -83t26.5 -79zM351 74q50 0 89.5 21.5t66.5 59t41 89 t14 110.5q0 51 -9.5 93.5t-25.5 74.5l-324 -385q26 -30 61.5 -46.5t86.5 -16.5z" glyph-name="Oslash" horiz-adv-x="695" unicode="Ø"/><glyph d="M417 780q-5 0 -12.5 2t-21.5 7l-132 52q-20 8 -26 16.5t-6 21.5q0 16 9.5 28.5t25.5 12.5q6 0 12.5 -1t16.5 -6l145 -57q24 -10 24 -35q0 -15 -9.5 -28t-25.5 -13zM336 -8q-62 0 -113 19t-87 52.5t-56 80.5t-20 102v421q0 23 11.5 37t32.5 14q22 0 33.5 -14t11.5 -37 v-413q0 -40 13.5 -73.5t38.5 -56.5t59 -36t75 -13t75 13t59 36.5t38.5 56.5t13.5 73v413q0 23 11 37t33 14t33.5 -14t11.5 -37v-421q0 -57 -21 -104t-57.5 -80t-86.5 -51.5t-109 -18.5z" glyph-name="Ugrave" horiz-adv-x="670" unicode="Ù"/><glyph d="M253 780q-16 0 -25.5 13t-9.5 28q0 25 24 35l145 57q11 5 17 6t13 1q15 0 25 -12.5t10 -28.5q0 -13 -6 -21.5t-26 -16.5l-133 -52q-13 -5 -21 -7t-13 -2zM336 -8q-62 0 -113 19t-87 52.5t-56 80.5t-20 102v421q0 23 11.5 37t32.5 14q22 0 33.5 -14t11.5 -37v-413 q0 -40 13.5 -73.5t38.5 -56.5t59 -36t75 -13t75 13t59 36.5t38.5 56.5t13.5 73v413q0 23 11 37t33 14t33.5 -14t11.5 -37v-421q0 -57 -21 -104t-57.5 -80t-86.5 -51.5t-109 -18.5z" glyph-name="Uacute" horiz-adv-x="670" unicode="Ú"/><glyph d="M204 758q-15 0 -24.5 11.5t-9.5 24.5t5.5 24t28.5 20l82 35q9 4 25 10.5t24 6.5t25 -7l29 -12l79 -34q14 -5 23 -14t9 -29q0 -13 -9.5 -24.5t-25.5 -11.5q-17 0 -37 10l-93 42l-95 -43q-7 -3 -17 -6t-19 -3zM336 -8q-62 0 -113 19t-87 52.5t-56 80.5t-20 102v421 q0 23 11.5 37t32.5 14q22 0 33.5 -14t11.5 -37v-413q0 -40 13.5 -73.5t38.5 -56.5t59 -36t75 -13t75 13t59 36.5t38.5 56.5t13.5 73v413q0 23 11 37t33 14t33.5 -14t11.5 -37v-421q0 -57 -21 -104t-57.5 -80t-86.5 -51.5t-109 -18.5z" glyph-name="Ucircumflex" horiz-adv-x="670" unicode="Û"/><glyph d="M241 756q-23 0 -39 16t-16 39t16 38.5t39 15.5t38.5 -15.5t15.5 -38.5t-15.5 -39t-38.5 -16zM429 756q-23 0 -38.5 16t-15.5 39t15.5 38.5t38.5 15.5q22 0 38 -15.5t16 -38.5t-15.5 -39t-38.5 -16zM336 -8q-62 0 -113 19t-87 52.5t-56 80.5t-20 102v421q0 23 11.5 37 t32.5 14q22 0 33.5 -14t11.5 -37v-413q0 -40 13.5 -73.5t38.5 -56.5t59 -36t75 -13t75 13t59 36.5t38.5 56.5t13.5 73v413q0 23 11 37t33 14t33.5 -14t11.5 -37v-421q0 -57 -21 -104t-57.5 -80t-86.5 -51.5t-109 -18.5z" glyph-name="Udieresis" horiz-adv-x="670" unicode="Ü"/><glyph d="M165 780q-16 0 -25.5 13t-9.5 28q0 25 24 35l145 57q11 5 17 6t13 1q15 0 25 -12.5t10 -28.5q0 -13 -6 -21.5t-26 -16.5l-133 -52q-13 -5 -21 -7t-13 -2zM246 -6q-21 0 -32.5 14t-11.5 37v291l-177 287q-13 19 -20.5 33.5t-7.5 25.5q0 15 11 25.5t31 10.5q23 0 34 -15 t18 -26l155 -254l164 267q11 18 21.5 23t23.5 5q19 0 29.5 -10.5t10.5 -25.5q0 -21 -28 -60l-176 -286v-291q0 -23 -11.5 -37t-33.5 -14z" glyph-name="Yacute" horiz-adv-x="493" unicode="Ý"/><glyph d="M105 -6q-22 0 -33 14t-11 38v621q0 23 11 37t33 14q45 0 45 -54v-71h144q50 0 91 -17.5t69.5 -47.5t44 -69.5t15.5 -83.5q0 -51 -16.5 -93.5t-47 -72.5t-73.5 -47t-97 -17h-130v-100q0 -23 -11 -37t-34 -14zM276 226q33 0 60.5 11t46.5 30t29.5 45.5t10.5 56.5 q0 31 -10.5 57t-29.5 45t-46 30t-61 11h-126v-286h126z" glyph-name="Thorn" horiz-adv-x="529" unicode="Þ"/><glyph d="M321 -8q-31 0 -48 12t-17 37q0 35 53 38q51 1 80.5 39t29.5 109q0 63 -28 98.5t-76 42.5q-34 5 -48 13t-14 31q0 18 8.5 26.5t31.5 14.5q38 11 56 40t18 80t-30 84t-81 33q-54 0 -81 -37.5t-27 -101.5v-506q0 -23 -11.5 -37t-32.5 -14t-32.5 14t-11.5 37v518 q0 46 14 84.5t40 66t62 43t80 15.5t80.5 -14.5t63 -41t41 -62.5t14.5 -78q0 -48 -17 -87.5t-58 -65.5q66 -20 99.5 -74.5t33.5 -130.5q0 -46 -14 -87t-39.5 -72t-60.5 -49t-78 -18z" glyph-name="germandbls" horiz-adv-x="559" unicode="ß"/><glyph d="M362 600q-5 0 -12.5 2t-21.5 7l-132 52q-20 8 -26 16.5t-6 21.5q0 16 9.5 28.5t25.5 12.5q6 0 12.5 -1t16.5 -6l145 -57q24 -10 24 -35q0 -15 -9.5 -28t-25.5 -13zM266 -8q-54 0 -97 20.5t-73 56.5t-46 86.5t-16 110.5q0 57 16.5 107t46.5 87t72.5 58.5t94.5 21.5 q47 0 81.5 -19t64.5 -57h3v28q3 46 43 46q21 0 32.5 -14t11.5 -36v-443q0 -23 -11.5 -37t-32.5 -14q-40 0 -43 46v28h-3q-24 -38 -60.5 -57t-83.5 -19zM270 69q35 0 61.5 15t44.5 41t27 62.5t9 78.5t-9 78t-27 62.5t-45 41.5t-62 15q-33 0 -59.5 -15.5t-45 -42t-28 -62.5 t-9.5 -77q0 -42 9.5 -78.5t28 -62.5t45 -41t60.5 -15z" glyph-name="agrave" horiz-adv-x="559" unicode="à"/><glyph d="M198 600q-16 0 -25.5 13t-9.5 28q0 25 24 35l145 57q11 5 17 6t13 1q15 0 25 -12.5t10 -28.5q0 -13 -6 -21.5t-26 -16.5l-133 -52q-13 -5 -21 -7t-13 -2zM266 -8q-54 0 -97 20.5t-73 56.5t-46 86.5t-16 110.5q0 57 16.5 107t46.5 87t72.5 58.5t94.5 21.5q47 0 81.5 -19 t64.5 -57h3v28q3 46 43 46q21 0 32.5 -14t11.5 -36v-443q0 -23 -11.5 -37t-32.5 -14q-40 0 -43 46v28h-3q-24 -38 -60.5 -57t-83.5 -19zM270 69q35 0 61.5 15t44.5 41t27 62.5t9 78.5t-9 78t-27 62.5t-45 41.5t-62 15q-33 0 -59.5 -15.5t-45 -42t-28 -62.5t-9.5 -77 q0 -42 9.5 -78.5t28 -62.5t45 -41t60.5 -15z" glyph-name="aacute" horiz-adv-x="559" unicode="á"/><glyph d="M149 597q-16 0 -25 11.5t-9 24.5t5.5 24t27.5 20l83 35q9 4 25 10.5t24 6.5t25 -7l29 -12l79 -34q14 -5 23 -14.5t9 -28.5q0 -13 -9.5 -24.5t-25.5 -11.5q-17 0 -37 10l-93 42l-95 -43q-7 -3 -17 -6t-19 -3zM266 -8q-54 0 -97 20.5t-73 56.5t-46 86.5t-16 110.5 q0 57 16.5 107t46.5 87t72.5 58.5t94.5 21.5q47 0 81.5 -19t64.5 -57h3v28q3 46 43 46q21 0 32.5 -14t11.5 -36v-443q0 -23 -11.5 -37t-32.5 -14q-40 0 -43 46v28h-3q-24 -38 -60.5 -57t-83.5 -19zM270 69q35 0 61.5 15t44.5 41t27 62.5t9 78.5t-9 78t-27 62.5t-45 41.5 t-62 15q-33 0 -59.5 -15.5t-45 -42t-28 -62.5t-9.5 -77q0 -42 9.5 -78.5t28 -62.5t45 -41t60.5 -15z" glyph-name="acircumflex" horiz-adv-x="559" unicode="â"/><glyph d="M353 610q-17 0 -35 4.5t-35 10.5t-33.5 10.5t-31.5 4.5q-10 0 -17.5 -4.5t-14 -9.5t-13 -9.5t-16.5 -4.5q-34 0 -34 34q0 14 7 26.5t19 22.5t27 16t31 6q17 0 34.5 -4.5t35 -10.5t34 -10.5t30.5 -4.5q11 0 18.5 4.5t13.5 10t13 10t16 4.5q17 0 26 -10.5t9 -27.5 q0 -13 -7.5 -25.5t-19.5 -22t-27 -15t-30 -5.5zM266 -8q-54 0 -97 20.5t-73 56.5t-46 86.5t-16 110.5q0 57 16.5 107t46.5 87t72.5 58.5t94.5 21.5q47 0 81.5 -19t64.5 -57h3v28q3 46 43 46q21 0 32.5 -14t11.5 -36v-443q0 -23 -11.5 -37t-32.5 -14q-40 0 -43 46v28h-3 q-24 -38 -60.5 -57t-83.5 -19zM270 69q35 0 61.5 15t44.5 41t27 62.5t9 78.5t-9 78t-27 62.5t-45 41.5t-62 15q-33 0 -59.5 -15.5t-45 -42t-28 -62.5t-9.5 -77q0 -42 9.5 -78.5t28 -62.5t45 -41t60.5 -15z" glyph-name="atilde" horiz-adv-x="559" unicode="ã"/><glyph d="M186 595q-23 0 -39 16t-16 39t16 38.5t39 15.5t38.5 -15.5t15.5 -38.5t-15.5 -39t-38.5 -16zM374 595q-23 0 -39 16t-16 39t16 38.5t39 15.5q22 0 38 -15.5t16 -38.5t-15.5 -39t-38.5 -16zM266 -8q-54 0 -97 20.5t-73 56.5t-46 86.5t-16 110.5q0 57 16.5 107t46.5 87 t72.5 58.5t94.5 21.5q47 0 81.5 -19t64.5 -57h3v28q3 46 43 46q21 0 32.5 -14t11.5 -36v-443q0 -23 -11.5 -37t-32.5 -14q-40 0 -43 46v28h-3q-24 -38 -60.5 -57t-83.5 -19zM270 69q35 0 61.5 15t44.5 41t27 62.5t9 78.5t-9 78t-27 62.5t-45 41.5t-62 15q-33 0 -59.5 -15.5 t-45 -42t-28 -62.5t-9.5 -77q0 -42 9.5 -78.5t28 -62.5t45 -41t60.5 -15z" glyph-name="adieresis" horiz-adv-x="559" unicode="ä"/><glyph d="M280 583q-39 0 -66.5 27.5t-27.5 66.5q0 19 7.5 36t20 30t30 20.5t36.5 7.5t36 -7.5t30 -20.5t20.5 -30t7.5 -36t-7.5 -36.5t-20.5 -30t-30 -20t-36 -7.5zM280 627q20 0 35 14.5t15 35.5q0 20 -15 35t-35 15q-21 0 -35.5 -15t-14.5 -35t14.5 -35t35.5 -15zM266 -8 q-54 0 -97 20.5t-73 56.5t-46 86.5t-16 110.5q0 57 16.5 107t46.5 87t72.5 58.5t94.5 21.5q47 0 81.5 -19t64.5 -57h3v28q3 46 43 46q21 0 32.5 -14t11.5 -36v-443q0 -23 -11.5 -37t-32.5 -14q-40 0 -43 46v28h-3q-24 -38 -60.5 -57t-83.5 -19zM270 69q35 0 61.5 15t44.5 41 t27 62.5t9 78.5t-9 78t-27 62.5t-45 41.5t-62 15q-33 0 -59.5 -15.5t-45 -42t-28 -62.5t-9.5 -77q0 -42 9.5 -78.5t28 -62.5t45 -41t60.5 -15z" glyph-name="aring" horiz-adv-x="559" unicode="å"/><glyph d="M266 -8q-53 0 -96 20t-73 56.5t-46.5 87t-16.5 110.5q0 56 16 105.5t46 87t72.5 59.5t95.5 22q46 0 79.5 -17t67.5 -57h2v27q0 23 10.5 35t27.5 12q16 0 26 -10.5t12 -33.5l1 -25h2q24 31 63.5 50t80.5 19q55 0 98 -21.5t73 -57t45.5 -82t15.5 -97.5q0 -28 -12.5 -40 t-38.5 -12h-322q2 -34 14 -63.5t32.5 -51.5t48 -34.5t60.5 -12.5q49 0 79.5 18.5t53.5 36.5l20 14.5t17 6.5q18 0 29 -9.5t11 -29.5q0 -24 -27 -48q-27 -26 -74.5 -45.5t-99.5 -19.5q-54 0 -96 16t-72 51h-2v-23q-2 -23 -12 -33.5t-26 -10.5q-17 0 -27.5 12t-10.5 36v29h-2 q-24 -40 -62 -58.5t-83 -18.5zM775 299q-1 35 -12 65.5t-30 53t-44.5 35.5t-56.5 13q-28 0 -52 -12.5t-42.5 -34.5t-29.5 -52.5t-13 -67.5h280zM270 69q35 0 61.5 15.5t44.5 42t27 62.5t9 77q0 39 -8.5 74.5t-26 63t-44.5 43.5t-64 16q-35 0 -61.5 -16.5t-44.5 -44t-27 -63 t-9 -73.5q0 -42 9.5 -78t27.5 -62.5t45 -41.5t61 -15z" glyph-name="ae" horiz-adv-x="896" unicode="æ"/><glyph d="M251 -186q-36 0 -57.5 9.5t-21.5 29.5q0 10 6 17.5t20 7.5q13 0 25.5 -6t35.5 -6q14 0 21.5 8t7.5 18q0 13 -8.5 20t-31.5 7h-12q-29 0 -29 14q0 6 4 14.5t15 24.5l15 22q-48 6 -86.5 30.5t-65.5 61t-41 82.5t-14 95q0 55 17 105t49 88.5t77 61t100 22.5q28 0 54.5 -5 t46.5 -14q19 -9 30 -21t11 -26q0 -19 -10.5 -32t-32.5 -13q-7 0 -14.5 3t-15.5 8q-14 7 -30.5 12.5t-42.5 5.5q-34 0 -61.5 -16t-46 -42.5t-28.5 -60.5t-10 -69q0 -40 10.5 -76t29 -62.5t45 -42t59.5 -15.5q23 0 40.5 4.5t31.5 10.5q13 5 21.5 9t15.5 4q14 0 25.5 -10.5 t11.5 -26.5q0 -18 -13 -32t-35 -23q-17 -8 -37 -11.5t-42 -5.5l-24 -34l2 -2q11 3 23 3q30 0 48 -17.5t18 -43.5q0 -38 -30.5 -61.5t-75.5 -23.5z" glyph-name="ccedilla" horiz-adv-x="448" unicode="ç"/><glyph d="M345 600q-5 0 -12.5 2t-21.5 7l-132 52q-20 8 -26 16.5t-6 21.5q0 16 9.5 28.5t25.5 12.5q6 0 12.5 -1t16.5 -6l145 -57q24 -10 24 -35q0 -15 -9.5 -28t-25.5 -13zM282 -8q-58 0 -104 21t-78 57.5t-49 87t-17 108.5q0 53 16.5 102.5t47 87.5t75 61t99.5 23q56 0 99 -21.5 t72.5 -57.5t45 -83t15.5 -98q0 -50 -52 -50h-323q2 -35 14.5 -65t32.5 -51.5t47 -33.5t58 -12q38 0 69.5 12.5t69.5 44.5q22 19 37 19q18 0 28.5 -11t10.5 -28q0 -28 -38 -57q-30 -23 -76 -39.5t-100 -16.5zM411 299q-1 36 -12.5 67t-30 53t-44 34.5t-55.5 12.5 q-58 0 -96.5 -46t-43.5 -121h282z" glyph-name="egrave" horiz-adv-x="526" unicode="è"/><glyph d="M181 600q-16 0 -25.5 13t-9.5 28q0 25 24 35l145 57q11 5 17 6t13 1q15 0 25 -12.5t10 -28.5q0 -13 -6 -21.5t-26 -16.5l-133 -52q-13 -5 -21 -7t-13 -2zM282 -8q-58 0 -104 21t-78 57.5t-49 87t-17 108.5q0 53 16.5 102.5t47 87.5t75 61t99.5 23q56 0 99 -21.5 t72.5 -57.5t45 -83t15.5 -98q0 -50 -52 -50h-323q2 -35 14.5 -65t32.5 -51.5t47 -33.5t58 -12q38 0 69.5 12.5t69.5 44.5q22 19 37 19q18 0 28.5 -11t10.5 -28q0 -28 -38 -57q-30 -23 -76 -39.5t-100 -16.5zM411 299q-1 36 -12.5 67t-30 53t-44 34.5t-55.5 12.5 q-58 0 -96.5 -46t-43.5 -121h282z" glyph-name="eacute" horiz-adv-x="526" unicode="é"/><glyph d="M132 597q-16 0 -25 11.5t-9 24.5t5.5 24t27.5 20l83 35q9 4 25 10.5t24 6.5t25 -7l29 -12l79 -34q14 -5 23 -14.5t9 -28.5q0 -13 -9.5 -24.5t-25.5 -11.5q-17 0 -37 10l-93 42l-95 -43q-7 -3 -17 -6t-19 -3zM282 -8q-58 0 -104 21t-78 57.5t-49 87t-17 108.5 q0 53 16.5 102.5t47 87.5t75 61t99.5 23q56 0 99 -21.5t72.5 -57.5t45 -83t15.5 -98q0 -50 -52 -50h-323q2 -35 14.5 -65t32.5 -51.5t47 -33.5t58 -12q38 0 69.5 12.5t69.5 44.5q22 19 37 19q18 0 28.5 -11t10.5 -28q0 -28 -38 -57q-30 -23 -76 -39.5t-100 -16.5zM411 299 q-1 36 -12.5 67t-30 53t-44 34.5t-55.5 12.5q-58 0 -96.5 -46t-43.5 -121h282z" glyph-name="ecircumflex" horiz-adv-x="526" unicode="ê"/><glyph d="M170 595q-23 0 -39 16t-16 39t16 38.5t39 15.5t38.5 -15.5t15.5 -38.5t-15.5 -39t-38.5 -16zM358 595q-23 0 -39 16t-16 39t16 38.5t39 15.5q22 0 38 -15.5t16 -38.5t-15.5 -39t-38.5 -16zM282 -8q-58 0 -104 21t-78 57.5t-49 87t-17 108.5q0 53 16.5 102.5t47 87.5 t75 61t99.5 23q56 0 99 -21.5t72.5 -57.5t45 -83t15.5 -98q0 -50 -52 -50h-323q2 -35 14.5 -65t32.5 -51.5t47 -33.5t58 -12q38 0 69.5 12.5t69.5 44.5q22 19 37 19q18 0 28.5 -11t10.5 -28q0 -28 -38 -57q-30 -23 -76 -39.5t-100 -16.5zM411 299q-1 36 -12.5 67t-30 53 t-44 34.5t-55.5 12.5q-58 0 -96.5 -46t-43.5 -121h282z" glyph-name="edieresis" horiz-adv-x="526" unicode="ë"/><glyph d="M186 600q-5 0 -12.5 2t-21.5 7l-132 52q-20 8 -26 16.5t-6 21.5q0 16 9.5 28.5t25.5 12.5q6 0 12.5 -1t16.5 -6l145 -57q24 -10 24 -35q0 -15 -9.5 -28t-25.5 -13zM104 -6q-21 0 -32.5 14t-11.5 37v443q0 22 11.5 36t32.5 14t32.5 -14t11.5 -36v-443q0 -23 -11.5 -37 t-32.5 -14z" glyph-name="igrave" horiz-adv-x="207" unicode="ì"/><glyph d="M22 600q-16 0 -25.5 13t-9.5 28q0 25 24 35l145 57q11 5 17 6t13 1q15 0 25 -12.5t10 -28.5q0 -13 -6 -21.5t-26 -16.5l-133 -52q-13 -5 -21 -7t-13 -2zM104 -6q-21 0 -32.5 14t-11.5 37v443q0 22 11.5 36t32.5 14t32.5 -14t11.5 -36v-443q0 -23 -11.5 -37t-32.5 -14z" glyph-name="iacute" horiz-adv-x="207" unicode="í"/><glyph d="M-27 597q-16 0 -25 11.5t-9 24.5t5.5 24t27.5 20l83 35q9 4 25 10.5t24 6.5t25 -7l29 -12l79 -34q14 -5 23 -14.5t9 -28.5q0 -13 -9.5 -24.5t-25.5 -11.5q-17 0 -37 10l-93 42l-95 -43q-7 -3 -17 -6t-19 -3zM104 -6q-21 0 -32.5 14t-11.5 37v443q0 22 11.5 36t32.5 14 t32.5 -14t11.5 -36v-443q0 -23 -11.5 -37t-32.5 -14z" glyph-name="icircumflex" horiz-adv-x="207" unicode="î"/><glyph d="M10 595q-23 0 -39 16t-16 39t16 38.5t39 15.5t38.5 -15.5t15.5 -38.5t-15.5 -39t-38.5 -16zM198 595q-23 0 -39 16t-16 39t16 38.5t39 15.5q22 0 38 -15.5t16 -38.5t-15.5 -39t-38.5 -16zM104 -6q-21 0 -32.5 14t-11.5 37v443q0 22 11.5 36t32.5 14t32.5 -14t11.5 -36 v-443q0 -23 -11.5 -37t-32.5 -14z" glyph-name="idieresis" horiz-adv-x="207" unicode="ï"/><glyph d="M272 -8q-56 0 -100 22t-75 59t-47 85t-16 99q0 56 16.5 105.5t46.5 86.5t73 58.5t96 21.5q39 0 72.5 -16.5t53.5 -43.5l2 1q-18 49 -51 91.5t-75 74.5l-99 -49q-8 -4 -13.5 -6t-11.5 -2q-11 0 -17 8.5t-6 18.5q0 11 6.5 17.5t14.5 10.5l81 41q-22 15 -39.5 23l-29.5 13.5 t-18.5 11t-6.5 16.5q0 13 11 24t31 11q44 0 132 -60l80 40q14 7 20.5 8.5t9.5 1.5q12 0 18.5 -8t6.5 -19q0 -16 -16 -24l-75 -37q85 -72 121.5 -169t36.5 -219q0 -69 -17 -123.5t-47.5 -93t-73.5 -59t-95 -20.5zM270 69q34 0 60.5 15t45 41.5t28 61t9.5 73.5q0 40 -10 75 t-28.5 61t-45.5 41t-61 15q-31 0 -57 -14.5t-44.5 -40t-29 -61t-10.5 -76.5q0 -39 9.5 -73.5t28 -61t45 -41.5t60.5 -15z" glyph-name="eth" unicode="ð"/><glyph d="M343 610q-17 0 -35 4.5t-35 10.5t-33.5 10.5t-30.5 4.5q-11 0 -18.5 -4.5t-14 -9.5t-13 -9.5t-16.5 -4.5q-34 0 -34 34q0 14 7 26.5t19 22.5t27 16t31 6q17 0 35 -4.5t35 -10.5t33.5 -10.5t30.5 -4.5q11 0 18.5 4.5t13.5 10t13 10t16 4.5q17 0 26 -10.5t9 -27.5 q0 -13 -7.5 -25.5t-19.5 -22t-27 -15t-30 -5.5zM104 -6q-21 0 -32.5 14t-11.5 37v443q0 22 11.5 36t32.5 14q41 0 44 -46v-22h2q50 70 138 70q42 0 77 -13.5t60.5 -38.5t39.5 -58.5t14 -74.5v-310q0 -23 -11.5 -37t-31.5 -14q-21 0 -32.5 14t-11.5 37v301q0 51 -32.5 83 t-88.5 32q-27 0 -49.5 -9.5t-39 -27t-25.5 -40.5t-9 -50v-289q0 -23 -11.5 -37t-32.5 -14z" glyph-name="ntilde" unicode="ñ"/><glyph d="M352 600q-5 0 -12.5 2t-21.5 7l-132 52q-20 8 -26 16.5t-6 21.5q0 16 9.5 28.5t25.5 12.5q6 0 12.5 -1t16.5 -6l145 -57q24 -10 24 -35q0 -15 -9.5 -28t-25.5 -13zM270 -8q-55 0 -99 20.5t-74.5 57t-46.5 86.5t-16 110q0 57 16 106.5t46.5 87t74.5 59t99 21.5 q56 0 99.5 -21.5t73.5 -58.5t46 -87t16 -107q0 -60 -16 -110.5t-46.5 -86.5t-74 -56.5t-98.5 -20.5zM270 69q34 0 60.5 15t45 41t28 62.5t9.5 78.5t-9.5 78t-27.5 62.5t-45 41.5t-62 15q-33 0 -59.5 -14.5t-44.5 -40.5t-28 -62t-10 -79q0 -42 9.5 -78.5t27.5 -63t45 -41.5 t61 -15z" glyph-name="ograve" unicode="ò"/><glyph d="M188 600q-16 0 -25.5 13t-9.5 28q0 25 24 35l145 57q11 5 17 6t13 1q15 0 25 -12.5t10 -28.5q0 -13 -6 -21.5t-26 -16.5l-133 -52q-13 -5 -21 -7t-13 -2zM270 -8q-55 0 -99 20.5t-74.5 57t-46.5 86.5t-16 110q0 57 16 106.5t46.5 87t74.5 59t99 21.5q56 0 99.5 -21.5 t73.5 -58.5t46 -87t16 -107q0 -60 -16 -110.5t-46.5 -86.5t-74 -56.5t-98.5 -20.5zM270 69q34 0 60.5 15t45 41t28 62.5t9.5 78.5t-9.5 78t-27.5 62.5t-45 41.5t-62 15q-33 0 -59.5 -14.5t-44.5 -40.5t-28 -62t-10 -79q0 -42 9.5 -78.5t27.5 -63t45 -41.5t61 -15z" glyph-name="oacute" unicode="ó"/><glyph d="M139 597q-16 0 -25 11.5t-9 24.5t5.5 24t27.5 20l83 35q9 4 25 10.5t24 6.5t25 -7l29 -12l79 -34q14 -5 23 -14.5t9 -28.5q0 -13 -9.5 -24.5t-25.5 -11.5q-17 0 -37 10l-93 42l-95 -43q-7 -3 -17 -6t-19 -3zM270 -8q-55 0 -99 20.5t-74.5 57t-46.5 86.5t-16 110 q0 57 16 106.5t46.5 87t74.5 59t99 21.5q56 0 99.5 -21.5t73.5 -58.5t46 -87t16 -107q0 -60 -16 -110.5t-46.5 -86.5t-74 -56.5t-98.5 -20.5zM270 69q34 0 60.5 15t45 41t28 62.5t9.5 78.5t-9.5 78t-27.5 62.5t-45 41.5t-62 15q-33 0 -59.5 -14.5t-44.5 -40.5t-28 -62 t-10 -79q0 -42 9.5 -78.5t27.5 -63t45 -41.5t61 -15z" glyph-name="ocircumflex" unicode="ô"/><glyph d="M343 610q-17 0 -35 4.5t-35 10.5t-33.5 10.5t-31.5 4.5q-10 0 -17.5 -4.5t-14 -9.5t-13 -9.5t-16.5 -4.5q-34 0 -34 34q0 14 7 26.5t19 22.5t27 16t31 6q17 0 34.5 -4.5t35 -10.5t34 -10.5t30.5 -4.5q11 0 18.5 4.5t13.5 10t13 10t16 4.5q17 0 26 -10.5t9 -27.5 q0 -13 -7.5 -25.5t-19.5 -22t-27 -15t-30 -5.5zM270 -8q-55 0 -99 20.5t-74.5 57t-46.5 86.5t-16 110q0 57 16 106.5t46.5 87t74.5 59t99 21.5q56 0 99.5 -21.5t73.5 -58.5t46 -87t16 -107q0 -60 -16 -110.5t-46.5 -86.5t-74 -56.5t-98.5 -20.5zM270 69q34 0 60.5 15t45 41 t28 62.5t9.5 78.5t-9.5 78t-27.5 62.5t-45 41.5t-62 15q-33 0 -59.5 -14.5t-44.5 -40.5t-28 -62t-10 -79q0 -42 9.5 -78.5t27.5 -63t45 -41.5t61 -15z" glyph-name="otilde" unicode="õ"/><glyph d="M176 595q-23 0 -39 16t-16 39t16 38.5t39 15.5t38.5 -15.5t15.5 -38.5t-15.5 -39t-38.5 -16zM364 595q-23 0 -39 16t-16 39t16 38.5t39 15.5q22 0 38 -15.5t16 -38.5t-15.5 -39t-38.5 -16zM270 -8q-55 0 -99 20.5t-74.5 57t-46.5 86.5t-16 110q0 57 16 106.5t46.5 87 t74.5 59t99 21.5q56 0 99.5 -21.5t73.5 -58.5t46 -87t16 -107q0 -60 -16 -110.5t-46.5 -86.5t-74 -56.5t-98.5 -20.5zM270 69q34 0 60.5 15t45 41t28 62.5t9.5 78.5t-9.5 78t-27.5 62.5t-45 41.5t-62 15q-33 0 -59.5 -14.5t-44.5 -40.5t-28 -62t-10 -79q0 -42 9.5 -78.5 t27.5 -63t45 -41.5t61 -15z" glyph-name="odieresis" unicode="ö"/><glyph d="M300 400q-29 0 -49 20t-20 49t20 49t49 20t49 -20t20 -49t-20 -49t-49 -20zM83 219q-17 0 -29.5 11t-12.5 29t12.5 28.5t29.5 10.5h434q17 0 29.5 -10.5t12.5 -28.5t-12.5 -29t-29.5 -11h-434zM300 -20q-29 0 -49 20t-20 48q0 29 20 49t49 20t49 -20t20 -49 q0 -28 -20 -48t-49 -20z" glyph-name="divide" horiz-adv-x="600" unicode="÷"/><glyph d="M52 -27q-11 0 -19.5 8.5t-8.5 20.5q0 6 2 12.5t15 22.5l43 52q-26 36 -38 81t-12 96q0 56 16 105.5t46.5 87t73.5 59.5t97 22q48 0 83 -13t64 -39l42 51q10 11 17 15.5t15 4.5q11 0 19.5 -8t8.5 -21q0 -14 -15 -31l-46 -57q26 -36 38 -82t12 -94q0 -60 -16 -110 t-46.5 -86.5t-74 -57t-98.5 -20.5q-45 0 -81.5 13.5t-63.5 37.5l-41 -49q-11 -14 -18 -17.5t-14 -3.5zM360 424q-15 18 -37.5 28.5t-53.5 10.5q-33 0 -59.5 -14.5t-44.5 -41t-28 -62.5t-10 -79q0 -26 4 -52.5t15 -51.5zM270 69q34 0 60.5 15t45 41.5t28 62.5t9.5 78 q0 26 -4.5 53.5t-15.5 51.5l-213 -263q16 -18 38.5 -28.5t51.5 -10.5z" glyph-name="oslash" unicode="ø"/><glyph d="M352 600q-5 0 -12.5 2t-21.5 7l-132 52q-20 8 -26 16.5t-6 21.5q0 16 9.5 28.5t25.5 12.5q6 0 12.5 -1t16.5 -6l145 -57q24 -10 24 -35q0 -15 -9.5 -28t-25.5 -13zM270 -8q-48 0 -87 13.5t-66 37.5t-42 57.5t-15 73.5v314q0 22 11.5 36t32.5 14t32.5 -14t11.5 -36v-294 q0 -59 32 -92.5t90 -33.5q57 0 89.5 33.5t32.5 92.5v294q0 21 11.5 35.5t32.5 14.5q20 0 31.5 -14.5t11.5 -35.5v-311q0 -41 -15 -75t-42.5 -58.5t-66 -38t-85.5 -13.5z" glyph-name="ugrave" unicode="ù"/><glyph d="M188 600q-16 0 -25.5 13t-9.5 28q0 25 24 35l145 57q11 5 17 6t13 1q15 0 25 -12.5t10 -28.5q0 -13 -6 -21.5t-26 -16.5l-133 -52q-13 -5 -21 -7t-13 -2zM270 -8q-48 0 -87 13.5t-66 37.5t-42 57.5t-15 73.5v314q0 22 11.5 36t32.5 14t32.5 -14t11.5 -36v-294 q0 -59 32 -92.5t90 -33.5q57 0 89.5 33.5t32.5 92.5v294q0 21 11.5 35.5t32.5 14.5q20 0 31.5 -14.5t11.5 -35.5v-311q0 -41 -15 -75t-42.5 -58.5t-66 -38t-85.5 -13.5z" glyph-name="uacute" unicode="ú"/><glyph d="M139 597q-15 0 -24.5 11.5t-9.5 24.5t5.5 24t28.5 20l82 35q9 4 25 10.5t24 6.5t25 -7l29 -12l79 -34q14 -5 23 -14.5t9 -28.5q0 -13 -9.5 -24.5t-25.5 -11.5q-17 0 -37 10l-93 42l-95 -43q-7 -3 -17 -6t-19 -3zM270 -8q-48 0 -87 13.5t-66 37.5t-42 57.5t-15 73.5v314 q0 22 11.5 36t32.5 14t32.5 -14t11.5 -36v-294q0 -59 32 -92.5t90 -33.5q57 0 89.5 33.5t32.5 92.5v294q0 21 11.5 35.5t32.5 14.5q20 0 31.5 -14.5t11.5 -35.5v-311q0 -41 -15 -75t-42.5 -58.5t-66 -38t-85.5 -13.5z" glyph-name="ucircumflex" unicode="û"/><glyph d="M176 595q-23 0 -39 16t-16 39t16 38.5t39 15.5t38.5 -15.5t15.5 -38.5t-15.5 -39t-38.5 -16zM364 595q-23 0 -39 16t-16 39t16 38.5t39 15.5q22 0 38 -15.5t16 -38.5t-15.5 -39t-38.5 -16zM270 -8q-48 0 -87 13.5t-66 37.5t-42 57.5t-15 73.5v314q0 22 11.5 36t32.5 14 t32.5 -14t11.5 -36v-294q0 -59 32 -92.5t90 -33.5q57 0 89.5 33.5t32.5 92.5v294q0 21 11.5 35.5t32.5 14.5q20 0 31.5 -14.5t11.5 -35.5v-311q0 -41 -15 -75t-42.5 -58.5t-66 -38t-85.5 -13.5z" glyph-name="udieresis" unicode="ü"/><glyph d="M138 600q-16 0 -25.5 13t-9.5 28q0 25 24 35l145 57q11 5 17 6t13 1q15 0 25 -12.5t10 -28.5q0 -13 -6 -21.5t-26 -16.5l-133 -52q-13 -5 -21 -7t-13 -2zM146 -217q-20 0 -31 11.5t-11 26.5q0 9 3.5 20.5t8.5 25.5l61 154l-157 440q-3 6 -6.5 17.5t-3.5 18.5 q0 17 11.5 29t29.5 12q16 0 27.5 -9t19.5 -32l121 -355h2l120 351q16 45 47 45q20 0 31 -12.5t11 -29.5q0 -7 -2.5 -16.5t-5.5 -17.5l-230 -639q-8 -20 -18 -30t-28 -10z" glyph-name="yacute" horiz-adv-x="440" unicode="ý"/><glyph d="M104 -217q-21 0 -32.5 13t-11.5 36v890q0 23 11.5 36.5t32.5 13.5q20 0 32 -13t12 -39v-252h2q27 34 61.5 53t82.5 19q53 0 96 -22t73 -59.5t46 -87t16 -104.5t-15.5 -104.5t-45 -87.5t-72 -60.5t-97.5 -22.5q-47 0 -81.5 18t-63.5 54h-3l1 -232q0 -23 -11.5 -36 t-32.5 -13zM290 69q34 0 60.5 15t44.5 41.5t27.5 62.5t9.5 78t-9.5 78t-27.5 62.5t-44.5 41.5t-61.5 15q-33 0 -59.5 -14.5t-45 -41t-28 -62.5t-9.5 -79q0 -42 9.5 -78.5t28 -62.5t45 -41t60.5 -15z" glyph-name="thorn" horiz-adv-x="559" unicode="þ"/><glyph d="M126 595q-23 0 -39 16t-16 39t16 38.5t39 15.5t38.5 -15.5t15.5 -38.5t-15.5 -39t-38.5 -16zM314 595q-23 0 -38.5 16t-15.5 39t15.5 38.5t38.5 15.5q22 0 38.5 -15.5t16.5 -38.5t-16 -39t-39 -16zM146 -217q-20 0 -31 11.5t-11 26.5q0 9 3.5 20.5t8.5 25.5l61 154 l-157 440q-3 6 -6.5 17.5t-3.5 18.5q0 17 11.5 29t29.5 12q16 0 27.5 -9t19.5 -32l121 -355h2l120 351q16 45 47 45q20 0 31 -12.5t11 -29.5q0 -7 -2.5 -16.5t-5.5 -17.5l-230 -639q-8 -20 -18 -30t-28 -10z" glyph-name="ydieresis" horiz-adv-x="440" unicode="ÿ"/><glyph d="M208 764q-20 0 -33.5 10.5t-13.5 30.5t13.5 30.5t33.5 10.5h202q22 0 34.5 -10.5t12.5 -30.5t-12.5 -30.5t-34.5 -10.5h-202zM52 -6q-20 0 -30.5 10t-10.5 25q0 14 7 34.5t18 47.5l204 548q13 33 28.5 47t39.5 14q23 0 39 -14t28 -47l215 -576q4 -10 9 -25t5 -29 q0 -15 -10.5 -25t-29.5 -10q-23 0 -32.5 11.5t-20.5 40.5l-38 106h-331l-38 -107q-11 -29 -21.5 -40t-30.5 -11zM445 233l-136 377h-2l-136 -377h274z" glyph-name="Amacron" horiz-adv-x="615" unicode="Ā"/><glyph d="M181 603q-20 0 -33 10.5t-13 30.5t13 30.5t33 10.5h203q21 0 34 -10.5t13 -30.5q0 -21 -13 -31t-35 -10h-202zM266 -8q-54 0 -97 20.5t-73 56.5t-46 86.5t-16 110.5q0 57 16.5 107t46.5 87t72.5 58.5t94.5 21.5q47 0 81.5 -19t64.5 -57h3v28q3 46 43 46q21 0 32.5 -14 t11.5 -36v-443q0 -23 -11.5 -37t-32.5 -14q-40 0 -43 46v28h-3q-24 -38 -60.5 -57t-83.5 -19zM270 69q35 0 61.5 15t44.5 41t27 62.5t9 78.5t-9 78t-27 62.5t-45 41.5t-62 15q-33 0 -59.5 -15.5t-45 -42t-28 -62.5t-9.5 -77q0 -42 9.5 -78.5t28 -62.5t45 -41t60.5 -15z" glyph-name="amacron" horiz-adv-x="559" unicode="ā"/><glyph d="M308 774q-31 0 -57.5 8t-46 22t-30 32.5t-10.5 39.5t9 30t24 9q22 0 37 -26q12 -22 29 -31.5t45 -9.5t44 9.5t29 29.5q8 13 15.5 20.5t21.5 7.5q16 0 24.5 -9t8.5 -30t-10.5 -39.5t-29.5 -32.5t-45 -22t-58 -8zM52 -6q-20 0 -30.5 10t-10.5 25q0 14 7 34.5t18 47.5 l204 548q13 33 28.5 47t39.5 14q23 0 39 -14t28 -47l215 -576q4 -10 9 -25t5 -29q0 -15 -10.5 -25t-29.5 -10q-23 0 -32.5 11.5t-20.5 40.5l-38 106h-331l-38 -107q-11 -29 -21.5 -40t-30.5 -11zM445 233l-136 377h-2l-136 -377h274z" glyph-name="Abreve" horiz-adv-x="615" unicode="Ă"/><glyph d="M280 594q-31 0 -57.5 8t-46 22t-30 32.5t-10.5 39.5t9 30t24 9q22 0 37 -26q12 -22 29 -31.5t45 -9.5t44 9.5t29 29.5q8 13 15.5 20.5t21.5 7.5q16 0 24.5 -9t8.5 -30t-10.5 -39.5t-29.5 -32.5t-45 -22t-58 -8zM266 -8q-54 0 -97 20.5t-73 56.5t-46 86.5t-16 110.5 q0 57 16.5 107t46.5 87t72.5 58.5t94.5 21.5q47 0 81.5 -19t64.5 -57h3v28q3 46 43 46q21 0 32.5 -14t11.5 -36v-443q0 -23 -11.5 -37t-32.5 -14q-40 0 -43 46v28h-3q-24 -38 -60.5 -57t-83.5 -19zM270 69q35 0 61.5 15t44.5 41t27 62.5t9 78.5t-9 78t-27 62.5t-45 41.5 t-62 15q-33 0 -59.5 -15.5t-45 -42t-28 -62.5t-9.5 -77q0 -42 9.5 -78.5t28 -62.5t45 -41t60.5 -15z" glyph-name="abreve" horiz-adv-x="559" unicode="ă"/><glyph d="M523 -186q-85 0 -85 69q0 37 26 66.5t71 52.5q-8 6 -12.5 15.5t-8.5 20.5l-41 114h-331l-41 -115q-7 -20 -18 -31.5t-31 -11.5t-30.5 10t-10.5 25q0 14 7 35t18 48l204 547q13 33 28.5 47t39.5 14q23 0 39 -14t28 -47l215 -576q4 -10 9 -25t5 -29q0 -23 -21 -31 q-71 -62 -71 -96q0 -29 30 -29q13 0 25.5 4.5t22.5 4.5q13 0 19 -7.5t6 -16.5q0 -18 -24 -31q-26 -13 -68 -13zM445 233l-136 377h-2l-136 -377h274z" glyph-name="Aogonek" horiz-adv-x="615" unicode="Ą"/><glyph d="M413 -186q-45 0 -65 18t-20 51q0 36 24.5 65.5t74.5 55.5q-12 11 -14 36v28h-3q-24 -38 -60.5 -57t-83.5 -19q-54 0 -97 20.5t-73 56.5t-46 86.5t-16 110.5q0 57 16.5 107t46.5 87t72.5 58.5t94.5 21.5q47 0 81.5 -19t64.5 -57h3v28q3 46 43 46q21 0 32.5 -14t11.5 -36 v-443q0 -18 -8 -31.5t-22 -17.5q-68 -57 -68 -94q0 -29 29 -29q13 0 26 4.5t23 4.5q12 0 18 -7.5t6 -16.5q0 -19 -23 -30q-25 -14 -68 -14zM270 69q35 0 61.5 15t44.5 41t27 62.5t9 78.5t-9 78t-27 62.5t-45 41.5t-62 15q-33 0 -59.5 -15.5t-45 -42t-28 -62.5t-9.5 -77 q0 -42 9.5 -78.5t28 -62.5t45 -41t60.5 -15z" glyph-name="aogonek" horiz-adv-x="559" unicode="ą"/><glyph d="M300 761q-16 0 -25.5 13t-9.5 28q0 25 24 35l145 57q10 5 16.5 6t12.5 1q16 0 25.5 -12.5t9.5 -27.5q0 -14 -6 -22.5t-26 -16.5l-132 -52q-14 -5 -21.5 -7t-12.5 -2zM362 -8q-81 0 -142 27.5t-102 75.5t-61.5 113t-20.5 139q0 79 22 147t63.5 118.5t100 79t131.5 28.5 q53 0 96.5 -14t73.5 -34q22 -14 34.5 -30.5t12.5 -30.5q0 -20 -12 -32.5t-27 -12.5q-7 0 -15.5 5t-20.5 14q-38 29 -70 40.5t-74 11.5q-48 0 -88 -23t-69 -62.5t-45 -92t-16 -110.5q0 -60 15 -110t44.5 -86.5t72.5 -56.5t98 -20q45 0 79 11t62 31q14 10 24.5 15.5t18.5 5.5 q17 0 27 -10.5t10 -30.5q0 -13 -10 -26.5t-27 -26.5q-30 -22 -78.5 -37.5t-106.5 -15.5z" glyph-name="Cacute" horiz-adv-x="593" unicode="Ć"/><glyph d="M193 600q-16 0 -25.5 13t-9.5 28q0 25 24 35l145 57q11 5 17.5 6t12.5 1q15 0 25 -12.5t10 -28.5q0 -13 -6 -21.5t-26 -16.5l-132 -52q-14 -5 -22 -7t-13 -2zM269 -8q-54 0 -97.5 23t-74 60.5t-47 86.5t-16.5 101q0 55 17 105t49 88.5t77 61t100 22.5q28 0 54.5 -5 t46.5 -14q19 -9 30 -21t11 -26q0 -19 -10.5 -32t-32.5 -13q-7 0 -14.5 3t-15.5 8q-14 7 -30.5 12.5t-42.5 5.5q-34 0 -61.5 -16t-46 -42.5t-28.5 -60.5t-10 -69q0 -40 10.5 -76t29 -62.5t45 -42t59.5 -15.5q23 0 40.5 4.5t31.5 10.5q13 5 21.5 9t15.5 4q14 0 25.5 -10.5 t11.5 -26.5q0 -18 -13 -32t-35 -23q-20 -9 -45.5 -13.5t-54.5 -4.5z" glyph-name="cacute" horiz-adv-x="448" unicode="ć"/><glyph d="M223 758q-16 0 -25 11.5t-9 24.5t5.5 24t27.5 20l83 35q9 4 25 10.5t24 6.5t25 -7l29 -12l79 -34q14 -5 23 -14t9 -29q0 -13 -9.5 -24.5t-25.5 -11.5q-17 0 -37 10l-93 42l-95 -43q-7 -3 -17 -6t-19 -3zM362 -8q-81 0 -142 27.5t-102 75.5t-61.5 113t-20.5 139 q0 79 22 147t63.5 118.5t100 79t131.5 28.5q53 0 96.5 -14t73.5 -34q22 -14 34.5 -30.5t12.5 -30.5q0 -20 -12 -32.5t-27 -12.5q-7 0 -15.5 5t-20.5 14q-38 29 -70 40.5t-74 11.5q-48 0 -88 -23t-69 -62.5t-45 -92t-16 -110.5q0 -60 15 -110t44.5 -86.5t72.5 -56.5t98 -20 q45 0 79 11t62 31q14 10 24.5 15.5t18.5 5.5q17 0 27 -10.5t10 -30.5q0 -13 -10 -26.5t-27 -26.5q-30 -22 -78.5 -37.5t-106.5 -15.5z" glyph-name="Ccircumflex" horiz-adv-x="593" unicode="Ĉ"/><glyph d="M122 597q-16 0 -25 11.5t-9 24.5t5.5 24t27.5 20l83 35q9 4 25 10.5t24 6.5t25 -7l29 -12l79 -34q14 -5 23 -14.5t9 -28.5q0 -13 -9.5 -24.5t-25.5 -11.5q-17 0 -37 10l-93 42l-95 -43q-7 -3 -17 -6t-19 -3zM269 -8q-54 0 -97.5 23t-74 60.5t-47 86.5t-16.5 101 q0 55 17 105t49 88.5t77 61t100 22.5q28 0 54.5 -5t46.5 -14q19 -9 30 -21t11 -26q0 -19 -10.5 -32t-32.5 -13q-7 0 -14.5 3t-15.5 8q-14 7 -30.5 12.5t-42.5 5.5q-34 0 -61.5 -16t-46 -42.5t-28.5 -60.5t-10 -69q0 -40 10.5 -76t29 -62.5t45 -42t59.5 -15.5q23 0 40.5 4.5 t31.5 10.5q13 5 21.5 9t15.5 4q14 0 25.5 -10.5t11.5 -26.5q0 -18 -13 -32t-35 -23q-20 -9 -45.5 -13.5t-54.5 -4.5z" glyph-name="ccircumflex" horiz-adv-x="448" unicode="ĉ"/><glyph d="M354 756q-23 0 -39 16t-16 39t16 38.5t39 15.5t38.5 -15.5t15.5 -38.5t-15.5 -39t-38.5 -16zM362 -8q-81 0 -142 27.5t-102 75.5t-61.5 113t-20.5 139q0 79 22 147t63.5 118.5t100 79t131.5 28.5q53 0 96.5 -14t73.5 -34q22 -14 34.5 -30.5t12.5 -30.5q0 -20 -12 -32.5 t-27 -12.5q-7 0 -15.5 5t-20.5 14q-38 29 -70 40.5t-74 11.5q-48 0 -88 -23t-69 -62.5t-45 -92t-16 -110.5q0 -60 15 -110t44.5 -86.5t72.5 -56.5t98 -20q45 0 79 11t62 31q14 10 24.5 15.5t18.5 5.5q17 0 27 -10.5t10 -30.5q0 -13 -10 -26.5t-27 -26.5q-30 -22 -78.5 -37.5 t-106.5 -15.5z" glyph-name="Cdotaccent" horiz-adv-x="593" unicode="Ċ"/><glyph d="M253 595q-23 0 -39 16t-16 39t16 38.5t39 15.5q22 0 38 -15.5t16 -38.5t-15.5 -39t-38.5 -16zM269 -8q-54 0 -97.5 23t-74 60.5t-47 86.5t-16.5 101q0 55 17 105t49 88.5t77 61t100 22.5q28 0 54.5 -5t46.5 -14q19 -9 30 -21t11 -26q0 -19 -10.5 -32t-32.5 -13 q-7 0 -14.5 3t-15.5 8q-14 7 -30.5 12.5t-42.5 5.5q-34 0 -61.5 -16t-46 -42.5t-28.5 -60.5t-10 -69q0 -40 10.5 -76t29 -62.5t45 -42t59.5 -15.5q23 0 40.5 4.5t31.5 10.5q13 5 21.5 9t15.5 4q14 0 25.5 -10.5t11.5 -26.5q0 -18 -13 -32t-35 -23q-20 -9 -45.5 -13.5 t-54.5 -4.5z" glyph-name="cdotaccent" horiz-adv-x="448" unicode="ċ"/><glyph d="M354 758q-8 0 -24 6.5t-25 10.5l-83 35q-22 9 -27.5 20t-5.5 24t9 24.5t25 11.5q9 0 19 -3t17 -6l95 -43l93 42q23 10 37 10q16 0 25.5 -11.5t9.5 -24.5q0 -20 -9 -29t-23 -15l-79 -33l-29 -12t-25 -7zM362 -8q-81 0 -142 27.5t-102 75.5t-61.5 113t-20.5 139 q0 79 22 147t63.5 118.5t100 79t131.5 28.5q53 0 96.5 -14t73.5 -34q22 -14 34.5 -30.5t12.5 -30.5q0 -20 -12 -32.5t-27 -12.5q-7 0 -15.5 5t-20.5 14q-38 29 -70 40.5t-74 11.5q-48 0 -88 -23t-69 -62.5t-45 -92t-16 -110.5q0 -60 15 -110t44.5 -86.5t72.5 -56.5t98 -20 q45 0 79 11t62 31q14 10 24.5 15.5t18.5 5.5q17 0 27 -10.5t10 -30.5q0 -13 -10 -26.5t-27 -26.5q-30 -22 -78.5 -37.5t-106.5 -15.5z" glyph-name="Ccaron" horiz-adv-x="593" unicode="Č"/><glyph d="M253 597q-8 0 -24 6.5t-25 10.5l-83 35q-22 9 -27.5 20t-5.5 24t9 24.5t25 11.5q9 0 19 -3t17 -6l95 -43l93 42q23 10 37 10q16 0 25.5 -11.5t9.5 -24.5q0 -20 -9 -29t-23 -15l-79 -33l-29 -12t-25 -7zM269 -8q-54 0 -97.5 23t-74 60.5t-47 86.5t-16.5 101q0 55 17 105 t49 88.5t77 61t100 22.5q28 0 54.5 -5t46.5 -14q19 -9 30 -21t11 -26q0 -19 -10.5 -32t-32.5 -13q-7 0 -14.5 3t-15.5 8q-14 7 -30.5 12.5t-42.5 5.5q-34 0 -61.5 -16t-46 -42.5t-28.5 -60.5t-10 -69q0 -40 10.5 -76t29 -62.5t45 -42t59.5 -15.5q23 0 40.5 4.5t31.5 10.5 q13 5 21.5 9t15.5 4q14 0 25.5 -10.5t11.5 -26.5q0 -18 -13 -32t-35 -23q-20 -9 -45.5 -13.5t-54.5 -4.5z" glyph-name="ccaron" horiz-adv-x="448" unicode="č"/><glyph d="M265 758q-8 0 -24 6.5l-26 10.5l-82 35q-22 9 -27.5 20t-5.5 24t9 24.5t25 11.5q9 0 19 -3t17 -6l95 -43l93 42q22 10 37 10q16 0 25.5 -11.5t9.5 -24.5q0 -20 -9 -29t-23 -15l-79 -33l-29 -12t-25 -7zM109 0q-23 0 -35.5 12.5t-12.5 31.5v624q0 20 12.5 32t35.5 12h187 q70 0 126.5 -27.5t96 -76t61 -114.5t21.5 -143q0 -83 -25 -148.5t-67.5 -110.5t-98.5 -68.5t-118 -23.5h-183zM284 82q104 0 162 70.5t58 210.5q0 61 -15 110t-43 84t-68.5 54t-90.5 19h-137v-548h134z" glyph-name="Dcaron" horiz-adv-x="637" unicode="Ď"/><glyph d="M586 598q-20 0 -28.5 11t-8.5 24q0 9 2.5 17.5t6.5 16.5l41 85q14 26 39 26q20 0 30.5 -11t10.5 -25q0 -7 -1.5 -15t-6.5 -16l-48 -90q-6 -10 -14 -16.5t-23 -6.5zM266 -8q-52 0 -95 20t-73.5 56t-47 86.5t-16.5 111.5q0 57 16.5 107t46.5 87t72.5 58.5t94.5 21.5 q46 0 80.5 -18t64.5 -54h3v254q0 21 11.5 35.5t32.5 14.5t32.5 -14.5t11.5 -35.5v-677q0 -23 -11.5 -37t-32.5 -14q-40 0 -43 46v28h-3q-24 -38 -60.5 -57t-83.5 -19zM270 69q35 0 61.5 15t44.5 41.5t27 62t9 77.5t-9.5 78t-27.5 63t-44.5 42t-61.5 15q-33 0 -59.5 -15.5 t-45 -42.5t-28 -62.5t-9.5 -76.5q0 -42 9.5 -78.5t27.5 -62.5t45 -41t61 -15z" glyph-name="dcaron" horiz-adv-x="559" unicode="ď"/><glyph d="M109 0q-23 0 -35.5 12.5t-12.5 31.5v277h-25q-21 0 -33.5 9.5t-12.5 28.5q0 18 11.5 28.5t34.5 10.5h25v270q0 20 12.5 32t35.5 12h187q70 0 126.5 -27.5t96 -76t61 -114.5t21.5 -143q0 -83 -25 -148.5t-67.5 -110.5t-98.5 -68.5t-118 -23.5h-183zM284 82q104 0 162 70.5 t58 210.5q0 61 -15 110t-43 84t-68.5 54t-90.5 19h-137v-232h132q17 0 29 -11t12 -28t-12 -27.5t-29 -10.5h-132v-239h134z" glyph-name="Dcroat" horiz-adv-x="637" unicode="Đ"/><glyph d="M266 -8q-52 0 -95 20t-73.5 56t-47 86.5t-16.5 111.5q0 57 16.5 107t46.5 87t72.5 58.5t94.5 21.5q46 0 80.5 -18t64.5 -54h3v127h-104q-20 0 -32 9.5t-12 28.5t12 28.5t32 9.5h104v51q0 21 12 35.5t32 14.5q21 0 32.5 -14.5t11.5 -35.5v-51h13q32 0 42.5 -7.5 t13.5 -30.5q0 -38 -46 -38h-23v-550q0 -23 -11.5 -37t-32.5 -14q-40 0 -43 46v28h-3q-24 -38 -60.5 -57t-83.5 -19zM270 69q35 0 61.5 15t44.5 41.5t27 62t9 77.5t-9.5 78t-27.5 63t-44.5 42t-61.5 15q-33 0 -59.5 -15.5t-45 -42.5t-28 -62.5t-9.5 -76.5q0 -42 9.5 -78.5 t27.5 -62.5t45 -41t61 -15z" glyph-name="dcroat" horiz-adv-x="559" unicode="đ"/><glyph d="M123 764q-20 0 -33 10.5t-13 30.5t13 30.5t33 10.5h203q21 0 34 -10.5t13 -30.5t-13 -30.5t-34 -10.5h-203zM109 0q-23 0 -35.5 12.5t-12.5 32.5v623q0 20 12.5 32t35.5 12h243q18 0 31 -11.5t13 -29.5t-13 -29.5t-31 -11.5h-201v-233h191q18 0 31 -11t13 -30 q0 -20 -12.5 -30.5t-31.5 -10.5h-192v-233h211q19 0 32 -11.5t13 -29.5t-13 -29.5t-31 -11.5h-253z" glyph-name="Emacron" horiz-adv-x="448" unicode="Ē"/><glyph d="M164 603q-20 0 -33.5 10.5t-13.5 30.5t13.5 30.5t33.5 10.5h203q21 0 34 -10.5t13 -30.5q0 -21 -13.5 -31t-34.5 -10h-202zM282 -8q-58 0 -104 21t-78 57.5t-49 87t-17 108.5q0 53 16.5 102.5t47 87.5t75 61t99.5 23q56 0 99 -21.5t72.5 -57.5t45 -83t15.5 -98 q0 -50 -52 -50h-323q2 -35 14.5 -65t32.5 -51.5t47 -33.5t58 -12q38 0 69.5 12.5t69.5 44.5q22 19 37 19q18 0 28.5 -11t10.5 -28q0 -28 -38 -57q-30 -23 -76 -39.5t-100 -16.5zM411 299q-1 36 -12.5 67t-30 53t-44 34.5t-55.5 12.5q-58 0 -96.5 -46t-43.5 -121h282z" glyph-name="emacron" horiz-adv-x="526" unicode="ē"/><glyph d="M225 755q-31 0 -57.5 8t-45.5 22t-29.5 32.5t-10.5 39.5t8.5 30t23.5 9q22 0 37 -26q12 -22 29 -31.5t45 -9.5t44 9.5t29 29.5q8 13 15.5 20.5t21.5 7.5q16 0 24.5 -9t8.5 -30t-10.5 -39.5t-29.5 -32.5t-45 -22t-58 -8zM109 0q-23 0 -35.5 12.5t-12.5 32.5v623 q0 20 12.5 32t35.5 12h243q18 0 31 -11.5t13 -29.5t-13 -29.5t-31 -11.5h-201v-233h191q18 0 31 -11t13 -30q0 -20 -12.5 -30.5t-31.5 -10.5h-192v-233h211q19 0 32 -11.5t13 -29.5t-13 -29.5t-31 -11.5h-253z" glyph-name="Ebreve" horiz-adv-x="448" unicode="Ĕ"/><glyph d="M266 594q-31 0 -57.5 8t-46 22t-30 32.5t-10.5 39.5t9 30t24 9q22 0 37 -26q12 -22 29 -31.5t45 -9.5t44 9.5t29 29.5q8 13 15.5 20.5t21.5 7.5q16 0 24.5 -9t8.5 -30t-10.5 -39.5t-29.5 -32.5t-45 -22t-58 -8zM282 -8q-58 0 -104 21t-78 57.5t-49 87t-17 108.5 q0 53 16.5 102.5t47 87.5t75 61t99.5 23q56 0 99 -21.5t72.5 -57.5t45 -83t15.5 -98q0 -50 -52 -50h-323q2 -35 14.5 -65t32.5 -51.5t47 -33.5t58 -12q38 0 69.5 12.5t69.5 44.5q22 19 37 19q18 0 28.5 -11t10.5 -28q0 -28 -38 -57q-30 -23 -76 -39.5t-100 -16.5zM411 299 q-1 36 -12.5 67t-30 53t-44 34.5t-55.5 12.5q-58 0 -96.5 -46t-43.5 -121h282z" glyph-name="ebreve" horiz-adv-x="526" unicode="ĕ"/><glyph d="M225 756q-22 0 -38.5 16t-16.5 39t16 38.5t39 15.5t38.5 -15.5t15.5 -38.5t-15.5 -39t-38.5 -16zM109 0q-23 0 -35.5 12.5t-12.5 32.5v623q0 20 12.5 32t35.5 12h243q18 0 31 -11.5t13 -29.5t-13 -29.5t-31 -11.5h-201v-233h191q18 0 31 -11t13 -30q0 -20 -12.5 -30.5 t-31.5 -10.5h-192v-233h211q19 0 32 -11.5t13 -29.5t-13 -29.5t-31 -11.5h-253z" glyph-name="Edotaccent" horiz-adv-x="448" unicode="Ė"/><glyph d="M266 595q-23 0 -39 16t-16 39t16 38.5t39 15.5q22 0 38 -15.5t16 -38.5t-15.5 -39t-38.5 -16zM282 -8q-58 0 -104 21t-78 57.5t-49 87t-17 108.5q0 53 16.5 102.5t47 87.5t75 61t99.5 23q56 0 99 -21.5t72.5 -57.5t45 -83t15.5 -98q0 -50 -52 -50h-323q2 -35 14.5 -65 t32.5 -51.5t47 -33.5t58 -12q38 0 69.5 12.5t69.5 44.5q22 19 37 19q18 0 28.5 -11t10.5 -28q0 -28 -38 -57q-30 -23 -76 -39.5t-100 -16.5zM411 299q-1 36 -12.5 67t-30 53t-44 34.5t-55.5 12.5q-58 0 -96.5 -46t-43.5 -121h282z" glyph-name="edotaccent" horiz-adv-x="526" unicode="ė"/><glyph d="M268 -186q-45 0 -65 18t-20 51q0 35 24.5 64.5t69.5 52.5h-168q-23 0 -35.5 12.5t-12.5 32.5v623q0 20 12.5 32t35.5 12h243q18 0 31 -11.5t13 -29.5t-13 -29.5t-31 -11.5h-201v-233h191q18 0 31 -11t13 -30q0 -20 -13 -30.5t-31 -10.5h-192v-233h211q19 0 32 -11.5 t13 -29.5t-13 -29.5t-33 -11.5h-29q-35 -28 -54.5 -54.5t-19.5 -43.5q0 -29 30 -29q12 0 25 4.5t23 4.5q13 0 19 -7.5t6 -16.5q0 -17 -20 -29q-12 -7 -30 -11t-42 -4z" glyph-name="Eogonek" horiz-adv-x="448" unicode="Ę"/><glyph d="M266 -186q-45 0 -65 18t-20 51t21 59.5t60 49.5q-54 4 -96 26t-71.5 58.5t-45 85t-15.5 104.5q0 53 16.5 102.5t47 87.5t75 61t99.5 23q56 0 99 -21.5t72.5 -57.5t45 -83t15.5 -98q0 -50 -52 -50h-323q2 -35 14.5 -65t32.5 -51.5t47 -33.5t58 -12q38 0 69.5 12.5 t69.5 44.5q22 19 37 19q18 0 28.5 -11t10.5 -28q0 -14 -10 -28.5t-27 -28.5q-24 -19 -60 -33.5t-78 -20.5q-32 -27 -49 -51t-17 -41q0 -29 29 -29q13 0 26 4.5t23 4.5q12 0 18 -7.5t6 -16.5q0 -19 -23 -31q-26 -13 -68 -13zM411 299q-1 36 -12.5 67t-30 53t-44 34.5 t-55.5 12.5q-58 0 -96.5 -46t-43.5 -121h282z" glyph-name="eogonek" horiz-adv-x="526" unicode="ę"/><glyph d="M225 758q-8 0 -24 6.5t-25 10.5l-83 35q-22 9 -27.5 20t-5.5 24t9 24.5t25 11.5q9 0 19 -3t17 -6l95 -43l93 42q23 10 37 10q16 0 25.5 -11.5t9.5 -24.5q0 -20 -9 -29t-23 -15l-79 -33l-29 -12t-25 -7zM109 0q-23 0 -35.5 12.5t-12.5 32.5v623q0 20 12.5 32t35.5 12h243 q18 0 31 -11.5t13 -29.5t-13 -29.5t-31 -11.5h-201v-233h191q18 0 31 -11t13 -30q0 -20 -12.5 -30.5t-31.5 -10.5h-192v-233h211q19 0 32 -11.5t13 -29.5t-13 -29.5t-31 -11.5h-253z" glyph-name="Ecaron" horiz-adv-x="448" unicode="Ě"/><glyph d="M266 597q-8 0 -24 6.5l-26 10.5l-82 35q-22 9 -27.5 20t-5.5 24t9 24.5t25 11.5q9 0 19 -3t17 -6l95 -43l93 42q22 10 37 10q16 0 25 -11.5t9 -24.5q0 -20 -9 -29t-23 -15l-79 -33q-11 -5 -28 -12t-25 -7zM282 -8q-58 0 -104 21t-78 57.5t-49 87t-17 108.5 q0 53 16.5 102.5t47 87.5t75 61t99.5 23q56 0 99 -21.5t72.5 -57.5t45 -83t15.5 -98q0 -50 -52 -50h-323q2 -35 14.5 -65t32.5 -51.5t47 -33.5t58 -12q38 0 69.5 12.5t69.5 44.5q22 19 37 19q18 0 28.5 -11t10.5 -28q0 -28 -38 -57q-30 -23 -76 -39.5t-100 -16.5zM411 299 q-1 36 -12.5 67t-30 53t-44 34.5t-55.5 12.5q-58 0 -96.5 -46t-43.5 -121h282z" glyph-name="ecaron" horiz-adv-x="526" unicode="ě"/><glyph d="M221 758q-15 0 -24.5 11.5t-9.5 24.5t5.5 24t27.5 20l83 35q9 4 25 10.5t24 6.5t25 -7l29 -12l79 -34q14 -5 23 -14t9 -29q0 -13 -9.5 -24.5t-25.5 -11.5q-17 0 -37 10l-93 42l-95 -43q-7 -3 -17 -6t-19 -3zM356 -8q-78 0 -137.5 27.5t-100 76.5t-61.5 115t-21 144 q0 77 22.5 144t64 116t100 77t130.5 28q69 0 127 -21.5t91 -47.5q32 -27 32 -50q0 -20 -12 -31.5t-30 -11.5q-16 0 -41 19q-48 35 -85 48t-76 13q-53 0 -95 -22.5t-71 -60.5t-44.5 -89.5t-15.5 -110.5q0 -63 15.5 -114.5t45 -88.5t71.5 -57.5t96 -20.5q93 0 146 64t55 185 h-122q-18 0 -31 11.5t-13 29.5q0 19 13 30t31 11h150q62 0 62 -65q0 -168 -75 -258t-221 -90z" glyph-name="Gcircumflex" horiz-adv-x="677" unicode="Ĝ"/><glyph d="M163 597q-16 0 -25 11.5t-9 24.5t5.5 24t27.5 20l83 35q9 4 25 10.5t24 6.5t25 -7l29 -12l79 -34q14 -5 23 -14.5t9 -28.5q0 -13 -9.5 -24.5t-25.5 -11.5q-17 0 -37 10l-93 42l-95 -43q-7 -3 -17 -6t-19 -3zM258 -217q-51 0 -99 15.5t-77 36.5q-33 24 -33 48 q0 17 10.5 29.5t29.5 12.5q14 0 36 -14q26 -18 56 -33.5t71 -15.5q72 0 116 41.5t44 121.5v46h-2q-23 -39 -61 -58t-86 -19q-54 0 -96.5 20t-72 56t-45 85.5t-15.5 109.5q0 58 16.5 108t46.5 87t72.5 58.5t94.5 21.5q45 0 83.5 -20t63.5 -55h2v27q2 21 12.5 33.5t30.5 12.5 q21 0 32.5 -14t11.5 -36v-462q0 -57 -18.5 -102t-50.5 -76.5t-76.5 -48t-96.5 -16.5zM270 69q35 0 61.5 15t44.5 41t27 62.5t9 78.5t-9 78t-27 62.5t-45 41.5t-62 15q-33 0 -59.5 -15.5t-45 -42t-28 -62.5t-9.5 -77q0 -42 9.5 -78.5t28 -62.5t45 -41t60.5 -15z" glyph-name="gcircumflex" horiz-adv-x="559" unicode="ĝ"/><glyph d="M352 755q-31 0 -57.5 8t-45.5 22t-29.5 32.5t-10.5 39.5t8.5 30t23.5 9q22 0 37 -26q12 -22 29 -31.5t45 -9.5t44 9.5t29 29.5q8 13 15.5 20.5t21.5 7.5q16 0 24.5 -9t8.5 -30t-10.5 -39.5t-29.5 -32.5t-45 -22t-58 -8zM356 -8q-78 0 -137.5 27.5t-100 76.5t-61.5 115 t-21 144q0 77 22.5 144t64 116t100 77t130.5 28q69 0 127 -21.5t91 -47.5q32 -27 32 -50q0 -20 -12 -31.5t-30 -11.5q-16 0 -41 19q-48 35 -85 48t-76 13q-53 0 -95 -22.5t-71 -60.5t-44.5 -89.5t-15.5 -110.5q0 -63 15.5 -114.5t45 -88.5t71.5 -57.5t96 -20.5q93 0 146 64 t55 185h-122q-18 0 -31 11.5t-13 29.5q0 19 13 30t31 11h150q62 0 62 -65q0 -168 -75 -258t-221 -90z" glyph-name="Gbreve" horiz-adv-x="677" unicode="Ğ"/><glyph d="M294 594q-31 0 -57.5 8t-46 22t-30 32.5t-10.5 39.5t9 30t24 9q22 0 37 -26q12 -22 29 -31.5t45 -9.5t44 9.5t29 29.5q8 13 15.5 20.5t21.5 7.5q16 0 24.5 -9t8.5 -30t-10.5 -39.5t-29.5 -32.5t-45 -22t-58 -8zM258 -217q-51 0 -99 15.5t-77 36.5q-33 24 -33 48 q0 17 10.5 29.5t29.5 12.5q14 0 36 -14q26 -18 56 -33.5t71 -15.5q72 0 116 41.5t44 121.5v46h-2q-23 -39 -61 -58t-86 -19q-54 0 -96.5 20t-72 56t-45 85.5t-15.5 109.5q0 58 16.5 108t46.5 87t72.5 58.5t94.5 21.5q45 0 83.5 -20t63.5 -55h2v27q2 21 12.5 33.5t30.5 12.5 q21 0 32.5 -14t11.5 -36v-462q0 -57 -18.5 -102t-50.5 -76.5t-76.5 -48t-96.5 -16.5zM270 69q35 0 61.5 15t44.5 41t27 62.5t9 78.5t-9 78t-27 62.5t-45 41.5t-62 15q-33 0 -59.5 -15.5t-45 -42t-28 -62.5t-9.5 -77q0 -42 9.5 -78.5t28 -62.5t45 -41t60.5 -15z" glyph-name="gbreve" horiz-adv-x="559" unicode="ğ"/><glyph d="M352 756q-22 0 -38.5 16t-16.5 39t16 38.5t39 15.5t38.5 -15.5t15.5 -38.5t-15.5 -39t-38.5 -16zM356 -8q-78 0 -137.5 27.5t-100 76.5t-61.5 115t-21 144q0 77 22.5 144t64 116t100 77t130.5 28q69 0 127 -21.5t91 -47.5q32 -27 32 -50q0 -20 -12 -31.5t-30 -11.5 q-16 0 -41 19q-48 35 -85 48t-76 13q-53 0 -95 -22.5t-71 -60.5t-44.5 -89.5t-15.5 -110.5q0 -63 15.5 -114.5t45 -88.5t71.5 -57.5t96 -20.5q93 0 146 64t55 185h-122q-18 0 -31 11.5t-13 29.5q0 19 13 30t31 11h150q62 0 62 -65q0 -168 -75 -258t-221 -90z" glyph-name="Gdotaccent" horiz-adv-x="677" unicode="Ġ"/><glyph d="M294 595q-23 0 -39 16t-16 39t16 38.5t39 15.5q22 0 38 -15.5t16 -38.5t-15.5 -39t-38.5 -16zM258 -217q-51 0 -99 15.5t-77 36.5q-33 24 -33 48q0 17 10.5 29.5t29.5 12.5q14 0 36 -14q26 -18 56 -33.5t71 -15.5q72 0 116 41.5t44 121.5v46h-2q-23 -39 -61 -58t-86 -19 q-54 0 -96.5 20t-72 56t-45 85.5t-15.5 109.5q0 58 16.5 108t46.5 87t72.5 58.5t94.5 21.5q45 0 83.5 -20t63.5 -55h2v27q2 21 12.5 33.5t30.5 12.5q21 0 32.5 -14t11.5 -36v-462q0 -57 -18.5 -102t-50.5 -76.5t-76.5 -48t-96.5 -16.5zM270 69q35 0 61.5 15t44.5 41t27 62.5 t9 78.5t-9 78t-27 62.5t-45 41.5t-62 15q-33 0 -59.5 -15.5t-45 -42t-28 -62.5t-9.5 -77q0 -42 9.5 -78.5t28 -62.5t45 -41t60.5 -15z" glyph-name="gdotaccent" horiz-adv-x="559" unicode="ġ"/><glyph d="M356 -8q-78 0 -137.5 27.5t-100 76.5t-61.5 115t-21 144q0 77 22.5 144t64 116t100 77t130.5 28q69 0 127 -21.5t91 -47.5q32 -27 32 -50q0 -20 -12 -31.5t-30 -11.5q-16 0 -41 19q-48 35 -85 48t-76 13q-53 0 -95 -22.5t-71 -60.5t-44.5 -89.5t-15.5 -110.5 q0 -63 15.5 -114.5t45 -88.5t71.5 -57.5t96 -20.5q93 0 146 64t55 185h-122q-18 0 -31 11.5t-13 29.5q0 19 13 30t31 11h150q62 0 62 -65q0 -168 -75 -258t-221 -90zM293 -185q-15 0 -25.5 9.5t-10.5 22.5q0 16 21 37l52 58q9 11 16.5 15.5t18.5 4.5q18 0 30.5 -12t12.5 -26 q0 -11 -6.5 -19t-16.5 -18l-48 -47q-11 -11 -19.5 -18t-24.5 -7z" glyph-name="uni0122" horiz-adv-x="677" unicode="Ģ"/><glyph d="M299 600q-17 0 -29.5 12.5t-12.5 26.5q0 11 5.5 18.5t16.5 18.5l45 50q9 10 17 17.5t25 7.5q15 0 26 -10t11 -23q0 -10 -5 -18.5t-16 -19.5l-48 -58q-9 -13 -16.5 -17.5t-18.5 -4.5zM258 -217q-51 0 -99 15.5t-77 36.5q-33 24 -33 48q0 17 10.5 29.5t29.5 12.5 q14 0 36 -14q26 -18 56 -33.5t71 -15.5q72 0 116 41.5t44 121.5v46h-2q-23 -39 -61 -58t-86 -19q-54 0 -96.5 20t-72 56t-45 85.5t-15.5 109.5q0 58 16.5 108t46.5 87t72.5 58.5t94.5 21.5q45 0 83.5 -20t63.5 -55h2v27q2 21 12.5 33.5t30.5 12.5q21 0 32.5 -14t11.5 -36 v-462q0 -57 -18.5 -102t-50.5 -76.5t-76.5 -48t-96.5 -16.5zM270 69q35 0 61.5 15t44.5 41t27 62.5t9 78.5t-9 78t-27 62.5t-45 41.5t-62 15q-33 0 -59.5 -15.5t-45 -42t-28 -62.5t-9.5 -77q0 -42 9.5 -78.5t28 -62.5t45 -41t60.5 -15z" glyph-name="uni0123" horiz-adv-x="559" unicode="ģ"/><glyph d="M207 758q-15 0 -24.5 11.5t-9.5 24.5t5.5 24t27.5 20l83 35q9 4 25 10.5t24 6.5t25 -7l29 -12l79 -34q14 -5 23 -14t9 -29q0 -13 -9.5 -24.5t-25.5 -11.5q-17 0 -37 10l-93 42l-95 -43q-7 -3 -17 -6t-19 -3zM105 -6q-21 0 -32.5 14t-11.5 37v622q0 23 11.5 37t32.5 14 q22 0 33.5 -14t11.5 -37v-261h374v261q0 23 11.5 37t33.5 14q21 0 32.5 -14t11.5 -37v-622q0 -23 -11.5 -37t-32.5 -14q-22 0 -33.5 14t-11.5 37v279h-374v-279q0 -23 -11.5 -37t-33.5 -14z" glyph-name="Hcircumflex" horiz-adv-x="674" unicode="Ĥ"/><glyph d="M95 808q-16 0 -25.5 11.5t-9.5 24.5q0 12 5.5 23.5t28.5 20.5l82 35q9 4 25 10t24 6t25 -6.5t29 -11.5l79 -34q14 -6 23 -15t9 -28q0 -13 -9.5 -24.5t-24.5 -11.5q-17 0 -38 9l-93 43l-95 -43q-7 -4 -17 -6.5t-18 -2.5zM104 -6q-21 0 -32.5 14t-11.5 37v677 q0 21 11.5 35.5t32.5 14.5t32.5 -14.5t11.5 -35.5v-248h2q29 35 63 50.5t75 15.5q42 0 77 -13.5t60.5 -38.5t39.5 -58.5t14 -74.5v-310q0 -23 -11.5 -37t-31.5 -14q-21 0 -32.5 14t-11.5 37v303q0 49 -32.5 81t-88.5 32q-55 0 -89 -36.5t-34 -90.5v-289q0 -23 -11.5 -37 t-32.5 -14z" glyph-name="hcircumflex" unicode="ĥ"/><glyph d="M105 -6q-21 0 -32.5 14t-11.5 37v622q0 23 11.5 37t32.5 14q45 0 45 -52v-72h374v72q0 52 45 52q21 0 32.5 -14t11.5 -37v-622q0 -23 -11.5 -37t-32.5 -14q-22 0 -33.5 14t-11.5 37v279h-374v-279q0 -23 -11.5 -37t-33.5 -14zM524 406v113h-374v-113h374z" glyph-name="Hbar" horiz-adv-x="674" unicode="Ħ"/><glyph d="M104 -6q-21 0 -32.5 14t-11.5 37v550h-20q-26 0 -37 9.5t-11 28.5t12 28.5t42 9.5h14v51q0 21 11.5 35.5t32.5 14.5t32.5 -14.5t11.5 -35.5v-51h95q20 0 32 -9t12 -29t-12 -29t-32 -9h-95v-121h2q29 35 63 50.5t75 15.5q42 0 77 -13.5t60.5 -38.5t39.5 -58.5t14 -74.5 v-310q0 -23 -11.5 -37t-31.5 -14q-21 0 -32.5 14t-11.5 37v303q0 49 -32.5 81t-88.5 32q-55 0 -89 -36.5t-34 -90.5v-289q0 -23 -11.5 -37t-32.5 -14z" glyph-name="hbar" unicode="ħ"/><glyph d="M179 790q-17 0 -35 4.5t-35 10.5t-33.5 10.5t-31.5 4.5q-10 0 -17.5 -4.5t-14 -9.5t-13 -9.5t-16.5 -4.5q-34 0 -34 34q0 14 7 26.5t19 22.5t27 16t31 6q17 0 34.5 -4.5t35 -10.5t34 -10.5t30.5 -4.5q11 0 18.5 4.5t13.5 10t13 10t16 4.5q17 0 26 -10.5t9 -27.5 q0 -13 -7.5 -25.5t-19.5 -22t-27 -15t-30 -5.5zM105 -6q-21 0 -32.5 14t-11.5 37v622q0 23 11.5 37t32.5 14q22 0 33.5 -14t11.5 -37v-622q0 -23 -11.5 -37t-33.5 -14z" glyph-name="Itilde" horiz-adv-x="211" unicode="Ĩ"/><glyph d="M177 610q-17 0 -35 4.5t-35 10.5t-33.5 10.5t-31.5 4.5q-10 0 -17.5 -4.5t-14 -9.5t-13 -9.5t-16.5 -4.5q-34 0 -34 34q0 14 7 26.5t19 22.5t27 16t31 6q17 0 34.5 -4.5t35 -10.5t34 -10.5t30.5 -4.5q11 0 18.5 4.5t13.5 10t13 10t16 4.5q17 0 26 -10.5t9 -27.5 q0 -13 -7.5 -25.5t-19.5 -22t-27 -15t-30 -5.5zM104 -6q-21 0 -32.5 14t-11.5 37v443q0 22 11.5 36t32.5 14t32.5 -14t11.5 -36v-443q0 -23 -11.5 -37t-32.5 -14z" glyph-name="itilde" horiz-adv-x="207" unicode="ĩ"/><glyph d="M4 764q-20 0 -33.5 10.5t-13.5 30.5t13.5 30.5t33.5 10.5h203q21 0 34 -10.5t13 -30.5t-13 -30.5t-34 -10.5h-203zM105 -6q-21 0 -32.5 14t-11.5 37v622q0 23 11.5 37t32.5 14q22 0 33.5 -14t11.5 -37v-622q0 -23 -11.5 -37t-33.5 -14z" glyph-name="Imacron" horiz-adv-x="211" unicode="Ī"/><glyph d="M2 603q-20 0 -33 10.5t-13 30.5t13 30.5t33 10.5h203q21 0 34 -10.5t13 -30.5q0 -21 -13 -31t-35 -10h-202zM104 -6q-21 0 -32.5 14t-11.5 37v443q0 22 11.5 36t32.5 14t32.5 -14t11.5 -36v-443q0 -23 -11.5 -37t-32.5 -14z" glyph-name="imacron" horiz-adv-x="207" unicode="ī"/><glyph d="M106 755q-31 0 -57.5 8t-46 22t-30 32.5t-10.5 39.5t9 30t24 9q22 0 37 -26q12 -22 29 -31.5t45 -9.5t44 9.5t29 29.5q8 13 15.5 20.5t21.5 7.5q16 0 24.5 -9t8.5 -30t-10.5 -39.5t-29.5 -32.5t-45 -22t-58 -8zM105 -6q-21 0 -32.5 14t-11.5 37v622q0 23 11.5 37t32.5 14 q22 0 33.5 -14t11.5 -37v-622q0 -23 -11.5 -37t-33.5 -14z" glyph-name="Ibreve" horiz-adv-x="211" unicode="Ĭ"/><glyph d="M104 594q-31 0 -57.5 8t-46 22t-30 32.5t-10.5 39.5t9 30t24 9q22 0 37 -26q12 -22 29 -31.5t45 -9.5t44 9.5t29 29.5q8 13 15.5 20.5t21.5 7.5q16 0 24.5 -9t8.5 -30t-10.5 -39.5t-29.5 -32.5t-45 -22t-58 -8zM104 -6q-21 0 -32.5 14t-11.5 37v443q0 22 11.5 36t32.5 14 t32.5 -14t11.5 -36v-443q0 -23 -11.5 -37t-32.5 -14z" glyph-name="ibreve" horiz-adv-x="207" unicode="ĭ"/><glyph d="M65 -186q-45 0 -65 18t-20 51q0 35 26.5 65.5t71.5 53.5q-9 8 -13 19.5t-4 24.5v621q0 23 11.5 37t32.5 14q22 0 33.5 -14t11.5 -37v-620q0 -17 -5.5 -30t-19.5 -18q-71 -60 -71 -97q0 -29 29 -29q12 0 25 4.5t24 4.5q12 0 18 -7t6 -17q0 -18 -22 -30q-12 -6 -29 -10 t-40 -4z" glyph-name="Iogonek" horiz-adv-x="211" unicode="Į"/><glyph d="M104 613q-23 0 -40.5 16.5t-17.5 41.5q0 23 17 40t41 17t40.5 -17t16.5 -40q0 -25 -16.5 -41.5t-40.5 -16.5zM63 -186q-45 0 -65 18t-20 51q0 36 26.5 66.5t72.5 53.5q-9 7 -13 18t-4 24v443q0 22 11.5 36t32.5 14t32.5 -14t11.5 -36v-443q0 -31 -22 -45q-30 -22 -52 -50 t-22 -48q0 -29 29 -29q12 0 25.5 4.5t23.5 4.5q12 0 18 -7.5t6 -16.5q0 -19 -25 -31q-24 -13 -66 -13z" glyph-name="iogonek" horiz-adv-x="207" unicode="į"/><glyph d="M106 756q-23 0 -39 16t-16 39t16 38.5t39 15.5t38.5 -15.5t15.5 -38.5t-15.5 -39t-38.5 -16zM105 -6q-21 0 -32.5 14t-11.5 37v622q0 23 11.5 37t32.5 14q22 0 33.5 -14t11.5 -37v-622q0 -23 -11.5 -37t-33.5 -14z" glyph-name="Idotaccent" horiz-adv-x="211" unicode="İ"/><glyph d="M104 -6q-21 0 -32.5 14t-11.5 37v443q0 22 11.5 36t32.5 14t32.5 -14t11.5 -36v-443q0 -23 -11.5 -37t-32.5 -14z" glyph-name="dotlessi" horiz-adv-x="207" unicode="ı"/><glyph d="M105 -6q-21 0 -32.5 14t-11.5 37v622q0 23 11.5 37t32.5 14q22 0 33.5 -14t11.5 -37v-622q0 -23 -11.5 -37t-33.5 -14zM362 -14q-30 0 -57.5 7t-48.5 18t-33.5 25t-12.5 29q0 19 9.5 30t26.5 11q10 0 20 -6.5l22.5 -14.5t29 -14.5t40.5 -6.5q44 0 63.5 26t19.5 80v490 q0 24 11.5 38t32.5 14q22 0 33.5 -14t11.5 -38v-494q0 -84 -44 -132t-124 -48z" glyph-name="IJ" horiz-adv-x="591" unicode="Ĳ"/><glyph d="M104 613q-23 0 -40 16.5t-17 41.5q0 23 17 40t40 17q25 0 41.5 -17t16.5 -40q0 -25 -17 -41.5t-41 -16.5zM296 613q-23 0 -40 16.5t-17 41.5q0 23 17 40t40 17q25 0 41 -17t16 -40q0 -25 -16 -41.5t-41 -16.5zM104 -6q-21 0 -32.5 14t-11.5 37v443q0 22 11.5 36t32.5 14 q22 0 33 -14t11 -36v-443q0 -23 -11.5 -37t-32.5 -14zM296 -217q-21 0 -32.5 14t-11.5 36v653q0 23 11.5 37.5t32.5 14.5t32.5 -14.5t11.5 -37.5v-653q0 -22 -11.5 -36t-32.5 -14z" glyph-name="ij" horiz-adv-x="400" unicode="ĳ"/><glyph d="M131 758q-15 0 -24.5 11.5t-9.5 24.5t5.5 24t28.5 20l82 35q9 4 25 10.5t24 6.5t25 -7l29 -12l79 -34q14 -5 23 -14t9 -29q0 -13 -9.5 -24.5t-24.5 -11.5q-18 0 -38 10l-93 42l-95 -43q-7 -3 -17 -6t-19 -3zM137 -8q-30 0 -57.5 7t-48.5 18t-33.5 25t-12.5 29q0 19 10 30 t26 11q10 0 20 -6.5l22.5 -14.5t29 -14.5t40.5 -6.5q44 0 63.5 26t19.5 80v491q0 23 11.5 37t33.5 14q21 0 32.5 -14t11.5 -37v-495q0 -83 -44 -131.5t-124 -48.5z" glyph-name="Jcircumflex" horiz-adv-x="366" unicode="Ĵ"/><glyph d="M-27 597q-16 0 -25 11.5t-9 24.5t5.5 24t27.5 20l83 35q9 4 25 10.5t24 6.5t25 -7l29 -12l79 -34q14 -5 23 -14.5t9 -28.5q0 -13 -9.5 -24.5t-25.5 -11.5q-17 0 -37 10l-93 42l-95 -43q-7 -3 -17 -6t-19 -3zM104 -217q-21 0 -32.5 14t-11.5 36v654q0 23 11.5 37t32.5 14 t32.5 -14t11.5 -37v-654q0 -22 -11.5 -36t-32.5 -14z" glyph-name="jcircumflex" horiz-adv-x="207" unicode="ĵ"/><glyph d="M105 -6q-21 0 -32.5 14t-11.5 37v622q0 23 11.5 37t32.5 14q22 0 33.5 -14t11.5 -37v-255l290 268q15 15 29.5 26.5t31.5 11.5q18 0 29 -12t11 -27q0 -17 -10.5 -28t-37.5 -35l-260 -238l315 -306q19 -19 19 -38q0 -17 -11.5 -28.5t-30.5 -11.5q-12 0 -22.5 5t-31.5 27 l-321 314v-295q0 -23 -11.5 -37t-33.5 -14zM214 -185q-14 0 -25 9.5t-11 22.5q0 16 22 37l51 58q9 11 16.5 15.5t18.5 4.5q18 0 30.5 -12t12.5 -26q0 -11 -6 -19t-17 -18l-48 -47q-11 -11 -19.5 -18t-24.5 -7z" glyph-name="uni0136" horiz-adv-x="563" unicode="Ķ"/><glyph d="M104 -6q-21 0 -32.5 14t-11.5 37v677q0 21 11.5 35.5t32.5 14.5t32.5 -14.5t11.5 -35.5v-376l202 169q17 14 25.5 18.5t17.5 4.5q17 0 28 -11t11 -28q0 -14 -6.5 -23.5t-21.5 -22.5l-191 -150l219 -221q19 -20 24 -29.5t5 -20.5q0 -16 -11 -27t-28 -11q-16 0 -29 7.5 t-25 21.5l-220 231v-209q0 -23 -11.5 -37t-32.5 -14zM167 -185q-15 0 -25.5 9.5t-10.5 22.5q0 16 21 37l52 58q9 11 16.5 15.5t18.5 4.5q18 0 30 -12t12 -26q0 -11 -6 -19t-16 -18l-48 -47q-11 -11 -19.5 -18t-24.5 -7z" glyph-name="uni0137" horiz-adv-x="455" unicode="ķ"/><glyph d="M104 -6q-21 0 -32.5 14t-11.5 37v443q0 22 11.5 36t32.5 14t32.5 -14t11.5 -36v-142l202 169q17 14 25.5 18.5t17.5 4.5q17 0 28 -11t11 -28q0 -14 -6.5 -23.5t-21.5 -22.5l-191 -150l219 -221q19 -20 24 -29.5t5 -20.5q0 -16 -11 -27t-28 -11q-16 0 -29 7.5t-25 21.5 l-220 231v-209q0 -23 -11.5 -37t-32.5 -14z" glyph-name="kgreenlandic" horiz-adv-x="455" unicode="ĸ"/><glyph d="M60 761q-15 0 -25 13t-10 28q0 25 25 35l145 57q10 5 16.5 6t12.5 1q16 0 25.5 -12.5t9.5 -27.5q0 -14 -6 -22.5t-26 -16.5l-132 -52q-14 -5 -22 -7t-13 -2zM104 0q-17 0 -30 12.5t-13 30.5v624q0 23 11.5 37t32.5 14q22 0 33.5 -14t11.5 -37v-585h187q19 0 31.5 -11.5 t12.5 -29.5t-13 -29.5t-31 -11.5h-233z" glyph-name="Lacute" horiz-adv-x="384" unicode="Ĺ"/><glyph d="M39 787q-16 0 -25.5 12.5t-9.5 28.5q0 26 24 34l145 58q18 7 29 7q16 0 25.5 -12.5t9.5 -28.5q0 -13 -6 -21.5t-26 -16.5l-132 -52q-14 -5 -21.5 -7t-12.5 -2zM104 -6q-21 0 -32.5 14t-11.5 37v677q0 21 11.5 35.5t32.5 14.5t32.5 -14.5t11.5 -35.5v-677q0 -23 -11.5 -37 t-32.5 -14z" glyph-name="lacute" horiz-adv-x="207" unicode="ĺ"/><glyph d="M104 0q-17 0 -30 12.5t-13 30.5v624q0 23 11.5 37t32.5 14q22 0 33.5 -14t11.5 -37v-585h187q19 0 31.5 -11.5t12.5 -29.5t-13 -29.5t-31 -11.5h-233zM149 -185q-14 0 -25 9.5t-11 22.5q0 16 22 37l52 58q9 11 16.5 15.5t18.5 4.5q17 0 29.5 -12t12.5 -26q0 -11 -6 -19 t-17 -18l-48 -47q-10 -11 -19 -18t-25 -7z" glyph-name="uni013B" horiz-adv-x="384" unicode="Ļ"/><glyph d="M104 -6q-21 0 -32.5 14t-11.5 37v677q0 21 11.5 35.5t32.5 14.5t32.5 -14.5t11.5 -35.5v-677q0 -23 -11.5 -37t-32.5 -14zM37 -185q-14 0 -25 9.5t-11 22.5q0 16 22 37l51 58q9 11 16.5 15.5t19.5 4.5q17 0 29.5 -12t12.5 -26q0 -11 -6 -19t-17 -18l-48 -47 q-11 -11 -19.5 -18t-24.5 -7z" glyph-name="uni013C" horiz-adv-x="207" unicode="ļ"/><glyph d="M253 598q-20 0 -28.5 11t-8.5 24q0 16 8 34l42 85q12 26 38 26q20 0 31 -11t11 -25q0 -7 -1.5 -15t-6.5 -16l-48 -90q-6 -10 -14.5 -16.5t-22.5 -6.5zM104 0q-17 0 -30 12.5t-13 30.5v624q0 23 11.5 37t32.5 14q22 0 33.5 -14t11.5 -37v-585h187q19 0 31.5 -11.5 t12.5 -29.5t-13 -29.5t-31 -11.5h-233z" glyph-name="Lcaron" horiz-adv-x="384" unicode="Ľ"/><glyph d="M229 598q-20 0 -28.5 11t-8.5 24q0 16 8 34l42 85q12 26 38 26q20 0 31 -11t11 -25q0 -7 -1.5 -15t-6.5 -16l-48 -90q-6 -10 -14.5 -16.5t-22.5 -6.5zM104 -6q-21 0 -32.5 14t-11.5 37v677q0 21 11.5 35.5t32.5 14.5t32.5 -14.5t11.5 -35.5v-677q0 -23 -11.5 -37 t-32.5 -14z" glyph-name="lcaron" horiz-adv-x="202" unicode="ľ"/><glyph d="M104 0q-17 0 -30 12.5t-13 30.5v624q0 23 11.5 37t32.5 14q22 0 33.5 -14t11.5 -37v-585h187q19 0 31.5 -11.5t12.5 -29.5t-13 -29.5t-31 -11.5h-233zM296 300q-23 0 -39 16t-16 39t16.5 38.5t38.5 15.5t38 -15.5t16 -38.5t-15.5 -39t-38.5 -16z" glyph-name="Ldot" horiz-adv-x="384" unicode="Ŀ"/><glyph d="M104 -6q-21 0 -32.5 14t-11.5 37v677q0 21 11.5 35.5t32.5 14.5t32.5 -14.5t11.5 -35.5v-677q0 -23 -11.5 -37t-32.5 -14zM253 300q-23 0 -38.5 16t-15.5 39t16 38.5t38 15.5q23 0 39 -15.5t16 -38.5t-16 -39t-39 -16z" glyph-name="ldot" horiz-adv-x="298" unicode="ŀ"/><glyph d="M104 0q-17 0 -30 13t-13 34v246l-36 -22.5t-23 -8.5q-14 0 -22 9.5t-8 24.5q0 10 4.5 19t19.5 18l65 40v294q0 23 11.5 37t32.5 14q22 0 33.5 -14t11.5 -37v-238l79 49q11 6 17 9t12 3q14 0 22 -10t8 -24t-7 -22.5t-17 -14.5l-114 -70v-267h187q19 0 31.5 -11.5 t12.5 -29.5t-13 -29.5t-31 -11.5h-233z" glyph-name="Lslash" horiz-adv-x="384" unicode="Ł"/><glyph d="M130 -6q-21 0 -32 14t-11 37v272q-13 -9 -27 -22t-28 -13t-22.5 9.5t-8.5 21.5q0 11 8.5 20.5t16.5 16.5l61 52v320q0 21 11 35.5t32 14.5q22 0 33 -14.5t11 -35.5v-259q23 20 33.5 27t22.5 7q14 0 22 -8.5t8 -22.5q0 -10 -5.5 -18t-16.5 -17l-64 -54v-332 q0 -23 -11.5 -37t-32.5 -14z" glyph-name="lslash" horiz-adv-x="262" unicode="ł"/><glyph d="M268 761q-16 0 -25.5 13t-9.5 28q0 25 24 35l145 57q10 5 16.5 6t13.5 1q15 0 24.5 -12.5t9.5 -27.5q0 -14 -5.5 -22.5t-26.5 -16.5l-132 -52q-13 -5 -21 -7t-13 -2zM105 -6q-21 0 -32.5 14t-11.5 37v625q0 22 12 35t32 13q18 0 29.5 -9t20.5 -20l366 -526h2v504 q0 23 11.5 37t33.5 14q21 0 32.5 -14t11.5 -37v-623q0 -23 -10.5 -36.5t-32.5 -13.5q-17 0 -27.5 9.5t-21.5 24.5l-368 526h-2v-509q0 -23 -11.5 -37t-33.5 -14z" glyph-name="Nacute" horiz-adv-x="673" unicode="Ń"/><glyph d="M214 600q-16 0 -25.5 13t-9.5 28q0 25 24 35l145 57q11 5 17 6t13 1q15 0 25 -12.5t10 -28.5q0 -13 -6 -21.5t-26 -16.5l-133 -52q-13 -5 -21 -7t-13 -2zM104 -6q-21 0 -32.5 14t-11.5 37v443q0 22 11.5 36t32.5 14q41 0 44 -46v-22h2q50 70 138 70q42 0 77 -13.5 t60.5 -38.5t39.5 -58.5t14 -74.5v-310q0 -23 -11.5 -37t-31.5 -14q-21 0 -32.5 14t-11.5 37v301q0 51 -32.5 83t-88.5 32q-27 0 -49.5 -9.5t-39 -27t-25.5 -40.5t-9 -50v-289q0 -23 -11.5 -37t-32.5 -14z" glyph-name="nacute" unicode="ń"/><glyph d="M105 -6q-21 0 -32.5 14t-11.5 37v625q0 22 12 35t32 13q18 0 29.5 -9t20.5 -20l366 -526h2v504q0 23 11.5 37t33.5 14q21 0 32.5 -14t11.5 -37v-623q0 -23 -10.5 -36.5t-32.5 -13.5q-17 0 -27.5 9.5t-21.5 24.5l-368 526h-2v-509q0 -23 -11.5 -37t-33.5 -14zM269 -185 q-14 0 -25 9.5t-11 22.5q0 16 22 37l52 58q9 11 16.5 15.5t18.5 4.5q17 0 29.5 -12t12.5 -26q0 -11 -6 -19t-17 -18l-48 -47q-10 -11 -19 -18t-25 -7z" glyph-name="uni0145" horiz-adv-x="673" unicode="Ņ"/><glyph d="M104 -6q-21 0 -32.5 14t-11.5 37v443q0 22 11.5 36t32.5 14q41 0 44 -46v-22h2q50 70 138 70q42 0 77 -13.5t60.5 -38.5t39.5 -58.5t14 -74.5v-310q0 -23 -11.5 -37t-31.5 -14q-21 0 -32.5 14t-11.5 37v301q0 51 -32.5 83t-88.5 32q-27 0 -49.5 -9.5t-39 -27t-25.5 -40.5 t-9 -50v-289q0 -23 -11.5 -37t-32.5 -14zM194 -185q-14 0 -25 9.5t-11 22.5q0 9 5.5 17.5t16.5 19.5l52 58q9 11 16.5 15.5t18.5 4.5q18 0 30 -12t12 -26q0 -11 -6 -19t-17 -18l-48 -47q-10 -11 -18.5 -18t-25.5 -7z" glyph-name="uni0146" unicode="ņ"/><glyph d="M338 758q-8 0 -24 6.5l-26 10.5l-82 35q-22 9 -27.5 20t-5.5 24t9 24.5t25 11.5q9 0 19 -3t17 -6l95 -43l93 42q22 10 37 10q16 0 25 -11.5t9 -24.5q0 -20 -9 -29t-23 -15l-79 -33q-11 -5 -28 -12t-25 -7zM105 -6q-21 0 -32.5 14t-11.5 37v625q0 22 12 35t32 13 q18 0 29.5 -9t20.5 -20l366 -526h2v504q0 23 11.5 37t33.5 14q21 0 32.5 -14t11.5 -37v-623q0 -23 -10.5 -36.5t-32.5 -13.5q-17 0 -27.5 9.5t-21.5 24.5l-368 526h-2v-509q0 -23 -11.5 -37t-33.5 -14z" glyph-name="Ncaron" horiz-adv-x="673" unicode="Ň"/><glyph d="M272 597q-8 0 -24 6.5t-25 10.5l-83 35q-22 9 -27.5 20t-5.5 24t9.5 24.5t24.5 11.5q9 0 19 -3t17 -6l95 -43l93 42q23 10 37 10q16 0 25.5 -11.5t9.5 -24.5q0 -20 -9 -29t-23 -15l-79 -33l-29 -12t-25 -7zM104 -6q-21 0 -32.5 14t-11.5 37v443q0 22 11.5 36t32.5 14 q41 0 44 -46v-22h2q50 70 138 70q42 0 77 -13.5t60.5 -38.5t39.5 -58.5t14 -74.5v-310q0 -23 -11.5 -37t-31.5 -14q-21 0 -32.5 14t-11.5 37v301q0 51 -32.5 83t-88.5 32q-27 0 -49.5 -9.5t-39 -27t-25.5 -40.5t-9 -50v-289q0 -23 -11.5 -37t-32.5 -14z" glyph-name="ncaron" unicode="ň"/><glyph d="M40 598q-20 0 -28.5 11t-8.5 24q0 16 8 34l42 85q12 26 38 26q20 0 31 -11t11 -25q0 -7 -1.5 -15t-6.5 -16l-48 -90q-6 -10 -14.5 -16.5t-22.5 -6.5zM104 -6q-21 0 -32.5 14t-11.5 37v443q0 22 11.5 36t32.5 14q41 0 44 -46v-22h2q50 70 138 70q42 0 77 -13.5t60.5 -38.5 t39.5 -58.5t14 -74.5v-310q0 -23 -11.5 -37t-31.5 -14q-21 0 -32.5 14t-11.5 37v301q0 51 -32.5 83t-88.5 32q-27 0 -49.5 -9.5t-39 -27t-25.5 -40.5t-9 -50v-289q0 -23 -11.5 -37t-32.5 -14z" glyph-name="napostrophe" unicode="ŉ"/><glyph d="M444 -216q-30 0 -57.5 7t-49 18t-34 25t-12.5 29q0 16 9.5 26.5t23.5 10.5q10 0 20 -6.5t23.5 -14.5t30.5 -14.5t41 -6.5q43 0 62.5 24.5t19.5 75.5v66l-371 535h-2v-515q0 -23 -11.5 -36.5t-32.5 -13.5t-32 13.5t-11 36.5v627q0 21 12 34t31 13q16 0 27.5 -8.5 t18.5 -18.5l370 -534h2v511q0 23 11.5 36.5t31.5 13.5q21 0 32.5 -13.5t11.5 -36.5v-710q0 -79 -44 -126.5t-121 -47.5z" glyph-name="Eng" horiz-adv-x="670" unicode="Ŋ"/><glyph d="M315 -216q-31 0 -59 7t-49 18t-33.5 25.5t-12.5 28.5q0 17 9.5 28.5t24.5 11.5q11 0 21 -6.5l22.5 -14.5t30 -14.5t42.5 -6.5q42 0 61.5 24.5t19.5 75.5v387q0 49 -32.5 81t-88.5 32q-54 0 -88.5 -35.5t-34.5 -91.5v-289q0 -23 -11.5 -37t-32.5 -14t-32.5 14t-11.5 37 v443q0 22 11.5 36t32.5 14q41 0 44 -46v-22h2q51 70 138 70q42 0 77 -14t60.5 -38.5t39.5 -58.5t14 -74v-395q0 -82 -43.5 -129t-120.5 -47z" glyph-name="eng" unicode="ŋ"/><glyph d="M246 764q-20 0 -33.5 10.5t-13.5 30.5t13.5 30.5t33.5 10.5h202q22 0 35 -10.5t13 -30.5t-13 -30.5t-35 -10.5h-202zM347 -8q-72 0 -129.5 28t-98 77t-62 115t-21.5 142q0 81 23 148.5t64 116t98 75t126 26.5q72 0 130 -28.5t98.5 -77.5t62 -115.5t21.5 -142.5 t-21.5 -142.5t-62 -116t-98.5 -77.5t-130 -28zM350 74q51 0 90.5 22t66.5 60t41 89t14 109q0 61 -14 113t-41 90t-67.5 59.5t-93.5 21.5q-50 0 -89.5 -20.5t-67 -58t-42 -89t-14.5 -114.5q0 -56 13 -107t39.5 -90t67.5 -62t97 -23z" glyph-name="Omacron" horiz-adv-x="695" unicode="Ō"/><glyph d="M172 603q-20 0 -33 10.5t-13 30.5t13 30.5t33 10.5h203q21 0 34 -10.5t13 -30.5q0 -21 -13 -31t-35 -10h-202zM270 -8q-55 0 -99 20.5t-74.5 57t-46.5 86.5t-16 110q0 57 16 106.5t46.5 87t74.5 59t99 21.5q56 0 99.5 -21.5t73.5 -58.5t46 -87t16 -107q0 -60 -16 -110.5 t-46.5 -86.5t-74 -56.5t-98.5 -20.5zM270 69q34 0 60.5 15t45 41t28 62.5t9.5 78.5t-9.5 78t-27.5 62.5t-45 41.5t-62 15q-33 0 -59.5 -14.5t-44.5 -40.5t-28 -62t-10 -79q0 -42 9.5 -78.5t27.5 -63t45 -41.5t61 -15z" glyph-name="omacron" unicode="ō"/><glyph d="M347 755q-31 0 -57.5 8t-45.5 22t-29.5 32.5t-10.5 39.5t9 30t24 9q22 0 37 -26q12 -22 29 -31.5t44 -9.5q29 0 45 9.5t29 29.5q7 13 15 20.5t22 7.5q15 0 24 -9t9 -30t-10.5 -39.5t-30 -32.5t-45.5 -22t-58 -8zM347 -8q-72 0 -129.5 28t-98 77t-62 115t-21.5 142 q0 81 23 148.5t64 116t98 75t126 26.5q72 0 130 -28.5t98.5 -77.5t62 -115.5t21.5 -142.5t-21.5 -142.5t-62 -116t-98.5 -77.5t-130 -28zM350 74q51 0 90.5 22t66.5 60t41 89t14 109q0 61 -14 113t-41 90t-67.5 59.5t-93.5 21.5q-50 0 -89.5 -20.5t-67 -58t-42 -89 t-14.5 -114.5q0 -56 13 -107t39.5 -90t67.5 -62t97 -23z" glyph-name="Obreve" horiz-adv-x="695" unicode="Ŏ"/><glyph d="M274 594q-31 0 -57.5 8t-46 22t-30 32.5t-10.5 39.5t9 30t24 9q22 0 37 -26q12 -22 29 -31.5t45 -9.5t44 9.5t29 29.5q8 13 15.5 20.5t21.5 7.5q16 0 24.5 -9t8.5 -30t-10.5 -39.5t-29.5 -32.5t-45 -22t-58 -8zM270 -8q-55 0 -99 20.5t-74.5 57t-46.5 86.5t-16 110 q0 57 16 106.5t46.5 87t74.5 59t99 21.5q56 0 99.5 -21.5t73.5 -58.5t46 -87t16 -107q0 -60 -16 -110.5t-46.5 -86.5t-74 -56.5t-98.5 -20.5zM270 69q34 0 60.5 15t45 41t28 62.5t9.5 78.5t-9.5 78t-27.5 62.5t-45 41.5t-62 15q-33 0 -59.5 -14.5t-44.5 -40.5t-28 -62 t-10 -79q0 -42 9.5 -78.5t27.5 -63t45 -41.5t61 -15z" glyph-name="obreve" unicode="ŏ"/><glyph d="M235 761q-16 0 -25.5 13t-9.5 28q0 18 9 25.5t26 13.5l83 32q8 3 16 5.5t16 2.5q20 0 28 -15.5t8 -25.5q0 -24 -29 -36l-92 -35q-7 -3 -14 -5.5t-16 -2.5zM460 761q-16 0 -25.5 13t-9.5 28q0 18 9 25.5t26 13.5l83 32q8 3 16 5.5t17 2.5q20 0 27.5 -15.5t7.5 -25.5 q0 -24 -29 -36l-92 -35q-7 -3 -14 -5.5t-16 -2.5zM347 -8q-72 0 -129.5 28t-98 77t-62 115t-21.5 142q0 81 23 148.5t64 116t98 75t126 26.5q72 0 130 -28.5t98.5 -77.5t62 -115.5t21.5 -142.5t-21.5 -142.5t-62 -116t-98.5 -77.5t-130 -28zM350 74q51 0 90.5 22t66.5 60 t41 89t14 109q0 61 -14 113t-41 90t-67.5 59.5t-93.5 21.5q-50 0 -89.5 -20.5t-67 -58t-42 -89t-14.5 -114.5q0 -56 13 -107t39.5 -90t67.5 -62t97 -23z" glyph-name="Ohungarumlaut" horiz-adv-x="695" unicode="Ő"/><glyph d="M144 600q-15 0 -25 12.5t-10 28.5q0 17 9.5 25t26.5 14l83 32q8 3 16 5.5t16 2.5q20 0 28 -15.5t8 -25.5q0 -26 -29 -36l-92 -36q-7 -2 -14 -4.5t-17 -2.5zM370 600q-16 0 -25.5 12.5t-9.5 28.5q0 17 9 25t26 14l83 32q8 3 16 5.5t17 2.5q20 0 27.5 -15.5t7.5 -25.5 q0 -26 -29 -36l-92 -36q-7 -2 -14 -4.5t-16 -2.5zM270 -8q-55 0 -99 20.5t-74.5 57t-46.5 86.5t-16 110q0 57 16 106.5t46.5 87t74.5 59t99 21.5q56 0 99.5 -21.5t73.5 -58.5t46 -87t16 -107q0 -60 -16 -110.5t-46.5 -86.5t-74 -56.5t-98.5 -20.5zM270 69q34 0 60.5 15 t45 41t28 62.5t9.5 78.5t-9.5 78t-27.5 62.5t-45 41.5t-62 15q-33 0 -59.5 -14.5t-44.5 -40.5t-28 -62t-10 -79q0 -42 9.5 -78.5t27.5 -63t45 -41.5t61 -15z" glyph-name="ohungarumlaut" unicode="ő"/><glyph d="M347 -8q-72 0 -130 29t-98 78t-61.5 115t-21.5 139q0 82 23 149.5t64.5 116t98.5 75t126 26.5q68 0 125.5 -28.5t88.5 -82.5h3v64q1 18 13 28.5t36 10.5h239q18 0 31 -11.5t13 -29.5t-13 -29.5t-31 -11.5h-202v-233h192q18 0 31 -11t13 -30q0 -20 -13 -30.5t-31 -10.5 h-193v-233h211q19 0 32 -11.5t13 -29.5t-13 -29.5t-31 -11.5h-256q-18 0 -29.5 11t-12.5 29v68h-2q-80 -116 -215 -116zM347 74q51 0 91 21t67.5 58.5t41.5 89t14 112.5t-13.5 112.5t-40.5 89.5t-67.5 59.5t-93.5 21.5q-50 0 -89.5 -21t-67 -58.5t-42 -89t-14.5 -113.5 q0 -60 14 -112t41 -89.5t67 -59t92 -21.5z" glyph-name="OE" horiz-adv-x="933" unicode="Œ"/><glyph d="M270 -8q-55 0 -99 20.5t-74.5 56.5t-46.5 86.5t-16 110.5q0 57 16.5 107t47 87t74 58.5t98.5 21.5q66 0 112 -27t78 -77q32 50 78.5 77t97.5 27q55 0 98 -21t73 -56.5t45.5 -82.5t15.5 -98q0 -29 -13.5 -40.5t-39.5 -11.5h-315q2 -36 14 -65.5t32 -51t46.5 -33.5 t57.5 -12q35 0 66 12t71 47q11 8 18 12.5t15 4.5q20 0 30 -11t10 -26q0 -30 -36 -58q-29 -24 -72.5 -40.5t-93.5 -16.5q-72 0 -121 27t-79 74q-62 -101 -188 -101zM775 299q-2 36 -13 66.5t-29.5 53t-44 35t-56.5 12.5q-26 0 -49 -12.5t-41 -35t-29 -53t-13 -66.5h275z M270 69q35 0 61.5 15t44.5 41.5t27.5 63t9.5 78.5q0 41 -9.5 76.5t-27.5 62t-45 42t-62 15.5q-33 0 -59.5 -14.5t-44.5 -41t-28 -62.5t-10 -79q0 -42 9.5 -78.5t28 -62.5t45 -41t60.5 -15z" glyph-name="oe" horiz-adv-x="911" unicode="œ"/><glyph d="M192 761q-15 0 -25 13t-10 28q0 25 25 35l145 57q10 5 16.5 6t12.5 1q16 0 25.5 -12.5t9.5 -27.5q0 -14 -6 -22.5t-26 -16.5l-132 -52q-14 -5 -21.5 -7t-13.5 -2zM105 -6q-21 0 -32.5 14t-11.5 37v623q0 19 12 31.5t37 12.5h167q50 0 90.5 -15t69 -41.5t44 -63 t15.5 -78.5t-13 -78t-37 -63t-57.5 -42.5t-75.5 -17.5h-56l226 -242q10 -11 14 -18t4 -20q0 -17 -12 -28t-29 -11q-23 0 -40 20l-268 295h-2v-264q0 -23 -11.5 -37t-33.5 -14zM274 383q60 0 96.5 29.5t36.5 89.5q0 66 -35.5 97t-97.5 31h-124v-247h124z" glyph-name="Racute" horiz-adv-x="529" unicode="Ŕ"/><glyph d="M107 600q-15 0 -25 13t-10 28q0 25 25 35l145 57q10 5 16.5 6t12.5 1q15 0 25 -12.5t10 -28.5q0 -13 -6 -21.5t-26 -16.5l-132 -52q-14 -5 -22 -7t-13 -2zM104 -6q-21 0 -32.5 14t-11.5 37v443q0 22 11.5 36t32.5 14q41 0 43 -46l1 -41h2q21 42 52 65.5t63 23.5 q26 0 40 -14t14 -33q0 -16 -11.5 -27.5t-40.5 -18.5q-63 -14 -91 -54t-28 -97v-251q0 -23 -11.5 -37t-32.5 -14z" glyph-name="racute" horiz-adv-x="322" unicode="ŕ"/><glyph d="M105 -6q-21 0 -32.5 14t-11.5 37v623q0 19 12 31.5t37 12.5h167q50 0 90.5 -15t69 -41.5t44 -63t15.5 -78.5t-13 -78t-37 -63t-57.5 -42.5t-75.5 -17.5h-56l226 -242q10 -11 14 -18t4 -20q0 -17 -12 -28t-29 -11q-23 0 -40 20l-268 295h-2v-264q0 -23 -11.5 -37 t-33.5 -14zM274 383q60 0 96.5 29.5t36.5 89.5q0 66 -35.5 97t-97.5 31h-124v-247h124zM194 -185q-14 0 -25 9.5t-11 22.5q0 16 21 37l52 58q9 11 16.5 15.5t18.5 4.5q18 0 30.5 -12t12.5 -26q0 -11 -6 -19t-17 -18l-48 -47q-11 -11 -19.5 -18t-24.5 -7z" glyph-name="uni0156" horiz-adv-x="529" unicode="Ŗ"/><glyph d="M104 -6q-21 0 -32.5 14t-11.5 37v443q0 22 11.5 36t32.5 14q41 0 43 -46l1 -41h2q21 42 52 65.5t63 23.5q26 0 40 -14t14 -33q0 -16 -11.5 -27.5t-40.5 -18.5q-63 -14 -91 -54t-28 -97v-251q0 -23 -11.5 -37t-32.5 -14zM42 -185q-15 0 -25.5 9.5t-10.5 22.5q0 16 21 37 l52 58q9 11 16.5 15.5t18.5 4.5q18 0 30.5 -12t12.5 -26q0 -11 -6 -19t-17 -18l-48 -47q-11 -11 -19.5 -18t-24.5 -7z" glyph-name="uni0157" horiz-adv-x="322" unicode="ŗ"/><glyph d="M251 758q-8 0 -24 6.5t-25 10.5l-83 35q-22 9 -27.5 20t-5.5 24t9 24.5t25 11.5q9 0 19 -3t17 -6l95 -43l93 42q23 10 37 10q16 0 25.5 -11.5t9.5 -24.5q0 -20 -9 -29t-23 -15l-79 -33l-29 -12t-25 -7zM105 -6q-21 0 -32.5 14t-11.5 37v623q0 19 12 31.5t37 12.5h167 q50 0 90.5 -15t69 -41.5t44 -63t15.5 -78.5t-13 -78t-37 -63t-57.5 -42.5t-75.5 -17.5h-56l226 -242q10 -11 14 -18t4 -20q0 -17 -12 -28t-29 -11q-23 0 -40 20l-268 295h-2v-264q0 -23 -11.5 -37t-33.5 -14zM274 383q60 0 96.5 29.5t36.5 89.5q0 66 -35.5 97t-97.5 31h-124 v-247h124z" glyph-name="Rcaron" horiz-adv-x="529" unicode="Ř"/><glyph d="M151 597q-7 0 -23 6.5l-26 10.5l-82 35q-23 9 -28 20t-5 24t9 24.5t25 11.5q8 0 18 -3t18 -6l94 -43l94 42q22 10 37 10q16 0 25 -11.5t9 -24.5q0 -20 -9 -29t-23 -15l-79 -33l-29 -12t-25 -7zM104 -6q-21 0 -32.5 14t-11.5 37v443q0 22 11.5 36t32.5 14q41 0 43 -46 l1 -41h2q21 42 52 65.5t63 23.5q26 0 40 -14t14 -33q0 -16 -11.5 -27.5t-40.5 -18.5q-63 -14 -91 -54t-28 -97v-251q0 -23 -11.5 -37t-32.5 -14z" glyph-name="rcaron" horiz-adv-x="322" unicode="ř"/><glyph d="M178 761q-16 0 -25.5 13t-9.5 28q0 25 24 35l145 57q11 5 17 6t13 1q15 0 25 -12.5t10 -27.5q0 -14 -6 -22.5t-27 -16.5l-132 -52q-13 -5 -21 -7t-13 -2zM221 -8q-54 0 -98 12t-72 30q-16 11 -25 23t-9 26q0 18 12 31.5t30 13.5q8 0 16 -4t17 -9q29 -18 56.5 -28.5 t67.5 -10.5q70 0 109.5 37t39.5 94q0 43 -29 72t-92 53q-54 20 -94.5 37.5t-67.5 39.5t-40 51.5t-13 71.5q0 45 19 80t49.5 59t69 36.5t78.5 12.5q36 0 72.5 -10.5t60.5 -26.5q36 -20 36 -47q0 -19 -12 -32t-26 -13q-8 0 -16 2.5t-15 6.5q-26 15 -49.5 26t-56.5 11 q-24 0 -46 -7.5t-38 -21t-25.5 -32t-9.5 -40.5q0 -39 30.5 -63t93.5 -46q58 -20 98 -40.5t65.5 -45.5t37 -56t11.5 -72q0 -49 -16.5 -89.5t-47.5 -70t-74.5 -45.5t-96.5 -16z" glyph-name="Sacute" horiz-adv-x="476" unicode="Ś"/><glyph d="M163 600q-15 0 -25 13t-10 28q0 25 25 35l145 57q10 5 16.5 6t12.5 1q15 0 25 -12.5t10 -28.5q0 -13 -6 -21.5t-26 -16.5l-132 -52q-14 -5 -22 -7t-13 -2zM217 -8q-55 0 -97.5 16.5t-67.5 37.5q-30 24 -30 47q0 14 12 29t28 15q15 0 43 -23q26 -22 54.5 -34.5t61.5 -12.5 q46 0 73.5 23t27.5 57q0 28 -21 45.5t-52 31t-68 26t-68 30.5t-52 45t-21 68q0 32 14 59t38 46.5t55.5 30.5t65.5 11q47 0 88 -11.5t67 -28.5q32 -22 32 -47q0 -20 -10.5 -30.5t-28.5 -10.5q-16 0 -33 12l-47 27.5t-57 13.5q-40 0 -66 -18t-26 -49q0 -25 21 -40.5t52 -28.5 t68 -26t68 -32t52 -48t21 -73q0 -35 -14.5 -64t-41 -50t-62.5 -32.5t-79 -11.5z" glyph-name="sacute" horiz-adv-x="441" unicode="ś"/><glyph d="M109 758q-16 0 -25.5 11.5t-9.5 24.5t5.5 24t28.5 20l82 35l26 10.5t23 6.5q8 0 25 -7l29 -12l79 -34q14 -5 23 -14t9 -29q0 -13 -9 -24.5t-25 -11.5q-18 0 -38 10l-93 42l-94 -43q-8 -3 -18 -6t-18 -3zM221 -8q-54 0 -98 12t-72 30q-16 11 -25 23t-9 26q0 18 12 31.5 t30 13.5q8 0 16 -4t17 -9q29 -18 56.5 -28.5t67.5 -10.5q70 0 109.5 37t39.5 94q0 43 -29 72t-92 53q-54 20 -94.5 37.5t-67.5 39.5t-40 51.5t-13 71.5q0 45 19 80t49.5 59t69 36.5t78.5 12.5q36 0 72.5 -10.5t60.5 -26.5q36 -20 36 -47q0 -19 -12 -32t-26 -13q-8 0 -16 2.5 t-15 6.5q-26 15 -49.5 26t-56.5 11q-24 0 -46 -7.5t-38 -21t-25.5 -32t-9.5 -40.5q0 -39 30.5 -63t93.5 -46q58 -20 98 -40.5t65.5 -45.5t37 -56t11.5 -72q0 -49 -16.5 -89.5t-47.5 -70t-74.5 -45.5t-96.5 -16z" glyph-name="Scircumflex" horiz-adv-x="476" unicode="Ŝ"/><glyph d="M89 597q-15 0 -24.5 11.5t-9.5 24.5t5.5 24t28.5 20l82 35q9 4 25 10.5t24 6.5t25 -7l29 -12l79 -34q14 -5 23 -14.5t9 -28.5q0 -13 -9.5 -24.5t-25.5 -11.5q-17 0 -37 10l-93 42l-95 -43q-7 -3 -17 -6t-19 -3zM217 -8q-55 0 -97.5 16.5t-67.5 37.5q-30 24 -30 47 q0 14 12 29t28 15q15 0 43 -23q26 -22 54.5 -34.5t61.5 -12.5q46 0 73.5 23t27.5 57q0 28 -21 45.5t-52 31t-68 26t-68 30.5t-52 45t-21 68q0 32 14 59t38 46.5t55.5 30.5t65.5 11q47 0 88 -11.5t67 -28.5q32 -22 32 -47q0 -20 -10.5 -30.5t-28.5 -10.5q-16 0 -33 12 l-47 27.5t-57 13.5q-40 0 -66 -18t-26 -49q0 -25 21 -40.5t52 -28.5t68 -26t68 -32t52 -48t21 -73q0 -35 -14.5 -64t-41 -50t-62.5 -32.5t-79 -11.5z" glyph-name="scircumflex" horiz-adv-x="441" unicode="ŝ"/><glyph d="M220 -186q-35 0 -56.5 9.5t-21.5 29.5q0 10 6 17.5t20 7.5q13 0 25 -6t36 -6q14 0 21.5 8t7.5 18q0 13 -8.5 20t-31.5 7h-12q-29 0 -29 14q0 6 3.5 14.5t14.5 24.5l14 20q-51 2 -92 14t-67 29q-33 22 -33 48q0 18 12 31.5t30 13.5q6 0 15 -4t20 -11q24 -14 58.5 -25.5 t63.5 -11.5q32 0 59.5 11.5t47.5 30.5t31 44t11 53q0 44 -31 70t-90 47q-54 20 -94.5 37.5t-67.5 39.5t-40 51.5t-13 71.5q0 45 19 80t49.5 59t69 36.5t78.5 12.5q36 0 71.5 -10.5t60.5 -25.5q17 -11 27 -23t10 -25q0 -19 -12 -32t-26 -13q-8 0 -16 2.5t-15 6.5 q-26 15 -49.5 26t-56.5 11q-24 0 -46 -7.5t-38 -21t-25.5 -32t-9.5 -40.5q0 -39 30.5 -63t93.5 -46q50 -18 89.5 -35.5t66.5 -41t41.5 -54.5t14.5 -76q0 -46 -13.5 -84.5t-39 -68t-61.5 -48t-81 -24.5l-25 -36l2 -2q11 3 23 3q30 0 48 -17.5t18 -43.5q0 -38 -31 -61.5 t-76 -23.5z" glyph-name="Scedilla" horiz-adv-x="476" unicode="Ş"/><glyph d="M206 -186q-36 0 -57.5 9.5t-21.5 29.5q0 10 6 17.5t20 7.5q13 0 25.5 -6t35.5 -6q14 0 21.5 8t7.5 18q0 13 -8.5 20t-31.5 7h-12q-29 0 -29 14q0 6 4 14.5t15 24.5l13 21q-47 3 -83.5 18.5t-58.5 34.5q-30 24 -30 47q0 14 12 29t28 15q15 0 43 -23q26 -22 54.5 -34.5 t61.5 -12.5q46 0 73.5 23t27.5 57q0 28 -21 45.5t-52 31t-68 26t-68 30.5t-52 45t-21 68q0 32 14 59t38 46.5t55.5 30.5t65.5 11q47 0 88 -11.5t67 -28.5q32 -22 32 -47q0 -20 -10.5 -30.5t-28.5 -10.5q-16 0 -33 12l-47 27.5t-57 13.5q-40 0 -66 -18t-26 -49 q0 -25 21 -40.5t52 -28.5t68 -26t68 -32t52 -48t21 -73q0 -65 -46.5 -107t-122.5 -50l-24 -34l2 -2q11 3 23 3q30 0 48 -17.5t18 -43.5q0 -38 -30.5 -61.5t-75.5 -23.5z" glyph-name="scedilla" horiz-adv-x="441" unicode="ş"/><glyph d="M238 758q-8 0 -24 6.5t-25 10.5l-82 35q-23 9 -28.5 20t-5.5 24t9.5 24.5t25.5 11.5q8 0 18 -3t17 -6l95 -43l93 42q23 10 38 10t24.5 -11.5t9.5 -24.5q0 -20 -9 -29t-23 -15l-79 -33l-29 -12t-25 -7zM221 -8q-54 0 -98 12t-72 30q-16 11 -25 23t-9 26q0 18 12 31.5 t30 13.5q8 0 16 -4t17 -9q29 -18 56.5 -28.5t67.5 -10.5q70 0 109.5 37t39.5 94q0 43 -29 72t-92 53q-54 20 -94.5 37.5t-67.5 39.5t-40 51.5t-13 71.5q0 45 19 80t49.5 59t69 36.5t78.5 12.5q36 0 72.5 -10.5t60.5 -26.5q36 -20 36 -47q0 -19 -12 -32t-26 -13q-8 0 -16 2.5 t-15 6.5q-26 15 -49.5 26t-56.5 11q-24 0 -46 -7.5t-38 -21t-25.5 -32t-9.5 -40.5q0 -39 30.5 -63t93.5 -46q58 -20 98 -40.5t65.5 -45.5t37 -56t11.5 -72q0 -49 -16.5 -89.5t-47.5 -70t-74.5 -45.5t-96.5 -16z" glyph-name="Scaron" horiz-adv-x="476" unicode="Š"/><glyph d="M220 597q-8 0 -23.5 6.5l-25.5 10.5l-82 35q-23 9 -28.5 20t-5.5 24t9.5 24.5t25.5 11.5q8 0 18 -3t17 -6l95 -43l93 42q23 10 38 10q16 0 25 -11.5t9 -24.5q0 -20 -9 -29t-23 -15l-79 -33l-29 -12t-25 -7zM217 -8q-55 0 -97.5 16.5t-67.5 37.5q-30 24 -30 47q0 14 12 29 t28 15q15 0 43 -23q26 -22 54.5 -34.5t61.5 -12.5q46 0 73.5 23t27.5 57q0 28 -21 45.5t-52 31t-68 26t-68 30.5t-52 45t-21 68q0 32 14 59t38 46.5t55.5 30.5t65.5 11q47 0 88 -11.5t67 -28.5q32 -22 32 -47q0 -20 -10.5 -30.5t-28.5 -10.5q-16 0 -33 12l-47 27.5t-57 13.5 q-40 0 -66 -18t-26 -49q0 -25 21 -40.5t52 -28.5t68 -26t68 -32t52 -48t21 -73q0 -35 -14.5 -64t-41 -50t-62.5 -32.5t-79 -11.5z" glyph-name="scaron" horiz-adv-x="441" unicode="š"/><glyph d="M217 -6q-22 0 -33.5 14t-11.5 37v585h-131q-19 0 -32 11.5t-13 29.5t13 29.5t32 11.5h351q19 0 32 -11.5t13 -29.5t-13 -29.5t-32 -11.5h-131v-585q0 -23 -12 -37t-32 -14zM149 -185q-14 0 -25 9.5t-11 22.5q0 16 21 37l52 58q9 11 16.5 15.5t18.5 4.5q18 0 30.5 -12 t12.5 -26q0 -11 -6 -19t-17 -18l-48 -47q-11 -11 -19.5 -18t-24.5 -7z" glyph-name="uni0162" horiz-adv-x="433" unicode="Ţ"/><glyph d="M128 -6q-20 0 -32 14t-12 37v411h-40q-21 0 -31.5 10.5t-10.5 27.5t10.5 27.5t31.5 10.5h40v116q0 23 12 37.5t32 14.5q21 0 32.5 -14.5t11.5 -37.5v-116h47q40 0 40 -38q0 -17 -10.5 -27.5t-29.5 -10.5h-47v-411q0 -23 -11.5 -37t-32.5 -14zM62 -185q-15 0 -25.5 9.5 t-10.5 22.5q0 16 21 37l52 58q9 11 16.5 15.5t18.5 4.5q18 0 30.5 -12t12.5 -26q0 -11 -6.5 -19t-16.5 -18l-48 -47q-11 -11 -19.5 -18t-24.5 -7z" glyph-name="uni0163" horiz-adv-x="261" unicode="ţ"/><glyph d="M217 758q-8 0 -24 6.5l-26 10.5l-82 35q-22 9 -27.5 20t-5.5 24t9 24.5t25 11.5q9 0 19 -3t17 -6l95 -43l93 42q22 10 37 10q16 0 25 -11.5t9 -24.5q0 -20 -9 -29t-23 -15l-79 -33q-11 -5 -28 -12t-25 -7zM217 -6q-22 0 -33.5 14t-11.5 37v585h-131q-19 0 -32 11.5 t-13 29.5t13 29.5t32 11.5h351q19 0 32 -11.5t13 -29.5t-13 -29.5t-32 -11.5h-131v-585q0 -23 -12 -37t-32 -14z" glyph-name="Tcaron" horiz-adv-x="433" unicode="Ť"/><glyph d="M245 598q-20 0 -28.5 11t-8.5 24q0 9 2.5 17.5t6.5 16.5l41 85q12 26 39 26q20 0 30.5 -11t10.5 -25q0 -7 -1.5 -15t-6.5 -16l-48 -90q-6 -10 -14 -16.5t-23 -6.5zM128 -6q-20 0 -32 14t-12 37v411h-40q-21 0 -31.5 10.5t-10.5 27.5t10.5 27.5t31.5 10.5h40v116 q0 23 12 37.5t32 14.5q21 0 32.5 -14.5t11.5 -37.5v-116h47q40 0 40 -38q0 -17 -10.5 -27.5t-29.5 -10.5h-47v-411q0 -23 -11.5 -37t-32.5 -14z" glyph-name="tcaron" horiz-adv-x="261" unicode="ť"/><glyph d="M217 -6q-22 0 -33.5 14t-11.5 37v372h-91q-17 0 -29.5 11t-12.5 28t12.5 28t29.5 11h91v135h-131q-19 0 -32 11.5t-13 29.5t13 29.5t32 11.5h351q19 0 32 -11.5t13 -29.5t-13 -29.5t-32 -11.5h-131v-135h92q17 0 29 -11t12 -28t-12 -28t-29 -11h-92v-372q0 -23 -12 -37 t-32 -14z" glyph-name="Tbar" horiz-adv-x="433" unicode="Ŧ"/><glyph d="M126 -6q-20 0 -32 14t-12 37v266h-45q-17 0 -27 10.5t-10 25.5q0 17 10 27t27 10h45v72h-40q-20 0 -31 10.5t-11 27.5t11 27.5t31 10.5h40v116q0 23 12 37.5t32 14.5q21 0 32.5 -14.5t11.5 -37.5v-116h47q40 0 40 -38q0 -17 -10.5 -27.5t-29.5 -10.5h-47v-72h51 q17 0 26.5 -10t9.5 -27q0 -15 -9.5 -25.5t-26.5 -10.5h-51v-266q0 -23 -11.5 -37t-32.5 -14z" glyph-name="tbar" horiz-adv-x="258" unicode="ŧ"/><glyph d="M408 790q-17 0 -35 4.5t-35 10.5t-33.5 10.5t-31.5 4.5q-10 0 -17.5 -4.5t-14 -9.5t-13 -9.5t-16.5 -4.5q-34 0 -34 34q0 14 7 26.5t19 22.5t27 16t31 6q17 0 34.5 -4.5t35 -10.5t34 -10.5t30.5 -4.5q11 0 18.5 4.5t13.5 10t13 10t16 4.5q17 0 26 -10.5t9 -27.5 q0 -13 -7.5 -25.5t-19.5 -22t-27 -15t-30 -5.5zM336 -8q-62 0 -113 19t-87 52.5t-56 80.5t-20 102v421q0 23 11.5 37t32.5 14q22 0 33.5 -14t11.5 -37v-413q0 -40 13.5 -73.5t38.5 -56.5t59 -36t75 -13t75 13t59 36.5t38.5 56.5t13.5 73v413q0 23 11 37t33 14t33.5 -14 t11.5 -37v-421q0 -57 -21 -104t-57.5 -80t-86.5 -51.5t-109 -18.5z" glyph-name="Utilde" horiz-adv-x="670" unicode="Ũ"/><glyph d="M343 610q-17 0 -35 4.5t-35 10.5t-33.5 10.5t-31.5 4.5q-10 0 -17.5 -4.5t-14 -9.5t-13 -9.5t-16.5 -4.5q-34 0 -34 34q0 14 7 26.5t19 22.5t27 16t31 6q17 0 34.5 -4.5t35 -10.5t34 -10.5t30.5 -4.5q11 0 18.5 4.5t13.5 10t13 10t16 4.5q17 0 26 -10.5t9 -27.5 q0 -13 -7.5 -25.5t-19.5 -22t-27 -15t-30 -5.5zM270 -8q-48 0 -87 13.5t-66 37.5t-42 57.5t-15 73.5v314q0 22 11.5 36t32.5 14t32.5 -14t11.5 -36v-294q0 -59 32 -92.5t90 -33.5q57 0 89.5 33.5t32.5 92.5v294q0 21 11.5 35.5t32.5 14.5q20 0 31.5 -14.5t11.5 -35.5v-311 q0 -41 -15 -75t-42.5 -58.5t-66 -38t-85.5 -13.5z" glyph-name="utilde" unicode="ũ"/><glyph d="M237 764q-20 0 -33 10.5t-13 30.5t13 30.5t33 10.5h203q21 0 34 -10.5t13 -30.5t-13 -30.5t-34 -10.5h-203zM336 -8q-62 0 -113 19t-87 52.5t-56 80.5t-20 102v421q0 23 11.5 37t32.5 14q22 0 33.5 -14t11.5 -37v-413q0 -40 13.5 -73.5t38.5 -56.5t59 -36t75 -13t75 13 t59 36.5t38.5 56.5t13.5 73v413q0 23 11 37t33 14t33.5 -14t11.5 -37v-421q0 -57 -21 -104t-57.5 -80t-86.5 -51.5t-109 -18.5z" glyph-name="Umacron" horiz-adv-x="670" unicode="Ū"/><glyph d="M172 603q-20 0 -33 10.5t-13 30.5t13 30.5t33 10.5h203q21 0 34 -10.5t13 -30.5q0 -21 -13 -31t-35 -10h-202zM270 -8q-48 0 -87 13.5t-66 37.5t-42 57.5t-15 73.5v314q0 22 11.5 36t32.5 14t32.5 -14t11.5 -36v-294q0 -59 32 -92.5t90 -33.5q57 0 89.5 33.5t32.5 92.5 v294q0 21 11.5 35.5t32.5 14.5q20 0 31.5 -14.5t11.5 -35.5v-311q0 -41 -15 -75t-42.5 -58.5t-66 -38t-85.5 -13.5z" glyph-name="umacron" unicode="ū"/><glyph d="M339 755q-31 0 -57.5 8t-46 22t-30 32.5t-10.5 39.5t9 30t24 9q22 0 37 -26q12 -22 29 -31.5t45 -9.5t44 9.5t29 29.5q8 13 15.5 20.5t21.5 7.5q16 0 24.5 -9t8.5 -30t-10.5 -39.5t-29.5 -32.5t-45 -22t-58 -8zM336 -8q-62 0 -113 19t-87 52.5t-56 80.5t-20 102v421 q0 23 11.5 37t32.5 14q22 0 33.5 -14t11.5 -37v-413q0 -40 13.5 -73.5t38.5 -56.5t59 -36t75 -13t75 13t59 36.5t38.5 56.5t13.5 73v413q0 23 11 37t33 14t33.5 -14t11.5 -37v-421q0 -57 -21 -104t-57.5 -80t-86.5 -51.5t-109 -18.5z" glyph-name="Ubreve" horiz-adv-x="670" unicode="Ŭ"/><glyph d="M274 594q-31 0 -57.5 8t-46 22t-30 32.5t-10.5 39.5t9 30t24 9q22 0 37 -26q12 -22 29 -31.5t45 -9.5t44 9.5t29 29.5q8 13 15.5 20.5t21.5 7.5q16 0 24.5 -9t8.5 -30t-10.5 -39.5t-29.5 -32.5t-45 -22t-58 -8zM270 -8q-48 0 -87 13.5t-66 37.5t-42 57.5t-15 73.5v314 q0 22 11.5 36t32.5 14t32.5 -14t11.5 -36v-294q0 -59 32 -92.5t90 -33.5q57 0 89.5 33.5t32.5 92.5v294q0 21 11.5 35.5t32.5 14.5q20 0 31.5 -14.5t11.5 -35.5v-311q0 -41 -15 -75t-42.5 -58.5t-66 -38t-85.5 -13.5z" glyph-name="ubreve" unicode="ŭ"/><glyph d="M339 738q-19 0 -36.5 7.5t-30 20.5t-20 30t-7.5 36t7.5 36.5t20 30.5t30 20.5t36.5 7.5t36 -7.5t30 -20.5t20.5 -30t7.5 -37q0 -19 -7.5 -36t-20 -30t-29.5 -20.5t-37 -7.5zM339 783q20 0 35 14.5t15 34.5q0 21 -15 35.5t-35 14.5q-21 0 -35.5 -15t-14.5 -35t14.5 -34.5 t35.5 -14.5zM336 -8q-62 0 -113 19t-87 52.5t-56 80.5t-20 102v421q0 23 11.5 37t32.5 14q22 0 33.5 -14t11.5 -37v-413q0 -40 13.5 -73.5t38.5 -56.5t59 -36t75 -13t75 13t59 36.5t38.5 56.5t13.5 73v413q0 23 11 37t33 14t33.5 -14t11.5 -37v-421q0 -57 -21 -104 t-57.5 -80t-86.5 -51.5t-109 -18.5z" glyph-name="Uring" horiz-adv-x="670" unicode="Ů"/><glyph d="M274 583q-39 0 -66.5 27.5t-27.5 66.5q0 19 7.5 36t20 30t30 20.5t36.5 7.5t36 -7.5t30 -20.5t20.5 -30t7.5 -36t-7.5 -36.5t-20.5 -30t-30 -20t-36 -7.5zM274 627q20 0 35 14.5t15 35.5q0 20 -15 35t-35 15q-21 0 -35.5 -15t-14.5 -35t14.5 -35t35.5 -15zM270 -8 q-48 0 -87 13.5t-66 37.5t-42 57.5t-15 73.5v314q0 22 11.5 36t32.5 14t32.5 -14t11.5 -36v-294q0 -59 32 -92.5t90 -33.5q57 0 89.5 33.5t32.5 92.5v294q0 21 11.5 35.5t32.5 14.5q20 0 31.5 -14.5t11.5 -35.5v-311q0 -41 -15 -75t-42.5 -58.5t-66 -38t-85.5 -13.5z" glyph-name="uring" unicode="ů"/><glyph d="M205 761q-15 0 -25 13t-10 28q0 18 9.5 25.5t26.5 13.5l82 32q8 3 16 5.5t17 2.5q20 0 28 -15.5t8 -25.5q0 -24 -29 -36l-93 -35q-7 -3 -14 -5.5t-16 -2.5zM430 761q-15 0 -25 13t-10 28q0 18 9.5 25.5t26.5 13.5l82 32q8 3 16 5.5t17 2.5q20 0 28 -15.5t8 -25.5 q0 -24 -29 -36l-93 -35q-7 -3 -13.5 -5.5t-16.5 -2.5zM336 -8q-62 0 -113 19t-87 52.5t-56 80.5t-20 102v421q0 23 11.5 37t32.5 14q22 0 33.5 -14t11.5 -37v-413q0 -40 13.5 -73.5t38.5 -56.5t59 -36t75 -13t75 13t59 36.5t38.5 56.5t13.5 73v413q0 23 11 37t33 14 t33.5 -14t11.5 -37v-421q0 -57 -21 -104t-57.5 -80t-86.5 -51.5t-109 -18.5z" glyph-name="Uhungarumlaut" horiz-adv-x="670" unicode="Ű"/><glyph d="M134 600q-15 0 -25 12.5t-10 28.5q0 17 9.5 25t26.5 14l82 32q8 3 16 5.5t17 2.5q20 0 28 -15.5t8 -25.5q0 -25 -29 -36l-93 -36q-7 -2 -14 -4.5t-16 -2.5zM359 600q-15 0 -25 12.5t-10 28.5q0 17 9.5 25t26.5 14l82 32q8 3 16 5.5t17 2.5q20 0 28 -15.5t8 -25.5 q0 -25 -29 -36l-93 -36q-7 -2 -13.5 -4.5t-16.5 -2.5zM270 -8q-48 0 -87 13.5t-66 37.5t-42 57.5t-15 73.5v314q0 22 11.5 36t32.5 14t32.5 -14t11.5 -36v-294q0 -59 32 -92.5t90 -33.5q57 0 89.5 33.5t32.5 92.5v294q0 21 11.5 35.5t32.5 14.5q20 0 31.5 -14.5t11.5 -35.5 v-311q0 -41 -15 -75t-42.5 -58.5t-66 -38t-85.5 -13.5z" glyph-name="uhungarumlaut" unicode="ű"/><glyph d="M323 -186q-45 0 -65 18t-20 51t21 59.5t60 49.5q-58 3 -106 23t-82 53.5t-52.5 79t-18.5 98.5v421q0 23 11.5 37t32.5 14q22 0 33.5 -14t11.5 -37v-413q0 -40 13.5 -73.5t38.5 -56.5t59 -36t75 -13t75 13t59 36.5t38.5 56.5t13.5 73v413q0 23 11 37t33 14t33.5 -14 t11.5 -37v-421q0 -52 -17 -95.5t-48 -75.5t-73.5 -52.5t-92.5 -26.5q-32 -28 -49.5 -52.5t-17.5 -41.5q0 -29 29 -29q13 0 26 4.5t23 4.5q12 0 18 -7.5t6 -16.5q0 -19 -21 -29q-12 -7 -29.5 -11t-40.5 -4z" glyph-name="Uogonek" horiz-adv-x="670" unicode="Ų"/><glyph d="M263 -186q-45 0 -65 18t-20 51q0 63 80 109q-45 2 -82 16.5t-62.5 38.5t-39.5 56.5t-14 70.5v314q0 22 11.5 36t32.5 14t32.5 -14t11.5 -36v-294q0 -59 32 -92.5t90 -33.5q57 0 89.5 33.5t32.5 92.5v294q0 21 11.5 35.5t32.5 14.5q20 0 31.5 -14.5t11.5 -35.5v-311 q0 -72 -42.5 -119.5t-116.5 -60.5q-33 -28 -50.5 -53t-17.5 -42q0 -29 29 -29q13 0 26 4.5t23 4.5q12 0 18 -7.5t6 -16.5q0 -17 -21 -30q-12 -6 -29.5 -10t-40.5 -4z" glyph-name="uogonek" unicode="ų"/><glyph d="M287 758q-16 0 -25 11.5t-9 24.5t5 24t28 20l82 35l26 10.5t24 6.5t24.5 -7l28.5 -12l79 -34q14 -5 23 -14t9 -29q0 -13 -9 -24.5t-25 -11.5q-18 0 -37 10l-93 42l-95 -43q-7 -3 -17.5 -6t-18.5 -3zM202 -6q-27 0 -43.5 15t-23.5 48l-100 543q-1 3 -3 13.5t-4 23.5l-4 25 t-2 17q0 19 12 29t30 10q40 0 49 -47l92 -558h2l160 556q8 26 19 37.5t31 11.5t30.5 -11.5t18.5 -33.5l160 -560h2l93 560q5 25 18 35t30 10q19 0 30.5 -10.5t11.5 -28.5q0 -5 -1.5 -17t-5.5 -30l-111 -583q-10 -55 -64 -55q-52 0 -66 49l-145 525h-2l-149 -524 q-14 -50 -65 -50z" glyph-name="Wcircumflex" horiz-adv-x="833" unicode="Ŵ"/><glyph d="M243 597q-16 0 -25 11.5t-9 24.5t5.5 24t27.5 20l83 35q9 4 25 10.5t24 6.5t25 -7l29 -12l79 -34q14 -5 23 -14.5t9 -28.5q0 -13 -9.5 -24.5t-25.5 -11.5q-17 0 -37 10l-93 42l-95 -43q-7 -3 -17 -6t-19 -3zM208 -6q-20 0 -33 12.5t-22 38.5l-135 401q-3 8 -8.5 25.5 t-5.5 25.5q0 17 11 29t31 12t31 -11t16 -27l115 -367h2l114 367q12 38 48 38q17 0 29 -10t20 -33l113 -362h2l114 364q8 25 19.5 33t27.5 8q20 0 31.5 -12t11.5 -29q0 -8 -4.5 -22.5t-12.5 -37.5l-135 -400q-8 -20 -20 -31.5t-32 -11.5t-32 11.5t-21 40.5l-110 349h-2 l-113 -360q-6 -19 -18 -30t-32 -11z" glyph-name="wcircumflex" horiz-adv-x="744" unicode="ŵ"/><glyph d="M116 758q-16 0 -25 11.5t-9 24.5t5.5 24t27.5 20l83 35q9 4 25 10.5t24 6.5t25 -7l29 -12l79 -34q14 -5 23 -14t9 -29q0 -13 -9.5 -24.5t-25.5 -11.5q-17 0 -37 10l-93 42l-95 -43q-7 -3 -17 -6t-19 -3zM246 -6q-21 0 -32.5 14t-11.5 37v291l-177 287q-13 19 -20.5 33.5 t-7.5 25.5q0 15 11 25.5t31 10.5q23 0 34 -15t18 -26l155 -254l164 267q11 18 21.5 23t23.5 5q19 0 29.5 -10.5t10.5 -25.5q0 -21 -28 -60l-176 -286v-291q0 -23 -11.5 -37t-33.5 -14z" glyph-name="Ycircumflex" horiz-adv-x="493" unicode="Ŷ"/><glyph d="M90 597q-15 0 -24.5 11.5t-9.5 24.5t5.5 24t27.5 20l83 35q9 4 25 10.5t24 6.5t25 -7l29 -12l79 -34q14 -5 23 -14.5t9 -28.5q0 -13 -9.5 -24.5t-25.5 -11.5q-17 0 -37 10l-93 42l-95 -43q-7 -3 -17 -6t-19 -3zM146 -217q-20 0 -31 11.5t-11 26.5q0 9 3.5 20.5t8.5 25.5 l61 154l-157 440q-3 6 -6.5 17.5t-3.5 18.5q0 17 11.5 29t29.5 12q16 0 27.5 -9t19.5 -32l121 -355h2l120 351q16 45 47 45q20 0 31 -12.5t11 -29.5q0 -7 -2.5 -16.5t-5.5 -17.5l-230 -639q-8 -20 -18 -30t-28 -10z" glyph-name="ycircumflex" horiz-adv-x="440" unicode="ŷ"/><glyph d="M152 756q-23 0 -38.5 16t-15.5 39t15.5 38.5t38.5 15.5t39 -15.5t16 -38.5t-16 -39t-39 -16zM340 756q-23 0 -38.5 16t-15.5 39t15.5 38.5t38.5 15.5t39 -15.5t16 -38.5t-16 -39t-39 -16zM246 -6q-21 0 -32.5 14t-11.5 37v291l-177 287q-13 19 -20.5 33.5t-7.5 25.5 q0 15 11 25.5t31 10.5q23 0 34 -15t18 -26l155 -254l164 267q11 18 21.5 23t23.5 5q19 0 29.5 -10.5t10.5 -25.5q0 -21 -28 -60l-176 -286v-291q0 -23 -11.5 -37t-33.5 -14z" glyph-name="Ydieresis" horiz-adv-x="493" unicode="Ÿ"/><glyph d="M195 760q-16 0 -25.5 13t-9.5 28q0 25 24 35l145 57q11 5 17 6t13 1q15 0 25 -12.5t10 -27.5q0 -14 -6 -22.5t-26 -16.5l-133 -52q-13 -5 -21 -7t-13 -2zM91 0q-32 0 -49.5 13t-17.5 36q0 13 8.5 29.5t21.5 35.5l347 517h-314q-23 0 -36 11.5t-13 29.5q0 17 13 28.5 t32 11.5h395q22 0 33 -11t11 -26q0 -19 -21 -49l-364 -544h354q19 0 32 -11.5t13 -29.5t-13 -29.5t-32 -11.5h-400z" glyph-name="Zacute" horiz-adv-x="560" unicode="Ź"/><glyph d="M154 600q-16 0 -25.5 13t-9.5 28q0 25 24 35l145 57q10 5 16.5 6t12.5 1q16 0 25.5 -12.5t9.5 -28.5q0 -13 -5.5 -21.5t-26.5 -16.5l-132 -52q-13 -5 -21 -7t-13 -2zM67 0q-19 0 -32 8.5t-13 25.5t8.5 30.5t29.5 44.5l234 342h-218q-18 0 -31 10.5t-13 30.5t13 30t32 10 h293q44 0 44 -33q0 -15 -6.5 -27t-20.5 -32l-247 -359h243q17 0 30.5 -10.5t13.5 -30.5q0 -19 -13.5 -29.5t-30.5 -10.5h-316z" glyph-name="zacute" horiz-adv-x="448" unicode="ź"/><glyph d="M277 755q-23 0 -39 16t-16 39t16 38.5t39 15.5t38.5 -15.5t15.5 -38.5t-15.5 -39t-38.5 -16zM91 0q-32 0 -49.5 13t-17.5 36q0 13 8.5 29.5t21.5 35.5l347 517h-314q-23 0 -36 11.5t-13 29.5q0 17 13 28.5t32 11.5h395q22 0 33 -11t11 -26q0 -19 -21 -49l-364 -544h354 q19 0 32 -11.5t13 -29.5t-13 -29.5t-32 -11.5h-400z" glyph-name="Zdotaccent" horiz-adv-x="560" unicode="Ż"/><glyph d="M221 595q-23 0 -38.5 16t-15.5 39t16 38.5t38 15.5t38.5 -15.5t16.5 -38.5t-16 -39t-39 -16zM67 0q-19 0 -32 8.5t-13 25.5t8.5 30.5t29.5 44.5l234 342h-218q-18 0 -31 10.5t-13 30.5t13 30t32 10h293q44 0 44 -33q0 -15 -6.5 -27t-20.5 -32l-247 -359h243 q17 0 30.5 -10.5t13.5 -30.5q0 -19 -13.5 -29.5t-30.5 -10.5h-316z" glyph-name="zdotaccent" horiz-adv-x="448" unicode="ż"/><glyph d="M277 757q-8 0 -24 6.5t-25 10.5l-83 35q-22 9 -27.5 20t-5.5 24t9 24.5t25 11.5q9 0 19 -3t17 -6l95 -43l93 42q23 10 37 10q16 0 25.5 -11.5t9.5 -24.5q0 -20 -9 -29t-23 -15l-79 -33l-29 -12t-25 -7zM91 0q-32 0 -49.5 13t-17.5 36q0 13 8.5 29.5t21.5 35.5l347 517 h-314q-23 0 -36 11.5t-13 29.5q0 17 13 28.5t32 11.5h395q22 0 33 -11t11 -26q0 -19 -21 -49l-364 -544h354q19 0 32 -11.5t13 -29.5t-13 -29.5t-32 -11.5h-400z" glyph-name="Zcaron" horiz-adv-x="560" unicode="Ž"/><glyph d="M224 597q-8 0 -24 6.5t-25 10.5l-82 35q-23 9 -28.5 20t-5.5 24t9.5 24.5t24.5 11.5q9 0 19 -3t17 -6l95 -43l93 42q23 10 37 10q16 0 25.5 -11.5t9.5 -24.5q0 -20 -9 -29t-23 -15l-79 -33l-29 -12t-25 -7zM67 0q-19 0 -32 8.5t-13 25.5t8.5 30.5t29.5 44.5l234 342h-218 q-18 0 -31 10.5t-13 30.5t13 30t32 10h293q44 0 44 -33q0 -15 -6.5 -27t-20.5 -32l-247 -359h243q17 0 30.5 -10.5t13.5 -30.5q0 -19 -13.5 -29.5t-30.5 -10.5h-316z" glyph-name="zcaron" horiz-adv-x="448" unicode="ž"/><glyph d="M118 -6q-20 0 -32 14t-12 37v613q0 51 28.5 82.5t75.5 31.5h39q23 0 38.5 -11t15.5 -30q0 -17 -10 -28.5t-32 -11.5h-30q-37 0 -37 -38v-608q0 -23 -11.5 -37t-32.5 -14z" glyph-name="longs" horiz-adv-x="241" unicode="ſ"/><glyph d="M329 -8q-69 0 -123.5 28t-92.5 74.5t-58 108t-20 127.5q0 34 18 50.5t50 16.5h450q-3 47 -18 90.5t-43.5 76.5t-71 53t-99.5 20q-62 0 -104.5 -22t-82.5 -57q-13 -11 -22 -16.5t-20 -5.5q-18 0 -28.5 11t-10.5 31t21 44.5t57.5 46.5t85.5 36.5t105 14.5q82 0 143.5 -26.5 t103 -74.5t62 -114t20.5 -146q0 -73 -21 -139.5t-61.5 -117t-100.5 -80.5t-139 -30zM335 74q48 0 86.5 17.5t66.5 49.5t45 77t20 101h-419q2 -55 15.5 -100t38 -77t61.5 -50t86 -18z" glyph-name="uni018F" horiz-adv-x="688" unicode="Ə"/><glyph d="M41 -166q-31 0 -43.5 11.5t-12.5 27.5q0 17 10.5 27.5t35.5 10.5h20q38 0 57.5 27.5t31.5 94.5l66 375h-53q-18 0 -30 8.5t-12 24.5t12 24.5t31 8.5h64l20 117q15 87 49 130t103 43h32q26 0 39 -10.5t13 -28.5q0 -17 -11 -27.5t-34 -10.5h-27q-35 0 -52 -23t-25 -68 l-22 -122h55q19 0 31 -8.5t12 -24.5q0 -17 -12 -25t-28 -8h-70l-67 -375q-19 -104 -58 -151.5t-108 -47.5h-17z" glyph-name="florin" horiz-adv-x="554" unicode="ƒ"/><glyph d="M520 666q66 -48 102.5 -129t36.5 -181q0 -76 -21.5 -142.5t-62 -116t-98.5 -77.5t-130 -28t-129.5 28t-98 77t-62 115t-21.5 142q0 81 23 148.5t64 116t98 75t126 26.5q35 0 72 -8q35 0 59 18.5t24 47.5q0 16 12.5 28.5t27.5 12.5q16 0 27.5 -12.5t11.5 -28.5 q0 -39 -18 -66.5t-43 -45.5zM350 74q51 0 90.5 22t66.5 60t41 89t14 109q0 61 -14 113t-41 90t-67.5 59.5t-93.5 21.5q-50 0 -89.5 -20.5t-67 -58t-42 -89t-14.5 -114.5q0 -56 13 -107t39.5 -90t67.5 -62t97 -23z" glyph-name="Ohorn" horiz-adv-x="695" unicode="Ơ"/><glyph d="M422 483q40 -38 61.5 -94t21.5 -123q0 -60 -16 -110.5t-46.5 -86.5t-74 -56.5t-98.5 -20.5t-99 20.5t-74.5 57t-46.5 86.5t-16 110q0 57 16 106.5t46.5 87t74.5 59t99 21.5q32 0 62 -8q34 2 55.5 20.5t21.5 45.5q0 16 12.5 28.5t27.5 12.5q16 0 27.5 -12.5t11.5 -28.5 q0 -42 -20 -70t-46 -45zM270 69q34 0 60.5 15t45 41t28 62.5t9.5 78.5t-9.5 78t-27.5 62.5t-45 41.5t-62 15q-33 0 -59.5 -14.5t-44.5 -40.5t-28 -62t-10 -79q0 -42 9.5 -78.5t27.5 -63t45 -41.5t61 -15z" glyph-name="ohorn" unicode="ơ"/><glyph d="M733 778q0 -31 -12 -55t-30 -41t-39.5 -28t-41.5 -16v-392q0 -57 -21 -104t-57.5 -80t-86.5 -51.5t-109 -18.5q-62 0 -113 19t-87 52.5t-56 80.5t-20 102v421q0 23 11.5 37t32.5 14q22 0 33.5 -14t11.5 -37v-413q0 -40 13.5 -73.5t38.5 -56.5t59 -36t75 -13t75 13 t59 36.5t38.5 56.5t13.5 73v413q0 23 11 37t33 14q12 0 22 -5q29 5 48 22.5t19 42.5q0 16 12.5 28.5t27.5 12.5q16 0 27.5 -12.5t11.5 -28.5z" glyph-name="Uhorn" horiz-adv-x="670" unicode="Ư"/><glyph d="M603 598q0 -31 -12 -55t-30.5 -41.5t-40 -28t-41.5 -15.5v-281q0 -41 -15 -75t-42.5 -58.5t-66 -38t-85.5 -13.5q-48 0 -87 13.5t-66 37.5t-42 57.5t-15 73.5v314q0 22 11.5 36t32.5 14t32.5 -14t11.5 -36v-294q0 -59 32 -92.5t90 -33.5q57 0 89.5 33.5t32.5 92.5v294 q0 21 11.5 35.5t32.5 14.5q12 0 20 -5q30 4 49 22t19 43q0 16 12.5 28.5t27.5 12.5q16 0 27.5 -12.5t11.5 -28.5z" glyph-name="uhorn" unicode="ư"/><glyph d="M260 810q-15 0 -24 10t-9 24q0 12 6 19.5t23 14.5l102 42q6 2 13 4t13 2q14 0 23.5 -11t9.5 -25q0 -17 -9 -24t-29 -15l-87 -33q-18 -8 -32 -8zM52 -6q-20 0 -30.5 10t-10.5 25q0 14 7 34.5t18 47.5l174 467q6 18 13 32t16 28q-24 26 -24 60q0 19 7.5 35.5t20 29t29 20 t35.5 7.5q38 0 65.5 -27t27.5 -65q0 -35 -24 -59q9 -14 16 -29t14 -32l183 -494q5 -11 10 -26t5 -29q0 -15 -10.5 -25t-29.5 -10q-23 0 -32.5 11.5t-20.5 40.5l-38 106h-331l-38 -107q-11 -29 -21.5 -40t-30.5 -11zM307 649q20 0 34.5 14.5t14.5 34.5q0 21 -14.5 35 t-34.5 14t-34.5 -14t-14.5 -35q0 -20 14.5 -34.5t34.5 -14.5zM445 233l-130 360h-13l-131 -360h274z" glyph-name="Aringacute" horiz-adv-x="615" unicode="Ǻ"/><glyph d="M233 790q-15 0 -23.5 10.5t-8.5 24.5q0 13 5.5 20.5t22.5 14.5l102 44q8 2 15 4t13 2q14 0 23 -11.5t9 -26.5q0 -16 -8 -23.5t-29 -15.5l-91 -36q-8 -3 -15 -5t-15 -2zM279 581q-19 0 -36 7.5t-30 20t-20.5 30t-7.5 36.5q0 20 7.5 37t20.5 29.5t30 20t36 7.5t36 -7.5 t30 -20t20.5 -29.5t7.5 -37q0 -19 -7.5 -36t-20 -30t-29.5 -20.5t-37 -7.5zM279 625q21 0 35.5 15t14.5 35t-15.5 35t-35.5 15q-19 0 -34 -14.5t-15 -35.5q0 -20 15 -35t35 -15zM266 -8q-54 0 -97 20.5t-73 56.5t-46 86.5t-16 110.5q0 57 16.5 107t46.5 87t72.5 58.5 t94.5 21.5q47 0 81.5 -19t64.5 -57h3v28q3 46 43 46q21 0 32.5 -14t11.5 -36v-443q0 -23 -11.5 -37t-32.5 -14q-40 0 -43 46v28h-3q-24 -38 -60.5 -57t-83.5 -19zM270 69q35 0 61.5 15t44.5 41t27 62.5t9 78.5t-9 78t-27 62.5t-45 41.5t-62 15q-33 0 -59.5 -15.5t-45 -42 t-28 -62.5t-9.5 -77q0 -42 9.5 -78.5t28 -62.5t45 -41t60.5 -15z" glyph-name="aringacute" horiz-adv-x="559" unicode="ǻ"/><glyph d="M402 761q-15 0 -25 13t-10 28q0 25 25 35l145 57q10 5 16.5 6t12.5 1q15 0 25 -12.5t10 -27.5q0 -14 -6 -22.5t-26 -16.5l-132 -52q-14 -5 -22 -7t-13 -2zM45 -6q-15 0 -25.5 10t-10.5 27q0 12 4 23t14 31l306 597q8 16 18 23t28 7h302q18 0 31 -11.5t13 -29.5t-13 -29.5 t-31 -11.5h-201v-233h191q18 0 31 -11t13 -30q0 -20 -13 -30.5t-31 -10.5h-192v-233h212q17 0 30.5 -11.5t13.5 -29.5t-13.5 -29.5t-30.5 -11.5h-258q-17 0 -30 13.5t-13 33.5v109h-232l-51 -104q-18 -37 -32 -47.5t-30 -10.5zM390 233v382h-2l-191 -382h193z" glyph-name="AEacute" horiz-adv-x="762" unicode="Ǽ"/><glyph d="M391 600q-15 0 -25 13t-10 28q0 25 25 35l145 57q10 5 16.5 6t12.5 1q16 0 25.5 -12.5t9.5 -28.5q0 -13 -6 -21.5t-26 -16.5l-132 -52q-14 -5 -21.5 -7t-13.5 -2zM266 -8q-53 0 -96 20t-73 56.5t-46.5 87t-16.5 110.5q0 56 16 105.5t46 87t72.5 59.5t95.5 22 q46 0 79.5 -17t67.5 -57h2v27q0 23 10.5 35t27.5 12q16 0 26 -10.5t12 -33.5l1 -25h2q24 31 63.5 50t80.5 19q55 0 98 -21.5t73 -57t45.5 -82t15.5 -97.5q0 -28 -12.5 -40t-38.5 -12h-322q2 -34 14 -63.5t32.5 -51.5t48 -34.5t60.5 -12.5q49 0 79.5 18.5t53.5 36.5l20 14.5 t17 6.5q18 0 29 -9.5t11 -29.5q0 -24 -27 -48q-27 -26 -74.5 -45.5t-99.5 -19.5q-54 0 -96 16t-72 51h-2v-23q-2 -23 -12 -33.5t-26 -10.5q-17 0 -27.5 12t-10.5 36v29h-2q-24 -40 -62 -58.5t-83 -18.5zM775 299q-1 35 -12 65.5t-30 53t-44.5 35.5t-56.5 13q-28 0 -52 -12.5 t-42.5 -34.5t-29.5 -52.5t-13 -67.5h280zM270 69q35 0 61.5 15.5t44.5 42t27 62.5t9 77q0 39 -8.5 74.5t-26 63t-44.5 43.5t-64 16q-35 0 -61.5 -16.5t-44.5 -44t-27 -63t-9 -73.5q0 -42 9.5 -78t27.5 -62.5t45 -41.5t61 -15z" glyph-name="aeacute" horiz-adv-x="896" unicode="ǽ"/><glyph d="M294 761q-15 0 -25 13t-10 28q0 25 25 35l145 57q10 5 16.5 6t12.5 1q15 0 25 -12.5t10 -27.5q0 -14 -6 -22.5t-26 -16.5l-132 -52q-14 -5 -22 -7t-13 -2zM55 -21q-14 0 -22 9t-8 20q0 14 7.5 24l15.5 20l57 67q-33 49 -51 109t-18 126q0 78 22 145t62.5 116t98 77 t127.5 28q64 0 114 -21t87 -56l58 69q16 21 34 21q15 0 22.5 -8t7.5 -19q0 -10 -4.5 -18.5t-23.5 -30.5l-52 -62q35 -50 52.5 -111.5t17.5 -127.5q0 -75 -21 -141t-61.5 -115.5t-98 -78.5t-131.5 -29q-63 0 -113 21t-88 57l-60 -71q-8 -10 -14.5 -15t-16.5 -5zM490 577 q-26 28 -60.5 44.5t-83.5 16.5q-51 0 -90.5 -21.5t-67 -59.5t-41.5 -89.5t-14 -112.5q0 -41 7.5 -83t26.5 -79zM351 74q50 0 89.5 21.5t66.5 59t41 89t14 110.5q0 51 -9.5 93.5t-25.5 74.5l-324 -385q26 -30 61.5 -46.5t86.5 -16.5z" glyph-name="Oslashacute" horiz-adv-x="695" unicode="Ǿ"/><glyph d="M217 600q-16 0 -25.5 13t-9.5 28q0 25 24 35l145 57q10 5 16.5 6t12.5 1q16 0 25.5 -12.5t9.5 -28.5q0 -13 -6 -21.5t-26 -16.5l-132 -52q-13 -5 -21 -7t-13 -2zM52 -27q-11 0 -19.5 8.5t-8.5 20.5q0 6 2 12.5t15 22.5l43 52q-26 36 -38 81t-12 96q0 56 16 105.5t46.5 87 t73.5 59.5t97 22q48 0 83 -13t64 -39l42 51q10 11 17 15.5t15 4.5q11 0 19.5 -8t8.5 -21q0 -14 -15 -31l-46 -57q26 -36 38 -82t12 -94q0 -60 -16 -110t-46.5 -86.5t-74 -57t-98.5 -20.5q-45 0 -81.5 13.5t-63.5 37.5l-41 -49q-11 -14 -18 -17.5t-14 -3.5zM360 424 q-15 18 -37.5 28.5t-53.5 10.5q-33 0 -59.5 -14.5t-44.5 -41t-28 -62.5t-10 -79q0 -26 4 -52.5t15 -51.5zM270 69q34 0 60.5 15t45 41.5t28 62.5t9.5 78q0 26 -4.5 53.5t-15.5 51.5l-213 -263q16 -18 38.5 -28.5t51.5 -10.5z" glyph-name="oslashacute" unicode="ǿ"/><glyph d="M221 -8q-54 0 -98 12t-72 30q-16 11 -25 23t-9 26q0 18 12 31.5t30 13.5q8 0 16 -4t17 -9q29 -18 56.5 -28.5t67.5 -10.5q70 0 109.5 37t39.5 94q0 43 -29 72t-92 53q-54 20 -94.5 37.5t-67.5 39.5t-40 51.5t-13 71.5q0 45 19 80t49.5 59t69 36.5t78.5 12.5 q36 0 72.5 -10.5t60.5 -26.5q36 -20 36 -47q0 -19 -12 -32t-26 -13q-8 0 -16 2.5t-15 6.5q-26 15 -49.5 26t-56.5 11q-24 0 -46 -7.5t-38 -21t-25.5 -32t-9.5 -40.5q0 -39 30.5 -63t93.5 -46q58 -20 98 -40.5t65.5 -45.5t37 -56t11.5 -72q0 -49 -16.5 -89.5t-47.5 -70 t-74.5 -45.5t-96.5 -16zM161 -185q-14 0 -25 9.5t-11 22.5q0 16 22 37l52 58q9 11 16.5 15.5t18.5 4.5q17 0 29.5 -12t12.5 -26q0 -11 -6 -19t-17 -18l-48 -47q-11 -11 -19.5 -18t-24.5 -7z" glyph-name="uni0218" horiz-adv-x="476" unicode="Ș"/><glyph d="M217 -8q-55 0 -97.5 16.5t-67.5 37.5q-30 24 -30 47q0 14 12 29t28 15q15 0 43 -23q26 -22 54.5 -34.5t61.5 -12.5q46 0 73.5 23t27.5 57q0 28 -21 45.5t-52 31t-68 26t-68 30.5t-52 45t-21 68q0 32 14 59t38 46.5t55.5 30.5t65.5 11q47 0 88 -11.5t67 -28.5 q32 -22 32 -47q0 -20 -10.5 -30.5t-28.5 -10.5q-16 0 -33 12l-47 27.5t-57 13.5q-40 0 -66 -18t-26 -49q0 -25 21 -40.5t52 -28.5t68 -26t68 -32t52 -48t21 -73q0 -35 -14.5 -64t-41 -50t-62.5 -32.5t-79 -11.5zM147 -185q-15 0 -25.5 9.5t-10.5 22.5q0 16 21 37l52 58 q9 11 16.5 15.5t18.5 4.5q18 0 30.5 -12t12.5 -26q0 -11 -6.5 -19t-16.5 -18l-48 -47q-11 -11 -19.5 -18t-24.5 -7z" glyph-name="uni0219" horiz-adv-x="441" unicode="ș"/><glyph d="M217 -6q-22 0 -33.5 14t-11.5 37v585h-131q-19 0 -32 11.5t-13 29.5t13 29.5t32 11.5h351q19 0 32 -11.5t13 -29.5t-13 -29.5t-32 -11.5h-131v-585q0 -23 -12 -37t-32 -14zM149 -185q-14 0 -25 9.5t-11 22.5q0 16 21 37l52 58q9 11 16.5 15.5t18.5 4.5q18 0 30.5 -12 t12.5 -26q0 -11 -6 -19t-17 -18l-48 -47q-11 -11 -19.5 -18t-24.5 -7z" glyph-name="uni021A" horiz-adv-x="433" unicode="Ț"/><glyph d="M128 -6q-20 0 -32 14t-12 37v411h-40q-21 0 -31.5 10.5t-10.5 27.5t10.5 27.5t31.5 10.5h40v116q0 23 12 37.5t32 14.5q21 0 32.5 -14.5t11.5 -37.5v-116h47q40 0 40 -38q0 -17 -10.5 -27.5t-29.5 -10.5h-47v-411q0 -23 -11.5 -37t-32.5 -14zM62 -185q-15 0 -25.5 9.5 t-10.5 22.5q0 16 21 37l52 58q9 11 16.5 15.5t18.5 4.5q18 0 30.5 -12t12.5 -26q0 -11 -6.5 -19t-16.5 -18l-48 -47q-11 -11 -19.5 -18t-24.5 -7z" glyph-name="uni021B" horiz-adv-x="261" unicode="ț"/><glyph d="M104 -217q-21 0 -32.5 14t-11.5 36v654q0 23 11.5 37t32.5 14t32.5 -14t11.5 -37v-654q0 -22 -11.5 -36t-32.5 -14z" glyph-name="uni0237" horiz-adv-x="207" unicode="ȷ"/><glyph d="M249 -8q-56 0 -98.5 21.5t-71 57.5t-43 83t-14.5 98q0 50 52 50h323q-4 71 -45 116.5t-115 45.5q-38 0 -65.5 -12.5t-65.5 -44.5q-22 -19 -37 -19q-18 0 -28.5 11t-10.5 28q0 14 9.5 29t26.5 29q27 23 71 39t97 16q66 0 114.5 -21t80.5 -57.5t47.5 -86.5t15.5 -109 q0 -53 -17 -102.5t-48.5 -87.5t-76.5 -61t-101 -23zM251 66q29 0 54.5 12t45 34t31.5 53t15 68h-282q2 -36 12 -67t27.5 -53t42 -34.5t54.5 -12.5z" glyph-name="uni0259" horiz-adv-x="526" unicode="ə"/><glyph d="M65 547q-17 0 -27 9.5t-10 28.5q0 8 1 13.5l2 10.5l34 133q5 16 15.5 26t27.5 10q18 0 29 -10.5t11 -28.5q0 -4 -1 -10.5t-3 -11.5l-40 -140q-3 -11 -11.5 -20.5t-27.5 -9.5z" glyph-name="uni02B9" horiz-adv-x="176" unicode="ʹ"/><glyph d="M64 491q-20 0 -31.5 11.5t-11.5 26.5q0 14 7 28l64 134q13 27 41 27q20 0 31.5 -11.5t11.5 -26.5q0 -9 -3.5 -18.5t-8.5 -20.5l-57 -119q-8 -19 -18.5 -25t-24.5 -6z" glyph-name="uni02BC" horiz-adv-x="200" unicode="ʼ"/><glyph d="M104 597q-8 0 -24 6.5t-25 10.5l-83 35q-22 9 -27.5 20t-5.5 24t9 24.5t25 11.5q9 0 19 -3t17 -6l95 -43l93 42q23 10 37 10q16 0 25.5 -11.5t9.5 -24.5q0 -20 -9 -29t-23 -15l-79 -33l-29 -12t-25 -7z" glyph-name="caron" horiz-adv-x="207" unicode="ˇ"/><glyph d="M2 603q-20 0 -33 10.5t-13 30.5t13 30.5t33 10.5h203q21 0 34 -10.5t13 -30.5q0 -21 -13 -31t-35 -10h-202z" glyph-name="uni02C9" horiz-adv-x="207" unicode="ˉ"/><glyph d="M104 595q-23 0 -39 16t-16 39t16 38.5t39 15.5q22 0 38 -15.5t16 -38.5t-15.5 -39t-38.5 -16z" glyph-name="dotaccent" horiz-adv-x="207" unicode="˙"/><glyph d="M104 583q-39 0 -66.5 27.5t-27.5 66.5q0 19 7.5 36t20 30t30 20.5t36.5 7.5t36 -7.5t30 -20.5t20.5 -30t7.5 -36t-7.5 -36.5t-20.5 -30t-30 -20t-36 -7.5zM104 627q20 0 35 14.5t15 35.5q0 20 -15 35t-35 15q-21 0 -35.5 -15t-14.5 -35t14.5 -35t35.5 -15z" glyph-name="ring" horiz-adv-x="207" unicode="˚"/><glyph d="M74 -186q-45 0 -64.5 18t-19.5 51q0 38 29 69t81 56l42 -4q-38 -30 -58.5 -57t-20.5 -45q0 -14 8 -21.5t22 -7.5q12 0 25.5 4.5t22.5 4.5q13 0 19 -7.5t6 -16.5q0 -18 -21 -30q-12 -6 -30 -10t-41 -4z" glyph-name="ogonek" horiz-adv-x="207" unicode="˛"/><glyph d="M177 610q-17 0 -35 4.5t-35 10.5t-33.5 10.5t-31.5 4.5q-10 0 -17.5 -4.5t-14 -9.5t-13 -9.5t-16.5 -4.5q-34 0 -34 34q0 14 7 26.5t19 22.5t27 16t31 6q17 0 34.5 -4.5t35 -10.5t34 -10.5t30.5 -4.5q11 0 18.5 4.5t13.5 10t13 10t16 4.5q17 0 26 -10.5t9 -27.5 q0 -13 -7.5 -25.5t-19.5 -22t-27 -15t-30 -5.5z" glyph-name="tilde" horiz-adv-x="207" unicode="˜"/><glyph d="M-86 600q-15 0 -25 12.5t-10 28.5q0 17 9.5 25t26.5 14l82 32q8 3 16 5.5t17 2.5q20 0 28 -15.5t8 -25.5q0 -25 -29 -36l-93 -36q-7 -2 -14 -4.5t-16 -2.5zM139 600q-15 0 -25 12.5t-10 28.5q0 17 9.5 25t26.5 14l82 32q8 3 16 5.5t17 2.5q20 0 28 -15.5t8 -25.5 q0 -25 -29 -36l-93 -36q-7 -2 -14 -4.5t-16 -2.5z" glyph-name="hungarumlaut" horiz-adv-x="207" unicode="˝"/><glyph d="M-28 600q-5 0 -12.5 2t-21.5 7l-132 52q-20 8 -26 16.5t-6 21.5q0 16 9.5 28.5t25.5 12.5q6 0 12.5 -1t16.5 -6l145 -57q24 -10 24 -35q0 -15 -9.5 -28t-25.5 -13z" glyph-name="gravecomb" horiz-adv-x="0" unicode="̀"/><glyph d="M-179 600q-16 0 -25.5 13t-9.5 28q0 25 24 35l145 57q11 5 17 6t13 1q15 0 25 -12.5t10 -28.5q0 -13 -6 -21.5t-26 -16.5l-133 -52q-13 -5 -21 -7t-13 -2z" glyph-name="acutecomb" horiz-adv-x="0" unicode="́"/><glyph d="M-234 597q-16 0 -25 11.5t-9 24.5t5.5 24t27.5 20l83 35q9 4 25 10.5t24 6.5t25 -7l29 -12l79 -34q14 -5 23 -14.5t9 -28.5q0 -13 -9.5 -24.5t-25.5 -11.5q-17 0 -37 10l-93 42l-95 -43q-7 -3 -17 -6t-19 -3z" glyph-name="uni0302" horiz-adv-x="0" unicode="̂"/><glyph d="M-30 610q-17 0 -35 4.5t-35 10.5t-33.5 10.5t-31.5 4.5q-11 0 -18 -4.5t-13.5 -9.5t-13 -9.5t-16.5 -4.5q-34 0 -34 34q0 14 7 26.5t19 22.5t27 16t31 6q17 0 34.5 -4.5t35 -10.5t34 -10.5t30.5 -4.5q11 0 18.5 4.5t13.5 10t13 10t16 4.5q17 0 26 -10.5t9 -27.5 q0 -13 -7.5 -25.5t-19.5 -22t-27 -15t-30 -5.5z" glyph-name="tildecomb" horiz-adv-x="0" unicode="̃"/><glyph d="M-205 603q-20 0 -33 10.5t-13 30.5t13 30.5t33 10.5h203q21 0 34 -10.5t13 -30.5q0 -21 -13 -31t-35 -10h-202z" glyph-name="uni0304" horiz-adv-x="0" unicode="̄"/><glyph d="M-103 594q-32 0 -58 8t-45.5 22t-30 32.5t-10.5 39.5t9 30t24 9q22 0 37 -26q12 -22 29 -31.5t45 -9.5t44 9.5t29 29.5q8 13 15.5 20.5t21.5 7.5q16 0 24.5 -9t8.5 -30t-10.5 -39.5t-29.5 -32.5t-45.5 -22t-57.5 -8z" glyph-name="uni0306" horiz-adv-x="0" unicode="̆"/><glyph d="M-103 595q-23 0 -39 16t-16 39t16 38.5t39 15.5q22 0 38 -15.5t16 -38.5t-15.5 -39t-38.5 -16z" glyph-name="uni0307" horiz-adv-x="0" unicode="̇"/><glyph d="M-197 595q-23 0 -39 16t-16 39t16 38.5t39 15.5t38.5 -15.5t15.5 -38.5t-15.5 -39t-38.5 -16zM-9 595q-23 0 -39 16t-16 39t16 38.5t39 15.5q22 0 38 -15.5t16 -38.5t-15.5 -39t-38.5 -16z" glyph-name="uni0308" horiz-adv-x="0" unicode="̈"/><glyph d="M-218 583q-14 0 -22 8.5t-8 20.5v32q0 13 6 18.5t23 7.5q31 6 31 31q0 11 -8 18.5t-21 7.5q-19 0 -31 -19t-29 -19q-11 0 -19 9t-8 21q0 29 25.5 48.5t61.5 19.5q42 0 68.5 -23.5t26.5 -61.5q0 -66 -66 -80v-7q0 -14 -8 -23t-22 -9z" glyph-name="hookabovecomb" horiz-adv-x="0" unicode="̉"/><glyph d="M-103 583q-39 0 -66.5 27.5t-27.5 66.5q0 19 7.5 36t20 30t29.5 20.5t37 7.5q19 0 36 -7.5t30 -20.5t20.5 -30t7.5 -36t-7.5 -36.5t-20.5 -30t-30 -20t-36 -7.5zM-103 627q20 0 35 14.5t15 35.5q0 20 -15 35t-35 15q-21 0 -35.5 -15t-14.5 -35t14.5 -35t35.5 -15z" glyph-name="uni030A" horiz-adv-x="0" unicode="̊"/><glyph d="M-293 600q-15 0 -25 12.5t-10 28.5q0 17 9.5 25t26.5 14l82 32q8 3 16 5.5t17 2.5q20 0 28 -15.5t8 -25.5q0 -25 -29 -36l-93 -36q-7 -2 -14 -4.5t-16 -2.5zM-68 600q-15 0 -25 12.5t-10 28.5q0 17 9.5 25t26.5 14l82 32q8 3 16 5.5t17 2.5q20 0 28 -15.5t8 -25.5 q0 -25 -29 -36l-93 -36q-7 -2 -14 -4.5t-16 -2.5z" glyph-name="uni030B" horiz-adv-x="0" unicode="̋"/><glyph d="M-103 597q-8 0 -24 6.5t-25 10.5l-83 35q-22 9 -27.5 20t-5.5 24t9 24.5t25 11.5q9 0 19 -3t17 -6l95 -43l93 42q23 10 37 10q16 0 25.5 -11.5t9.5 -24.5q0 -20 -9 -29t-23 -15l-79 -33l-29 -12t-25 -7z" glyph-name="uni030C" horiz-adv-x="0" unicode="̌"/><glyph d="M-136 600q-17 0 -29.5 12.5t-12.5 26.5q0 11 5.5 18.5t16.5 18.5l45 50q9 10 17 17.5t25 7.5q15 0 26 -10t11 -23q0 -10 -5 -18.5t-16 -19.5l-48 -58q-9 -13 -16.5 -17.5t-18.5 -4.5z" glyph-name="uni0312" horiz-adv-x="0" unicode="̒"/><glyph d="M-136 600q-17 0 -29.5 12.5t-12.5 26.5q0 11 5.5 18.5t16.5 18.5l45 50q9 10 17 17.5t25 7.5q15 0 26 -10t11 -23q0 -10 -5 -18.5t-16 -19.5l-48 -58q-9 -13 -16.5 -17.5t-18.5 -4.5z" glyph-name="uni0313" horiz-adv-x="0" unicode="̓"/><glyph d="M-305 532q38 -2 63 17.5t25 48.5q0 16 12.5 28.5t27.5 12.5q16 0 27.5 -12.5t11.5 -28.5q0 -42 -21 -71t-48.5 -46t-55.5 -23t-42 -3v77z" glyph-name="uni031B" horiz-adv-x="0" unicode="̛"/><glyph d="M-103 -165q-23 0 -39 16t-16 39t16 38.5t39 15.5q22 0 38 -15.5t16 -38.5t-15.5 -39t-38.5 -16z" glyph-name="dotbelowcomb" horiz-adv-x="0" unicode="̣"/><glyph d="M-191 -185q-14 0 -25 9.5t-11 22.5q0 16 22 37l52 58q9 11 16 15.5t19 4.5q17 0 29.5 -12t12.5 -26q0 -11 -6 -19t-17 -18l-48 -47q-11 -11 -19.5 -18t-24.5 -7z" glyph-name="uni0326" horiz-adv-x="0" unicode="̦"/><glyph d="M-117 -186q-36 0 -57.5 9.5t-21.5 29.5q0 10 6 17.5t20 7.5q13 0 25.5 -6t35.5 -6q14 0 21.5 8t7.5 18q0 13 -8.5 20t-31.5 7h-11q-17 0 -23 3t-6 11q0 6 3.5 14.5t14.5 24.5l19 28h50l-29 -41l2 -2q10 3 23 3q30 0 48 -17.5t18 -43.5q0 -38 -30.5 -61.5t-75.5 -23.5z" glyph-name="uni0327" horiz-adv-x="0" unicode="̧"/><glyph d="M-133 -186q-45 0 -64.5 18t-19.5 51q0 38 29 69t81 56l42 -4q-38 -30 -58.5 -57t-20.5 -45q0 -14 8 -21.5t22 -7.5q12 0 25.5 4.5t22.5 4.5q13 0 19 -7.5t6 -16.5q0 -18 -21 -30q-12 -6 -30 -10t-41 -4z" glyph-name="uni0328" horiz-adv-x="0" unicode="̨"/><glyph d="M63 425q-17 0 -28 10.5t-11 27.5q0 8 1.5 16t3.5 15l47 185q5 18 15 29t30 11q18 0 29 -11t11 -28q0 -8 -1.5 -15.5t-3.5 -15.5l-47 -185q-5 -18 -15.5 -28.5t-30.5 -10.5z" glyph-name="uni0374" horiz-adv-x="185" unicode="ʹ"/><glyph d="M64 -193q-18 0 -29.5 11.5t-11.5 29.5q0 8 1.5 15.5t3.5 15.5l47 185q5 18 14.5 29.5t31.5 11.5q18 0 30 -11.5t12 -29.5q0 -8 -1.5 -16t-3.5 -15l-47 -185q-5 -18 -14.5 -29.5t-32.5 -11.5z" glyph-name="uni0375" horiz-adv-x="188" unicode="͵"/><glyph d="M124 325q-22 0 -38 16t-16 38q0 21 16.5 37.5t37.5 16.5t37 -16t16 -38q0 -21 -16 -37.5t-37 -16.5zM65 -127q-20 0 -31 11.5t-11 26.5q0 8 2 15t7 18l52 109q8 17 18 32t33 15q20 0 31 -12t11 -26q0 -16 -8 -32l-63 -132q-12 -25 -41 -25z" glyph-name="uni037E" horiz-adv-x="247" unicode=";"/><glyph d="M86 599q-20 0 -32 10.5t-12 24.5q0 11 6 26l36 101q6 16 15 26.5t25 10.5q15 0 29 -9.5t14 -26.5q0 -8 -6 -25l-36 -100q-6 -17 -15 -27.5t-24 -10.5z" glyph-name="tonos" horiz-adv-x="207" unicode="΄"/><glyph d="M107 691q-16 0 -30.5 10.5t-12.5 25.5q0 5 1 11t4 14l36 101q6 17 15 27t25 10q15 0 29 -10.5t14 -25.5q0 -9 -6 -24l-36 -101q-6 -17 -15 -27.5t-24 -10.5zM10 575q-23 0 -39 15.5t-16 38.5t16 39t39 16t38.5 -16t15.5 -39t-15.5 -38.5t-38.5 -15.5zM198 575 q-23 0 -39 15.5t-16 38.5t16 39t39 16q22 0 38 -16t16 -39t-15.5 -38.5t-38.5 -15.5z" glyph-name="dieresistonos" horiz-adv-x="207" unicode="΅"/><glyph d="M104 599q-20 0 -31.5 10.5t-11.5 24.5q0 5 1 11.5t4 14.5l36 101q6 16 15 26.5t25 10.5q15 0 29 -9.5t14 -26.5q0 -8 -6 -25l-36 -100q-6 -17 -15 -27.5t-24 -10.5zM52 -6q-20 0 -30.5 10t-10.5 25q0 14 7 34.5t18 47.5l204 548q13 33 28.5 47t39.5 14q23 0 39 -14 t28 -47l215 -576q4 -10 9 -25t5 -29q0 -15 -10.5 -25t-29.5 -10q-23 0 -32.5 11.5t-20.5 40.5l-38 106h-331l-38 -107q-11 -29 -21.5 -40t-30.5 -11zM445 233l-136 377h-2l-136 -377h274z" glyph-name="Alphatonos" horiz-adv-x="615" unicode="Ά"/><glyph d="M124 258q-21 0 -37.5 15.5t-16.5 37.5t16.5 38t37.5 16t37 -16.5t16 -37.5t-16 -37t-37 -16z" glyph-name="anoteleia" horiz-adv-x="247" unicode="·"/><glyph d="M-52 599q-20 0 -31.5 10.5t-11.5 24.5q0 5 1 11.5t4 14.5l36 101q6 16 15 26.5t25 10.5q15 0 29 -9.5t14 -26.5q0 -8 -6 -25l-36 -100q-6 -17 -15 -27.5t-24 -10.5zM109 0q-23 0 -35.5 12.5t-12.5 32.5v623q0 20 12.5 32t35.5 12h243q18 0 31 -11.5t13 -29.5t-13 -29.5 t-31 -11.5h-201v-233h191q18 0 31 -11t13 -30q0 -20 -12.5 -30.5t-31.5 -10.5h-192v-233h211q19 0 32 -11.5t13 -29.5t-13 -29.5t-31 -11.5h-253z" glyph-name="Epsilontonos" horiz-adv-x="448" unicode="Έ"/><glyph d="M-52 599q-20 0 -31.5 10.5t-11.5 24.5q0 5 1 11.5t4 14.5l36 101q6 16 15 26.5t25 10.5q15 0 29 -9.5t14 -26.5q0 -8 -6 -25l-36 -100q-6 -17 -15 -27.5t-24 -10.5zM105 -6q-21 0 -32.5 14t-11.5 37v622q0 23 11.5 37t32.5 14q22 0 33.5 -14t11.5 -37v-261h374v261 q0 23 11.5 37t33.5 14q21 0 32.5 -14t11.5 -37v-622q0 -23 -11.5 -37t-32.5 -14q-22 0 -33.5 14t-11.5 37v279h-374v-279q0 -23 -11.5 -37t-33.5 -14z" glyph-name="Etatonos" horiz-adv-x="674" unicode="Ή"/><glyph d="M-52 599q-20 0 -31.5 10.5t-11.5 24.5q0 5 1 11.5t4 14.5l36 101q6 16 15 26.5t25 10.5q15 0 29 -9.5t14 -26.5q0 -8 -6 -25l-36 -100q-6 -17 -15 -27.5t-24 -10.5zM105 -6q-21 0 -32.5 14t-11.5 37v622q0 23 11.5 37t32.5 14q22 0 33.5 -14t11.5 -37v-622 q0 -23 -11.5 -37t-33.5 -14z" glyph-name="Iotatonos" horiz-adv-x="211" unicode="Ί"/><glyph d="M7 599q-19 0 -31 10.5t-12 24.5q0 11 6 26l36 101q6 16 15 26.5t24 10.5q16 0 29.5 -9.5t13.5 -26.5q0 -5 -1 -11t-4 -14l-36 -100q-6 -17 -15 -27.5t-25 -10.5zM347 -8q-72 0 -129.5 28t-98 77t-62 115t-21.5 142q0 81 23 148.5t64 116t98 75t126 26.5q72 0 130 -28.5 t98.5 -77.5t62 -115.5t21.5 -142.5t-21.5 -142.5t-62 -116t-98.5 -77.5t-130 -28zM350 74q51 0 90.5 22t66.5 60t41 89t14 109q0 61 -14 113t-41 90t-67.5 59.5t-93.5 21.5q-50 0 -89.5 -20.5t-67 -58t-42 -89t-14.5 -114.5q0 -56 13 -107t39.5 -90t67.5 -62t97 -23z" glyph-name="Omicrontonos" horiz-adv-x="695" unicode="Ό"/><glyph d="M-100 599q-19 0 -31 10.5t-12 24.5q0 11 6 26l36 101q6 16 15 26.5t24 10.5q16 0 29.5 -9.5t13.5 -26.5q0 -5 -1 -11t-4 -14l-36 -100q-6 -17 -15 -27.5t-25 -10.5zM246 -6q-21 0 -32.5 14t-11.5 37v291l-177 287q-13 19 -20.5 33.5t-7.5 25.5q0 15 11 25.5t31 10.5 q23 0 34 -15t18 -26l155 -254l164 267q11 18 21.5 23t23.5 5q19 0 29.5 -10.5t10.5 -25.5q0 -21 -28 -60l-176 -286v-291q0 -23 -11.5 -37t-33.5 -14z" glyph-name="Upsilontonos" horiz-adv-x="493" unicode="Ύ"/><glyph d="M5 599q-19 0 -31 10.5t-12 24.5q0 11 6 26l35 101q6 16 15.5 26.5t24.5 10.5t29 -9.5t14 -26.5q0 -8 -6 -25l-35 -100q-6 -17 -15.5 -27.5t-24.5 -10.5zM86 0q-19 0 -33 10.5t-14 30.5t14.5 30t32.5 10h88v3q-63 53 -97.5 133.5t-34.5 167.5q0 79 24.5 141.5t67 105.5 t101.5 65.5t128 22.5q71 0 130 -21t101.5 -62.5t66 -102.5t23.5 -141q0 -88 -33 -171t-99 -138v-3h86q20 0 34.5 -10t14.5 -30t-14.5 -30.5t-34.5 -10.5h-176q-41 0 -41 38q0 13 7 23t16 17q32 24 57.5 57.5t43.5 72.5t27.5 81.5t9.5 84.5q0 130 -59.5 197t-159.5 67 q-51 0 -91.5 -18t-68.5 -51.5t-43 -81t-15 -106.5q0 -43 10 -87t28 -84t43 -74t56 -58q8 -7 16 -17t8 -23q0 -38 -42 -38h-178z" glyph-name="Omegatonos" horiz-adv-x="726" unicode="Ώ"/><glyph d="M107 691q-16 0 -30.5 10.5t-12.5 25.5q1 5 2 11t3 14l36 101q6 17 15.5 27t24.5 10t29 -10.5t14 -25.5q0 -9 -6 -24l-35 -101q-6 -17 -15.5 -27.5t-24.5 -10.5zM10 575q-23 0 -39 15.5t-16 38.5t16 39t39 16t38.5 -16t15.5 -39t-15.5 -38.5t-38.5 -15.5zM198 575 q-23 0 -38.5 15.5t-15.5 38.5t15.5 39t38.5 16q22 0 38 -16t16 -39t-15.5 -38.5t-38.5 -15.5zM141 -6q-28 0 -44 28l-6 10q-12 20 -22.5 51.5t-10.5 76.5v327q0 23 12 37t32 14q21 0 32.5 -14t11.5 -37v-306q0 -31 5.5 -54.5t20.5 -50.5l6 -10q9 -16 9 -29q0 -19 -14 -31 t-32 -12z" glyph-name="iotadieresistonos" horiz-adv-x="240" unicode="ΐ"/><glyph d="M52 -6q-20 0 -30.5 10t-10.5 25q0 14 7 34.5t18 47.5l204 548q13 33 28.5 47t39.5 14q23 0 39 -14t28 -47l215 -576q4 -10 9 -25t5 -29q0 -15 -10.5 -25t-29.5 -10q-23 0 -32.5 11.5t-20.5 40.5l-38 106h-331l-38 -107q-11 -29 -21.5 -40t-30.5 -11zM445 233l-136 377h-2 l-136 -377h274z" glyph-name="Alpha" horiz-adv-x="615" unicode="Α"/><glyph d="M109 0q-23 0 -35.5 12.5t-12.5 31.5v624q0 20 12.5 32t35.5 12h146q47 0 84 -13t63.5 -37t40.5 -57t14 -73q0 -52 -23.5 -89t-74.5 -57v-2q73 -12 113.5 -57.5t40.5 -120.5q0 -47 -16 -85t-46 -65t-71.5 -41.5t-92.5 -14.5h-178zM252 412q24 0 45 8t36.5 23t25 36t9.5 46 q0 47 -32 76.5t-83 29.5h-103v-219h102zM276 81q68 0 107.5 32t39.5 95q0 30 -11.5 53.5t-31.5 40t-47 25.5t-59 9h-124v-255h126z" glyph-name="Beta" horiz-adv-x="548" unicode="Β"/><glyph d="M105 -6q-21 0 -32.5 14t-11.5 37v623q0 19 13 31.5t31 12.5h287q18 0 31 -11.5t13 -29.5t-13 -29.5t-31 -11.5h-242v-585q0 -23 -11.5 -37t-33.5 -14z" glyph-name="Gamma" horiz-adv-x="433" unicode="Γ"/><glyph d="M51 0q-19 0 -29.5 11t-10.5 29q0 10 4 21l7 20l224 578q13 33 29 47t40 14q23 0 39 -14t29 -47l223 -578l7 -20t4 -21q0 -18 -10.5 -29t-29.5 -11h-526zM513 82l-197 525h-2l-199 -525h398z" glyph-name="uni0394" horiz-adv-x="628" unicode="Δ"/><glyph d="M109 0q-23 0 -35.5 12.5t-12.5 32.5v623q0 20 12.5 32t35.5 12h243q18 0 31 -11.5t13 -29.5t-13 -29.5t-31 -11.5h-201v-233h191q18 0 31 -11t13 -30q0 -20 -12.5 -30.5t-31.5 -10.5h-192v-233h211q19 0 32 -11.5t13 -29.5t-13 -29.5t-31 -11.5h-253z" glyph-name="Epsilon" horiz-adv-x="448" unicode="Ε"/><glyph d="M91 0q-32 0 -49.5 13t-17.5 36q0 13 8.5 29.5t21.5 35.5l347 517h-314q-23 0 -36 11.5t-13 29.5q0 17 13 28.5t32 11.5h395q22 0 33 -11t11 -26q0 -19 -21 -49l-364 -544h354q19 0 32 -11.5t13 -29.5t-13 -29.5t-32 -11.5h-400z" glyph-name="Zeta" horiz-adv-x="560" unicode="Ζ"/><glyph d="M105 -6q-21 0 -32.5 14t-11.5 37v622q0 23 11.5 37t32.5 14q22 0 33.5 -14t11.5 -37v-261h374v261q0 23 11.5 37t33.5 14q21 0 32.5 -14t11.5 -37v-622q0 -23 -11.5 -37t-32.5 -14q-22 0 -33.5 14t-11.5 37v279h-374v-279q0 -23 -11.5 -37t-33.5 -14z" glyph-name="Eta" horiz-adv-x="674" unicode="Η"/><glyph d="M347 -8q-72 0 -129.5 28t-98 77t-62 115t-21.5 142q0 81 23 148.5t64 116t98 75t126 26.5q72 0 130 -28.5t98.5 -77.5t62 -115.5t21.5 -142.5t-21.5 -142.5t-62 -116t-98.5 -77.5t-130 -28zM350 74q51 0 90.5 22t66.5 60t41 89t14 109q0 61 -14 113t-41 90t-67.5 59.5 t-93.5 21.5q-50 0 -89.5 -20.5t-67 -58t-42 -89t-14.5 -114.5q0 -56 13 -107t39.5 -90t67.5 -62t97 -23zM238 316q-17 0 -29.5 11t-12.5 29t12.5 28.5t29.5 10.5h219q17 0 29.5 -10.5t12.5 -28.5t-12.5 -29t-29.5 -11h-219z" glyph-name="Theta" horiz-adv-x="695" unicode="Θ"/><glyph d="M105 -6q-21 0 -32.5 14t-11.5 37v622q0 23 11.5 37t32.5 14q22 0 33.5 -14t11.5 -37v-622q0 -23 -11.5 -37t-33.5 -14z" glyph-name="Iota" horiz-adv-x="211" unicode="Ι"/><glyph d="M105 -6q-21 0 -32.5 14t-11.5 37v622q0 23 11.5 37t32.5 14q22 0 33.5 -14t11.5 -37v-255l290 268q15 15 29.5 26.5t31.5 11.5q18 0 29 -12t11 -27q0 -17 -10.5 -28t-37.5 -35l-260 -238l315 -306q19 -19 19 -38q0 -17 -11.5 -28.5t-30.5 -11.5q-12 0 -22.5 5t-31.5 27 l-321 314v-295q0 -23 -11.5 -37t-33.5 -14z" glyph-name="Kappa" horiz-adv-x="566" unicode="Κ"/><glyph d="M52 -6q-20 0 -30.5 10t-10.5 25q0 14 7 34.5t18 47.5l211 548q13 33 29 47t39 14t39.5 -14t28.5 -47l222 -576q4 -10 9 -25t5 -29q0 -15 -10.5 -25t-30.5 -10q-22 0 -31.5 11.5t-20.5 40.5l-209 558h-2l-211 -559q-11 -29 -21.5 -40t-30.5 -11z" glyph-name="Lambda" horiz-adv-x="630" unicode="Λ"/><glyph d="M73 -6q-20 0 -31 11.5t-11 29.5q0 5 2.5 24t9.5 57l82 535q9 67 79 67q29 0 44 -15.5t28 -57.5l143 -492h2l145 490q13 42 28.5 58.5t42.5 16.5q68 0 79 -65l89 -578q3 -16 4 -25.5t1 -14.5q0 -17 -11 -29t-31 -12q-24 0 -34 15t-15 41l-81 548h-2l-164 -550 q-11 -33 -22 -43.5t-30 -10.5q-22 0 -31.5 14t-15.5 33l-168 555h-2l-82 -547q-9 -55 -48 -55z" glyph-name="Mu" horiz-adv-x="841" unicode="Μ"/><glyph d="M105 -6q-21 0 -32.5 14t-11.5 37v625q0 22 12 35t32 13q18 0 29.5 -9t20.5 -20l366 -526h2v504q0 23 11.5 37t33.5 14q21 0 32.5 -14t11.5 -37v-623q0 -23 -10.5 -36.5t-32.5 -13.5q-17 0 -27.5 9.5t-21.5 24.5l-368 526h-2v-509q0 -23 -11.5 -37t-33.5 -14z" glyph-name="Nu" horiz-adv-x="673" unicode="Ν"/><glyph d="M88 630q-18 0 -31 11.5t-13 29.5t13 29.5t31 11.5h291q18 0 31 -11.5t13 -29.5t-13 -29.5t-31 -11.5h-291zM109 319q-19 0 -31.5 11t-12.5 30t13 30t32 11h248q18 0 31 -11t13 -30t-13 -30t-31 -11h-249zM80 0q-18 0 -31 11.5t-13 29.5t12.5 29.5t31.5 11.5h308 q18 0 31 -11.5t13 -29.5t-13 -29.5t-31 -11.5h-308z" glyph-name="Xi" horiz-adv-x="468" unicode="Ξ"/><glyph d="M347 -8q-72 0 -129.5 28t-98 77t-62 115t-21.5 142q0 81 23 148.5t64 116t98 75t126 26.5q72 0 130 -28.5t98.5 -77.5t62 -115.5t21.5 -142.5t-21.5 -142.5t-62 -116t-98.5 -77.5t-130 -28zM350 74q51 0 90.5 22t66.5 60t41 89t14 109q0 61 -14 113t-41 90t-67.5 59.5 t-93.5 21.5q-50 0 -89.5 -20.5t-67 -58t-42 -89t-14.5 -114.5q0 -56 13 -107t39.5 -90t67.5 -62t97 -23z" glyph-name="Omicron" horiz-adv-x="695" unicode="Ο"/><glyph d="M105 -6q-21 0 -32.5 14t-11.5 37v623q0 20 12.5 32t35.5 12h458q18 0 31 -12t13 -28v-627q0 -23 -11.5 -37t-32.5 -14q-22 0 -33.5 14t-11.5 37v585h-372v-585q0 -23 -11.5 -37t-33.5 -14z" glyph-name="Pi" horiz-adv-x="672" unicode="Π"/><glyph d="M105 -6q-21 0 -32.5 14t-11.5 37v623q0 19 12 31.5t37 12.5h181q50 0 91.5 -17t70.5 -46.5t45 -69.5t16 -85q0 -51 -16.5 -93.5t-47 -72.5t-73.5 -47t-97 -17h-130v-219q0 -23 -11.5 -37t-33.5 -14zM276 345q33 0 60 11t46.5 30t30 45t10.5 57q0 63 -40 103t-110 40h-123 v-286h126z" glyph-name="Rho" horiz-adv-x="529" unicode="Ρ"/><glyph d="M88 0q-32 0 -50 14t-18 37q0 16 8 31t23 32l208 251l-204 261q-11 15 -16 24.5t-5 21.5q0 16 11 28t33 12h383q19 0 32 -11.5t13 -28.5q0 -18 -13 -29.5t-36 -11.5h-293l175 -223q15 -18 15 -37t-17 -39l-206 -250h355q19 0 32 -11.5t13 -29.5t-13 -29.5t-32 -11.5h-398z" glyph-name="Sigma" horiz-adv-x="548" unicode="Σ"/><glyph d="M217 -6q-22 0 -33.5 14t-11.5 37v585h-131q-19 0 -32 11.5t-13 29.5t13 29.5t32 11.5h351q19 0 32 -11.5t13 -29.5t-13 -29.5t-32 -11.5h-131v-585q0 -23 -12 -37t-32 -14z" glyph-name="Tau" horiz-adv-x="433" unicode="Τ"/><glyph d="M246 -6q-21 0 -32.5 14t-11.5 37v291l-177 287q-13 19 -20.5 33.5t-7.5 25.5q0 15 11 25.5t31 10.5q23 0 34 -15t18 -26l155 -254l164 267q11 18 21.5 23t23.5 5q19 0 29.5 -10.5t10.5 -25.5q0 -21 -28 -60l-176 -286v-291q0 -23 -11.5 -37t-33.5 -14z" glyph-name="Upsilon" horiz-adv-x="493" unicode="Υ"/><glyph d="M377 -21q-20 0 -32 13t-12 42v33q-72 6 -130 29t-98.5 60.5t-62 88t-21.5 112.5t22 112.5t62.5 87.5t98.5 60t129 29v34q0 26 12 40t32 14q44 0 44 -54v-34q74 -7 132 -30t98 -60.5t61 -88t21 -110.5q0 -61 -21 -111.5t-61.5 -88t-98 -61t-131.5 -29.5v-33q0 -29 -12 -42 t-32 -13zM333 562q-106 -11 -160.5 -63.5t-54.5 -141.5q0 -92 56 -144t159 -62v411zM421 151q106 11 160.5 63.5t54.5 142.5q0 91 -55.5 143t-159.5 62v-411z" glyph-name="Phi" horiz-adv-x="754" unicode="Φ"/><glyph d="M52 -6q-18 0 -30 11t-12 27q0 9 3.5 18t19.5 31l215 301l-182 257q-5 7 -11.5 19t-6.5 23q0 15 12.5 26t31.5 11q15 0 24 -7t19 -21l164 -236l161 233q13 19 22.5 25t23.5 6q17 0 30 -11t13 -26q0 -11 -4.5 -20t-11.5 -19l-183 -260l219 -308q8 -11 13.5 -20.5t5.5 -21.5 q0 -16 -12.5 -27t-30.5 -11q-14 0 -23.5 6.5t-21.5 23.5l-201 285l-201 -285q-13 -17 -22 -23.5t-24 -6.5z" glyph-name="Chi" horiz-adv-x="597" unicode="Χ"/><glyph d="M373 -6q-21 0 -32.5 14t-11.5 37v104q-60 6 -111.5 29.5t-89 62.5t-59 94t-21.5 124v208q0 23 11.5 37t32.5 14q22 0 33.5 -14t11.5 -37v-201q0 -54 15 -95.5t41.5 -70t61.5 -45t74 -22.5v434q0 23 11.5 37t32.5 14q22 0 33.5 -14t11.5 -37v-435q39 6 74 23t61.5 46 t41.5 70t15 95v201q0 23 11.5 37t33.5 14q21 0 32.5 -14t11.5 -37v-208q0 -72 -22.5 -127t-61 -94t-89.5 -61.5t-108 -28.5v-103q0 -23 -11.5 -37t-33.5 -14z" glyph-name="Psi" horiz-adv-x="747" unicode="Ψ"/><glyph d="M86 0q-19 0 -33 10.5t-14 30.5t14.5 30t32.5 10h88v3q-63 53 -97.5 133.5t-34.5 167.5q0 79 24.5 141.5t67 105.5t101.5 65.5t128 22.5q71 0 130 -21t101.5 -62.5t66 -102.5t23.5 -141q0 -88 -33 -171t-99 -138v-3h86q20 0 34.5 -10t14.5 -30t-14.5 -30.5t-34.5 -10.5 h-176q-41 0 -41 38q0 13 7 23t16 17q32 24 57.5 57.5t43.5 72.5t27.5 81.5t9.5 84.5q0 130 -59.5 197t-159.5 67q-51 0 -91.5 -18t-68.5 -51.5t-43 -81t-15 -106.5q0 -43 10 -87t28 -84t43 -74t56 -58q8 -7 16 -17t8 -23q0 -38 -42 -38h-178z" glyph-name="uni03A9" horiz-adv-x="726" unicode="Ω"/><glyph d="M11 756q-23 0 -38.5 16t-15.5 39t15.5 38.5t38.5 15.5t39 -15.5t16 -38.5t-16 -39t-39 -16zM200 756q-23 0 -39 16t-16 39t16 38.5t39 15.5q22 0 38 -15.5t16 -38.5t-15.5 -39t-38.5 -16zM105 -6q-21 0 -32.5 14t-11.5 37v622q0 23 11.5 37t32.5 14q22 0 33.5 -14 t11.5 -37v-622q0 -23 -11.5 -37t-33.5 -14z" glyph-name="Iotadieresis" horiz-adv-x="211" unicode="Ϊ"/><glyph d="M152 756q-23 0 -38.5 16t-15.5 39t15.5 38.5t38.5 15.5t39 -15.5t16 -38.5t-16 -39t-39 -16zM340 756q-23 0 -38.5 16t-15.5 39t15.5 38.5t38.5 15.5t39 -15.5t16 -38.5t-16 -39t-39 -16zM246 -6q-21 0 -32.5 14t-11.5 37v291l-177 287q-13 19 -20.5 33.5t-7.5 25.5 q0 15 11 25.5t31 10.5q23 0 34 -15t18 -26l155 -254l164 267q11 18 21.5 23t23.5 5q19 0 29.5 -10.5t10.5 -25.5q0 -21 -28 -60l-176 -286v-291q0 -23 -11.5 -37t-33.5 -14z" glyph-name="Upsilondieresis" horiz-adv-x="493" unicode="Ϋ"/><glyph d="M292 599q-19 0 -31 10.5t-12 24.5q0 11 6 26l36 101q6 16 15 26.5t24 10.5q16 0 29.5 -9.5t13.5 -26.5q0 -5 -1 -11t-4 -14l-36 -100q-6 -17 -15 -27.5t-25 -10.5zM266 -8q-54 0 -97 20.5t-73 56.5t-46 86.5t-16 110.5q0 57 16.5 107t46.5 87t72.5 58.5t94.5 21.5 q47 0 82 -19t64 -57h3v28q3 46 43 46q21 0 32.5 -14.5t11.5 -35.5v-307q0 -31 5.5 -54.5t20.5 -50.5l6 -10q8 -15 8 -29q0 -18 -13.5 -30.5t-32.5 -12.5q-27 0 -43 28l-7 10q-8 13 -13 24.5t-8 25.5h-2q-37 -56 -76.5 -73t-78.5 -17zM270 69q35 0 61.5 15t44.5 41t27 62.5 t9 78.5t-9 78t-27 62.5t-45 41.5t-62 15q-33 0 -59.5 -15.5t-45 -42t-28 -62.5t-9.5 -77q0 -42 9.5 -78.5t28 -62.5t45 -41t60.5 -15z" glyph-name="alphatonos" horiz-adv-x="571" unicode="ά"/><glyph d="M253 599q-19 0 -31 10.5t-12 24.5q0 11 6 26l35 101q6 16 15.5 26.5t24.5 10.5t29 -9.5t14 -26.5q0 -8 -6 -25l-35 -100q-6 -17 -15.5 -27.5t-24.5 -10.5zM249 -8q-108 0 -162.5 45t-54.5 113q0 48 35 82.5t95 47.5v2q-46 17 -71 46t-25 74q0 61 48 99.5t135 38.5 q43 0 81 -9t64 -23q20 -11 32 -24.5t12 -27.5q0 -15 -11 -26.5t-29 -11.5q-10 0 -20.5 6l-25.5 14q-17 11 -41.5 19t-59.5 8q-48 0 -71.5 -20.5t-23.5 -54.5q0 -41 37.5 -57.5t109.5 -17.5q25 0 37 -11t12 -26q0 -18 -12 -28.5t-33 -10.5q-26 0 -58 -2t-60.5 -10.5 t-47.5 -25.5t-19 -48q0 -40 31.5 -63t95.5 -23q42 0 77.5 13t58.5 30q11 8 20.5 13t20.5 5q16 0 27.5 -13t11.5 -31q0 -21 -34 -43q-29 -20 -75.5 -34.5t-106.5 -14.5z" glyph-name="epsilontonos" horiz-adv-x="482" unicode="έ"/><glyph d="M283 599q-19 0 -31 10.5t-12 24.5q0 9 5 26l36 101q6 16 15.5 26.5t24.5 10.5t29 -9.5t14 -26.5q0 -8 -6 -25l-36 -100q-6 -17 -15 -27.5t-24 -10.5zM451 -217q-20 0 -32 14t-12 36v513q0 51 -32.5 83t-88.5 32q-27 0 -49.5 -9.5t-38.5 -27t-25 -40.5t-9 -50v-289 q0 -23 -11.5 -37t-32.5 -14t-32.5 14t-11.5 37v316q0 35 -9 57t-20 45l-4 7q-7 14 -7 27q0 17 11.5 29t30.5 12q11 0 23 -6.5t20 -20.5l6 -10q7 -12 12.5 -24t10.5 -27h2q24 46 64 68t88 22q41 0 76 -13.5t60.5 -38.5t40 -58.5t14.5 -74.5v-522q0 -22 -11.5 -36t-32.5 -14z" glyph-name="etatonos" horiz-adv-x="555" unicode="ή"/><glyph d="M109 599q-19 0 -31 10.5t-12 24.5q0 11 6 26l35 101q6 16 15.5 26.5t24.5 10.5t29 -9.5t14 -26.5q0 -8 -6 -25l-35 -100q-6 -17 -15.5 -27.5t-24.5 -10.5zM141 -6q-28 0 -44 28l-6 10q-12 20 -22.5 51.5t-10.5 76.5v327q0 23 12 37t32 14q21 0 32.5 -14t11.5 -37v-306 q0 -31 5.5 -54.5t20.5 -50.5l6 -10q9 -16 9 -29q0 -19 -14 -31t-32 -12z" glyph-name="iotatonos" horiz-adv-x="240" unicode="ί"/><glyph d="M268 691q-15 0 -30 10.5t-13 25.5q1 5 2 11t4 14l36 101q6 17 15 27t24 10q16 0 29.5 -10.5t13.5 -25.5q0 -11 -5 -24l-36 -101q-6 -17 -15.5 -27.5t-24.5 -10.5zM171 575q-23 0 -38.5 15.5t-15.5 38.5t15.5 39t38.5 16t39 -16t16 -39t-16 -38.5t-39 -15.5zM359 575 q-23 0 -38.5 15.5t-15.5 38.5t15.5 39t38.5 16t39 -16t16 -39t-16 -38.5t-39 -15.5zM263 -8q-91 0 -147 63t-56 195v238q0 22 11.5 36t32.5 14t32.5 -14t11.5 -36v-218q0 -55 8.5 -93.5t24 -62.5t36.5 -35t46 -11q77 0 113.5 61t36.5 182q0 36 -5.5 65.5t-12 52.5t-12 40 t-5.5 28q0 17 12.5 29.5t32.5 12.5q17 0 27 -9.5t17 -25.5q14 -31 26.5 -84t12.5 -113q0 -74 -18 -132.5t-50 -99t-77 -62t-98 -21.5z" glyph-name="upsilondieresistonos" horiz-adv-x="542" unicode="ΰ"/><glyph d="M266 -8q-54 0 -97 20.5t-73 56.5t-46 86.5t-16 110.5q0 57 16.5 107t46.5 87t72.5 58.5t94.5 21.5q47 0 82 -19t64 -57h3v28q3 46 43 46q21 0 32.5 -14.5t11.5 -35.5v-307q0 -31 5.5 -54.5t20.5 -50.5l6 -10q8 -15 8 -29q0 -18 -13.5 -30.5t-32.5 -12.5q-27 0 -43 28 l-7 10q-8 13 -13 24.5t-8 25.5h-2q-37 -56 -76.5 -73t-78.5 -17zM270 69q35 0 61.5 15t44.5 41t27 62.5t9 78.5t-9 78t-27 62.5t-45 41.5t-62 15q-33 0 -59.5 -15.5t-45 -42t-28 -62.5t-9.5 -77q0 -42 9.5 -78.5t28 -62.5t45 -41t60.5 -15z" glyph-name="alpha" horiz-adv-x="571" unicode="α"/><glyph d="M104 -217q-21 0 -32.5 13.5t-11.5 36.5v732q0 46 14 84t40 65.5t62.5 42.5t81.5 15q42 0 78.5 -12t63 -34.5t41.5 -56t15 -75.5q0 -66 -31.5 -108.5t-88.5 -65.5v-3q88 -25 128 -78.5t40 -130.5q0 -51 -16 -91.5t-44 -68t-67 -42t-84 -14.5q-95 0 -143 57h-2v-216 q0 -23 -11.5 -36.5t-32.5 -13.5zM280 67q59 0 94.5 40t35.5 108q0 74 -42 110.5t-117 44.5q-19 2 -31.5 10t-12.5 30q0 18 11.5 28t28.5 14q24 5 45.5 14.5t38.5 25.5t27 38.5t10 53.5q0 48 -29.5 77t-81.5 29q-54 0 -81.5 -36t-27.5 -99v-305q0 -95 36 -139t96 -44z" glyph-name="beta" horiz-adv-x="550" unicode="β"/><glyph d="M232 -217q-20 0 -32 13.5t-12 36.5v195l-106 309q-11 31 -26 62t-40 52l-10 9q-16 15 -16 33q0 16 12.5 30.5t31.5 14.5t36 -17l10 -10q20 -18 40.5 -52.5t39.5 -91.5l87 -257h1q26 40 48 90t38 101.5t25 100t9 85.5q0 23 12 37t32 14q21 0 32.5 -14t11.5 -37 q0 -57 -15 -121.5t-40 -128.5t-57.5 -123.5t-67.5 -106.5v-174q0 -23 -11.5 -36.5t-32.5 -13.5z" glyph-name="gamma" horiz-adv-x="477" unicode="γ"/><glyph d="M256 -8q-54 0 -96 17t-70.5 48.5t-43 75.5t-14.5 98q0 81 43 141t118 106q-33 25 -55 57.5t-22 83.5q0 69 48 111t132 42q41 0 75 -7.5t57 -20.5q17 -9 26.5 -21t9.5 -26q0 -19 -10 -32t-32 -13q-9 0 -18.5 3.5t-20.5 8.5q-17 9 -38.5 17.5t-51.5 8.5q-40 0 -62 -17 t-22 -50q0 -34 22 -58.5t54.5 -46l70.5 -44.5t70.5 -55t54.5 -77t22 -110q0 -56 -17.5 -100.5t-50 -75.5t-78 -47.5t-101.5 -16.5zM257 68q32 0 59.5 10t48.5 30t33 49.5t12 68.5q0 44 -13.5 76t-36 56.5t-50.5 43l-57 36.5q-66 -42 -97.5 -94.5t-31.5 -108.5 q0 -81 33.5 -124t99.5 -43z" glyph-name="delta" horiz-adv-x="534" unicode="δ"/><glyph d="M249 -8q-108 0 -162.5 45t-54.5 113q0 48 35 82.5t95 47.5v2q-46 17 -71 46t-25 74q0 61 48 99.5t135 38.5q43 0 81 -9t64 -23q20 -11 32 -24.5t12 -27.5q0 -15 -11 -26.5t-29 -11.5q-10 0 -20.5 6l-25.5 14q-17 11 -41.5 19t-59.5 8q-48 0 -71.5 -20.5t-23.5 -54.5 q0 -41 37.5 -57.5t109.5 -17.5q25 0 37 -11t12 -26q0 -18 -12 -28.5t-33 -10.5q-26 0 -58 -2t-60.5 -10.5t-47.5 -25.5t-19 -48q0 -40 31.5 -63t95.5 -23q42 0 77.5 13t58.5 30q11 8 20.5 13t20.5 5q16 0 27.5 -13t11.5 -31q0 -21 -34 -43q-29 -20 -75.5 -34.5t-106.5 -14.5 z" glyph-name="epsilon" horiz-adv-x="482" unicode="ε"/><glyph d="M370 -155q-21 0 -32 14t-11 37v105q-65 4 -118 21.5t-91 51t-58.5 83t-20.5 117.5q0 63 19 118.5t53 106.5t80.5 98t100.5 93v2h-141q-20 0 -33.5 10t-13.5 30t14 30t31 10h245q20 0 32 -8.5t12 -25.5q0 -15 -6.5 -24.5t-18.5 -19.5q-62 -51 -113.5 -99t-88.5 -97.5 t-57.5 -101.5t-20.5 -111t16 -98.5t47 -63t75 -33.5t99 -10q20 0 31.5 -11.5t11.5 -27.5v-141q0 -55 -43 -55z" glyph-name="zeta" horiz-adv-x="446" unicode="ζ"/><glyph d="M451 -217q-20 0 -32 14t-12 36v513q0 51 -32.5 83t-88.5 32q-27 0 -49.5 -9.5t-38.5 -27t-25 -40.5t-9 -50v-289q0 -23 -11.5 -37t-32.5 -14t-32.5 14t-11.5 37v316q0 35 -9 57t-20 45l-4 7q-7 14 -7 27q0 17 11.5 29t30.5 12q11 0 23 -6.5t20 -20.5l6 -10 q7 -12 12.5 -24t10.5 -27h2q24 46 64 68t88 22q41 0 76 -13.5t60.5 -38.5t40 -58.5t14.5 -74.5v-522q0 -22 -11.5 -36t-32.5 -14z" glyph-name="eta" horiz-adv-x="555" unicode="η"/><glyph d="M256 -8q-60 0 -103 29t-70 81t-39.5 123.5t-12.5 156.5q0 81 12.5 152t39.5 124t70 83.5t103 30.5t102.5 -30.5t69.5 -83.5t39.5 -124t12.5 -152q0 -85 -12.5 -157t-39.5 -123.5t-69.5 -80.5t-102.5 -29zM387 419q-2 59 -9 109.5t-22.5 87.5t-40 58t-60.5 21 q-35 0 -59.5 -20.5t-40 -57t-22.5 -87t-9 -111.5h263zM256 69q36 0 60.5 21t40 58.5t22.5 88.5t8 112h-263q1 -61 8 -112t22.5 -88.5t40 -58.5t61.5 -21z" glyph-name="theta" horiz-adv-x="511" unicode="θ"/><glyph d="M141 -6q-28 0 -44 28l-6 10q-12 20 -22.5 51.5t-10.5 76.5v327q0 23 12 37t32 14q21 0 32.5 -14t11.5 -37v-306q0 -31 5.5 -54.5t20.5 -50.5l6 -10q9 -16 9 -29q0 -19 -14 -31t-32 -12z" glyph-name="iota" horiz-adv-x="240" unicode="ι"/><glyph d="M104 -6q-21 0 -32.5 14t-11.5 37v443q0 22 11.5 36t32.5 14t32.5 -14t11.5 -36v-165l97 100q33 38 73.5 67.5t78.5 42.5q14 6 29 6q17 0 29.5 -12t12.5 -32q0 -28 -38 -41q-38 -14 -70 -36.5t-57 -48.5l-94 -94l238 -189q12 -11 25 -24.5t13 -27.5q0 -16 -12 -27.5 t-28 -12.5q-6 0 -11.5 1t-13 5t-17.5 11t-26 20l-229 190v-176q0 -23 -11.5 -37t-32.5 -14z" glyph-name="kappa" horiz-adv-x="481" unicode="κ"/><glyph d="M49 -6q-16 0 -28.5 11.5t-12.5 29.5q0 6 2.5 14.5t10.5 25.5l199 450l-25 73q-11 31 -28.5 50t-52.5 41q-14 8 -19 17.5t-5 19.5q0 17 12 31.5t31 14.5q16 0 33 -11q32 -20 60 -49t46 -81l155 -449q13 -32 26 -54.5t37 -45.5l9 -8q19 -19 19 -36q0 -16 -13.5 -29.5 t-30.5 -13.5q-19 0 -36 15l-11 9q-21 19 -41.5 51t-35.5 76l-89 262h-2l-164 -376q-5 -14 -16.5 -26t-29.5 -12z" glyph-name="lambda" horiz-adv-x="512" unicode="λ"/><glyph d="M104 -217q-21 0 -32.5 14t-11.5 36v655q0 22 11.5 36t32.5 14t32.5 -14t11.5 -36v-292q0 -60 31.5 -94t89.5 -34q59 0 90.5 34t31.5 94v292q0 21 12 35.5t32 14.5q21 0 32.5 -14.5t11.5 -35.5v-314q0 -21 2.5 -35.5t6 -25.5t9 -21l11.5 -21l4 -8q8 -16 8 -27 q0 -17 -12 -29.5t-31 -12.5q-27 0 -43 26l-8 11q-4 7 -8 15t-7 18h-2q-32 -40 -69 -56t-74 -16q-35 0 -62.5 9t-53.5 35h-2v-203q0 -22 -11.5 -36t-32.5 -14z" glyph-name="uni03BC" horiz-adv-x="551" unicode="μ"/><glyph d="M219 -6q-17 0 -30 8.5t-19 25.5l-145 414l-11 32t-4 24q0 18 13 29t30 11q14 0 25 -8.5t19 -31.5l131 -389h1q26 40 48.5 90t38.5 101.5t25 100.5t9 86q0 23 12 37t32 14q21 0 32.5 -14t11.5 -37q0 -56 -14 -118t-37.5 -123t-53 -117.5t-60.5 -101.5q-11 -16 -24 -24.5 t-30 -8.5z" glyph-name="nu" horiz-adv-x="460" unicode="ν"/><glyph d="M380 -155q-21 0 -32 14t-11 37v105q-142 5 -220 53.5t-78 157.5q0 63 38.5 115t116.5 77v2q-45 14 -76 46.5t-31 91.5q0 53 31 88t82 58v2h-73q-20 0 -33.5 10t-13.5 30t14 30t31 10h268q21 0 33 -10t12 -27q0 -16 -8.5 -29t-28.5 -15q-107 -11 -166 -49t-59 -97 q0 -30 12 -50t34.5 -31t53.5 -15.5t69 -4.5q26 0 38 -11t12 -27q0 -18 -12 -28t-33 -11q-109 -1 -161.5 -41t-52.5 -106q0 -41 15.5 -68t46 -43t76.5 -22.5t106 -6.5q20 0 31.5 -11.5t11.5 -27.5v-141q0 -55 -43 -55z" glyph-name="xi" horiz-adv-x="458" unicode="ξ"/><glyph d="M270 -8q-55 0 -99 20.5t-74.5 57t-46.5 86.5t-16 110q0 57 16 106.5t46.5 87t74.5 59t99 21.5q56 0 99.5 -21.5t73.5 -58.5t46 -87t16 -107q0 -60 -16 -110.5t-46.5 -86.5t-74 -56.5t-98.5 -20.5zM270 69q34 0 60.5 15t45 41t28 62.5t9.5 78.5t-9.5 78t-27.5 62.5 t-45 41.5t-62 15q-33 0 -59.5 -14.5t-44.5 -40.5t-28 -62t-10 -79q0 -42 9.5 -78.5t27.5 -63t45 -41.5t61 -15z" glyph-name="omicron" unicode="ο"/><glyph d="M474 -6q-27 0 -43 28l-6 10q-13 20 -23 51.5t-10 76.5v291h-197v-407q0 -17 -12 -30.5t-35 -13.5t-34 13.5t-11 30.5v407h-43q-20 0 -33.5 10.5t-13.5 30.5t14.5 30t31.5 10h485q17 0 31.5 -10.5t14.5 -29.5t-13.5 -30t-35.5 -11h-61v-270q0 -31 5.5 -54.5t20.5 -50.5 l6 -10q8 -15 8 -29q0 -18 -13.5 -30.5t-32.5 -12.5z" glyph-name="pi" horiz-adv-x="595" unicode="π"/><glyph d="M97 -217q-21 0 -32.5 14t-11.5 36v433q0 57 14 107t41.5 87t69.5 58.5t99 21.5q54 0 98.5 -19.5t76 -55.5t49 -86t17.5 -112q0 -55 -14.5 -105t-43 -87.5t-70 -60t-96.5 -22.5q-46 0 -83.5 16.5t-66.5 55.5h-3v-231q0 -22 -11.5 -36t-32.5 -14zM288 69q35 0 60.5 15 t43 41.5t26 62.5t8.5 78t-10 78t-29 62.5t-47 41.5t-63 15q-33 0 -59 -14.5t-43 -41t-26 -62.5t-9 -79q0 -42 10.5 -78.5t29.5 -62.5t46.5 -41t61.5 -15z" glyph-name="rho" horiz-adv-x="553" unicode="ρ"/><glyph d="M353 -155q-21 0 -32 14t-11 37v106q-61 5 -112 27.5t-87.5 59.5t-56.5 88t-20 114q0 54 16.5 99.5t47 78.5t73.5 52t96 19q33 0 63 -5t51 -15q19 -9 30 -20.5t11 -25.5q0 -19 -10.5 -32t-31.5 -13q-8 0 -15.5 3t-18.5 8q-14 6 -33 12t-51 6q-33 0 -58 -12.5t-42 -34 t-26 -50.5t-9 -63q0 -107 61 -162.5t165 -55.5q20 0 31.5 -11.5t11.5 -27.5v-141q0 -55 -43 -55z" glyph-name="uni03C2" horiz-adv-x="447" unicode="ς"/><glyph d="M273 -8q-57 0 -101 20.5t-75 57t-47 86.5t-16 110q0 57 16 105.5t46 84.5t74 56t99 20h249q18 0 32 -10t14 -30t-13.5 -30.5t-33.5 -10.5h-95q42 -38 62.5 -90.5t20.5 -116.5q0 -56 -16 -102.5t-46 -79.5t-73 -51.5t-97 -18.5zM272 69q69 0 105 49.5t36 134.5 q0 36 -9 71.5t-27 63.5t-46 45.5t-66 17.5q-66 0 -102 -48.5t-36 -135.5q0 -42 9.5 -78t28.5 -63t46 -42t61 -15z" glyph-name="sigma" horiz-adv-x="565" unicode="σ"/><glyph d="M245 -6q-27 0 -43 28l-7 10q-12 20 -22 51.5t-10 76.5v291h-102q-22 0 -35.5 11t-13.5 30t14.5 29.5t31.5 10.5h307q17 0 31 -10.5t14 -29.5t-13 -30t-35 -11h-111v-270q0 -31 5.5 -54.5t20.5 -50.5l6 -10q8 -15 8 -29q0 -18 -13.5 -30.5t-32.5 -12.5z" glyph-name="tau" horiz-adv-x="422" unicode="τ"/><glyph d="M263 -8q-91 0 -147 63t-56 195v238q0 22 11.5 36t32.5 14t32.5 -14t11.5 -36v-218q0 -55 8.5 -93.5t24 -62.5t36.5 -35t46 -11q77 0 113.5 61t36.5 182q0 36 -5.5 65.5t-12 52.5t-12 40t-5.5 28q0 17 12.5 29.5t32.5 12.5q17 0 27 -9.5t17 -25.5q14 -31 26.5 -84 t12.5 -113q0 -74 -18 -132.5t-50 -99t-77 -62t-98 -21.5z" glyph-name="upsilon" horiz-adv-x="542" unicode="υ"/><glyph d="M334 -217q-20 0 -32 14t-12 36v159q-61 2 -108.5 22.5t-80.5 56t-50 85.5t-17 110t18 109.5t51 85.5t80.5 56.5t106.5 22.5v102q0 21 12 35.5t32 14.5q21 0 32.5 -14.5t11.5 -35.5v-102q60 -1 107.5 -22t80.5 -57t50.5 -85.5t17.5 -109.5q0 -59 -18 -108.5t-51 -85.5 t-80.5 -57t-106.5 -23v-159q0 -22 -11.5 -36t-32.5 -14zM290 463q-39 -1 -69 -16t-51 -41t-32 -62t-11 -78t11.5 -78t32.5 -62.5t51.5 -41.5t67.5 -15v394zM378 69q38 0 68 15t51 41.5t32.5 62.5t11.5 78t-11.5 78t-33 62.5t-51.5 41.5t-67 15v-394z" glyph-name="phi" horiz-adv-x="668" unicode="φ"/><glyph d="M46 -215q-16 0 -28 12t-12 29q0 7 3.5 15.5t13.5 25.5l167 309l-85 187q-15 32 -29.5 51t-42.5 36l-10 6q-26 16 -26 38q0 17 12.5 30.5t30.5 13.5q14 0 30 -9l12 -6q25 -14 50 -44.5t48 -80.5l60 -131l128 234q7 12 18 24.5t31 12.5q17 0 28.5 -11.5t11.5 -28.5 q0 -12 -6 -23.5t-14 -25.5l-152 -278l92 -199q15 -32 29.5 -54.5t39.5 -45.5l9 -8q11 -9 15 -18t4 -17q0 -17 -13 -30.5t-31 -13.5t-36 15l-10 8q-22 20 -42 52.5t-40 74.5l-66 146l-145 -265q-6 -11 -16.5 -21t-28.5 -10z" glyph-name="chi" horiz-adv-x="471" unicode="χ"/><glyph d="M337 -216q-21 0 -32.5 14t-11.5 37v159q-52 4 -95 24t-74 54.5t-47.5 83t-16.5 110.5v222q0 22 11.5 36t32.5 14t32 -14t11 -36v-202q0 -101 39.5 -154t106.5 -61v571q0 22 11.5 36t32.5 14t32 -14t11 -36v-569q153 30 153 238q0 36 -5.5 65t-11.5 52.5t-11.5 40.5 t-5.5 28q0 17 11.5 29.5t31.5 12.5q17 0 26.5 -10t16.5 -25q14 -31 27 -84t13 -113q0 -134 -65 -213.5t-180 -96.5v-162q0 -23 -11.5 -37t-31.5 -14z" glyph-name="psi" horiz-adv-x="662" unicode="ψ"/><glyph d="M219 -8q-45 0 -79.5 18.5t-57.5 51.5t-34.5 78t-11.5 97q0 40 8 79.5t20.5 76t29 68.5t34.5 56q16 22 38 22q16 0 29.5 -11.5t13.5 -29.5q0 -16 -13 -36q-28 -48 -47.5 -103.5t-19.5 -115.5q0 -35 5 -66.5t16 -55.5t29.5 -38.5t46.5 -14.5q43 0 68.5 45t25.5 152v65 q0 22 11.5 36t32.5 14t32.5 -14t11.5 -36v-65q0 -107 24.5 -152t66.5 -45q28 0 47 14.5t31 38.5t17 55.5t5 66.5q0 60 -19 115.5t-48 103.5q-12 18 -12 36q0 16 12.5 28.5t30.5 12.5q23 0 37 -22q18 -24 34.5 -56t29.5 -68.5t20.5 -76t7.5 -79.5q0 -52 -12 -97t-35.5 -78 t-58 -51.5t-80.5 -18.5q-42 0 -79 20.5t-63 75.5h-2q-20 -47 -56 -71.5t-87 -24.5z" glyph-name="omega" horiz-adv-x="728" unicode="ω"/><glyph d="M8 595q-23 0 -38.5 16t-15.5 39t15.5 38.5t38.5 15.5t39 -15.5t16 -38.5t-16 -39t-39 -16zM196 595q-23 0 -38.5 16t-15.5 39t15.5 38.5t38.5 15.5t39 -15.5t16 -38.5t-16 -39t-39 -16zM141 -6q-28 0 -44 28l-6 10q-12 20 -22.5 51.5t-10.5 76.5v327q0 23 12 37t32 14 q21 0 32.5 -14t11.5 -37v-306q0 -31 5.5 -54.5t20.5 -50.5l6 -10q9 -16 9 -29q0 -19 -14 -31t-32 -12z" glyph-name="iotadieresis" horiz-adv-x="240" unicode="ϊ"/><glyph d="M171 595q-23 0 -38.5 16t-15.5 39t15.5 38.5t38.5 15.5t39 -15.5t16 -38.5t-16 -39t-39 -16zM359 595q-23 0 -38.5 16t-15.5 39t15.5 38.5t38.5 15.5t39 -15.5t16 -38.5t-16 -39t-39 -16zM263 -8q-91 0 -147 63t-56 195v238q0 22 11.5 36t32.5 14t32.5 -14t11.5 -36v-218 q0 -55 8.5 -93.5t24 -62.5t36.5 -35t46 -11q77 0 113.5 61t36.5 182q0 36 -5.5 65.5t-12 52.5t-12 40t-5.5 28q0 17 12.5 29.5t32.5 12.5q17 0 27 -9.5t17 -25.5q14 -31 26.5 -84t12.5 -113q0 -74 -18 -132.5t-50 -99t-77 -62t-98 -21.5z" glyph-name="upsilondieresis" horiz-adv-x="542" unicode="ϋ"/><glyph d="M280 599q-19 0 -31 10.5t-12 24.5q0 11 6 26l36 101q6 16 15 26.5t24 10.5q16 0 29.5 -9.5t13.5 -26.5q0 -7 -5 -25l-36 -100q-6 -17 -15.5 -27.5t-24.5 -10.5zM270 -8q-55 0 -99 20.5t-74.5 57t-46.5 86.5t-16 110q0 57 16 106.5t46.5 87t74.5 59t99 21.5 q56 0 99.5 -21.5t73.5 -58.5t46 -87t16 -107q0 -60 -16 -110.5t-46.5 -86.5t-74 -56.5t-98.5 -20.5zM270 69q34 0 60.5 15t45 41t28 62.5t9.5 78.5t-9.5 78t-27.5 62.5t-45 41.5t-62 15q-33 0 -59.5 -14.5t-44.5 -40.5t-28 -62t-10 -79q0 -42 9.5 -78.5t27.5 -63t45 -41.5 t61 -15z" glyph-name="omicrontonos" unicode="ό"/><glyph d="M283 599q-20 0 -31.5 10.5t-11.5 24.5q0 5 1 11.5t4 14.5l36 101q6 16 15 26.5t25 10.5q15 0 29 -9.5t14 -26.5q0 -8 -6 -25l-36 -100q-6 -17 -15 -27.5t-24 -10.5zM263 -8q-91 0 -147 63t-56 195v238q0 22 11.5 36t32.5 14t32.5 -14t11.5 -36v-218q0 -55 8.5 -93.5 t24 -62.5t36.5 -35t46 -11q77 0 113.5 61t36.5 182q0 36 -5.5 65.5t-12 52.5t-12 40t-5.5 28q0 17 12.5 29.5t32.5 12.5q17 0 27 -9.5t17 -25.5q14 -31 26.5 -84t12.5 -113q0 -74 -18 -132.5t-50 -99t-77 -62t-98 -21.5z" glyph-name="upsilontonos" horiz-adv-x="542" unicode="ύ"/><glyph d="M373 599q-20 0 -31.5 10.5t-11.5 24.5q0 5 1 11.5t4 14.5l36 101q6 16 15.5 26.5t24.5 10.5t29 -9.5t14 -26.5q0 -8 -6 -25l-36 -100q-6 -17 -15 -27.5t-24 -10.5zM219 -8q-45 0 -79.5 18.5t-57.5 51.5t-34.5 78t-11.5 97q0 40 8 79.5t20.5 76t29 68.5t34.5 56 q16 22 38 22q16 0 29.5 -11.5t13.5 -29.5q0 -16 -13 -36q-28 -48 -47.5 -103.5t-19.5 -115.5q0 -35 5 -66.5t16 -55.5t29.5 -38.5t46.5 -14.5q43 0 68.5 45t25.5 152v65q0 22 11.5 36t32.5 14t32.5 -14t11.5 -36v-65q0 -107 24.5 -152t66.5 -45q28 0 47 14.5t31 38.5 t17 55.5t5 66.5q0 60 -19 115.5t-48 103.5q-12 18 -12 36q0 16 12.5 28.5t30.5 12.5q23 0 37 -22q18 -24 34.5 -56t29.5 -68.5t20.5 -76t7.5 -79.5q0 -52 -12 -97t-35.5 -78t-58 -51.5t-80.5 -18.5q-42 0 -79 20.5t-63 75.5h-2q-20 -47 -56 -71.5t-87 -24.5z" glyph-name="omegatonos" horiz-adv-x="728" unicode="ώ"/><glyph d="M300 761q-11 0 -30 8l-141 55q-11 5 -19.5 12.5t-8.5 23.5q0 14 9.5 27.5t26.5 13.5q14 0 26 -6l146 -57q26 -11 26 -36q0 -16 -10 -28.5t-25 -12.5zM109 0q-23 0 -35.5 12.5t-12.5 32.5v623q0 20 12.5 32t35.5 12h243q18 0 31 -11.5t13 -29.5t-13 -29.5t-31 -11.5h-201 v-233h191q18 0 31 -11t13 -30q0 -20 -12.5 -30.5t-31.5 -10.5h-192v-233h211q19 0 32 -11.5t13 -29.5t-13 -29.5t-31 -11.5h-253z" glyph-name="uni0400" horiz-adv-x="448" unicode="Ѐ"/><glyph d="M130 756q-23 0 -39 16t-16 39t16 38.5t39 15.5t38.5 -15.5t15.5 -38.5t-15.5 -39t-38.5 -16zM318 756q-23 0 -38.5 16t-15.5 39t15.5 38.5t38.5 15.5q22 0 38 -15.5t16 -38.5t-15.5 -39t-38.5 -16zM109 0q-23 0 -35.5 12.5t-12.5 32.5v623q0 20 12.5 32t35.5 12h243 q18 0 31 -11.5t13 -29.5t-13 -29.5t-31 -11.5h-201v-233h191q18 0 31 -11t13 -30q0 -20 -12.5 -30.5t-31.5 -10.5h-192v-233h211q19 0 32 -11.5t13 -29.5t-13 -29.5t-31 -11.5h-253z" glyph-name="uni0401" horiz-adv-x="448" unicode="Ё"/><glyph d="M215 -6q-21 0 -32.5 14t-11.5 37v585h-129q-19 0 -32 11.5t-13 29.5t12.5 29.5t32.5 11.5h397q19 0 32 -11.5t13 -29.5t-13 -29.5t-32 -11.5h-179v-183h127q115 0 181 -61t66 -168q0 -71 -33 -124.5t-80 -79.5q-35 -20 -71 -20q-56 0 -56 43q0 37 43 41q51 6 79.5 43 t28.5 93q0 78 -43 114.5t-129 36.5h-113v-320q0 -23 -12 -37t-33 -14z" glyph-name="uni0402" horiz-adv-x="668" unicode="Ђ"/></font>
</defs>
</svg>
