<svg xmlns="http://www.w3.org/2000/svg" xmlns:xlink="http://www.w3.org/1999/xlink" width="100" height="71" version="1.1" viewBox="0 0 100 71"><title>dark-box-left</title><desc>Created with Sketch.</desc><defs><rect id="path-1" width="100" height="70.04" x="0" y="0"/></defs><g id="Banner-Presets" fill="none" fill-rule="evenodd" stroke="none" stroke-width="1"><g id="dark-box-left"><mask id="mask-2" fill="#fff"><use xlink:href="#path-1"/></mask><use id="BG" fill="#00A0D2" xlink:href="#path-1"/><path id="Shape-Copy-6" fill="#FFF" d="M59.7063774,47.8283343 C59.7063774,47.8283343 64.7588801,42.8687512 65.8593965,36.1988669 C68.8212084,36.1988669 70.6505629,29.1079406 67.6887509,26.6136304 C67.8136116,23.9886519 71.4955504,6 52.8448464,6 C34.1941424,6 37.8760811,23.9886519 38.0009418,26.6136304 C35.0391299,29.1079406 36.8684843,36.1988669 39.8302963,36.1988669 C40.9308126,42.8687512 45.9862191,47.8283343 45.9862191,47.8283343 C45.9862191,47.8283343 45.9455668,52.5178699 44.2265544,52.7879175 C38.6862238,53.6619424 18,62.7070837 18,72.62625 L87.6896927,72.62625 C87.6896927,62.7070837 67.0034689,53.6619424 61.4660421,52.7879175 C59.7470297,52.5178699 59.7063774,47.8283343 59.7063774,47.8283343 Z" mask="url(#mask-2)" opacity=".151"/><rect id="Rectangle-47" width="42" height="43" x="13" y="13" fill="#000" mask="url(#mask-2)" opacity=".681"/><g id="Group" fill="#FFF" mask="url(#mask-2)"><g id="Rectangle-7" transform="translate(18.000000, 23.000000)"><rect width="15" height="5" x="9" y="19" opacity=".425"/><rect width="32" height="4" x="0" y="9"/><rect width="22" height="4" x="5" y="0"/></g></g></g></g></svg>